<svg id="fi_2387542" height="512" viewBox="0 0 128 128" width="512" xmlns="http://www.w3.org/2000/svg" data-name="Layer 1"><g opacity=".5"><path d="m124 51a13 13 0 0 0 -13-13h-18a12 12 0 0 1 -12-12 12 12 0 0 0 -12-12h-44a12 12 0 0 0 -12 12 12 12 0 0 0 12 12h4a13 13 0 0 1 13 13 13 13 0 0 1 -13 13h-12a13 13 0 0 0 -13 13 13 13 0 0 0 13 13h20a12 12 0 0 1 12 12 12 12 0 0 0 12 12h38a12 12 0 0 0 12-12 12 12 0 0 0 -12-12h-5a13 13 0 0 1 -13-13 13 13 0 0 1 13-13h17a13 13 0 0 0 13-13z" fill="#33aeff"></path><path d="m50 45.62a2.34 2.34 0 0 1 -2.3 2.38h-41.4a2.38 2.38 0 0 1 0-4.75h.7a5.43 5.43 0 0 1 0-.57 8.26 8.26 0 0 1 7.14-8.3 10.61 10.61 0 0 1 10.38-10.38 10.06 10.06 0 0 1 4 .84 10.73 10.73 0 0 1 6.08 7.16 7.66 7.66 0 0 1 3.2-.69 8.21 8.21 0 0 1 8.07 8.35 8.61 8.61 0 0 1 -.78 3.6h2.61a2.34 2.34 0 0 1 2.3 2.36z" fill="#fff"></path><path d="m50 45.62a2.34 2.34 0 0 1 -2.3 2.38h-22.33c5.83 0 8.39-2.09 8.45-5.63a3.87 3.87 0 0 0 -1.88-3.37 1 1 0 0 1 -.31-1.35c3.41-6.19-3.08-12.77-3.08-12.77a10.73 10.73 0 0 1 6.05 7.12 7.66 7.66 0 0 1 3.2-.69 7.89 7.89 0 0 1 6 2.76 8.49 8.49 0 0 1 2.08 5.59 8.61 8.61 0 0 1 -.78 3.6h2.6a2.34 2.34 0 0 1 2.3 2.36z" fill="#e9f2ff"></path><path d="m50 45.62a2.34 2.34 0 0 1 -2.3 2.38h-11.93a5.46 5.46 0 0 0 3.77-4.83 1 1 0 0 1 .83-.85c1.72-.23 5.53-1.49 3.42-8.26a8.49 8.49 0 0 1 2.08 5.59 8.61 8.61 0 0 1 -.78 3.6h2.61a2.34 2.34 0 0 1 2.3 2.37z" fill="#b9d7ff"></path><path d="m47.7 49h-41.4a3.38 3.38 0 0 1 -.3-6.74 9.25 9.25 0 0 1 7.19-8.73 11.37 11.37 0 0 1 22.09-2.85 8.88 8.88 0 0 1 2.57-.38 9.22 9.22 0 0 1 9.06 9.35 9.82 9.82 0 0 1 -.35 2.6h1.14a3.38 3.38 0 0 1 0 6.75zm-41.4-4.75a1.38 1.38 0 0 0 0 2.75h41.4a1.35 1.35 0 0 0 1.3-1.38 1.33 1.33 0 0 0 -1.3-1.37h-2.61a1 1 0 0 1 -.85-.46 1 1 0 0 1 -.06-1 7.55 7.55 0 0 0 .69-3.18 7.22 7.22 0 0 0 -7.06-7.35 6.78 6.78 0 0 0 -2.8.6 1 1 0 0 1 -.84 0 1 1 0 0 1 -.54-.65 9.53 9.53 0 0 0 -9.11-7.21 9.58 9.58 0 0 0 -9.43 9.42 1 1 0 0 1 -.88 1 7.24 7.24 0 0 0 -6.21 7.26v.5a1 1 0 0 1 -1 1.07z" fill="#353166"></path><path d="m18.72 31.67a1 1 0 0 1 -.27-1.39 7.35 7.35 0 0 1 6.07-3.28 1 1 0 0 1 0 2 5.37 5.37 0 0 0 -4.42 2.4 1 1 0 0 1 -1.38.27z" fill="#353166"></path><g fill="#fff"><circle cx="114" cy="47" r="1"></circle><circle cx="105" cy="54" r="1"></circle><circle cx="56" cy="20" r="1"></circle><circle cx="11" cy="79" r="1"></circle><circle cx="23" cy="21" r="1"></circle><path d="m124 28.62a2.34 2.34 0 0 1 -2.3 2.38h-41.4a2.38 2.38 0 0 1 0-4.75h.7a5.43 5.43 0 0 1 0-.57 8.26 8.26 0 0 1 7.14-8.3 10.61 10.61 0 0 1 10.38-10.38 10.06 10.06 0 0 1 4 .84 10.73 10.73 0 0 1 6 7.15 7.66 7.66 0 0 1 3.2-.69 8.21 8.21 0 0 1 8.07 8.35 8.61 8.61 0 0 1 -.78 3.6h2.61a2.34 2.34 0 0 1 2.38 2.37z"></path></g><path d="m124 28.62a2.34 2.34 0 0 1 -2.3 2.38h-22.33c5.83 0 8.39-2.09 8.45-5.63a3.87 3.87 0 0 0 -1.88-3.37 1 1 0 0 1 -.31-1.35c3.41-6.19-3.08-12.77-3.08-12.77a10.73 10.73 0 0 1 6 7.15 7.66 7.66 0 0 1 3.2-.69 7.89 7.89 0 0 1 6 2.76 8.49 8.49 0 0 1 2.08 5.59 8.61 8.61 0 0 1 -.78 3.6h2.61a2.34 2.34 0 0 1 2.34 2.33z" fill="#e9f2ff"></path><path d="m124 28.62a2.34 2.34 0 0 1 -2.3 2.38h-11.93a5.46 5.46 0 0 0 3.77-4.83 1 1 0 0 1 .83-.85c1.72-.23 5.53-1.49 3.42-8.26a8.49 8.49 0 0 1 2.08 5.59 8.61 8.61 0 0 1 -.78 3.6h2.61a2.34 2.34 0 0 1 2.3 2.37z" fill="#b9d7ff"></path><path d="m121.7 32h-41.4a3.38 3.38 0 0 1 -.3-6.74 9.25 9.25 0 0 1 7.19-8.73 11.37 11.37 0 0 1 22.09-2.85 8.88 8.88 0 0 1 2.57-.38 9.22 9.22 0 0 1 9.06 9.35 9.82 9.82 0 0 1 -.35 2.6h1.18a3.38 3.38 0 0 1 0 6.75zm-41.4-4.75a1.38 1.38 0 0 0 0 2.75h41.4a1.35 1.35 0 0 0 1.3-1.38 1.33 1.33 0 0 0 -1.3-1.37h-2.61a1 1 0 0 1 -.85-.46 1 1 0 0 1 -.06-1 7.55 7.55 0 0 0 .69-3.18 7.22 7.22 0 0 0 -7.06-7.35 6.78 6.78 0 0 0 -2.8.6 1 1 0 0 1 -.84 0 1 1 0 0 1 -.54-.65 9.4 9.4 0 0 0 -18.54 2.18 1 1 0 0 1 -.88 1 7.24 7.24 0 0 0 -6.21 7.29v.5a1 1 0 0 1 -1 1.07z" fill="#353166"></path><path d="m92.72 14.67a1 1 0 0 1 -.27-1.39 7.35 7.35 0 0 1 6.07-3.28 1 1 0 0 1 0 2 5.37 5.37 0 0 0 -4.42 2.4 1 1 0 0 1 -1.38.27z" fill="#353166"></path></g><path d="m41 120h46a2 2 0 0 1 2 2v2a0 0 0 0 1 0 0h-50a0 0 0 0 1 0 0v-2a2 2 0 0 1 2-2z" fill="#c63"></path><path d="m59 114h10v6h-10z" fill="#c63"></path><path d="m61 4h6v110h-6z" fill="#c63" transform="matrix(.966 -.259 .259 .966 -13.09 18.57)"></path><path d="m75.32 113.83a1 1 0 0 1 -1-.74l-28.4-106.09a1 1 0 1 1 1.93-.51l28.44 106.09a1 1 0 0 1 -.71 1.22z" fill="#353166"></path><path d="m81.11 112.29a1 1 0 0 1 -1-.75l-28.4-106.12a1 1 0 0 1 1.94-.51l28.43 106.09a1 1 0 0 1 -.71 1.22 1.09 1.09 0 0 1 -.26.07z" fill="#353166"></path><circle cx="64" cy="59" fill="#addfff" r="50"></circle><circle cx="65.69" cy="56.51" fill="#33aeff" r="47"></circle><circle cx="70" cy="55" fill="#2e9ee8" r="38"></circle><path d="m95.81 97.57a50 50 0 0 1 -42.5 10.28l3.79-3.28-4-4-.45-10.75 1.35-2.72 4.48-1.79 2.39-7.31 7.87.61 7.62 2.68 7.64 6.71h4v6.27z" fill="#9ce657"></path><path d="m95.81 97.57-7.81-3.3v-6.27h-4l-7.61-6.72-7.65-2.68-3.08-.24-1.66 11.64 5 5-3 6 6 3v4.35a49.8 49.8 0 0 0 23.81-10.78z" fill="#8fd64d"></path><path d="m89.16 28 4 9-5.82 1.34-3.58 5.83-7.17 1.34-1.31 3.49-6.28 1-1.34 7.1-3.13 2.24-.9-3.58.9-2.24-1.35-2.69-11.18-3.58-5.38 4-.89 6.27h7.61l3.58 2.69-3.58 3.58 3.58 2.69-.92 9.43h-1.33l-3.13-2.68-.45-4.93-4.48-3.13-1.34-4-2.69-.89-3.58-5.41.9-4.48v-22.84l4.1-7.55 10-2 2.13-8.38a50 50 0 0 1 44.71 15.59l-7.84-1.21-7-5-9.38 5 3.58 5.38 4.8-4.38z" fill="#ffdc7b"></path><path d="m93 24 7.84 1.21a50 50 0 0 0 -17.79-12.43l-19.05 7.22v7l6 5-3 13-19-4-8.1 6.75v2.64l-.9 4.48 3.58 5.37 2.69.89 1.34 4 4.48 3.13.45 4.93 3.13 2.68h1.33l.89-9.4-3.58-2.69 3.58-3.58-3.58-2.69h-7.59l.89-6.27 5.38-4 11.19 3.58 1.35 2.69-.9 2.24.9 3.58 3.13-2.24 1.34-7.09 6.28-1 1.34-3.58 7.17-1.34 3.58-5.83 5.82-1.25-4-9-4.19-3-4.8 4.34-3.58-5.34 9.38-5z" fill="#9ce657"></path><g fill="#353166"><path d="m56 76.91h-1.33a1 1 0 0 1 -.65-.24l-3.13-2.67a1 1 0 0 1 -.35-.67l-.4-4.47-4.14-2.86a1 1 0 0 1 -.38-.51l-1.18-3.56-2.21-.73a1 1 0 0 1 -.52-.4l-3.58-5.37a1 1 0 0 1 -.15-.75l.88-4.38v-22.75a1 1 0 0 1 .12-.48l4.1-7.55a1 1 0 0 1 .68-.5l9.39-1.88 2-7.77a1 1 0 0 1 1.94.5l-2.09 8.38a1 1 0 0 1 -.77.73l-9.54 1.91-3.79 6.91v22.59a1.36 1.36 0 0 1 0 .2l-.82 4.07 3.16 4.74 2.36.78a1 1 0 0 1 .64.63l1.24 3.73 4.2 2.94a1 1 0 0 1 .43.73l.41 4.52 2.61 2.18.73-7.91-3.13-2.35a1 1 0 0 1 -.4-.73 1 1 0 0 1 .29-.78l2.77-2.76-2.39-1.83h-7.28a1 1 0 0 1 -.76-.34 1 1 0 0 1 -.23-.8l.89-6.27a1 1 0 0 1 .39-.66l5.38-4a1 1 0 0 1 .9-.15l11.19 3.58a1 1 0 0 1 .59.5l1.35 2.69a1 1 0 0 1 0 .82l-.78 1.94.46 1.84 1.61-1.15 1.29-6.74a1 1 0 0 1 .83-.8l5.7-.87 1.13-3a1 1 0 0 1 .76-.63l6.73-1.26 3.35-5.45a1 1 0 0 1 .63-.45l4.63-1.07-3.42-7.6-3.29-2.37-4.2 3.8a1 1 0 0 1 -1.5-.19l-3.58-5.38a1 1 0 0 1 .36-1.43l9.38-5a1 1 0 0 1 1 .07l6.81 4.86 7.6 1.17a1 1 0 0 1 -.3 2l-7.77-1.21a1.09 1.09 0 0 1 -.43-.18l-6.5-4.64-7.85 4.16 2.32 3.49 3.94-3.56a1 1 0 0 1 1.25-.07l4.16 3a.92.92 0 0 1 .33.4l4 9a1 1 0 0 1 -.68 1.38l-5.39 1.19-3.36 5.47a1 1 0 0 1 -.67.46l-6.61 1.24-1.14 3a1 1 0 0 1 -.79.64l-5.58.85-1.21 6.41a1 1 0 0 1 -.4.62l-3.13 2.24a1 1 0 0 1 -.92.13 1 1 0 0 1 -.63-.7l-.9-3.53a1 1 0 0 1 0-.61l.73-1.82-1-1.92-10.21-3.29-4.64 3.47-.67 4.72h6.46a1 1 0 0 1 .6.2l3.58 2.69a1 1 0 0 1 .4.73 1 1 0 0 1 -.29.78l-2.77 2.76 2.66 2a1 1 0 0 1 .4.89l-.91 9.4a1 1 0 0 1 -1 .91z"></path><path d="m53.31 108.85a1 1 0 0 1 -.65-1.76l3-2.57-3.27-3.27a1.05 1.05 0 0 1 -.29-.67l-.45-10.75a1.05 1.05 0 0 1 .1-.49l1.34-2.69a1 1 0 0 1 .53-.48l4-1.62 2.28-6.87a1 1 0 0 1 1.1-.68l7.87.61a1.14 1.14 0 0 1 .25.06l7.62 2.68a.84.84 0 0 1 .33.19l7.28 6.46h3.65a1 1 0 0 1 1 1v5.61l7.2 3a1 1 0 0 1 -.78 1.84l-7.81-3.3a1 1 0 0 1 -.61-.92v-5.23h-3a1 1 0 0 1 -.66-.25l-7.47-6.59-7.31-2.57-7-.54-2.18 6.57a1 1 0 0 1 -.58.62l-4.12 1.65-1.05 2.11.42 10.1 3.76 3.75a1 1 0 0 1 -.06 1.47l-3.75 3.29a1 1 0 0 1 -.69.24z"></path><path d="m64 110a51 51 0 1 1 51-51 51.06 51.06 0 0 1 -51 51zm0-100a49 49 0 1 0 49 49 49.05 49.05 0 0 0 -49-49z"></path><path d="m64 115a56.2 56.2 0 0 1 -15.29-2.11 1 1 0 1 1 .55-1.93 54 54 0 1 0 -10.86-99.52 1 1 0 1 1 -.95-1.76 56 56 0 1 1 26.55 105.32z"></path><path d="m89 125h-50a1 1 0 0 1 -1-1v-2a3 3 0 0 1 3-3h46a3 3 0 0 1 3 3v2a1 1 0 0 1 -1 1zm-49-2h48v-1a1 1 0 0 0 -1-1h-46a1 1 0 0 0 -1 1z"></path><path d="m69 121h-10a1 1 0 0 1 -1-1v-6a1 1 0 0 1 1-1h10a1 1 0 0 1 1 1v6a1 1 0 0 1 -1 1zm-9-2h8v-4h-8z"></path></g><path d="m96 78c0 9.5-11 19-11 19s-11-9.5-11-19a11 11 0 0 1 22 0z" fill="#ff5948"></path><path d="m96 78a11 11 0 0 0 -11-11v30s11-9.5 11-19z" fill="#e84b3a"></path><path d="m85 98a1 1 0 0 1 -.65-.24c-.47-.4-11.35-9.92-11.35-19.76a12 12 0 0 1 24 0c0 9.84-10.88 19.36-11.35 19.76a1 1 0 0 1 -.65.24zm0-30a10 10 0 0 0 -10 10c0 7.62 7.68 15.45 10 17.64 2.32-2.19 10-10 10-17.64a10 10 0 0 0 -10-10z" fill="#353166"></path><circle cx="85" cy="77.25" fill="#31ddf4" r="5"></circle><path d="m85 72.25a4.94 4.94 0 0 0 -2 .42 5 5 0 0 1 0 9.16 4.94 4.94 0 0 0 2 .42 5 5 0 0 0 0-10z" fill="#36c8e3"></path><path d="m85 83.25a6 6 0 1 1 6-6 6 6 0 0 1 -6 6zm0-10a4 4 0 1 0 4 4 4 4 0 0 0 -4-4z" fill="#353166"></path><path d="m85 89a1 1 0 0 1 -1-1v-5.5a1 1 0 0 1 2 0v5.5a1 1 0 0 1 -1 1z" fill="#353166"></path><path d="m50 100.62a2.34 2.34 0 0 1 -2.3 2.38h-41.4a2.38 2.38 0 0 1 0-4.75h.7a5.43 5.43 0 0 1 0-.57 8.26 8.26 0 0 1 7.14-8.3 10.61 10.61 0 0 1 10.38-10.38 10.06 10.06 0 0 1 4 .84 10.73 10.73 0 0 1 6.08 7.16 7.66 7.66 0 0 1 3.2-.69 8.21 8.21 0 0 1 8.07 8.35 8.61 8.61 0 0 1 -.78 3.6h2.61a2.34 2.34 0 0 1 2.3 2.36z" fill="#fff"></path><path d="m50 100.62a2.34 2.34 0 0 1 -2.3 2.38h-22.33c5.83 0 8.39-2.09 8.45-5.63a3.87 3.87 0 0 0 -1.88-3.37 1 1 0 0 1 -.31-1.35c3.41-6.19-3.08-12.77-3.08-12.77a10.73 10.73 0 0 1 6.05 7.12 7.66 7.66 0 0 1 3.2-.69 7.89 7.89 0 0 1 6 2.76 8.49 8.49 0 0 1 2.08 5.59 8.61 8.61 0 0 1 -.78 3.6h2.6a2.34 2.34 0 0 1 2.3 2.36z" fill="#e9f2ff"></path><path d="m50 100.62a2.34 2.34 0 0 1 -2.3 2.38h-11.93a5.46 5.46 0 0 0 3.77-4.83 1 1 0 0 1 .83-.85c1.72-.23 5.53-1.49 3.42-8.26a8.49 8.49 0 0 1 2.08 5.59 8.61 8.61 0 0 1 -.78 3.6h2.61a2.34 2.34 0 0 1 2.3 2.37z" fill="#b9d7ff"></path><path d="m47.7 104h-41.4a3.38 3.38 0 0 1 -.3-6.74 9.25 9.25 0 0 1 7.19-8.73 11.37 11.37 0 0 1 22.09-2.85 8.88 8.88 0 0 1 2.57-.38 9.22 9.22 0 0 1 9.06 9.35 9.82 9.82 0 0 1 -.35 2.6h1.14a3.38 3.38 0 0 1 0 6.75zm-41.4-4.75a1.38 1.38 0 0 0 0 2.75h41.4a1.35 1.35 0 0 0 1.3-1.38 1.33 1.33 0 0 0 -1.3-1.37h-2.61a1 1 0 0 1 -.85-.46 1 1 0 0 1 -.06-1 7.55 7.55 0 0 0 .69-3.18 7.22 7.22 0 0 0 -7.06-7.35 6.78 6.78 0 0 0 -2.8.6 1 1 0 0 1 -.84 0 1 1 0 0 1 -.54-.65 9.53 9.53 0 0 0 -9.11-7.21 9.58 9.58 0 0 0 -9.43 9.42 1 1 0 0 1 -.88 1 7.24 7.24 0 0 0 -6.21 7.26v.5a1 1 0 0 1 -1 1.07z" fill="#353166"></path><path d="m18.72 86.67a1 1 0 0 1 -.27-1.39 7.35 7.35 0 0 1 6.07-3.28 1 1 0 0 1 0 2 5.37 5.37 0 0 0 -4.42 2.4 1 1 0 0 1 -1.38.27z" fill="#353166"></path><path d="m38 69h-1v-1a1 1 0 0 0 -2 0v1h-1a1 1 0 0 0 0 2h1v1a1 1 0 0 0 2 0v-1h1a1 1 0 0 0 0-2z" fill="#fff"></path><path d="m101 49h-1v-1a1 1 0 0 0 -2 0v1h-1a1 1 0 0 0 0 2h1v1a1 1 0 0 0 2 0v-1h1a1 1 0 0 0 0-2z" fill="#fff"></path></svg>
