<svg id="fi_5911537" enable-background="new 0 0 136 136" height="512" viewBox="0 0 136 136" width="512" xmlns="http://www.w3.org/2000/svg"><g><g><g><path d="m78.28 127.73c.74-39.8.9-79.62.48-119.42-.03-2.39-1.97-4.31-4.36-4.31h-65.73c-2.42 0-4.37 1.97-4.34 4.39.42 39.73.26 79.47-.48 119.19-.04 2.43 1.91 4.42 4.34 4.42h65.74c2.37 0 4.3-1.9 4.35-4.27z" fill="#404042"></path><g><path d="m74.11 115.84h-65.74c.11-7.18.39-96.33.36-100.19h65.73c.07 8.22-.12 85.82-.35 100.19z" fill="#87d324"></path></g><g><g fill="#fff"><path d="m67.79 115.84h-3.78c-10.49-13.55-20.8-27.66-30.71-41.99-8.18 5.61-16.21 11.34-23.9 17.04l-.9.67c.01-1.22.01-2.46.01-3.73 7.83-5.8 16.02-11.62 24.33-17.3l1.24-.84.85 1.23c10.34 15.02 21.16 29.83 32.16 44z"></path><path d="m74.46 30.02v3.48c-12.26 7.17-24.61 14.88-36.74 22.9l-1.24.82-.83-1.23c-8.79-13.07-17.28-26.38-25.22-39.57l-.47-.77h3.5c7.54 12.47 15.55 25.05 23.85 37.43 12.02-7.92 24.26-15.53 36.39-22.62z"></path><path d="m29.02 62.25-1.23.84c-5.96 4.06-12.14 8.4-18.35 12.9l-.88.63c0-1.23.01-2.46.01-3.7 5.51-3.97 10.99-7.83 16.3-11.47-5.47-8.15-10.9-16.54-16.18-24.97 0-1.59.01-3.12.01-4.58v-.01l.47-.29.79 1.28c5.93 9.51 12.06 18.97 18.22 28.13z"></path><path d="m74.43 47.47c-9.6 5.74-19.24 11.8-28.68 18.02 9.15 13.24 18.73 26.36 28.47 39.04-.01 1.56-.02 3.01-.04 4.34l-.25.2-.92-1.18c-10.49-13.6-20.78-27.72-30.6-41.96l-.86-1.26 1.27-.84c10.14-6.71 20.52-13.24 30.85-19.41l.77-.46c0 1.15 0 2.32-.01 3.51z"></path></g></g><g><g><path d="m74.44 45.71c-10.39 6.2-20.67 12.67-30.79 19.37 9.81 14.24 20.01 28.23 30.55 41.89-.03 3.88-.06 6.94-.09 8.87h-8.21c-11.13-14.35-21.88-29.07-32.21-44.07-8.52 5.82-16.92 11.79-25.18 17.92.02-4.69.04-9.74.05-14.91 6.06-4.39 12.19-8.71 18.38-12.93-6.25-9.29-12.34-18.7-18.25-28.18 0-.01 0-.01 0-.01.03-9.94.05-16.98.04-18.01h2.98c8.04 13.34 16.45 26.52 25.18 39.5 12.32-8.15 24.86-15.97 37.57-23.4 0 4.17-.01 8.9-.02 13.96z" fill="#cedef5"></path></g></g><g><g><g><path d="m13.45 28.34c-.17 0-.34-.09-.43-.25-1.27-2.14-2.54-4.3-3.8-6.47-.14-.24-.06-.54.18-.68s.54-.06.68.18c1.26 2.17 2.52 4.32 3.8 6.46.14.24.06.54-.17.68-.08.05-.17.08-.26.08z" fill="#404042"></path></g><g><path d="m58.73 96.61c-.15 0-.31-.07-.4-.2-2.71-3.69-5.4-7.42-8-11.08-.16-.23-.11-.54.12-.7s.54-.11.7.12c2.6 3.66 5.29 7.38 7.99 11.07.16.22.12.54-.11.7-.09.06-.2.09-.3.09zm-15.82-22.27c-.16 0-.32-.08-.41-.22-2.59-3.76-5.16-7.57-7.65-11.32-.15-.23-.09-.54.14-.69s.54-.09.69.14c2.49 3.74 5.06 7.55 7.65 11.31.16.23.1.54-.13.7-.09.05-.19.08-.29.08zm-15.11-22.75c-.16 0-.33-.08-.42-.23-2.44-3.81-4.89-7.71-7.28-11.57-.15-.24-.07-.54.16-.69.24-.14.54-.07.69.16 2.38 3.86 4.83 7.75 7.27 11.56.15.23.08.54-.15.69-.09.05-.18.08-.27.08z" fill="#404042"></path></g><g><path d="m71.43 113.54c-.15 0-.3-.07-.4-.2-1.52-1.98-3.04-3.97-4.54-5.97-.17-.22-.12-.53.1-.7s.53-.12.7.1c1.51 1.99 3.02 3.98 4.54 5.96.17.22.13.53-.09.7-.1.07-.21.11-.31.11z" fill="#404042"></path></g></g><g><g><path d="m66.08 43.52c-.17 0-.33-.08-.42-.23-.15-.23-.08-.54.16-.69 2.18-1.37 4.33-2.7 6.39-3.94.24-.14.54-.07.69.17.14.24.07.54-.17.69-2.05 1.24-4.2 2.56-6.37 3.93-.1.04-.19.07-.28.07z" fill="#404042"></path></g><g><path d="m26.2 70.35c-.16 0-.32-.08-.41-.22-.16-.23-.1-.54.13-.7 3.15-2.15 6.3-4.32 9.45-6.48l.46-.31c.23-.16.54-.1.7.13s.1.54-.13.7l-.46.31c-3.15 2.17-6.3 4.34-9.45 6.49-.09.05-.19.08-.29.08zm19.82-13.6c-.16 0-.32-.08-.41-.22-.16-.23-.1-.54.13-.69 3.69-2.51 6.95-4.71 9.97-6.71.23-.15.54-.09.69.14s.09.54-.14.69c-3.02 2-6.28 4.19-9.96 6.7-.09.06-.18.09-.28.09z" fill="#404042"></path></g><g><path d="m9.96 81.17c-.16 0-.33-.08-.42-.23-.15-.23-.08-.54.15-.69 2.1-1.35 4.19-2.72 6.27-4.1.23-.15.54-.09.69.14s.09.54-.14.69c-2.09 1.39-4.18 2.76-6.28 4.11-.08.05-.18.08-.27.08z" fill="#404042"></path></g></g></g><path d="m77.19 127.71c-.03 1.76-1.5 3.21-3.27 3.21h-65.73c-.88 0-1.71-.35-2.31-.98-.62-.63-.96-1.46-.93-2.34v-.04h54.2c8.05 0 14.78-6.58 14.91-14.64.57-35.86.65-72.09.28-107.84h.08c1.78 0 3.25 1.45 3.27 3.23.39 39.61.24 79.78-.5 119.4z" opacity=".15"></path><path d="m73.04 114.75h-63.57c.01-.6.02-1.18.02-1.78h50.16c6.43 0 11.68-5.16 11.76-11.59.35-28.26.43-56.65.19-84.63h1.78c.28 32.36.16 65.33-.34 98z" opacity=".1"></path><path d="m11.06 27.13c.19 29.51.06 59.22-.4 88.7h-2.29c.52-33.3.64-66.9.35-100.18h65.73c.01.75.01 1.51.02 2.26h-54.26c-5.08.01-9.18 4.14-9.15 9.22z" opacity=".1"></path><g><path d="m39.72 120.25c1.17-.57 2.6-.43 3.74.21.77.43 1.45 1.1 1.79 1.94.44 1.09.27 2.42-.38 3.39s-1.75 1.59-2.88 1.69c-1.09.1-2.22-.26-3.04-1.02-1.89-1.7-1.56-5.09.77-6.21z" fill="#94959a"></path><g><g><path d="m42.04 11.22h-8.09c-.75 0-1.36-.61-1.36-1.36s.61-1.36 1.36-1.36h8.09c.75 0 1.36.61 1.36 1.36s-.61 1.36-1.36 1.36z" fill="#94959a"></path></g><g><path d="m48.88 11.22h-1.49c-.75 0-1.36-.61-1.36-1.36s.61-1.36 1.36-1.36h1.49c.75 0 1.36.61 1.36 1.36s-.61 1.36-1.36 1.36z" fill="#94959a"></path></g></g></g><g fill="#fff"><path d="m78.84 86.59c-2.8-3.78-6.28-7.03-10.39-9.29-2.43-1.34-5.14-2.38-6.97-4.47-2.79-3.18-2.81-7.84-3.24-12.06-.44-4.21-2.02-9.05-6.05-10.36-2.49-.81-5.2.01-7.82-.03-5.86-.11-10.77-4.51-14.14-9.3-3.37-4.8-5.85-10.28-9.97-14.45-4.16-4.22-9.93-6.7-15.83-7.12-.03-3.71-.06-7.42-.1-11.13-.03-2.41 1.92-4.38 4.34-4.38h65.73c2.39 0 4.33 1.92 4.36 4.3.28 26.1.3 52.2.08 78.29z" opacity=".1"></path><path d="m78.94 31.46c-1.28 1.39-2.39 2.93-3.28 4.59-4.06 7.57-3.9 17.32-9.71 23.64-2.93 3.18-7.08 5.08-9.92 8.35-3.72 4.26-4.69 10.18-5.76 15.73-1.08 5.55-2.64 11.48-7.04 15.04-4.51 3.66-11.23 4.12-15.07 8.48-2.32 2.63-3.14 6.2-4.46 9.45-2.58 6.37-7.36 11.8-13.29 15.25h-2.22c-2.43 0-4.38-1.99-4.34-4.42.74-39.72.9-79.46.48-119.19-.03-2.41 1.92-4.38 4.34-4.38h65.73c2.39 0 4.33 1.92 4.36 4.3.08 7.72.14 15.44.18 23.16z" opacity=".1"></path><path d="m74.47 4c-11.48 7.07-20.97 17.94-34 21.34-3.74.98-8 1.49-10.47 4.46-2.62 3.15-2.14 7.73-2.54 11.81-.67 6.92-4.43 13.47-10.06 17.54-3.96 2.87-8.79 4.57-12.22 8.06-.23.23-.45.47-.65.72.07-19.85.01-39.7-.2-59.55-.03-2.41 1.92-4.38 4.34-4.38z" opacity=".1"></path></g></g><g><path d="m47.21 30.78c-2.56-3.45-6.92-6.01-11.25-6.01-4.27 0-8.68 2.56-11.25 6.01-2.59 3.42-3.42 7.97-2.85 12.21.5 3.56 8.02 14.12 12.17 19.25 1 1.23 2.86 1.23 3.86 0 4.15-5.12 11.66-15.68 12.16-19.25.6-4.24-.25-8.8-2.84-12.21zm-5.84 11.73c-1.08 1.59-2.9 2.62-4.78 2.79-1.79.17-3.67-.43-5.04-1.68-3.1-2.82-2.56-8.43 1.31-10.31 1.94-.94 4.3-.71 6.18.34 1.28.74 2.39 1.82 2.96 3.25.74 1.79.45 3.98-.63 5.61z" fill="#ff4b3a"></path><g fill="#fff"><path d="m47.2 30.78c-2.56-3.45-6.92-6.01-11.24-6.01-4.27 0-8.69 2.56-11.25 6.01-.26.33-.49.68-.72 1.04.46.19.9.41 1.34.64 1.78.95 3.4 2.15 4.87 3.54.54-1.13 1.43-2.1 2.65-2.69 1.94-.94 4.3-.71 6.18.34 1.28.74 2.39 1.82 2.96 3.25.74 1.79.46 3.98-.62 5.61-.39.57-.86 1.06-1.4 1.45 1.45-.04 2.95-.3 4.37-.02 1.7.35 3.14 1.45 4.18 2.84.84-1.57 1.4-2.9 1.53-3.79.6-4.24-.26-8.8-2.85-12.21z" opacity=".1"></path><path d="m47.2 30.78c-2.56-3.45-6.92-6.01-11.24-6.01-4.27 0-8.69 2.56-11.25 6.01-2.59 3.41-3.42 7.97-2.85 12.21.39 2.75 4.97 9.69 8.94 15.06.93-1.4 2.29-2.51 3.9-3.01 1.74-.53 3.81-.5 5.07-1.82 1.9-1.99.67-5.8 2.74-7.62 1.21-1.07 3.09-1 4.38-1.96 1.5-1.13 1.73-3.24 1.95-5.1.14-1.18.32-2.36.55-3.52-.49-1.52-1.22-2.96-2.19-4.24zm-5.83 11.73c-1.09 1.59-2.91 2.62-4.79 2.79-1.79.17-3.67-.43-5.04-1.68-3.1-2.82-2.56-8.43 1.31-10.31 1.94-.94 4.3-.71 6.18.34 1.28.74 2.39 1.82 2.96 3.25.74 1.79.46 3.98-.62 5.61z" opacity=".1"></path><path d="m35.96 24.77c-4.27 0-8.69 2.56-11.25 6.01-2.59 3.41-3.42 7.97-2.85 12.21.18 1.24 1.2 3.33 2.64 5.74 2.75-1 5.22-2.82 7-5.15-3.06-2.83-2.5-8.4 1.35-10.27.98-.47 2.06-.65 3.14-.57.15-.24.31-.47.48-.7 1.33-1.73 3.4-2.77 5.52-3.27.96-.23 1.94-.36 2.93-.43-2.5-2.15-5.74-3.57-8.96-3.57z" opacity=".1"></path></g></g></g><g><path d="m116.38 131.6-53.9.33c-2.56.01-4.65-2.06-4.65-4.62v-41.54c0-2.51 2.02-4.54 4.53-4.56l54.04-.32c2.53-.01 4.59 2.03 4.59 4.56v41.53c-.01 2.54-2.07 4.61-4.61 4.62z" fill="#cedef5"></path><path d="m120.98 92.75v-7.3c0-2.53-2.06-4.57-4.59-4.56l-54.04.32c-2.51.01-4.53 2.05-4.53 4.56v6.98z" fill="#43b5fb"></path><path d="m116.49 86.17v40.14h-57.13v.99c0 1.7 1.38 3.08 3.08 3.08l53.92-.33c1.69-.01 3.07-1.39 3.07-3.08v-40.8c0-.81-.66-1.47-1.47-1.47-.81 0-1.47.66-1.47 1.47z" opacity=".1"></path><g><g><path d="m83.9 120.15c-2.26 0-4.55-.93-6.32-2.57-.46-.43-.49-1.15-.06-1.61s1.15-.49 1.61-.06c1.42 1.31 3.25 2.04 5 1.96 1.81-.07 3.55-1.04 4.43-2.48.9-1.46.86-3.48-.09-4.78-1.14-1.56-3.21-2.35-4.9-2.86-.37-.11-.66-.41-.77-.78s-.01-.78.24-1.07c.78-.88 1.51-1.83 2.29-2.84.56-.74 1.14-1.49 1.74-2.21-2.55-.09-5.18-.05-7.85.12-.63.05-1.17-.44-1.21-1.07s.44-1.17 1.07-1.21c3.6-.22 7.14-.22 10.52 0 .45.03.83.32.99.74s.05.89-.26 1.21c-1.13 1.12-2.17 2.49-3.19 3.81-.42.55-.86 1.12-1.3 1.67 1.63.63 3.33 1.58 4.47 3.16 1.49 2.05 1.56 5.06.19 7.31-1.29 2.1-3.7 3.47-6.29 3.57-.1-.01-.21-.01-.31-.01z" fill="#404042"></path></g><g><path d="m100.36 120.37c-.59 0-1.09-.46-1.14-1.06-.37-5.4-.19-10.85-.03-16.12.02-.54.03-1.07.05-1.61-1.23.63-2.5 1.19-3.79 1.67-.59.22-1.25-.08-1.47-.67s.08-1.25.67-1.46c1.8-.67 3.55-1.5 5.2-2.48.36-.21.8-.21 1.16 0s.57.6.56 1.01c-.03 1.21-.07 2.41-.11 3.62-.17 5.21-.34 10.61.02 15.89.04.63-.43 1.17-1.06 1.21-.01 0-.03 0-.06 0z" fill="#404042"></path></g></g><g fill="#404042"><path d="m106.79 84.57c.77-.4 1.7-.33 2.45.08.5.27.94.7 1.17 1.26.29.72.18 1.6-.25 2.25s-1.14 1.08-1.88 1.17c-.71.08-1.45-.14-1.99-.62-1.23-1.11-1.02-3.36.5-4.14z"></path><path d="m88.16 84.57c.77-.4 1.7-.33 2.45.08.5.27.94.7 1.17 1.26.29.72.18 1.6-.25 2.25s-1.14 1.08-1.88 1.17c-.71.08-1.45-.14-1.99-.62-1.23-1.11-1.02-3.36.5-4.14z"></path><path d="m69.54 84.57c.77-.4 1.7-.33 2.45.08.5.27.94.7 1.17 1.26.29.72.18 1.6-.25 2.25s-1.14 1.08-1.88 1.17c-.71.08-1.45-.14-1.99-.62-1.24-1.11-1.02-3.36.5-4.14z"></path></g><g fill="#fff"><path d="m120.98 85.45v29.33c-3.07-2.63-6.97-4.3-11.02-4.63-2.26-.18-4.7 0-6.64-1.19-3.84-2.32-3.46-8.33-6.73-11.43-2.57-2.43-6.61-2.36-10.04-1.47-3.42.87-6.78 2.39-10.3 2.29-5.11-.14-9.44-3.51-13.6-6.44-1.58-1.11-3.18-2.17-4.82-3.19v-2.95c0-2.51 2.02-4.54 4.53-4.56l54.04-.32c2.53-.01 4.58 2.03 4.58 4.56z" opacity=".1"></path><path d="m120.98 85.45v8.4c-2.05 1.5-3.94 3.24-5.58 5.18-1.61 1.88-3.34 4.15-5.8 4.25-2.16.11-4.27-1.53-6.34-.91-2.17.65-2.89 3.31-3.27 5.55-.36 2.23-1.05 4.89-3.22 5.58-2.16.7-4.39-1.09-6.66-.96-1.91.11-3.48 1.58-4.53 3.16-1.06 1.6-1.81 3.4-3.07 4.85-2.07 2.4-5.27 3.49-8.37 4.18-3.1.68-6.32 1.08-9.16 2.49-1.87.93-3.57 2.43-4.5 4.25-1.58-.73-2.66-2.32-2.66-4.18v-41.52c0-2.51 2.02-4.54 4.53-4.56l54.04-.32c2.54-.01 4.59 2.03 4.59 4.56z" opacity=".1"></path><path d="m120.89 84.5c-10.39 4.04-20.7 9.13-31.71 9.04-1.96-.02-4.12-.14-5.65 1.06-1.91 1.52-1.99 4.41-3.34 6.44-2.31 3.49-7.31 3.45-11.4 4.44-4.16 1-7.87 3.43-10.96 6.41v-26.12c0-2.51 2.02-4.54 4.53-4.56l54.04-.32c2.19-.01 4.05 1.54 4.49 3.61z" opacity=".1"></path></g></g><g><g><path d="m130.49 46.95-54.36 27.95c-1.51.78-3.36.18-4.13-1.33l-13.27-25.78c-.78-1.51-.18-3.36 1.33-4.13l54.36-27.95c1.51-.78 3.36-.18 4.13 1.33l13.26 25.79c.78 1.49.18 3.34-1.32 4.12z" fill="#ef8e49"></path><path d="m115.35 17.52-1.2.62 7.28 14.15c3.19 6.2.75 13.81-5.45 17l-42.84 22.03.68 1.32c.26.5.88.7 1.38.44l54.36-27.95c.5-.26.7-.88.44-1.38l-13.26-25.79c-.27-.5-.88-.7-1.39-.44z" opacity=".1"></path><g fill="#fff"><path d="m118.55 17.03 1.39 2.7c-.71 2.17-1.46 4.32-2.25 6.46-1.23 3.35-2.7 6.88-5.64 8.9-2.85 1.97-6.88 2.39-8.86 5.23-1.76 2.54-1.17 5.96-1.81 8.99-.68 3.2-2.89 6.05-5.84 7.5-2.68 1.31-5.74 1.47-8.62 2.25-4.46 1.2-8.57 4.08-10.66 8.2-1.24 2.43-1.67 5.29-1.23 7.96-1.22.12-2.44-.49-3.03-1.65l-13.27-25.78c-.77-1.5-.18-3.36 1.33-4.13l54.36-27.95c1.51-.79 3.36-.19 4.13 1.32z" opacity=".1"></path><path d="m102.19 21.99c-.68 1.74-1.27 3.52-1.8 5.32-.88 2.99-1.63 6.22-3.87 8.4-2.19 2.12-5.34 2.82-8.2 3.88-3.82 1.43-7.36 3.68-10.16 6.64-4.87 5.15-7.3 12.11-10.84 18.24l-8.58-16.69c-.77-1.5-.18-3.36 1.33-4.13z" opacity=".1"></path><path d="m118.55 17.03 6.25 12.15c-.32 0-.64.02-.96.05-4.32.31-8.92 1.51-11.65 4.86-1.92 2.37-2.7 5.55-4.81 7.76-1.81 1.9-4.44 2.85-7.04 3.2-2.6.36-5.24.19-7.88.19-10.75-.02-21.47 2.91-30.78 8.26l-2.94-5.71c-.77-1.5-.18-3.36 1.33-4.13l54.36-27.95c1.5-.79 3.35-.19 4.12 1.32z" opacity=".1"></path></g></g><g><path d="m129.31 36.11-43.23 43.22c-1.2 1.2-3.14 1.2-4.34 0l-20.5-20.5c-1.2-1.2-1.2-3.14 0-4.34l43.22-43.22c1.2-1.2 3.14-1.2 4.34 0l20.5 20.5c1.2 1.2 1.2 3.14.01 4.34z" fill="#fdeec3"></path><path d="m100.06 40.16c-.12-.11-.28-.14-.43-.08-1.03.39-2.08.73-3.14 1.03-.08-.08-.16-.16-.24-.25-.43-.43-1.38-1.02-1.94-1.34-.25-.15-.56-.1-.76.1l-.36.36c-.2.2-.24.51-.1.76.16.29.4.69.65 1.08-1.4.31-2.81.54-4.23.71-.98-.99-1.95-1.99-2.93-2.99-.93-.95-2.17-1.55-3.56-1.7l-.2-.02c-.71-.08-1.39.6-1.31 1.31l.03.29c.14 1.34.7 2.55 1.59 3.46 1 1.03 2 2.05 3.01 3.07-.16 1.37-.39 2.73-.68 4.08-.46-.34-1.04-.69-1.43-.92-.25-.15-.56-.1-.76.1l-.36.36c-.2.2-.24.51-.1.76.32.56.9 1.54 1.33 1.97.21.21.41.41.61.62-.31 1.06-.65 2.1-1.03 3.13-.06.15-.02.31.08.43.24.26.57.59.81.83.18.18.47.16.63-.04l5.35-6.88c1.12 1.11 2.29 2.26 3.53 3.48.27.27.65.56 1.08.86-.25 1.5-.65 2.99-1.18 4.41-.03.08-.01.17.05.24.13.14.31.32.44.46.1.1.26.09.35-.02l2.78-3.57c.04.02.09.05.13.07.46.26 1.03.18 1.39-.19l.66-.66c.37-.37.45-.95.18-1.41-.02-.03-.04-.07-.06-.1l3.51-2.73c.11-.09.12-.25.02-.35-.13-.13-.31-.31-.46-.44-.06-.06-.15-.08-.24-.05-1.41.53-2.88.92-4.37 1.17-.31-.43-.62-.82-.89-1.09-1.24-1.22-2.41-2.37-3.54-3.48l6.91-5.38c.2-.16.22-.45.04-.63-.27-.26-.6-.58-.86-.82z" fill="#404042"></path><g><g><g><path d="m90.4 25.03h1.02v1.02h-1.02z" fill="#404042" transform="matrix(.707 -.707 .707 .707 8.567 71.765)"></path></g><g><path d="m113.65 47.56-.72.72-1.38-1.38.72-.72zm-2.75-2.75-.72.72-1.38-1.38.72-.72zm-2.75-2.75-.72.72-1.38-1.38.72-.72zm-2.75-2.76-.72.72-1.38-1.38.72-.72zm-2.76-2.75-.72.72-1.38-1.38.72-.72zm-2.75-2.75-.72.72-1.38-1.38.72-.72zm-2.75-2.75-.72.72-1.38-1.38.72-.72zm-2.75-2.76-.72.72-1.38-1.38.72-.72z" fill="#404042"></path></g><g><path d="m114.52 49.15h1.02v1.02h-1.02z" fill="#404042" transform="matrix(.707 -.707 .707 .707 -1.424 95.885)"></path></g></g></g><g><g><path d="m111.67 36.68c-.3.3-.79.3-1.09 0l-12.02-12.02c-.3-.3-.3-.79 0-1.09s.79-.3 1.09 0l12.02 12.02c.3.3.3.79 0 1.09z" fill="#43b5fb"></path></g><g><path d="m120.39 38.62c-.3.3-.79.3-1.09 0l-17.35-17.35c-.3-.3-.3-.79 0-1.09s.79-.3 1.09 0l17.35 17.35c.3.3.3.79 0 1.09z" fill="#43b5fb"></path></g><g><path d="m114.46 25.91c-.3.3-.79.3-1.09 0l-8.03-8.03c-.3-.3-.3-.79 0-1.09s.79-.3 1.09 0l8.03 8.03c.3.3.3.79 0 1.09z" fill="#43b5fb"></path></g></g><g><g><path d="m90.23 66.83c.27.27.27.71 0 .98l-6.54 6.54c-.27.27-.71.27-.98 0s-.27-.71 0-.98l6.54-6.54c.28-.27.71-.27.98 0z" fill="#ff4b3a"></path></g><g><path d="m86.41 65.89c.27.27.27.71 0 .98l-5.1 5.1c-.27.27-.71.27-.98 0s-.27-.71 0-.98l5.1-5.1c.27-.27.71-.27.98 0z" fill="#ff4b3a"></path></g><g><path d="m84.02 63.5c.27.27.27.71 0 .98l-5.1 5.1c-.27.27-.71.27-.98 0s-.27-.71 0-.98l5.1-5.1c.28-.27.71-.27.98 0z" fill="#ff4b3a"></path></g><g><path d="m83.08 59.68c.27.27.27.71 0 .98l-6.54 6.54c-.27.27-.71.27-.98 0s-.27-.71 0-.98l6.54-6.54c.27-.27.71-.27.98 0z" fill="#ff4b3a"></path></g><g><path d="m80.69 57.29c.27.27.27.71 0 .98l-6.54 6.54c-.27.27-.71.27-.98 0s-.27-.71 0-.98l6.54-6.54c.28-.27.71-.27.98 0z" fill="#ff4b3a"></path></g><g><path d="m76.87 56.35c.27.27.27.71 0 .98l-5.1 5.1c-.27.27-.71.27-.98 0s-.27-.71 0-.98l5.1-5.1c.27-.27.71-.27.98 0z" fill="#ff4b3a"></path></g><g><path d="m74.48 53.96c.27.27.27.71 0 .98l-5.1 5.1c-.27.27-.71.27-.98 0s-.27-.71 0-.98l5.1-5.1c.28-.27.71-.27.98 0z" fill="#ff4b3a"></path></g><g><path d="m73.54 50.14c.27.27.27.71 0 .98l-6.54 6.53c-.27.27-.71.27-.98 0s-.27-.71 0-.98l6.54-6.54c.27-.26.71-.26.98.01z" fill="#ff4b3a"></path></g></g><path d="m105.91 12.71-.95.95 11.25 11.25c4.93 4.93 4.93 12.93 0 17.86l-34.07 34.07 1.05 1.05c.4.4 1.05.4 1.45 0l43.22-43.22c.4-.4.4-1.05 0-1.45l-20.5-20.5c-.4-.41-1.05-.41-1.45-.01z" opacity=".1"></path><g fill="#fff"><path d="m108.8 11.27 2.15 2.15c-.01 2.29-.07 4.56-.17 6.84-.15 3.57-.47 7.37-2.65 10.2-2.11 2.75-5.82 4.38-6.84 7.68-.9 2.96.71 6.03 1.03 9.12.33 3.26-.9 6.65-3.27 8.93-2.15 2.06-5.02 3.15-7.52 4.77-3.88 2.5-6.91 6.5-7.65 11.06-.43 2.69.02 5.55 1.26 7.96-1.12.48-2.47.27-3.39-.64l-20.5-20.5c-1.19-1.19-1.2-3.14 0-4.34l43.22-43.22c1.19-1.21 3.14-1.21 4.33-.01z" opacity=".1"></path><path d="m94.74 20.99c-.12 1.87-.14 3.74-.09 5.61.08 3.12.35 6.42-1.12 9.18-1.43 2.69-4.22 4.31-6.62 6.2-3.2 2.52-5.88 5.75-7.65 9.43-3.06 6.39-3.26 13.76-4.75 20.68l-13.27-13.26c-1.19-1.19-1.2-3.14 0-4.34z" opacity=".1"></path><path d="m108.8 11.27 9.66 9.66c-.3.1-.61.22-.9.34-4.02 1.61-8.04 4.16-9.61 8.19-1.11 2.84-.88 6.11-2.21 8.86-1.14 2.36-3.36 4.07-5.72 5.2-2.37 1.14-4.93 1.78-7.44 2.58-10.24 3.27-19.55 9.33-26.79 17.27l-4.54-4.54c-1.19-1.19-1.2-3.14 0-4.34l43.22-43.22c1.19-1.2 3.14-1.2 4.33 0z" opacity=".1"></path></g></g></g></g></svg>
