<svg id="Layer_1" enable-background="new 0 0 512 512" viewBox="0 0 512 512" xmlns="http://www.w3.org/2000/svg"><g clip-rule="evenodd" fill-rule="evenodd"><path d="m435.43 154.506-134.412-10.354-64.202-93.74c-.111-.162-.231-.321-.362-.468l-.34-.381-.234-.454c-.101-.198-.219-.389-.328-.553l-24.067-35.124 157.978 12.169 94.317 137.722-126.368-81.805c-1.855-1.201-4.328-.684-5.53 1.174-1.197 1.849-.659 4.344 1.189 5.54zm-208.389-1.812 4.474-1.918-13.781-20.129-3.084 1.462c-3.925 1.861-7.713 4.007-11.326 6.418-1.581 1.055-3.705.85-5.05-.496l-10.28-10.286-20.455 20.455 10.277 10.284c1.346 1.346 1.562 3.461.503 5.046-6.536 9.787-11.038 20.635-13.335 32.177-.373 1.874-2.021 3.225-3.931 3.225h-14.526v28.924h14.526c1.909 0 3.558 1.34 3.931 3.215 2.297 11.538 6.798 22.395 13.336 32.178 1.06 1.586.846 3.705-.502 5.052l-10.281 10.275 20.455 20.455 10.279-10.273c1.349-1.347 3.462-1.564 5.049-.503 9.782 6.537 20.636 11.04 32.173 13.336 1.872.373 3.22 2.007 3.22 3.917v14.531h28.929v-14.531c0-1.91 1.347-3.544 3.219-3.917 11.54-2.295 22.386-6.802 32.172-13.335 1.587-1.059 3.703-.845 5.051.502l10.28 10.273 20.454-20.453-10.278-10.284c-1.346-1.347-1.56-3.462-.502-5.047 6.532-9.787 11.037-20.636 13.334-32.176.373-1.875 2.022-3.215 3.931-3.215h14.531v-17.907l-40.806-3.154.168 4.483c.026.702.044 1.406.044 2.109 0 36.428-29.628 66.073-66.059 66.073-36.432 0-66.073-29.641-66.073-66.073.003-26.418 15.664-50.289 39.933-60.693zm165.281 75.556 21.804-4.985 6.582 21.373-16.047 27.815-28.398-16.388z" fill="#92c3fe"/><path d="m418.967 198.89c-.882-9.046-2.401-17.998-4.542-26.789l3.971-6.867 19.149 1.467zm-15.772 68.101-21.469-12.39 13.187-22.842 16.484-3.768 4.976 16.158zm-66.652 86.22c25.61-18.323 44.962-43.731 56.253-73.751l-26.002-15.008c-3.82-2.212-5.131-7.103-2.919-10.933l18.932-32.779c1.108-1.929 2.971-3.311 5.136-3.802l15.894-3.627c-.17-6.721-.731-13.404-1.641-20.012l-8.409 14.56c-2.769 4.787-7.749 7.65-13.202 7.65-.41 0-.811-.019-1.221-.047l-7.527-.58v16.979c0 4.41-3.58 7.999-7.999 7.999h-12.192c-2.292 8.56-5.679 16.748-10.131 24.44l8.622 8.617c3.132 3.122 3.132 8.192 0 11.31l-26.11 26.124c-1.5 1.5-3.542 2.339-5.66 2.339-2.122 0-4.16-.84-5.66-2.339l-8.622-8.622c-7.688 4.438-15.871 7.839-24.441 10.131v12.178c0 4.42-3.58 8.004-7.999 8.004h-36.93c-4.419 0-7.999-3.584-7.999-8.004v-12.178c-8.57-2.292-16.753-5.683-24.441-10.131l-8.621 8.622c-1.5 1.5-3.537 2.339-5.66 2.339-2.117 0-4.16-.84-5.66-2.339l-26.11-26.124c-1.5-1.5-2.339-3.528-2.339-5.65 0-2.118.839-4.16 2.339-5.66l8.621-8.617c-4.452-7.692-7.839-15.871-10.131-24.44h-12.187c-4.424 0-8.004-3.589-8.004-7.999v-36.934c0-4.419 3.58-7.999 8.004-7.999h12.187c2.292-8.565 5.679-16.748 10.131-24.45l-8.621-8.617c-1.5-1.5-2.349-3.532-2.349-5.66 0-2.122.849-4.15 2.349-5.65l26.11-26.12c3.132-3.122 8.192-3.122 11.32 0l8.621 8.626c1.632-.939 3.292-1.821 4.962-2.669l-7.15-10.438c-3.363-4.901-3.603-11.14-.632-16.281l20.63-35.741c-39.722 4.622-70.911 19.719-92.829 44.98-26.19 30.19-37.76 73.741-33.44 125.938.019.222.028.444.028.66 0 16.87-9.258 28.553-18.219 39.844-7.669 9.678-15.56 19.639-19.668 34.128l16.479 3.108c3.759.712 6.485 3.99 6.518 7.82l.151 26.553c8.339 2.886 14.909 6.16 16.097 13.097 1.264 7.41-4.448 13.149-14.39 20.922.391 1.297 1.141 2.377 2.523 4.382 3.82 5.49 9.518 13.687 15.239 37.198 5.98 3.91 25.469-.821 38.651-4.023 16.828-4.08 31.36-7.608 40.939-3.41 10.479 4.594 15.72 12.263 15.578 22.804-.118 7.99-3.297 16.616-6.99 26.619-3.83 10.39-8.079 21.927-9.437 34.449h181.96c-1.429-4.773-3.363-10.282-5.452-16.262-9.49-27.148-23.828-68.167-20.611-119.519.152-2.397 1.373-4.603 3.331-6.005zm30.704-323.769 81.967 119.689-109.629-70.968c-3.707-2.415-8.659-1.354-11.06 2.358-2.401 3.707-1.34 8.669 2.372 11.07l89.15 57.719-116.812-8.999-63.12-92.159c-.212-.311-.439-.604-.679-.873-.17-.33-.363-.651-.571-.962l-19.361-28.256zm-60.121 180.446c.071 1.174.118 2.33.118 3.5 0 29.812-24.252 54.074-54.06 54.074-29.822 0-54.069-24.261-54.069-54.074 0-22.988 14.399-43.169 35.618-50.838l11.588 16.923c12.173 17.781 29.963 28.048 51.451 29.699zm18.588 61.235 7.452 7.457-14.8 14.8-7.452-7.447c-2.698-2.703-6.928-3.122-10.098-1-9.371 6.249-19.71 10.541-30.732 12.739-3.75.741-6.438 4.028-6.438 7.839v10.532h-20.932v-10.532c0-3.811-2.688-7.098-6.438-7.839-11.013-2.198-21.361-6.48-30.732-12.739-3.169-2.123-7.4-1.703-10.098 1l-7.452 7.447-14.8-14.8 7.452-7.447c2.698-2.702 3.118-6.928 1-10.103-6.263-9.367-10.551-19.719-12.739-30.737-.75-3.74-4.032-6.433-7.853-6.433h-10.527v-20.927h10.527c3.82 0 7.103-2.703 7.853-6.443 2.188-11.018 6.476-21.361 12.739-30.737 2.118-3.174 1.698-7.4-1-10.093l-7.452-7.457 14.8-14.8 7.452 7.456c2.698 2.693 6.928 3.113 10.098.995 3.453-2.302 7.07-4.354 10.819-6.131l9.103 13.296c-25.403 10.89-42.354 35.981-42.354 64.37 0 38.642 31.435 70.072 70.072 70.072 38.632 0 70.058-31.43 70.058-70.072 0-.745-.019-1.505-.047-2.259l32.642 2.523v10.207h-10.532c-3.82 0-7.103 2.693-7.853 6.433-2.188 11.018-6.48 21.36-12.739 30.737-2.117 3.173-1.697 7.399 1.001 10.093zm54.441-71.653-81.16-6.249c-16.479-1.269-30.129-9.15-39.472-22.79l-45.99-67.153 20.559-35.609 56.112 81.929c2.07 3.023 6.193 6.235 10.72 6.584l99.781 7.678zm91.462-45.948-91.343-133.38c-2.066-3.023-6.188-6.221-10.715-6.57l-162.736-12.54c-3.665-.292-7.046 1.429-8.796 4.457-1.863 3.235-1.552 7.254.84 10.744l19.069 27.836c-43.66 5.132-78.179 22.035-102.762 50.362-29.03 33.449-41.929 80.953-37.326 137.39-.123 11.14-6.593 19.29-14.753 29.591-9.249 11.668-20.766 26.19-24.639 49.07-.731 4.292 2.123 8.381 6.4 9.188l18.139 3.424.151 25.709c.019 3.448 2.25 6.499 5.537 7.56 1.641.528 5.462 1.769 8.372 2.929-2.037 1.858-5.198 4.428-9.461 7.669-1.976 1.509-3.146 3.872-3.146 6.372 0 8.867 2.797 12.899 5.75 17.149 3.24 4.669 8.136 11.72 13.348 34.02.274 1.16.802 2.25 1.552 3.193 10.73 13.357 33.689 7.787 55.899 2.396 11.023-2.669 26.12-6.339 30.761-4.302 7.971 3.495 7.971 7.594-.009 29.233-4.853 13.14-10.881 29.492-10.881 47.98 0 4.419 3.589 7.999 7.999 7.999h200.543c2.33 0 4.537-1.009 6.061-2.778 1.518-1.759 2.198-4.099 1.849-6.4-1.132-7.603-4.334-16.762-8.391-28.36-9.348-26.77-22.082-63.181-19.941-109.529 26.459-19.828 46.528-46.678 58.512-78.151.231-.038.467-.071.698-.127 2.052-.552 3.792-1.892 4.849-3.731l18.932-32.793c1.118-1.929 1.377-4.231.721-6.358l-7.174-23.252 29.714-51.447 8.419.637c.259.019.519.033.778.033 3.372 0 6.391-1.67 8.023-4.49 1.854-3.233 1.543-7.243-.843-10.733z" fill="#224eff"/></g></svg>