<svg id="Layer_3" height="512" viewBox="0 0 64 64" width="512" xmlns="http://www.w3.org/2000/svg" data-name="Layer 3"><circle cx="32" cy="32" fill="#3b5892" r="30"/><circle cx="32" cy="32" fill="#e2e7f6" r="26"/><ellipse cx="30" cy="32" fill="#f2f2f2" rx="24" ry="25.916"/><path d="m38.999 38.999-14-14 37.002-22.999z" fill="#b52f28"/><path d="m38.999 38.998-13.999-14-22.999 37.002z" fill="#f0ae42"/><circle cx="13" cy="13" fill="#5e87ca" r="11"/><ellipse cx="11.5" cy="13" fill="#78a0d4" rx="9.5" ry="10.886"/><path d="m19 18-6-13-6 13 6-3z" fill="#e2e7f6"/><g fill="#78a0d4"><rect height="6" rx="2" width="4" x="30" y="10"/><rect height="6" rx="2" width="4" x="30" y="48"/><rect height="6" rx="2" transform="matrix(.707 -.707 .707 .707 -18.82 45.435)" width="4" x="43.435" y="42.435"/><rect height="6" rx="2" transform="matrix(0 1 -1 0 83 -19)" width="4" x="49" y="29"/><rect height="6" rx="2" transform="matrix(0 1 -1 0 45 19)" width="4" x="11" y="29"/></g><path d="m62.001 2-37.002 22.999 7.006 7.006 29.982-29.983z" fill="#d23f34"/><path d="m25 24.998-22.999 37.002.022-.013 29.983-29.983z" fill="#f9d266"/><circle cx="32" cy="32" fill="#c0dafc" r="5"/><path d="m31.976 27a4.985 4.985 0 0 0 -2.952 9 4.985 4.985 0 0 0 2.952-9z" fill="#f2f2f2"/><path d="m56.4 12.9 6.449-10.372a1 1 0 0 0 -1.377-1.377l-10.367 6.449a30.977 30.977 0 0 0 -30.981-4.234 11.977 11.977 0 0 0 -16.758 16.759 30.972 30.972 0 0 0 4.228 30.981l-6.443 10.366a1 1 0 0 0 1.377 1.378l10.366-6.445a30.992 30.992 0 0 0 43.506-43.505zm-17.586 24.5-1.93-1.93a5.96 5.96 0 0 0 0-6.942l10.822-10.821-1.414-1.414-10.822 10.822a5.96 5.96 0 0 0 -6.942 0l-1.928-1.932 32.288-20.071zm.671 2.471a.976.976 0 0 0 .315-.271 1.032 1.032 0 0 0 .061-.091l13.111-21.094a24.774 24.774 0 0 1 4.028 13.585 25.028 25.028 0 0 1 -25 25 24.777 24.777 0 0 1 -13.586-4.027zm-11.485-7.871a4 4 0 1 1 4 4 4 4 0 0 1 -4-4zm-16.974 13.586a24.83 24.83 0 0 1 -2.709-21.538 12 12 0 0 0 15.73-15.73 24.831 24.831 0 0 1 21.537 2.708l-21.112 13.123a1 1 0 0 0 -.322.321zm38.244-36.851-1.829 1.137a26.83 26.83 0 0 0 -24.351-3.341 12.174 12.174 0 0 0 -1.308-1.681 28.967 28.967 0 0 1 27.488 3.885zm-36.27-5.735a10 10 0 1 1 -10 10 10.011 10.011 0 0 1 10-10zm-10 29a28.8 28.8 0 0 1 1.85-10.217 12.055 12.055 0 0 0 1.681 1.308 26.826 26.826 0 0 0 3.34 24.352l-1.136 1.828a29.036 29.036 0 0 1 -5.735-17.271zm22.183-5.4 1.932 1.932a5.96 5.96 0 0 0 0 6.942l-10.823 10.819 1.414 1.414 10.822-10.822a5.96 5.96 0 0 0 6.942 0l1.929 1.93-32.287 20.073zm6.817 34.4a29.04 29.04 0 0 1 -17.271-5.736l1.828-1.136a26.978 26.978 0 0 0 37.571-37.57l1.137-1.829a28.968 28.968 0 0 1 -23.265 46.271z"/><path d="m7.446 18.9 5.554-2.782 5.552 2.782a1.011 1.011 0 0 0 .448.1 1 1 0 0 0 .908-1.419l-6-13a1 1 0 0 0 -1.816 0l-6 13a1 1 0 0 0 1.354 1.319zm5.554-11.514 3.9 8.445-3.45-1.726a1 1 0 0 0 -.894 0l-3.456 1.726z"/><path d="m32 17a3 3 0 0 0 3-3v-2a3 3 0 0 0 -6 0v2a3 3 0 0 0 3 3zm-1-5a1 1 0 1 1 2 0v2a1 1 0 0 1 -2 0z"/><path d="m32 55a3 3 0 0 0 3-3v-2a3 3 0 0 0 -6 0v2a3 3 0 0 0 3 3zm-1-5a1 1 0 0 1 2 0v2a1 1 0 0 1 -2 0z"/><path d="m44.02 48.264a3 3 0 0 0 4.242-4.243l-1.414-1.415a3 3 0 0 0 -4.243 4.244zm0-4.243a1 1 0 0 1 1.414 0l1.414 1.414a1 1 0 0 1 -1.414 1.415l-1.414-1.414a1 1 0 0 1 0-1.415z"/><path d="m50 35h2a3 3 0 0 0 0-6h-2a3 3 0 1 0 0 6zm0-4h2a1 1 0 0 1 0 2h-2a1 1 0 1 1 0-2z"/><path d="m14 29h-2a3 3 0 0 0 0 6h2a3 3 0 0 0 0-6zm0 4h-2a1 1 0 0 1 0-2h2a1 1 0 1 1 0 2z"/></svg>