<svg id="Layer_1" height="512" viewBox="0 0 64 64" width="512" xmlns="http://www.w3.org/2000/svg" data-name="Layer 1"><path d="m25.37 28.73c1.88.16 3.86.25 5.91.26l-3.5 10-2.41-10.27" fill="#c99a3a"/><path d="m47 27.47a48.16 48.16 0 0 1 -5 .89l3 7.64 2-8.57" fill="#c99a3a"/><path d="m32.58 29c2 0 4-.1 5.9-.26l-2.41 10.26z" fill="#c99a3a"/><path d="m17 27.47a48.16 48.16 0 0 0 5 .89l-3 7.65-2-8.57" fill="#c99a3a"/><path d="m32 30c-12.92 0-26-2.4-26-7h2c0 1.75 8.24 5 24 5s24-3.25 24-5h2c0 4.6-13.08 7-26 7z" fill="#919191"/><path d="m49 16h8v2h-8z" fill="#919191"/><path d="m49 22h8v2h-8z" fill="#919191"/><path d="m7 16h8v2h-8z" fill="#919191"/><path d="m7 22h8v2h-8z" fill="#919191"/><path d="m6 3h13v8h-13z" fill="#7f7f7f"/><path d="m11 3h4v4h-4z" fill="#e5e3e4"/><path d="m6 7h5v4h-5z" fill="#e5e3e4"/><path d="m15 7h4v4h-4z" fill="#e5e3e4"/><path d="m5 3h2v14h-2z" fill="#f9c84e"/><path d="m45 3h13v8h-13z" fill="#7f7f7f" transform="matrix(-1 0 0 -1 103 14)"/><path d="m49 3h4v4h-4z" fill="#e5e3e4" transform="matrix(-1 0 0 -1 102 10)"/><path d="m53 7h5v4h-5z" fill="#e5e3e4" transform="matrix(-1 0 0 -1 111 18)"/><path d="m45 7h4v4h-4z" fill="#e5e3e4" transform="matrix(-1 0 0 -1 94 18)"/><path d="m57 3h2v14h-2z" fill="#f9c84e"/><path d="m14 15h36v10h-36z" fill="#7f7f7f"/><g fill="#e5e3e4"><path d="m14 15h4v5h-4z"/><path d="m22 15h4v5h-4z"/><path d="m18 20h4v5h-4z"/><path d="m26 20h4v5h-4z"/><path d="m34 20h4v5h-4z"/><path d="m42 20h4v5h-4z"/><path d="m30 15h4v5h-4z"/><path d="m38 15h4v5h-4z"/><path d="m46 15h4v5h-4z"/></g><path d="m8 43h48v16h-48z" fill="#cecece"/><path d="m12 59 4-16h32l4 16" fill="#e5e3e4"/><path d="m42 59-3.59-16h-12.82l-3.59 16" fill="#dd313a"/><path d="m3 15h6v46h-6z" fill="#2ca3a0"/><path d="m55 15h6v46h-6z" fill="#2ca3a0"/><path d="m31 48h2v2h-2z" fill="#cecece"/><path d="m31 44h2v2h-2z" fill="#cecece"/><path d="m31 56h2v2h-2z" fill="#cecece"/><path d="m31 52h2v2h-2z" fill="#cecece"/></svg>