<svg height="512pt" viewBox="0 0 512 512.00085" width="512pt" xmlns="http://www.w3.org/2000/svg"><path d="m449.800781 183.199219c-6.601562-34.796875-36.902343-61.800781-74.101562-61.199219-14.097657-18.597656-36.296875-30-59.699219-30-24.597656 0-46.199219 11.699219-60 30-13.800781-18.300781-35.398438-30-60-30-23.402344 0-45.601562 11.402344-59.699219 30h-.300781c-36.597656 0-67.199219 26.402344-73.800781 61.199219-34.796875 6.601562-62.199219 37.199219-62.199219 73.800781 0 41.402344 34.601562 75 76 75h360c41.402344 0 76-33.597656 76-75 0-36.601562-27.398438-67.199219-62.199219-73.800781zm0 0" fill="#ffa2c3"/><path d="m512 257c0 41.402344-34.597656 75-76 75h-180v-210c13.800781-18.300781 35.402344-30 60-30 23.402344 0 45.601562 11.402344 59.699219 30 37.203125-.601562 67.5 26.402344 74.101562 61.199219 34.800781 6.601562 62.199219 37.199219 62.199219 73.800781zm0 0" fill="#ff5e95"/><path d="m361 182c0 33-27 60-60 60-18 0-33.898438-8.101562-45-20.699219-11.097656 12.597657-27 20.699219-45 20.699219-33 0-60-27-60-60 0-8.398438 6.597656-15 15-15s15 6.601562 15 15c0 16.5 13.5 30 30 30s30-13.5 30-30c0-8.398438 6.597656-15 15-15s15 6.601562 15 15c0 16.5 13.5 30 30 30s30-13.5 30-30c0-8.398438 6.597656-15 15-15s15 6.601562 15 15zm0 0" fill="#ff5e95"/><path d="m361 182c0 33-27 60-60 60-18 0-33.898438-8.101562-45-20.699219v-54.300781c8.402344 0 15 6.601562 15 15 0 16.5 13.5 30 30 30s30-13.5 30-30c0-8.398438 6.597656-15 15-15s15 6.601562 15 15zm0 0" fill="#ff0059"/><path d="m512 407c0 8.398438-6.597656 15-15 15h-17.5c-7.5 50.699219-50.699219 90-103.5 90s-96-39.300781-103.5-90h-33c-7.5 50.699219-50.699219 90-103.5 90s-96-39.300781-103.5-90h-17.5c-8.402344 0-15-6.601562-15-15s6.597656-15 15-15h18.703125c6.296875-17.398438 22.796875-30 42.296875-30h120c19.5 0 36 12.601562 42.300781 30h35.402344c6.296875-17.398438 22.796875-30 42.296875-30h120c19.5 0 36 12.601562 42.300781 30h18.699219c8.402344 0 15 6.601562 15 15zm0 0" fill="#4a696f"/><path d="m512 407c0 8.398438-6.597656 15-15 15h-17.5c-7.5 50.699219-50.699219 90-103.5 90s-96-39.300781-103.5-90h-16.5v-30h17.703125c6.296875-17.398438 22.796875-30 42.296875-30h120c19.5 0 36 12.601562 42.300781 30h18.699219c8.402344 0 15 6.601562 15 15zm0 0" fill="#293939"/><path d="m376 482c-42.730469 0-69.261719-33.554688-73.824219-64.390625-.363281-2.453125-5.898437-25.609375 13.824219-25.609375h120c19.660156 0 14.214844 22.96875 13.824219 25.609375-4.785157 32.355469-32.542969 64.390625-73.824219 64.390625zm0 0" fill="#92e6e1"/><path d="m136 482c-42.730469 0-69.261719-33.554688-73.824219-64.390625-.363281-2.453125-5.898437-25.609375 13.824219-25.609375h120c19.660156 0 14.214844 22.96875 13.824219 25.609375-4.785157 32.355469-32.542969 64.390625-73.824219 64.390625zm0 0" fill="#b3f2e7"/><path d="m95.394531 83.941406-19.394531-19.394531-19.394531 19.394531c-5.859375 5.859375-15.351563 5.859375-21.210938 0l-30-30c-5.859375-5.859375-5.859375-15.351562 0-21.210937s15.351563-5.859375 21.210938 0l19.394531 19.394531 19.394531-19.394531c5.859375-5.859375 15.351563-5.859375 21.210938 0l30 30c5.859375 5.855469 5.859375 15.351562 0 21.210937s-15.351563 5.859375-21.210938 0zm0 0" fill="#fff35c"/><path d="m455.394531 83.941406-19.394531-19.394531-19.394531 19.394531c-5.859375 5.859375-15.351563 5.859375-21.210938 0s-5.859375-15.351562 0-21.210937l30-30c5.859375-5.859375 15.351563-5.859375 21.210938 0l19.394531 19.394531 19.394531-19.394531c5.859375-5.859375 15.351563-5.859375 21.210938 0 5.859375 5.855469 5.859375 15.351562 0 21.210937l-30 30c-5.859375 5.859375-15.351563 5.859375-21.210938 0zm0 0" fill="#ffd236"/><path d="m286.382812 70.273438c-7.5-3.5-10.753906-12.421876-7.253906-19.9375l12.6875-27.1875c3.53125-7.5 12.480469-10.707032 19.9375-7.25l13.59375 6.34375 6.328125-13.59375c3.53125-7.5 12.480469-10.695313 19.9375-7.253907 7.5 3.503907 10.75 12.421875 7.25 19.9375l-12.671875 27.1875c-3.582031 7.660157-12.660156 10.683594-19.9375 7.253907l-13.59375-6.34375-6.34375 13.59375c-3.476562 7.4375-12.351562 10.769531-19.933594 7.25zm0 0" fill="#ffd236"/><path d="m211.675781 63.023438-6.328125-13.59375-13.59375 6.34375c-7.488281 3.46875-16.4375.246093-19.9375-7.253907l-12.6875-27.1875c-3.5-7.515625-.246094-16.433593 7.253906-19.9375 7.527344-3.46875 16.433594-.246093 19.9375 7.253907l6.339844 13.59375 13.59375-6.34375c7.640625-3.496094 16.464844-.179688 19.9375 7.25l12.671875 27.1875c3.5 7.515624.25 16.4375-7.25 19.9375-7.578125 3.515624-16.453125.199218-19.9375-7.25zm0 0" fill="#fff35c"/></svg>