<svg id="Layer_1" height="512" viewBox="0 0 128 128" width="512" xmlns="http://www.w3.org/2000/svg"><g id="XMLID_273_"><g id="XMLID_254_" fill="#dbdbdb"><path id="XMLID_344_" d="m64 77v28h-18.1c-1.2 0-1.7-1.9-.6-2.6l.1-.1c4.8-3.2 11.4-9.4 13.1-13.5 1.6-4.1 1.5-11.8 1.5-11.8z"/><path id="XMLID_268_" d="m82.1 105.1h-18.1v-28.1h4s-.2 7.7 1.5 11.9c1.6 4.1 8.3 10.3 13.1 13.5l.1.1c1 .7.6 2.6-.6 2.6z"/></g><g id="XMLID_246_" fill="#dbdbdb"><path id="XMLID_256_" d="m91.5 111.6v1.1c0 1.1-.8 2-1.7 2h-25.8v-10h21.1c1.1 0 2.1.5 2.8 1.4l2.8 3.3c.5.6.8 1.4.8 2.2z"/><path id="XMLID_266_" d="m64 104.8v10h-25.8c-1 0-1.7-.9-1.7-2v-1.1c0-.8.3-1.6.8-2.2l2.9-3.3c.8-.9 1.8-1.4 2.8-1.4z"/></g><g id="XMLID_261_"><path id="XMLID_262_" d="m47.3 60.6c-.2 1.9-1.9 3.2-3.7 3l-25.2-2.3c-8.5-.8-15-7.2-15-14.9l-1.8-20.4c0-5.3 4.9-9.6 11-9.6h17.9c1.6 0 2.8 1.3 2.8 2.8v2c0 1.6-1.3 2.8-2.8 2.8h-12c-4.4 0-8 3.1-8 7l1.5 11.6c0 5.9 5 10.8 11.5 11.4l20.8 1.9c1.9.2 3.3 1.9 3.1 3.8z" fill="#dbdbdb"/></g><g id="XMLID_258_"><path id="XMLID_259_" d="m80.7 60.6c.2 1.9 1.9 3.2 3.7 3l25.2-2.3c8.5-.8 15-7.2 15-14.9l1.8-20.4c0-5.3-4.9-9.6-11-9.6h-17.9c-1.6 0-2.8 1.3-2.8 2.8v2c0 1.6 1.3 2.8 2.8 2.8h12c4.4 0 8 3.1 8 7l-1.5 11.6c0 5.9-5 10.8-11.5 11.4l-20.8 1.9c-1.9.2-3.3 1.9-3.1 3.8z" fill="#cacaca"/></g><path id="XMLID_342_" d="m102.9 13.1v41.5c0 2.3-.9 4.5-2.5 6.1l-20.4 20.5-10 10.1c-1.7 1.7-3.9 2.5-6 2.5-2.2 0-4.4-.8-6-2.5l-10-10.1-20.5-20.5c-1.6-1.6-2.5-3.8-2.5-6.1v-41.5c0-5.9 4.4-10.9 10.3-11.5 1-.1 2-.2 3.1-.3 6.3-.7 14.9-1.3 25.5-1.3s19.2.6 25.6 1.2c1.1.1 2.1.2 3.1.3 5.8.7 10.3 5.6 10.3 11.6z" fill="#dbdbdb"/><path id="XMLID_343_" d="m89.5 1.2v52.1c0 1.4-.6 2.7-1.6 3.7l-13.4 12.5-6.6 6.1c-1.1 1-2.5 1.5-4 1.5-1.4 0-2.9-.5-4-1.5l-6.6-6.1-13.3-12.5c-1-1-1.6-2.3-1.6-3.7v-52.1c6.3-.6 14.9-1.2 25.5-1.2s19.2.6 25.6 1.2z" fill="#eaeaea"/><g fill="#cacaca"><path id="XMLID_263_" d="m91.5 111.6v1.1c0 1.1-.8 2-1.7 2h-25.9v-10h21.2c1.1 0 2.1.5 2.8 1.4l2.8 3.3c.5.6.8 1.4.8 2.2z"/><path id="XMLID_338_" d="m82.1 105.1h-18.2v-28.1h4.1s-.2 7.7 1.5 11.9c1.6 4.1 8.3 10.3 13.1 13.5l.1.1c1 .7.6 2.6-.6 2.6z"/><path id="XMLID_339_" d="m102.9 13.1v41.5c0 2.3-.9 4.5-2.5 6.1l-20.4 20.5-10 10.1c-1.7 1.7-3.9 2.5-6 2.5v-93.8c10.6 0 19.2.6 25.6 1.2 1.1.1 2.1.2 3.1.3 5.7.7 10.2 5.6 10.2 11.6z"/></g><path id="XMLID_341_" d="m89.5 1.2v52.1c0 1.4-.6 2.7-1.6 3.7l-13.4 12.5-6.6 6.1c-1.1 1-2.5 1.5-4 1.5v-77.1c10.6 0 19.2.6 25.6 1.2z" fill="#d8d8d8"/><g id="XMLID_247_" fill="#ffcf2c"><path id="XMLID_245_" d="m104.5 123.4v1.6c0 1.6-1.1 2.9-2.6 2.9h-37.9v-14.7h31c1.6 0 3.1.7 4.2 2l4.2 4.9c.7 1 1.1 2.1 1.1 3.3z"/><path id="XMLID_252_" d="m64 113.3v14.7h-37.9c-1.4 0-2.6-1.3-2.6-2.9v-1.6c0-1.2.4-2.3 1.1-3.2l4.2-4.9c1.1-1.3 2.6-2 4.2-2h31z"/></g><path id="XMLID_251_" d="m104.5 123.4v1.6c0 1.6-1.1 2.9-2.6 2.9h-38v-14.7h31.1c1.6 0 3.1.7 4.2 2l4.2 4.9c.7 1 1.1 2.1 1.1 3.3z" fill="#ff9300"/></g></svg>