<svg id="Layer_1" enable-background="new 0 0 512 512" height="512" viewBox="0 0 512 512" width="512" xmlns="http://www.w3.org/2000/svg" xmlns:xlink="http://www.w3.org/1999/xlink"><linearGradient id="lg1"><stop offset="0" stop-color="#ffd300"/><stop offset="1" stop-color="#f3c000"/></linearGradient><linearGradient id="SVGID_1_" gradientUnits="userSpaceOnUse" x1="112.021" x2="429.708" xlink:href="#lg1" y1="340.057" y2="340.057"/><linearGradient id="SVGID_2_" gradientUnits="userSpaceOnUse" x1="57.67" x2="454.33" y1="202.676" y2="202.676"><stop offset="0" stop-color="#f5d000"/><stop offset=".996" stop-color="#ecae00"/></linearGradient><linearGradient id="SVGID_3_" gradientUnits="userSpaceOnUse" x1="57.67" x2="454.33" xlink:href="#lg1" y1="272.038" y2="272.038"/><g><path d="m390.902 283.963c-.703 1.298-1.422 2.571-2.134 3.854 6.435 9.566 9.687 19.681 9.688 29.802 0 21.04-13.9 25.402-41.705 41.451-55.6 32.107-145.758 32.107-201.361 0-26.266-15.163-40.124-18.097-41.579-37.957-.361-4.958.093-9.929 1.277-14.852-1.682-1.628-3.354-3.266-4.931-5-2.67-2.938-5.566-5.695-7.491-9.176-1.535 2.819-2.393 4.521-2.393 4.521s0 15.456 0 21.015c0 23.017 15.212 46.041 45.632 63.602 60.845 35.13 159.492 35.13 220.335 0 30.421-17.562 45.631-40.585 45.631-63.602 0-7.823 0-21.826 0-21.826s-6.114-10.83-14.705-23.252c-1.842 3.786-4.098 7.413-6.264 11.42z" fill="url(#SVGID_1_)"/><path d="m260.734 196.987 59.484.536 20.263-94.74-79.747 82.727z" fill="#dca109"/><path d="m320.218 197.523 56.356.508 9.165-7.69-45.258-87.558z" fill="#ffe02a"/><path d="m376.574 198.031s-3.131 63.843 15.656 79.257c.214-.958.407-2.031.587-3.171l18.794 28.452 42.718-136.374-69.738 24.549z" fill="#ffe02a"/><path d="m140.315 185.086 8.72 5.404 53.569 3.116-20.946-90.823z" fill="#dca109"/><path d="m202.604 193.606 58.13 3.381v-11.477l-79.076-82.727z" fill="#ffe02a"/><path d="m57.67 156.571 42.719 137.41 48.646-103.491-8.72-5.404z" fill="#ffe02a"/><path d="m340.481 102.783-79.746 94.205-79.077-94.205-32.623 87.707-91.365-33.919 42.719 137.41s1.785-2.107 4.93-5.501c.095.115.215.174.288.334 2.07 4.528 6.247 8.401 9.752 11.892.343.341.696.671 1.041 1.01 5.259-15.47 18.228-30.24 38.99-42.226 55.603-32.101 145.761-32.101 201.361 0 12.685 7.324 22.441 15.692 29.339 24.618 1.502-2.726 3.121-5.36 4.649-8.019.492.398 1.021.815 1.491 1.201.214-.959.407-2.031.587-3.171l18.794 28.452 42.718-136.374-77.756 31.835z" fill="url(#SVGID_2_)"/><path d="m260.734 201.851-1.553 146.033 76.686-26.69-6.705-19.478z" fill="#ffe02a"/><path d="m100.389 293.981c0 35.305 75.261 28.258 75.261 28.258l6.007-19.668-123.987-146z" fill="#ffe02a"/><path d="m175.65 322.238 83.531 25.646 1.553-146.033-79.076 100.719z" fill="#e8ab09"/><path d="m335.867 321.194s75.744-6.441 75.744-18.624l42.718-136.374-125.167 135.52z" fill="#e8ab09"/><path d="m260.734 201.851-85.084 120.387-117.98-165.667 42.719 137.41c0 60.872 79.94 95.227 158.791 93.459 76.732-1.721 152.431-38.107 152.431-84.87l42.718-136.374-118.462 154.998z" fill="url(#SVGID_3_)"/><g><circle cx="260.734" cy="200.685" fill="#dd0500" r="19.222"/><circle cx="260.838" cy="200.609" fill="#dd0601" r="19.061"/><circle cx="260.941" cy="200.533" fill="#de0702" r="18.899"/><circle cx="261.044" cy="200.457" fill="#de0803" r="18.738"/><circle cx="261.147" cy="200.381" fill="#de0904" r="18.576"/><circle cx="261.251" cy="200.305" fill="#df0a05" r="18.415"/><circle cx="261.354" cy="200.229" fill="#df0b05" r="18.253"/><circle cx="261.457" cy="200.153" fill="#e00c06" r="18.092"/><circle cx="261.56" cy="200.077" fill="#e00d07" r="17.93"/><circle cx="261.664" cy="200.001" fill="#e00e08" r="17.769"/><circle cx="261.767" cy="199.925" fill="#e10f09" r="17.607"/><circle cx="261.87" cy="199.849" fill="#e1100a" r="17.445"/><circle cx="261.973" cy="199.773" fill="#e1110b" r="17.284"/><circle cx="262.077" cy="199.697" fill="#e2120c" r="17.122"/><circle cx="262.18" cy="199.62" fill="#e2130d" r="16.961"/><circle cx="262.283" cy="199.544" fill="#e3140e" r="16.799"/><circle cx="262.386" cy="199.468" fill="#e3150f" r="16.638"/><circle cx="262.49" cy="199.392" fill="#e31610" r="16.476"/><circle cx="262.593" cy="199.316" fill="#e41710" r="16.315"/><circle cx="262.696" cy="199.24" fill="#e41811" r="16.153"/><circle cx="262.799" cy="199.164" fill="#e41912" r="15.992"/><circle cx="262.903" cy="199.088" fill="#e51a13" r="15.83"/><circle cx="263.006" cy="199.012" fill="#e51b14" r="15.668"/><circle cx="263.109" cy="198.936" fill="#e61c15" r="15.507"/><circle cx="263.212" cy="198.86" fill="#e61d16" r="15.345"/><circle cx="263.316" cy="198.784" fill="#e61e17" r="15.184"/><circle cx="263.419" cy="198.708" fill="#e71f18" r="15.022"/><circle cx="263.522" cy="198.632" fill="#e72019" r="14.861"/><circle cx="263.625" cy="198.556" fill="#e7211a" r="14.699"/><circle cx="263.729" cy="198.48" fill="#e8221a" r="14.538"/><circle cx="263.832" cy="198.404" fill="#e8231b" r="14.376"/><circle cx="263.935" cy="198.327" fill="#e8241c" r="14.215"/><circle cx="264.038" cy="198.251" fill="#e9251d" r="14.053"/><circle cx="264.142" cy="198.175" fill="#e9261e" r="13.892"/><circle cx="264.245" cy="198.099" fill="#ea271f" r="13.73"/><circle cx="264.348" cy="198.023" fill="#ea2820" r="13.568"/><circle cx="264.451" cy="197.947" fill="#ea2921" r="13.407"/><circle cx="264.555" cy="197.871" fill="#eb2a22" r="13.245"/><circle cx="264.658" cy="197.795" fill="#eb2b23" r="13.084"/><circle cx="264.761" cy="197.719" fill="#eb2c24" r="12.922"/><circle cx="264.864" cy="197.643" fill="#ec2d25" r="12.761"/><circle cx="264.968" cy="197.567" fill="#ec2e25" r="12.599"/><circle cx="265.071" cy="197.491" fill="#ed2f26" r="12.438"/><circle cx="265.174" cy="197.415" fill="#ed3027" r="12.276"/><circle cx="265.277" cy="197.339" fill="#ed3128" r="12.115"/><circle cx="265.381" cy="197.263" fill="#ee3229" r="11.953"/><circle cx="265.484" cy="197.187" fill="#ee322a" r="11.791"/><circle cx="265.587" cy="197.111" fill="#ee332b" r="11.63"/><circle cx="265.69" cy="197.035" fill="#ef342c" r="11.468"/><circle cx="265.794" cy="196.958" fill="#ef352d" r="11.307"/><circle cx="265.897" cy="196.882" fill="#ef362e" r="11.145"/><circle cx="266" cy="196.806" fill="#f0372f" r="10.984"/><circle cx="266.103" cy="196.73" fill="#f0382f" r="10.822"/><circle cx="266.207" cy="196.654" fill="#f13930" r="10.661"/><circle cx="266.31" cy="196.578" fill="#f13a31" r="10.499"/><circle cx="266.413" cy="196.502" fill="#f13b32" r="10.338"/><circle cx="266.516" cy="196.426" fill="#f23c33" r="10.176"/><circle cx="266.62" cy="196.35" fill="#f23d34" r="10.015"/><circle cx="266.723" cy="196.274" fill="#f23e35" r="9.853"/><circle cx="266.826" cy="196.198" fill="#f33f36" r="9.691"/><circle cx="266.929" cy="196.122" fill="#f34037" r="9.53"/><circle cx="267.033" cy="196.046" fill="#f44138" r="9.368"/><circle cx="267.136" cy="195.97" fill="#f44239" r="9.207"/><circle cx="267.239" cy="195.894" fill="#f4433a" r="9.045"/><circle cx="267.342" cy="195.818" fill="#f5443a" r="8.884"/><circle cx="267.446" cy="195.742" fill="#f5453b" r="8.722"/><circle cx="267.549" cy="195.665" fill="#f5463c" r="8.561"/><circle cx="267.652" cy="195.589" fill="#f6473d" r="8.399"/><circle cx="267.755" cy="195.513" fill="#f6483e" r="8.238"/><circle cx="267.859" cy="195.437" fill="#f6493f" r="8.076"/><circle cx="267.962" cy="195.361" fill="#f74a40" r="7.914"/><circle cx="268.065" cy="195.285" fill="#f74b41" r="7.753"/><circle cx="268.168" cy="195.209" fill="#f84c42" r="7.591"/><circle cx="268.272" cy="195.133" fill="#f84d43" r="7.43"/><circle cx="268.375" cy="195.057" fill="#f84e44" r="7.268"/><circle cx="268.478" cy="194.981" fill="#f94f44" r="7.107"/><circle cx="268.581" cy="194.905" fill="#f95045" r="6.945"/><circle cx="268.685" cy="194.829" fill="#f95146" r="6.784"/><circle cx="268.788" cy="194.753" fill="#fa5247" r="6.622"/><circle cx="268.891" cy="194.677" fill="#fa5348" r="6.461"/><circle cx="268.994" cy="194.601" fill="#fb5449" r="6.299"/><circle cx="269.098" cy="194.525" fill="#fb554a" r="6.138"/><circle cx="269.201" cy="194.449" fill="#fb564b" r="5.976"/><circle cx="269.304" cy="194.373" fill="#fc574c" r="5.814"/><circle cx="269.407" cy="194.296" fill="#fc584d" r="5.653"/><circle cx="269.511" cy="194.22" fill="#fc594e" r="5.491"/><circle cx="269.614" cy="194.144" fill="#fd5a4f" r="5.33"/><circle cx="269.717" cy="194.068" fill="#fd5b4f" r="5.168"/><circle cx="269.82" cy="193.992" fill="#fe5c50" r="5.007"/><circle cx="269.924" cy="193.916" fill="#fe5d51" r="4.845"/><circle cx="270.027" cy="193.84" fill="#fe5e52" r="4.684"/><circle cx="270.13" cy="193.764" fill="#ff5f53" r="4.522"/><circle cx="270.233" cy="193.688" fill="#ff6054" r="4.361"/></g><g><circle cx="454.33" cy="166.196" fill="#dd0500" r="14.951"/><circle cx="454.41" cy="166.137" fill="#dd0601" r="14.825"/><circle cx="454.49" cy="166.078" fill="#de0702" r="14.699"/><circle cx="454.571" cy="166.019" fill="#de0803" r="14.574"/><circle cx="454.651" cy="165.959" fill="#de0904" r="14.448"/><circle cx="454.731" cy="165.9" fill="#df0a05" r="14.322"/><circle cx="454.811" cy="165.841" fill="#df0b05" r="14.197"/><circle cx="454.892" cy="165.782" fill="#e00c06" r="14.071"/><circle cx="454.972" cy="165.723" fill="#e00d07" r="13.946"/><circle cx="455.052" cy="165.664" fill="#e00e08" r="13.82"/><circle cx="455.133" cy="165.605" fill="#e10f09" r="13.694"/><circle cx="455.213" cy="165.545" fill="#e1100a" r="13.569"/><circle cx="455.293" cy="165.486" fill="#e1110b" r="13.443"/><circle cx="455.374" cy="165.427" fill="#e2120c" r="13.317"/><circle cx="455.454" cy="165.368" fill="#e2130d" r="13.192"/><circle cx="455.534" cy="165.309" fill="#e3140e" r="13.066"/><circle cx="455.615" cy="165.25" fill="#e3150f" r="12.94"/><circle cx="455.695" cy="165.19" fill="#e31610" r="12.815"/><circle cx="455.775" cy="165.131" fill="#e41710" r="12.689"/><circle cx="455.856" cy="165.072" fill="#e41811" r="12.563"/><circle cx="455.936" cy="165.013" fill="#e41912" r="12.438"/><circle cx="456.016" cy="164.954" fill="#e51a13" r="12.312"/><circle cx="456.096" cy="164.895" fill="#e51b14" r="12.186"/><circle cx="456.177" cy="164.835" fill="#e61c15" r="12.061"/><circle cx="456.257" cy="164.776" fill="#e61d16" r="11.935"/><circle cx="456.337" cy="164.717" fill="#e61e17" r="11.809"/><circle cx="456.418" cy="164.658" fill="#e71f18" r="11.684"/><circle cx="456.498" cy="164.599" fill="#e72019" r="11.558"/><circle cx="456.578" cy="164.54" fill="#e7211a" r="11.433"/><circle cx="456.659" cy="164.48" fill="#e8221a" r="11.307"/><circle cx="456.739" cy="164.421" fill="#e8231b" r="11.181"/><circle cx="456.819" cy="164.362" fill="#e8241c" r="11.056"/><circle cx="456.9" cy="164.303" fill="#e9251d" r="10.93"/><circle cx="456.98" cy="164.244" fill="#e9261e" r="10.804"/><circle cx="457.06" cy="164.185" fill="#ea271f" r="10.679"/><circle cx="457.14" cy="164.126" fill="#ea2820" r="10.553"/><circle cx="457.221" cy="164.066" fill="#ea2921" r="10.427"/><circle cx="457.301" cy="164.007" fill="#eb2a22" r="10.302"/><circle cx="457.381" cy="163.948" fill="#eb2b23" r="10.176"/><circle cx="457.462" cy="163.889" fill="#eb2c24" r="10.05"/><circle cx="457.542" cy="163.83" fill="#ec2d25" r="9.925"/><circle cx="457.622" cy="163.771" fill="#ec2e25" r="9.799"/><circle cx="457.703" cy="163.711" fill="#ed2f26" r="9.673"/><circle cx="457.783" cy="163.652" fill="#ed3027" r="9.548"/><circle cx="457.863" cy="163.593" fill="#ed3128" r="9.422"/><circle cx="457.944" cy="163.534" fill="#ee3229" r="9.297"/><circle cx="458.024" cy="163.475" fill="#ee322a" r="9.171"/><circle cx="458.104" cy="163.416" fill="#ee332b" r="9.045"/><circle cx="458.184" cy="163.356" fill="#ef342c" r="8.92"/><circle cx="458.265" cy="163.297" fill="#ef352d" r="8.794"/><circle cx="458.345" cy="163.238" fill="#ef362e" r="8.668"/><circle cx="458.425" cy="163.179" fill="#f0372f" r="8.543"/><circle cx="458.506" cy="163.12" fill="#f0382f" r="8.417"/><circle cx="458.586" cy="163.061" fill="#f13930" r="8.291"/><circle cx="458.666" cy="163.001" fill="#f13a31" r="8.166"/><circle cx="458.747" cy="162.942" fill="#f13b32" r="8.04"/><circle cx="458.827" cy="162.883" fill="#f23c33" r="7.914"/><circle cx="458.907" cy="162.824" fill="#f23d34" r="7.789"/><circle cx="458.988" cy="162.765" fill="#f23e35" r="7.663"/><circle cx="459.068" cy="162.706" fill="#f33f36" r="7.537"/><circle cx="459.148" cy="162.647" fill="#f34037" r="7.412"/><circle cx="459.229" cy="162.587" fill="#f44138" r="7.286"/><circle cx="459.309" cy="162.528" fill="#f44239" r="7.16"/><circle cx="459.389" cy="162.469" fill="#f4433a" r="7.035"/><circle cx="459.469" cy="162.41" fill="#f5443a" r="6.909"/><circle cx="459.55" cy="162.351" fill="#f5453b" r="6.784"/><circle cx="459.63" cy="162.292" fill="#f5463c" r="6.658"/><circle cx="459.71" cy="162.232" fill="#f6473d" r="6.532"/><circle cx="459.791" cy="162.173" fill="#f6483e" r="6.407"/><circle cx="459.871" cy="162.114" fill="#f6493f" r="6.281"/><circle cx="459.951" cy="162.055" fill="#f74a40" r="6.155"/><circle cx="460.032" cy="161.996" fill="#f74b41" r="6.03"/><circle cx="460.112" cy="161.937" fill="#f84c42" r="5.904"/><circle cx="460.192" cy="161.877" fill="#f84d43" r="5.778"/><circle cx="460.273" cy="161.818" fill="#f84e44" r="5.653"/><circle cx="460.353" cy="161.759" fill="#f94f44" r="5.527"/><circle cx="460.433" cy="161.7" fill="#f95045" r="5.401"/><circle cx="460.513" cy="161.641" fill="#f95146" r="5.276"/><circle cx="460.594" cy="161.582" fill="#fa5247" r="5.15"/><circle cx="460.674" cy="161.522" fill="#fa5348" r="5.024"/><circle cx="460.754" cy="161.463" fill="#fb5449" r="4.899"/><circle cx="460.835" cy="161.404" fill="#fb554a" r="4.773"/><circle cx="460.915" cy="161.345" fill="#fb564b" r="4.648"/><circle cx="460.995" cy="161.286" fill="#fc574c" r="4.522"/><circle cx="461.076" cy="161.227" fill="#fc584d" r="4.396"/><circle cx="461.156" cy="161.168" fill="#fc594e" r="4.271"/><circle cx="461.236" cy="161.108" fill="#fd5a4f" r="4.145"/><circle cx="461.317" cy="161.049" fill="#fd5b4f" r="4.019"/><circle cx="461.397" cy="160.99" fill="#fe5c50" r="3.894"/><circle cx="461.477" cy="160.931" fill="#fe5d51" r="3.768"/><circle cx="461.557" cy="160.872" fill="#fe5e52" r="3.642"/><circle cx="461.638" cy="160.813" fill="#ff5f53" r="3.517"/><circle cx="461.718" cy="160.753" fill="#ff6054" r="3.391"/></g><g><circle cx="57.67" cy="156.57" fill="#dd0500" r="14.951"/><circle cx="57.751" cy="156.511" fill="#dd0601" r="14.825"/><circle cx="57.831" cy="156.452" fill="#de0702" r="14.7"/><circle cx="57.911" cy="156.393" fill="#de0803" r="14.574"/><circle cx="57.992" cy="156.334" fill="#de0904" r="14.448"/><circle cx="58.072" cy="156.275" fill="#df0a05" r="14.323"/><circle cx="58.152" cy="156.215" fill="#df0b05" r="14.197"/><circle cx="58.233" cy="156.156" fill="#e00c06" r="14.071"/><circle cx="58.313" cy="156.097" fill="#e00d07" r="13.946"/><circle cx="58.393" cy="156.038" fill="#e00e08" r="13.82"/><circle cx="58.473" cy="155.979" fill="#e10f09" r="13.694"/><circle cx="58.554" cy="155.92" fill="#e1100a" r="13.569"/><circle cx="58.634" cy="155.861" fill="#e1110b" r="13.443"/><circle cx="58.714" cy="155.801" fill="#e2120c" r="13.317"/><circle cx="58.795" cy="155.742" fill="#e2130d" r="13.192"/><circle cx="58.875" cy="155.683" fill="#e3140e" r="13.066"/><circle cx="58.955" cy="155.624" fill="#e3150f" r="12.94"/><circle cx="59.036" cy="155.565" fill="#e31610" r="12.815"/><circle cx="59.116" cy="155.506" fill="#e41710" r="12.689"/><circle cx="59.196" cy="155.446" fill="#e41811" r="12.564"/><circle cx="59.277" cy="155.387" fill="#e41912" r="12.438"/><circle cx="59.357" cy="155.328" fill="#e51a13" r="12.312"/><circle cx="59.437" cy="155.269" fill="#e51b14" r="12.187"/><circle cx="59.517" cy="155.21" fill="#e61c15" r="12.061"/><circle cx="59.598" cy="155.151" fill="#e61d16" r="11.935"/><circle cx="59.678" cy="155.092" fill="#e61e17" r="11.81"/><circle cx="59.758" cy="155.032" fill="#e71f18" r="11.684"/><circle cx="59.839" cy="154.973" fill="#e72019" r="11.558"/><circle cx="59.919" cy="154.914" fill="#e7211a" r="11.433"/><circle cx="59.999" cy="154.855" fill="#e8221a" r="11.307"/><circle cx="60.08" cy="154.796" fill="#e8231b" r="11.181"/><circle cx="60.16" cy="154.737" fill="#e8241c" r="11.056"/><circle cx="60.24" cy="154.677" fill="#e9251d" r="10.93"/><circle cx="60.321" cy="154.618" fill="#e9261e" r="10.804"/><circle cx="60.401" cy="154.559" fill="#ea271f" r="10.679"/><circle cx="60.481" cy="154.5" fill="#ea2820" r="10.553"/><circle cx="60.561" cy="154.441" fill="#ea2921" r="10.427"/><circle cx="60.642" cy="154.382" fill="#eb2a22" r="10.302"/><circle cx="60.722" cy="154.323" fill="#eb2b23" r="10.176"/><circle cx="60.802" cy="154.263" fill="#eb2c24" r="10.05"/><circle cx="60.883" cy="154.204" fill="#ec2d25" r="9.925"/><circle cx="60.963" cy="154.145" fill="#ec2e25" r="9.799"/><circle cx="61.043" cy="154.086" fill="#ed2f26" r="9.674"/><circle cx="61.124" cy="154.027" fill="#ed3027" r="9.548"/><circle cx="61.204" cy="153.968" fill="#ed3128" r="9.422"/><circle cx="61.284" cy="153.908" fill="#ee3229" r="9.297"/><circle cx="61.365" cy="153.849" fill="#ee322a" r="9.171"/><circle cx="61.445" cy="153.79" fill="#ee332b" r="9.045"/><circle cx="61.525" cy="153.731" fill="#ef342c" r="8.92"/><circle cx="61.606" cy="153.672" fill="#ef352d" r="8.794"/><circle cx="61.686" cy="153.613" fill="#ef362e" r="8.668"/><circle cx="61.766" cy="153.554" fill="#f0372f" r="8.543"/><circle cx="61.846" cy="153.494" fill="#f0382f" r="8.417"/><circle cx="61.927" cy="153.435" fill="#f13930" r="8.291"/><circle cx="62.007" cy="153.376" fill="#f13a31" r="8.166"/><circle cx="62.087" cy="153.317" fill="#f13b32" r="8.04"/><circle cx="62.168" cy="153.258" fill="#f23c33" r="7.914"/><circle cx="62.248" cy="153.199" fill="#f23d34" r="7.789"/><circle cx="62.328" cy="153.139" fill="#f23e35" r="7.663"/><circle cx="62.409" cy="153.08" fill="#f33f36" r="7.537"/><circle cx="62.489" cy="153.021" fill="#f34037" r="7.412"/><circle cx="62.569" cy="152.962" fill="#f44138" r="7.286"/><circle cx="62.65" cy="152.903" fill="#f44239" r="7.16"/><circle cx="62.73" cy="152.844" fill="#f4433a" r="7.035"/><circle cx="62.81" cy="152.785" fill="#f5443a" r="6.909"/><circle cx="62.89" cy="152.725" fill="#f5453b" r="6.783"/><circle cx="62.971" cy="152.666" fill="#f5463c" r="6.658"/><circle cx="63.051" cy="152.607" fill="#f6473d" r="6.532"/><circle cx="63.131" cy="152.548" fill="#f6483e" r="6.407"/><circle cx="63.212" cy="152.489" fill="#f6493f" r="6.281"/><circle cx="63.292" cy="152.43" fill="#f74a40" r="6.155"/><circle cx="63.372" cy="152.37" fill="#f74b41" r="6.03"/><circle cx="63.453" cy="152.311" fill="#f84c42" r="5.904"/><circle cx="63.533" cy="152.252" fill="#f84d43" r="5.778"/><circle cx="63.613" cy="152.193" fill="#f84e44" r="5.653"/><circle cx="63.694" cy="152.134" fill="#f94f44" r="5.527"/><circle cx="63.774" cy="152.075" fill="#f95045" r="5.401"/><circle cx="63.854" cy="152.015" fill="#f95146" r="5.276"/><circle cx="63.934" cy="151.956" fill="#fa5247" r="5.15"/><circle cx="64.015" cy="151.897" fill="#fa5348" r="5.024"/><circle cx="64.095" cy="151.838" fill="#fb5449" r="4.899"/><circle cx="64.175" cy="151.779" fill="#fb554a" r="4.773"/><circle cx="64.256" cy="151.72" fill="#fb564b" r="4.647"/><circle cx="64.336" cy="151.661" fill="#fc574c" r="4.522"/><circle cx="64.416" cy="151.601" fill="#fc584d" r="4.396"/><circle cx="64.497" cy="151.542" fill="#fc594e" r="4.27"/><circle cx="64.577" cy="151.483" fill="#fd5a4f" r="4.145"/><circle cx="64.657" cy="151.424" fill="#fd5b4f" r="4.019"/><circle cx="64.738" cy="151.365" fill="#fe5c50" r="3.893"/><circle cx="64.818" cy="151.306" fill="#fe5d51" r="3.768"/><circle cx="64.898" cy="151.246" fill="#fe5e52" r="3.642"/><circle cx="64.979" cy="151.187" fill="#ff5f53" r="3.517"/><circle cx="65.059" cy="151.128" fill="#ff6054" r="3.391"/></g><g><circle cx="181.658" cy="102.783" fill="#dd0500" r="10.679"/><circle cx="181.715" cy="102.74" fill="#dd0601" r="10.589"/><circle cx="181.772" cy="102.698" fill="#de0702" r="10.5"/><circle cx="181.83" cy="102.656" fill="#de0803" r="10.41"/><circle cx="181.887" cy="102.614" fill="#de0904" r="10.32"/><circle cx="181.944" cy="102.571" fill="#df0a05" r="10.23"/><circle cx="182.002" cy="102.529" fill="#df0b05" r="10.141"/><circle cx="182.059" cy="102.487" fill="#e00c06" r="10.051"/><circle cx="182.116" cy="102.445" fill="#e00d07" r="9.961"/><circle cx="182.174" cy="102.402" fill="#e00e08" r="9.871"/><circle cx="182.231" cy="102.36" fill="#e10f09" r="9.782"/><circle cx="182.289" cy="102.318" fill="#e1100a" r="9.692"/><circle cx="182.346" cy="102.276" fill="#e1110b" r="9.602"/><circle cx="182.403" cy="102.233" fill="#e2120c" r="9.512"/><circle cx="182.461" cy="102.191" fill="#e2130d" r="9.423"/><circle cx="182.518" cy="102.149" fill="#e3140e" r="9.333"/><circle cx="182.575" cy="102.107" fill="#e3150f" r="9.243"/><circle cx="182.633" cy="102.064" fill="#e31610" r="9.153"/><circle cx="182.69" cy="102.022" fill="#e41710" r="9.064"/><circle cx="182.747" cy="101.98" fill="#e41811" r="8.974"/><circle cx="182.805" cy="101.938" fill="#e41912" r="8.884"/><circle cx="182.862" cy="101.895" fill="#e51a13" r="8.794"/><circle cx="182.919" cy="101.853" fill="#e51b14" r="8.705"/><circle cx="182.977" cy="101.811" fill="#e61c15" r="8.615"/><circle cx="183.034" cy="101.769" fill="#e61d16" r="8.525"/><circle cx="183.092" cy="101.726" fill="#e61e17" r="8.435"/><circle cx="183.149" cy="101.684" fill="#e71f18" r="8.346"/><circle cx="183.206" cy="101.642" fill="#e72019" r="8.256"/><circle cx="183.264" cy="101.6" fill="#e7211a" r="8.166"/><circle cx="183.321" cy="101.557" fill="#e8221a" r="8.076"/><circle cx="183.378" cy="101.515" fill="#e8231b" r="7.987"/><circle cx="183.436" cy="101.473" fill="#e8241c" r="7.897"/><circle cx="183.493" cy="101.431" fill="#e9251d" r="7.807"/><circle cx="183.55" cy="101.388" fill="#e9261e" r="7.717"/><circle cx="183.608" cy="101.346" fill="#ea271f" r="7.628"/><circle cx="183.665" cy="101.304" fill="#ea2820" r="7.538"/><circle cx="183.723" cy="101.262" fill="#ea2921" r="7.448"/><circle cx="183.78" cy="101.219" fill="#eb2a22" r="7.358"/><circle cx="183.837" cy="101.177" fill="#eb2b23" r="7.269"/><circle cx="183.895" cy="101.135" fill="#eb2c24" r="7.179"/><circle cx="183.952" cy="101.093" fill="#ec2d25" r="7.089"/><circle cx="184.009" cy="101.05" fill="#ec2e25" r="6.999"/><circle cx="184.067" cy="101.008" fill="#ed2f26" r="6.91"/><circle cx="184.124" cy="100.966" fill="#ed3027" r="6.82"/><circle cx="184.181" cy="100.923" fill="#ed3128" r="6.73"/><circle cx="184.239" cy="100.881" fill="#ee3229" r="6.64"/><circle cx="184.296" cy="100.839" fill="#ee322a" r="6.551"/><circle cx="184.353" cy="100.797" fill="#ee332b" r="6.461"/><circle cx="184.411" cy="100.754" fill="#ef342c" r="6.371"/><circle cx="184.468" cy="100.712" fill="#ef352d" r="6.281"/><circle cx="184.526" cy="100.67" fill="#ef362e" r="6.192"/><circle cx="184.583" cy="100.628" fill="#f0372f" r="6.102"/><circle cx="184.64" cy="100.585" fill="#f0382f" r="6.012"/><circle cx="184.698" cy="100.543" fill="#f13930" r="5.922"/><circle cx="184.755" cy="100.501" fill="#f13a31" r="5.833"/><circle cx="184.812" cy="100.459" fill="#f13b32" r="5.743"/><circle cx="184.87" cy="100.416" fill="#f23c33" r="5.653"/><circle cx="184.927" cy="100.374" fill="#f23d34" r="5.563"/><circle cx="184.984" cy="100.332" fill="#f23e35" r="5.474"/><circle cx="185.042" cy="100.29" fill="#f33f36" r="5.384"/><circle cx="185.099" cy="100.247" fill="#f34037" r="5.294"/><circle cx="185.156" cy="100.205" fill="#f44138" r="5.205"/><circle cx="185.214" cy="100.163" fill="#f44239" r="5.115"/><circle cx="185.271" cy="100.121" fill="#f4433a" r="5.025"/><circle cx="185.329" cy="100.078" fill="#f5443a" r="4.935"/><circle cx="185.386" cy="100.036" fill="#f5453b" r="4.846"/><circle cx="185.443" cy="99.994" fill="#f5463c" r="4.756"/><circle cx="185.501" cy="99.952" fill="#f6473d" r="4.666"/><circle cx="185.558" cy="99.909" fill="#f6483e" r="4.576"/><circle cx="185.615" cy="99.867" fill="#f6493f" r="4.487"/><circle cx="185.673" cy="99.825" fill="#f74a40" r="4.397"/><circle cx="185.73" cy="99.783" fill="#f74b41" r="4.307"/><circle cx="185.787" cy="99.74" fill="#f84c42" r="4.217"/><circle cx="185.845" cy="99.698" fill="#f84d43" r="4.128"/><circle cx="185.902" cy="99.656" fill="#f84e44" r="4.038"/><circle cx="185.959" cy="99.614" fill="#f94f44" r="3.948"/><circle cx="186.017" cy="99.571" fill="#f95045" r="3.858"/><circle cx="186.074" cy="99.529" fill="#f95146" r="3.769"/><circle cx="186.132" cy="99.487" fill="#fa5247" r="3.679"/><circle cx="186.189" cy="99.445" fill="#fa5348" r="3.589"/><circle cx="186.246" cy="99.402" fill="#fb5449" r="3.499"/><circle cx="186.304" cy="99.36" fill="#fb554a" r="3.41"/><circle cx="186.361" cy="99.318" fill="#fb564b" r="3.32"/><circle cx="186.418" cy="99.276" fill="#fc574c" r="3.23"/><circle cx="186.476" cy="99.233" fill="#fc584d" r="3.14"/><circle cx="186.533" cy="99.191" fill="#fc594e" r="3.051"/><circle cx="186.59" cy="99.149" fill="#fd5a4f" r="2.961"/><circle cx="186.648" cy="99.107" fill="#fd5b4f" r="2.871"/><circle cx="186.705" cy="99.064" fill="#fe5c50" r="2.781"/><circle cx="186.762" cy="99.022" fill="#fe5d51" r="2.692"/><circle cx="186.82" cy="98.98" fill="#fe5e52" r="2.602"/><circle cx="186.877" cy="98.938" fill="#ff5f53" r="2.512"/><circle cx="186.935" cy="98.895" fill="#ff6054" r="2.422"/></g><g><circle cx="340.481" cy="102.783" fill="#dd0500" r="10.679"/><circle cx="340.538" cy="102.74" fill="#dd0601" r="10.589"/><circle cx="340.595" cy="102.698" fill="#de0702" r="10.5"/><circle cx="340.653" cy="102.656" fill="#de0803" r="10.41"/><circle cx="340.71" cy="102.614" fill="#de0904" r="10.32"/><circle cx="340.767" cy="102.571" fill="#df0a05" r="10.23"/><circle cx="340.825" cy="102.529" fill="#df0b05" r="10.141"/><circle cx="340.882" cy="102.487" fill="#e00c06" r="10.051"/><circle cx="340.939" cy="102.445" fill="#e00d07" r="9.961"/><circle cx="340.997" cy="102.402" fill="#e00e08" r="9.871"/><circle cx="341.054" cy="102.36" fill="#e10f09" r="9.782"/><circle cx="341.112" cy="102.318" fill="#e1100a" r="9.692"/><circle cx="341.169" cy="102.276" fill="#e1110b" r="9.602"/><circle cx="341.226" cy="102.233" fill="#e2120c" r="9.512"/><circle cx="341.284" cy="102.191" fill="#e2130d" r="9.423"/><circle cx="341.341" cy="102.149" fill="#e3140e" r="9.333"/><circle cx="341.398" cy="102.107" fill="#e3150f" r="9.243"/><circle cx="341.456" cy="102.064" fill="#e31610" r="9.153"/><circle cx="341.513" cy="102.022" fill="#e41710" r="9.064"/><circle cx="341.57" cy="101.98" fill="#e41811" r="8.974"/><circle cx="341.628" cy="101.938" fill="#e41912" r="8.884"/><circle cx="341.685" cy="101.895" fill="#e51a13" r="8.794"/><circle cx="341.742" cy="101.853" fill="#e51b14" r="8.705"/><circle cx="341.8" cy="101.811" fill="#e61c15" r="8.615"/><circle cx="341.857" cy="101.769" fill="#e61d16" r="8.525"/><circle cx="341.915" cy="101.726" fill="#e61e17" r="8.435"/><circle cx="341.972" cy="101.684" fill="#e71f18" r="8.346"/><circle cx="342.029" cy="101.642" fill="#e72019" r="8.256"/><circle cx="342.087" cy="101.6" fill="#e7211a" r="8.166"/><circle cx="342.144" cy="101.557" fill="#e8221a" r="8.076"/><circle cx="342.201" cy="101.515" fill="#e8231b" r="7.987"/><circle cx="342.259" cy="101.473" fill="#e8241c" r="7.897"/><circle cx="342.316" cy="101.431" fill="#e9251d" r="7.807"/><circle cx="342.373" cy="101.388" fill="#e9261e" r="7.717"/><circle cx="342.431" cy="101.346" fill="#ea271f" r="7.628"/><circle cx="342.488" cy="101.304" fill="#ea2820" r="7.538"/><circle cx="342.546" cy="101.262" fill="#ea2921" r="7.448"/><circle cx="342.603" cy="101.219" fill="#eb2a22" r="7.358"/><circle cx="342.66" cy="101.177" fill="#eb2b23" r="7.269"/><circle cx="342.718" cy="101.135" fill="#eb2c24" r="7.179"/><circle cx="342.775" cy="101.093" fill="#ec2d25" r="7.089"/><circle cx="342.832" cy="101.05" fill="#ec2e25" r="6.999"/><circle cx="342.89" cy="101.008" fill="#ed2f26" r="6.91"/><circle cx="342.947" cy="100.966" fill="#ed3027" r="6.82"/><circle cx="343.004" cy="100.923" fill="#ed3128" r="6.73"/><circle cx="343.062" cy="100.881" fill="#ee3229" r="6.64"/><circle cx="343.119" cy="100.839" fill="#ee322a" r="6.551"/><circle cx="343.176" cy="100.797" fill="#ee332b" r="6.461"/><circle cx="343.234" cy="100.754" fill="#ef342c" r="6.371"/><circle cx="343.291" cy="100.712" fill="#ef352d" r="6.281"/><circle cx="343.349" cy="100.67" fill="#ef362e" r="6.192"/><circle cx="343.406" cy="100.628" fill="#f0372f" r="6.102"/><circle cx="343.463" cy="100.585" fill="#f0382f" r="6.012"/><circle cx="343.521" cy="100.543" fill="#f13930" r="5.922"/><circle cx="343.578" cy="100.501" fill="#f13a31" r="5.833"/><circle cx="343.635" cy="100.459" fill="#f13b32" r="5.743"/><circle cx="343.693" cy="100.416" fill="#f23c33" r="5.653"/><circle cx="343.75" cy="100.374" fill="#f23d34" r="5.563"/><circle cx="343.807" cy="100.332" fill="#f23e35" r="5.474"/><circle cx="343.865" cy="100.29" fill="#f33f36" r="5.384"/><circle cx="343.922" cy="100.247" fill="#f34037" r="5.294"/><circle cx="343.979" cy="100.205" fill="#f44138" r="5.205"/><circle cx="344.037" cy="100.163" fill="#f44239" r="5.115"/><circle cx="344.094" cy="100.121" fill="#f4433a" r="5.025"/><circle cx="344.152" cy="100.078" fill="#f5443a" r="4.935"/><circle cx="344.209" cy="100.036" fill="#f5453b" r="4.846"/><circle cx="344.266" cy="99.994" fill="#f5463c" r="4.756"/><circle cx="344.324" cy="99.952" fill="#f6473d" r="4.666"/><circle cx="344.381" cy="99.909" fill="#f6483e" r="4.576"/><circle cx="344.438" cy="99.867" fill="#f6493f" r="4.487"/><circle cx="344.496" cy="99.825" fill="#f74a40" r="4.397"/><circle cx="344.553" cy="99.783" fill="#f74b41" r="4.307"/><circle cx="344.61" cy="99.74" fill="#f84c42" r="4.217"/><circle cx="344.668" cy="99.698" fill="#f84d43" r="4.128"/><circle cx="344.725" cy="99.656" fill="#f84e44" r="4.038"/><circle cx="344.783" cy="99.614" fill="#f94f44" r="3.948"/><circle cx="344.84" cy="99.571" fill="#f95045" r="3.858"/><circle cx="344.897" cy="99.529" fill="#f95146" r="3.769"/><circle cx="344.955" cy="99.487" fill="#fa5247" r="3.679"/><circle cx="345.012" cy="99.445" fill="#fa5348" r="3.589"/><circle cx="345.069" cy="99.402" fill="#fb5449" r="3.499"/><circle cx="345.127" cy="99.36" fill="#fb554a" r="3.41"/><circle cx="345.184" cy="99.318" fill="#fb564b" r="3.32"/><circle cx="345.241" cy="99.276" fill="#fc574c" r="3.23"/><circle cx="345.299" cy="99.233" fill="#fc584d" r="3.14"/><circle cx="345.356" cy="99.191" fill="#fc594e" r="3.051"/><circle cx="345.413" cy="99.149" fill="#fd5a4f" r="2.961"/><circle cx="345.471" cy="99.107" fill="#fd5b4f" r="2.871"/><circle cx="345.528" cy="99.064" fill="#fe5c50" r="2.781"/><circle cx="345.586" cy="99.022" fill="#fe5d51" r="2.692"/><circle cx="345.643" cy="98.98" fill="#fe5e52" r="2.602"/><circle cx="345.7" cy="98.938" fill="#ff5f53" r="2.512"/><circle cx="345.758" cy="98.895" fill="#ff6054" r="2.422"/></g></g></svg>