<svg height="480pt" viewBox="0 0 480 480" width="480pt" xmlns="http://www.w3.org/2000/svg"><path d="m8 320h88v112h-88zm0 0" fill="#3d9ae2"/><path d="m160 440v8h-64v-144h64zm0 0" fill="#1e81ce"/><g fill="#ffdaaa"><path d="m244.71875 348.71875c-3.039062 2.964844-4.742188 7.035156-4.71875 11.28125.027344 8.824219 7.175781 15.972656 16 16-8.808594.066406-15.933594 7.191406-16 16 .027344 8.824219 7.175781 15.972656 16 16-8.808594.066406-15.933594 7.191406-16 16 .027344 8.824219 7.175781 15.972656 16 16h-96v-128l32-16h72c8.824219.027344 15.972656 7.175781 16 16-.066406 8.808594-7.191406 15.933594-16 16h-24c.027344 8.824219 7.175781 15.972656 16 16-4.246094-.023438-8.316406 1.679688-11.28125 4.71875zm0 0"/><path d="m320 344v32h-64c-8.824219-.027344-15.972656-7.175781-16-16 .066406-8.808594 7.191406-15.933594 16-16zm0 0"/><path d="m320 408v16c-.027344 8.824219-7.175781 15.972656-16 16h-48c-8.824219-.027344-15.972656-7.175781-16-16 .066406-8.808594 7.191406-15.933594 16-16zm0 0"/><path d="m320 376v32h-64c-8.824219-.027344-15.972656-7.175781-16-16 .066406-8.808594 7.191406-15.933594 16-16zm0 0"/><path d="m264 328c8.808594-.066406 15.933594-7.191406 16-16h24c8.824219.027344 15.972656 7.175781 16 16v16h-64c-8.824219-.027344-15.972656-7.175781-16-16zm0 0"/></g><path d="m104 24h368v232h-368zm0 0" fill="#1e81ce"/><path d="m304 8v224h144v-224zm0 0" fill="#e6e7e8"/><path d="m272 24v224c-.007812 2.53125.597656 5.03125 1.761719 7.28125 2.703125 5.289062 8.121093 8.644531 14.0625 8.710938 5.941406.066406 11.429687-3.164063 14.253906-8.390626 1.253906-2.339843 1.914063-4.949218 1.921875-7.601562v-224zm0 0" fill="#ff9811"/><path d="m128 8v224h144v-224zm0 0" fill="#e6e7e8"/><path d="m240 424c.003906 5.710938 3.054688 10.984375 8 13.839844v2.160156h-32v-76.320312c3.078125-2.679688 5.773438-5.777344 8-9.199219 5.25-7.832031 8.039062-17.054688 8-26.480469h8c.003906 5.710938 3.054688 10.984375 8 13.839844v4.320312c-1.210938.691406-2.316406 1.554688-3.28125 2.558594-3.039062 2.964844-4.742188 7.035156-4.71875 11.28125.003906 5.710938 3.054688 10.984375 8 13.839844v4.320312c-1.210938.691406-2.316406 1.554688-3.28125 2.558594-3.039062 2.964844-4.742188 7.035156-4.71875 11.28125.003906 5.710938 3.054688 10.984375 8 13.839844v4.320312c-1.210938.691406-2.316406 1.554688-3.28125 2.558594-3.039062 2.964844-4.742188 7.035156-4.71875 11.28125zm0 0" fill="#898890"/><path d="m248 440v16c-.027344 8.824219-7.175781 15.972656-16 16-8.808594-.066406-15.933594-7.191406-16-16v-16zm0 0" fill="#898890"/><path d="m248 262.800781v33.199219h-32v-33.199219c10.605469 1.597657 21.394531 1.597657 32 0zm0 0" fill="#898890"/><path d="m304 232v-146.960938c10.339844 9.863282 18.511719 21.769532 24 34.960938 4.238281 10.191406 6.832031 20.992188 7.679688 32 .242187 2.640625.320312 5.28125.320312 8 .019531 26.855469-10.390625 52.671875-29.039062 72zm0 0" fill="#00ccb3"/><path d="m304 85.039062v149.921876c-8.785156 8.523437-19.027344 15.40625-30.238281 20.320312-26.035157 11.421875-55.613281 11.683594-81.839844.71875-31.671875-13.210938-54.777344-41.203125-61.753906-74.800781-6.976563-33.597657 3.082031-68.472657 26.871093-93.199219 19.066407-19.929688 45.289063-31.449219 72.867188-32.003906 27.578125-.554688 54.238281 9.894531 74.09375 29.042968zm0 0" fill="#00ccb3"/><path d="m272 100.160156c19.992188 13.347656 32 35.800782 32 59.839844s-12.007812 46.492188-32 59.839844zm0 0" fill="#ffd422"/><path d="m172.160156 120c10.597656-15.882812 27.078125-26.898438 45.804688-30.621094 18.730468-3.722656 38.167968.15625 54.035156 10.78125v119.679688c-18.464844 12.363281-41.609375 15.496094-62.695312 8.488281-21.089844-7.007813-37.753907-23.371094-45.144532-44.328125-2.769531-7.699219-4.179687-15.820312-4.160156-24-.003906-2.675781.160156-5.34375.480469-8 1.261719-11.453125 5.269531-22.429688 11.679687-32zm0 0" fill="#ffd422"/><path d="m304 304h-17.472656c-3.378906-9.554688-12.394532-15.957031-22.527344-16h-8v-18.65625c55.855469-12.253906 93.511719-64.617188 87.347656-121.46875-6.164062-56.851562-54.164062-99.929688-111.347656-99.929688s-105.183594 43.078126-111.347656 99.929688c-6.164063 56.851562 31.492187 109.214844 87.347656 121.46875v18.65625h-16c-1.238281-.011719-2.460938.261719-3.574219.800781l-21.816406 10.910157c-1.421875-2.289063-3.914063-3.6875-6.609375-3.710938h-64c-4.417969 0-8 3.582031-8 8v8h-80c-4.417969 0-8 3.582031-8 8v112c0 4.417969 3.582031 8 8 8h80v8c0 4.417969 3.582031 8 8 8h64c4.417969 0 8-3.582031 8-8h40v8c.074219 13.222656 10.777344 23.925781 24 24 13.253906 0 24-10.746094 24-24v-8h48c13.253906 0 24-10.746094 24-24v-96c0-13.253906-10.746094-24-24-24zm-288 120v-96h72v96zm296-56h-56c-4.417969 0-8-3.582031-8-8s3.582031-8 8-8h56zm-73.761719-24c-.359375.398438-.695312.800781-1.023437 1.246094.191406-.597656.402344-1.191406.570312-1.796875.160156.183593.292969.375.453125.550781zm9.761719 48c0-4.417969 3.582031-8 8-8h56v16h-56c-4.417969 0-8-3.582031-8-8zm64-64v8h-48c10.144531-.019531 19.175781-6.429688 22.542969-16h17.457031c4.417969 0 8 3.582031 8 8zm-176-168c0-53.019531 42.980469-96 96-96s96 42.980469 96 96-42.980469 96-96 96c-52.996094-.058594-95.941406-43.003906-96-96zm88 111.59375c2.65625.191406 5.296875.40625 8 .40625s5.34375-.214844 8-.40625v16.40625h-16zm-120 168.40625v-128h48v128zm64-8v-115.054688l25.886719-12.945312h70.113281c4.417969 0 8 3.582031 8 8 .003906 2.160156-.882812 4.222656-2.457031 5.703125-1.457031 1.488281-3.460938 2.316406-5.542969 2.296875h-32c-4.417969 0-8 3.582031-8 8 .03125 7.878906-2.304688 15.582031-6.703125 22.121094-1.875 2.824218-4.117187 5.390625-6.664063 7.632812-7.296874 6.605469-16.789062 10.257813-26.632812 10.246094v16c8.304688-.003906 16.507812-1.863281 24-5.449219v53.449219zm64 32c-2.15625.003906-4.214844-.882812-5.695312-2.449219-1.492188-1.457031-2.324219-3.464843-2.304688-5.550781v-89.054688c2.472656-2.441406 4.691406-5.121093 6.632812-8 .648438-.960937 1.191407-1.984374 1.773438-2.984374-1.386719 7.226562.785156 14.683593 5.832031 20.039062-8.320312 9.042969-8.320312 22.957031 0 32-4.300781 4.683594-6.535156 10.898438-6.203125 17.25.328125 6.347656 3.199219 12.300781 7.964844 16.511719v14.238281c0 4.417969-3.582031 8-8 8zm80-40c0 4.417969-3.582031 8-8 8h-48c-4.417969 0-8-3.582031-8-8s3.582031-8 8-8h56zm0 0"/><path d="m312 160c0-44.183594-35.816406-80-80-80s-80 35.816406-80 80 35.816406 80 80 80c44.164062-.046875 79.953125-35.835938 80-80zm-144 0c0-35.347656 28.652344-64 64-64s64 28.652344 64 64-28.652344 64-64 64c-35.328125-.039062-63.960938-28.671875-64-64zm0 0"/><path d="m136 16h128v24h16v-8h16v16h16v-32h128v208h-104v16h112c4.417969 0 8-3.582031 8-8v-224c0-4.417969-3.582031-8-8-8h-144c-4.417969 0-8 3.582031-8 8v8h-16v-8c0-4.417969-3.582031-8-8-8h-144c-4.417969 0-8 3.582031-8 8v72h16zm0 0"/><path d="m104 264h40v-16h-32v-223.777344h-16v231.777344c0 4.417969 3.582031 8 8 8zm0 0"/><path d="m464 24.222656v223.777344h-144v16h152c4.417969 0 8-3.582031 8-8v-231.777344zm0 0"/><path d="m376 48h48v16h-48zm0 0"/><path d="m328 48h32v16h-32zm0 0"/><path d="m344 80h80v16h-80zm0 0"/><path d="m352 112h72v16h-72zm0 0"/><path d="m360 144h64v16h-64zm0 0"/><path d="m360 176h64v16h-64zm0 0"/><path d="m417.675781 313.179688 5.480469-15.03125 15.03125 5.476562-5.476562 15.035156zm0 0"/><path d="m402.273438 342.9375 7.996093-13.855469 13.859375 7.996094-8 13.859375zm0 0"/><path d="m381.941406 369.542969 10.28125-12.246094 12.253906 10.285156-10.28125 12.25zm0 0"/><path d="m357.292969 392.222656 12.25-10.28125 10.285156 12.253906-12.25 10.285157zm0 0"/><path d="m17.777344 252.242188 15.757812-2.777344 2.769532 15.75-15.753907 2.777344zm0 0"/><path d="m16 216h16v16h-16zm0 0"/><path d="m17.777344 195.757812 2.769531-15.75 15.757813 2.773438-2.769532 15.75zm0 0"/><path d="m25.808594 160.375 5.476562-15.035156 15.035156 5.476562-5.476562 15.03125zm0 0"/><path d="m39.863281 126.929688 8-13.855469 13.855469 8-8 13.855469zm0 0"/><path d="m59.515625 96.421875 10.289063-12.253906 12.253906 10.289062-10.289063 12.253907zm0 0"/></svg>