<svg version="1.1" id="Capa_1" xmlns="http://www.w3.org/2000/svg" xmlns:xlink="http://www.w3.org/1999/xlink" x="0px" y="0px" viewBox="0 0 512 512" style="enable-background:new 0 0 512 512;" xml:space="preserve">
<g>
	<g>
		<g>
			<g>
				<path style="fill:#5AD6FF;" d="M173.137,496.941l-28.649-63.959l-66.633,21.716c-10.522,3.429-20.135-7.221-15.65-17.338&#10;&#9;&#9;&#9;&#9;&#9;l78.627-177.346l134.288,59.537l-78.627,177.346C192.008,507.013,177.661,507.041,173.137,496.941z"/>
				<path style="fill:#83DEFF;" d="M338.863,496.941l28.649-63.959l66.633,21.716c10.522,3.429,20.135-7.221,15.65-17.338&#10;&#9;&#9;&#9;&#9;&#9;l-78.627-177.346L236.879,319.55l78.627,177.346C319.992,507.013,334.339,507.041,338.863,496.941z"/>
			</g>
			<path style="fill:#FF6E80;" d="M423.51,291.94c12.05,27.28,6.91,60.32-15.45,82.68c-22.35,22.35-55.39,27.49-82.67,15.44&#10;&#9;&#9;&#9;&#9;c-8.89,22.95-28.82,40.39-53.29,45.79c-35.221-5.91-44.197-26.36-44.197-48.02c0-28.69,16.744-56.01,64.047-51.96V107.65&#10;&#9;&#9;&#9;&#9;c-41.686,0-60.969-23.26-60.969-51.95c0-20.72,9.982-42.35,38.679-46.94c25.57,4.74,46.54,22.57,55.73,46.28&#10;&#9;&#9;&#9;&#9;c27.28-12.05,60.32-6.91,82.67,15.45c22.36,22.35,27.5,55.39,15.45,82.68c27.81,10.77,47.54,37.77,47.54,69.38&#10;&#9;&#9;&#9;&#9;C471.05,254.17,451.32,281.16,423.51,291.94z"/>
			<path style="fill:#FD5C6F;" d="M291.95,335.87V107.65c-28.7,0-51.96-23.26-51.96-51.95c0-20.72,12.13-38.61,29.67-46.94&#10;&#9;&#9;&#9;&#9;C265.23,7.93,260.67,7.5,256,7.5c-31.62,0-58.61,19.73-69.39,47.54c-27.28-12.05-60.32-6.91-82.67,15.45&#10;&#9;&#9;&#9;&#9;c-22.36,22.35-27.5,55.39-15.45,82.68c-27.81,10.77-47.54,37.77-47.54,69.38c0,31.62,19.73,58.61,47.54,69.39&#10;&#9;&#9;&#9;&#9;c-12.05,27.28-6.91,60.32,15.45,82.68c22.35,22.35,55.39,27.49,82.67,15.44c10.78,27.82,37.77,47.54,69.39,47.54&#10;&#9;&#9;&#9;&#9;c5.53,0,10.92-0.6,16.1-1.75c-18.85-7.79-32.11-26.36-32.11-48.02C239.99,359.14,263.25,335.87,291.95,335.87z"/>
			<path style="fill:#FCE3A0;" d="M396.64,222.55c0,62.33-40.54,115.18-96.69,133.63c-78.41-7.951-115.582-71.3-115.582-133.63&#10;&#9;&#9;&#9;&#9;c0-62.32,31.144-127.49,115.582-133.63C356.1,107.37,396.64,160.23,396.64,222.55z"/>
			<path style="fill:#F9D171;" d="M299.95,356.18c-13.83,4.55-28.6,7.01-43.95,7.01c-77.68,0-140.64-62.96-140.64-140.64&#10;&#9;&#9;&#9;&#9;c0-77.67,62.96-140.64,140.64-140.64c15.35,0,30.12,2.46,43.95,7.01c-56.15,18.45-96.69,71.31-96.69,133.63&#10;&#9;&#9;&#9;&#9;C203.26,284.88,243.8,337.73,299.95,356.18z"/>
			<path style="fill:#F3F5FC;" d="M481,188.7v67.7c0,19.63-15.91,35.54-35.54,35.54H273.42&#10;&#9;&#9;&#9;&#9;c-59.45-25.55-50.988-117.181-8.195-138.77H445.46C465.09,153.17,481,169.08,481,188.7z"/>
			<path style="fill:#D7DDF5;" d="M273.42,291.94H66.54C46.91,291.94,31,276.03,31,256.4v-67.7c0-19.62,15.91-35.53,35.54-35.53&#10;&#9;&#9;&#9;&#9;h198.685C241.295,187.8,241.81,264.55,273.42,291.94z"/>
		</g>
	</g>
	<g>
		<g>
			<path style="fill:none;stroke:#000000;stroke-width:15;stroke-linecap:round;stroke-linejoin:round;stroke-miterlimit:10;" d="&#10;&#9;&#9;&#9;&#9;M70.557,418.524l-8.351,18.836c-4.485,10.117,5.128,20.767,15.65,17.338l66.633-21.716l28.649,63.959&#10;&#9;&#9;&#9;&#9;c4.524,10.099,18.871,10.072,23.356-0.045l29.152-65.754"/>
			
				<line style="fill:none;stroke:#000000;stroke-width:15;stroke-linecap:round;stroke-linejoin:round;stroke-miterlimit:10;" x1="94.883" y1="363.654" x2="84.743" y2="386.526"/>
			<g>
				<path style="fill:none;stroke:#000000;stroke-width:15;stroke-linecap:round;stroke-linejoin:round;stroke-miterlimit:10;" d="&#10;&#9;&#9;&#9;&#9;&#9;M286.354,431.143l29.152,65.754c4.485,10.117,18.833,10.144,23.356,0.045l28.649-63.959l66.633,21.716&#10;&#9;&#9;&#9;&#9;&#9;c10.522,3.429,20.135-7.221,15.65-17.338l-32.677-73.705"/>
			</g>
		</g>
		<g>
			<path style="fill:none;stroke:#000000;stroke-width:15;stroke-linecap:round;stroke-linejoin:round;stroke-miterlimit:10;" d="&#10;&#9;&#9;&#9;&#9;M423.513,153.165c11.083-25.108,7.605-55.079-10.438-77.123"/>
			<path style="fill:none;stroke:#000000;stroke-width:15;stroke-linecap:round;stroke-linejoin:round;stroke-miterlimit:10;" d="&#10;&#9;&#9;&#9;&#9;M385.189,54.888c-19.026-8.282-40.806-8.235-59.802,0.15C314.609,27.228,287.616,7.5,256,7.5&#10;&#9;&#9;&#9;&#9;c-31.616,0-58.608,19.728-69.386,47.538c-27.286-12.044-60.322-6.907-82.678,15.449s-27.492,55.392-15.449,82.678"/>
			<path style="fill:none;stroke:#000000;stroke-width:15;stroke-linecap:round;stroke-linejoin:round;stroke-miterlimit:10;" d="&#10;&#9;&#9;&#9;&#9;M88.487,291.938c-12.044,27.286-6.907,60.322,15.449,82.678s55.392,27.492,82.678,15.449&#10;&#9;&#9;&#9;&#9;c10.778,27.81,37.77,47.538,69.386,47.538c31.616,0,58.609-19.728,69.386-47.538c27.286,12.044,60.322,6.907,82.678-15.449&#10;&#9;&#9;&#9;&#9;s27.492-55.392,15.449-82.678"/>
		</g>
		<g>
			<path style="fill:none;stroke:#000000;stroke-width:15;stroke-linecap:round;stroke-linejoin:round;stroke-miterlimit:10;" d="&#10;&#9;&#9;&#9;&#9;M378.356,153.165C354.174,110.614,308.441,81.908,256,81.908s-98.174,28.705-122.356,71.257"/>
			<path style="fill:none;stroke:#000000;stroke-width:15;stroke-linecap:round;stroke-linejoin:round;stroke-miterlimit:10;" d="&#10;&#9;&#9;&#9;&#9;M133.644,291.938c24.182,42.552,69.915,71.257,122.356,71.257s98.174-28.705,122.356-71.257"/>
		</g>
		<path style="fill:none;stroke:#000000;stroke-width:15;stroke-linecap:round;stroke-linejoin:round;stroke-miterlimit:10;" d="&#10;&#9;&#9;&#9;M445.461,291.938H66.539C46.911,291.938,31,276.027,31,256.399v-67.694c0-19.628,15.911-35.539,35.539-35.539h378.922&#10;&#9;&#9;&#9;c19.628,0,35.539,15.911,35.539,35.539v67.694C481,276.027,465.089,291.938,445.461,291.938z"/>
		
			<polyline style="fill:none;stroke:#000000;stroke-width:15;stroke-linecap:round;stroke-linejoin:round;stroke-miterlimit:10;" points="&#10;&#9;&#9;&#9;101.098,189.536 73.016,189.536 73.016,256.181 101.098,256.181 &#9;&#9;"/>
		
			<line style="fill:none;stroke:#000000;stroke-width:15;stroke-linecap:round;stroke-linejoin:round;stroke-miterlimit:10;" x1="99.027" y1="222.859" x2="73.016" y2="222.859"/>
		
			<polyline style="fill:none;stroke:#000000;stroke-width:15;stroke-linecap:round;stroke-linejoin:round;stroke-miterlimit:10;" points="&#10;&#9;&#9;&#9;308.699,189.536 280.617,189.536 280.617,256.181 308.699,256.181 &#9;&#9;"/>
		
			<line style="fill:none;stroke:#000000;stroke-width:15;stroke-linecap:round;stroke-linejoin:round;stroke-miterlimit:10;" x1="306.629" y1="222.859" x2="280.617" y2="222.859"/>
		
			<line style="fill:none;stroke:#000000;stroke-width:15;stroke-linecap:round;stroke-linejoin:round;stroke-miterlimit:10;" x1="134.751" y1="188.922" x2="182.066" y2="256.181"/>
		
			<line style="fill:none;stroke:#000000;stroke-width:15;stroke-linecap:round;stroke-linejoin:round;stroke-miterlimit:10;" x1="178.736" y1="188.922" x2="131.354" y2="256.181"/>
		
			<line style="fill:none;stroke:#000000;stroke-width:15;stroke-linecap:round;stroke-linejoin:round;stroke-miterlimit:10;" x1="401.839" y1="188.922" x2="438.984" y2="188.922"/>
		
			<line style="fill:none;stroke:#000000;stroke-width:15;stroke-linecap:round;stroke-linejoin:round;stroke-miterlimit:10;" x1="420.337" y1="191.07" x2="420.337" y2="256.181"/>
		
			<line style="fill:none;stroke:#000000;stroke-width:15;stroke-linecap:round;stroke-linejoin:round;stroke-miterlimit:10;" x1="347.01" y1="224.08" x2="375.263" y2="256.181"/>
		
			<line style="fill:none;stroke:#000000;stroke-width:15;stroke-linecap:round;stroke-linejoin:round;stroke-miterlimit:10;" x1="338.899" y1="188.922" x2="338.899" y2="256.181"/>
		<path style="fill:none;stroke:#000000;stroke-width:15;stroke-linecap:round;stroke-linejoin:round;stroke-miterlimit:10;" d="&#10;&#9;&#9;&#9;M338.921,188.922c0,0,12.011,0,17.873,0c10.004,0,18.469,7.826,18.469,17.48s-8.465,17.48-18.469,17.48&#10;&#9;&#9;&#9;c-4.961,0-17.749,0.077-17.749,0.077"/>
		
			<line style="fill:none;stroke:#000000;stroke-width:15;stroke-linecap:round;stroke-linejoin:round;stroke-miterlimit:10;" x1="212.184" y1="188.922" x2="212.184" y2="256.181"/>
		<path style="fill:none;stroke:#000000;stroke-width:15;stroke-linecap:round;stroke-linejoin:round;stroke-miterlimit:10;" d="&#10;&#9;&#9;&#9;M212.184,188.922c0,0,12.585,0,18.728,0c10.483,0,19.352,8.498,19.352,18.981c0,10.483-8.87,18.981-19.352,18.981&#10;&#9;&#9;&#9;c-5.199,0-18.598,0.084-18.598,0.084"/>
	</g>
</g>
<g>
</g>
<g>
</g>
<g>
</g>
<g>
</g>
<g>
</g>
<g>
</g>
<g>
</g>
<g>
</g>
<g>
</g>
<g>
</g>
<g>
</g>
<g>
</g>
<g>
</g>
<g>
</g>
<g>
</g>
</svg>