<svg xmlns="http://www.w3.org/2000/svg" version="1.1" xmlns:xlink="http://www.w3.org/1999/xlink" width="512" height="512" x="0" y="0" viewBox="0 0 512 512" style="enable-background:new 0 0 512 512" xml:space="preserve" class=""><g><linearGradient id="a" x1="74.98" x2="437.02" y1="74.98" y2="437.02" gradientUnits="userSpaceOnUse"><stop stop-opacity="0" stop-color="#4fc4ff" offset="1"></stop><stop stop-opacity="1" stop-color="#0052b0" offset="1"></stop></linearGradient><linearGradient id="b" x1="256" x2="256" y1="431" y2="81" gradientUnits="userSpaceOnUse"><stop offset="0" stop-color="#f90"></stop><stop offset=".11" stop-color="#ffa200"></stop><stop offset=".37" stop-color="#ffb300"></stop><stop offset=".65" stop-color="#ffbd00"></stop><stop offset="1" stop-color="#ffc100"></stop></linearGradient><linearGradient id="c" x1="256" x2="256" y1="383.5" y2="128.5" gradientUnits="userSpaceOnUse"><stop offset="0" stop-color="#ffe187"></stop><stop offset="1" stop-color="#fff8e0"></stop></linearGradient><linearGradient id="d" x1="262.89" x2="250.72" y1="309.54" y2="183.83" gradientUnits="userSpaceOnUse"><stop offset="0" stop-color="#fd7600"></stop><stop offset=".71" stop-color="#fdbf30"></stop></linearGradient><g data-name="208"><circle cx="256" cy="256" r="256" fill="url(#a)" opacity="1" data-original="url(#a)" class=""></circle><circle cx="256" cy="256" r="185" fill="#000000" opacity="1" data-original="#000000" class=""></circle><circle cx="256" cy="256" r="175" fill="url(#b)" opacity="1" data-original="url(#b)" class=""></circle><circle cx="256" cy="256" r="137.5" fill="#000000" opacity="1" data-original="#000000" class=""></circle><circle cx="256" cy="256" r="127.5" fill="url(#c)" opacity="1" data-original="url(#c)" class=""></circle><path d="M229.93 330.32c-8.18 0-15.86-3.18-21.64-8.97L173 286.07c-5.78-5.78-8.96-13.47-8.96-21.64s3.18-15.86 8.97-21.64c5.78-5.78 13.47-8.96 21.64-8.96s15.86 3.18 21.64 8.97l13.64 13.64 65.78-65.78c5.78-5.78 13.47-8.96 21.64-8.96s15.86 3.18 21.64 8.97c5.78 5.78 8.96 13.47 8.96 21.64s-3.18 15.86-8.97 21.64l-87.42 87.43c-5.78 5.78-13.47 8.96-21.64 8.96z" fill="#000000" opacity="1" data-original="#000000" class=""></path><path fill="url(#d)" d="m302.78 197.72-72.85 72.85-20.71-20.71c-8.05-8.05-21.09-8.05-29.14 0s-8.05 21.09 0 29.14l35.29 35.29c8.05 8.05 21.09 8.05 29.14 0l87.43-87.43c8.05-8.05 8.05-21.09 0-29.14s-21.09-8.05-29.14 0z" opacity="1" data-original="url(#d)" class=""></path></g></g></svg>