<svg id="Layer_2_00000119103432136018431890000002612856545452621244_" enable-background="new 0 0 512 512" viewBox="0 0 512 512" xmlns="http://www.w3.org/2000/svg" xmlns:xlink="http://www.w3.org/1999/xlink"><linearGradient id="lg1"><stop offset="0" stop-color="#f90"/><stop offset="1" stop-color="#fcd34f"/></linearGradient><linearGradient id="SVGID_1_" gradientTransform="matrix(1 0 0 -1 0 514.01)" gradientUnits="userSpaceOnUse" x1="364.149" x2="364.149" xlink:href="#lg1" y1="380.512" y2="159.995"/><linearGradient id="SVGID_00000155135210002798098260000003655173811580416935_" gradientTransform="matrix(.637 .771 .771 -.637 -919.191 -964.191)" gradientUnits="userSpaceOnUse" x1="1781.546" x2="1742.45" xlink:href="#lg1" y1="316.299" y2="348.625"/><linearGradient id="SVGID_00000045582160345758109120000012639742016590681747_" gradientTransform="matrix(.819 -.573 -.573 -.819 610.989 782.36)" gradientUnits="userSpaceOnUse" x1="162.049" x2="199.416" xlink:href="#lg1" y1="588.497" y2="641.897"/><linearGradient id="SVGID_00000024708821575459419860000007308200941973524357_" gradientTransform="matrix(.865 -.501 -.501 -.865 494.001 749.825)" gradientUnits="userSpaceOnUse" x1="157.194" x2="193.081" xlink:href="#lg1" y1="475.987" y2="532.908"/><linearGradient id="SVGID_00000088135052931536437530000005791799508567820209_" gradientTransform="matrix(.98 -.2 -.2 -.98 12.415 556.972)" gradientUnits="userSpaceOnUse" x1="399.792" x2="415.352" xlink:href="#lg1" y1="172.152" y2="248.524"/><linearGradient id="SVGID_00000036219762674509255370000005942937209706582960_" gradientTransform="matrix(.979 .205 .205 -.979 -494.312 133.037)" gradientUnits="userSpaceOnUse" x1="855.317" x2="839.336" xlink:href="#lg1" y1="-32.625" y2="43.569"/><linearGradient id="SVGID_00000060018401041832647070000003851172567439637692_" gradientTransform="matrix(.565 .825 .825 -.565 -884.092 -1133.722)" gradientUnits="userSpaceOnUse" x1="1901.639" x2="1863.327" xlink:href="#lg1" y1="308.472" y2="336.883"/><linearGradient id="SVGID_00000035488494932787542850000007918494049136921020_" gradientTransform="matrix(.364 .931 .931 -.364 -761.691 -1527.013)" gradientUnits="userSpaceOnUse" x1="2141.584" x2="2107.307" xlink:href="#lg1" y1="425.384" y2="438.803"/><linearGradient id="SVGID_00000029750296014142877920000009476085548575361920_" gradientTransform="matrix(-.026 1 1 .026 -444.708 -2040.639)" gradientUnits="userSpaceOnUse" x1="2376.194" x2="2344.044" xlink:href="#lg1" y1="874.803" y2="873.963"/><linearGradient id="SVGID_00000096767631910861747570000015904933323387824771_" gradientTransform="matrix(1 0 0 -1 0 514.01)" gradientUnits="userSpaceOnUse" x1="433.335" x2="433.335" xlink:href="#lg1" y1="347.495" y2="427.035"/><linearGradient id="SVGID_00000059271297851823970270000008184919280999623310_" gradientTransform="matrix(-1 0 0 -1 490 514.01)" gradientUnits="userSpaceOnUse" x1="342.149" x2="342.149" xlink:href="#lg1" y1="380.512" y2="159.995"/><linearGradient id="SVGID_00000006670347411369964260000013493053553216898723_" gradientTransform="matrix(-.637 .771 -.771 -.637 1409.191 -964.191)" gradientUnits="userSpaceOnUse" x1="1767.528" x2="1728.432" xlink:href="#lg1" y1="299.343" y2="331.668"/><linearGradient id="SVGID_00000112599915626481501800000013807635539208728761_" gradientTransform="matrix(-.819 -.573 .573 -.819 -120.999 782.36)" gradientUnits="userSpaceOnUse" x1="144.017" x2="181.384" xlink:href="#lg1" y1="601.118" y2="654.518"/><linearGradient id="SVGID_00000170253479000354901400000007115348422147751562_" gradientTransform="matrix(-.865 -.501 .501 -.865 -4.001 749.825)" gradientUnits="userSpaceOnUse" x1="138.155" x2="174.042" xlink:href="#lg1" y1="487.01" y2="543.931"/><linearGradient id="SVGID_00000157293597918161519890000016222231226150554277_" gradientTransform="matrix(-.98 -.2 .2 -.98 477.585 556.972)" gradientUnits="userSpaceOnUse" x1="378.245" x2="393.805" xlink:href="#lg1" y1="176.544" y2="252.916"/><linearGradient id="SVGID_00000076596500152013342040000012645013841788839329_" gradientTransform="matrix(-.979 .205 -.205 -.979 984.312 133.037)" gradientUnits="userSpaceOnUse" x1="833.795" x2="817.815" xlink:href="#lg1" y1="-37.14" y2="39.053"/><linearGradient id="SVGID_00000163765397296009910870000000532651346841879216_" gradientTransform="matrix(-.565 .825 -.825 -.565 1374.092 -1133.722)" gradientUnits="userSpaceOnUse" x1="1889.218" x2="1850.906" xlink:href="#lg1" y1="290.325" y2="318.737"/><linearGradient id="SVGID_00000124840340487233132790000014773286590099737521_" gradientTransform="matrix(-.364 .931 -.931 -.364 1251.691 -1527.013)" gradientUnits="userSpaceOnUse" x1="2133.57" x2="2099.296" xlink:href="#lg1" y1="404.911" y2="418.319"/><linearGradient id="SVGID_00000011711227916234828250000017855088557677815990_" gradientTransform="matrix(.026 1 -1 .026 934.698 -2040.639)" gradientUnits="userSpaceOnUse" x1="2376.77" x2="2344.619" xlink:href="#lg1" y1="852.811" y2="851.971"/><linearGradient id="SVGID_00000118367619204638828660000011482661394776247455_" gradientTransform="matrix(-1 0 0 -1 490 514.01)" gradientUnits="userSpaceOnUse" x1="411.335" x2="411.335" xlink:href="#lg1" y1="347.495" y2="427.035"/><linearGradient id="lg2"><stop offset="0" stop-color="#fcd34f"/><stop offset="1" stop-color="#ff6a00"/></linearGradient><linearGradient id="SVGID_00000098906890840858348620000012000173401671868078_" gradientTransform="matrix(1 0 0 -1 0 514.01)" gradientUnits="userSpaceOnUse" x1="256" x2="256" xlink:href="#lg2" y1="182.105" y2="273.725"/><linearGradient id="SVGID_00000062874039278411428860000001839767329476334745_" gradientTransform="matrix(1 0 0 -1 0 514.01)" gradientUnits="userSpaceOnUse" x1="255.99" x2="255.99" xlink:href="#lg2" y1="187.975" y2="146.715"/><linearGradient id="SVGID_00000037660789345871911110000008745080787376783278_" gradientTransform="matrix(1 0 0 -1 0 514.01)" gradientUnits="userSpaceOnUse" x1="256" x2="256" y1="93.865" y2="146.715"><stop offset="0" stop-color="#3d5969"/><stop offset="1" stop-color="#698999"/></linearGradient><linearGradient id="SVGID_00000126281158986580811040000012511152152286666141_" gradientTransform="matrix(1 0 0 -1 0 514.01)" gradientUnits="userSpaceOnUse" x1="256" x2="256" xlink:href="#lg1" y1="41.015" y2="93.865"/><linearGradient id="SVGID_00000035513617763531299210000002950597686505584309_" gradientTransform="matrix(1 0 0 -1 0 514.01)" gradientUnits="userSpaceOnUse" x1="255.995" x2="255.995" y1="275.005" y2="475.005"><stop offset="0" stop-color="#f90"/><stop offset=".11" stop-color="#ffa200"/><stop offset=".37" stop-color="#ffb300"/><stop offset=".65" stop-color="#ffbd00"/><stop offset="1" stop-color="#ffc100"/></linearGradient><linearGradient id="SVGID_00000042701592325238911370000015505700574985130919_" gradientTransform="matrix(1 0 0 -1 0 514.01)" gradientUnits="userSpaceOnUse" x1="255.995" x2="255.995" y1="302.505" y2="447.505"><stop offset="0" stop-color="#ffe187"/><stop offset="1" stop-color="#fff8e0"/></linearGradient><linearGradient id="SVGID_00000098214940576658385230000012793004823821914289_" gradientTransform="matrix(1 0 0 -1 0 514.01)" gradientUnits="userSpaceOnUse" x1="256.005" x2="256.005" y1="327.282" y2="422.718"><stop offset="0" stop-color="#fd7600"/><stop offset=".71" stop-color="#fdbf30"/></linearGradient><g id="Icon"><g id="_52"><g><g><path d="m294.9 364c-7.6 0-14-5.7-14.7-13.3-.8-8.1 5.1-15.4 13.2-16.2.2 0 33.6-4.1 65-29.1 42.5-33.9 63.1-91.4 59.7-166.4-.4-8.2 6-15.1 14.1-15.5h.7c7.9 0 14.4 6.2 14.8 14.1 2.1 47-4.2 88.1-19 122.2-12.1 27.9-29.6 51.1-52.2 69-38.5 30.5-78.4 34.9-80 35.1-.6.1-1.1.1-1.6.1z"/><path d="m430.2 217.3c-1 0-1.6 0-1.6 0-2.8-.1-5.5-1.5-7.3-3.6-1.8-2.2-2.6-5-2.2-7.8.2-1.1 4.3-27.7 23.9-44 17.1-14.2 39.6-15.3 46.1-15.3h1.6c2.8.1 5.5 1.5 7.3 3.6 1.8 2.2 2.6 5 2.2 7.8-.2 1.1-4.3 27.7-23.9 44-17.1 14.2-39.6 15.3-46.1 15.3z"/><path d="m429.1 217.3c-.8 0-1.5-.1-2.2-.2-1.1-.2-27.3-6.5-41.9-27.4s-11.5-47.6-11.4-48.8c.3-2.8 1.9-5.3 4.2-7 1.7-1.2 3.7-1.8 5.7-1.8.8 0 1.5.1 2.2.2 1.1.2 27.3 6.5 41.9 27.4s11.5 47.6 11.4 48.8c-.4 2.8-1.9 5.3-4.2 7-1.7 1.2-3.7 1.8-5.7 1.8z"/><path d="m412.7 269.9c-1 0-2.1-.2-3.1-.5-1.1-.4-26.6-8.8-39.4-30.9s-7.4-48.4-7.2-49.6c.6-2.8 2.3-5.2 4.8-6.6 1.5-.9 3.3-1.4 5-1.4 1 0 2.1.2 3.1.5 1.1.4 26.6 8.8 39.4 30.9s7.4 48.4 7.1 49.6c-.6 2.8-2.3 5.2-4.8 6.6-1.4 1-3.1 1.4-4.9 1.4z"/><path d="m377.7 318.4c-2.1 0-4.2-.7-5.9-2-.9-.7-22.5-16.8-27.5-41.8-5.1-25 8.4-48.3 9-49.3 1.4-2.4 3.8-4.1 6.6-4.7.7-.1 1.3-.2 2-.2 2.1 0 4.2.7 5.9 1.9.9.7 22.5 16.8 27.5 41.8 5.1 25-8.4 48.3-9 49.3-1.4 2.4-3.8 4.1-6.6 4.7-.6.3-1.3.3-2 .3z"/><path d="m327.9 350.6c-.7 0-1.4-.1-2-.2-2.8-.6-5.2-2.3-6.6-4.8-.6-1-14-24.3-8.7-49.3 5.2-25 26.9-41 27.8-41.6 1.7-1.3 3.8-1.9 5.9-1.9.7 0 1.4.1 2 .2 2.8.6 5.2 2.3 6.6 4.8.6 1 14 24.3 8.7 49.3s-26.9 41-27.8 41.6c-1.7 1.2-3.8 1.9-5.9 1.9z"/><path d="m419.7 270.3c-4.9 0-8.1-.4-8.4-.5-2.8-.4-5.3-1.9-6.9-4.3-1.6-2.3-2.1-5.2-1.5-8 .3-1.1 6.8-27.2 27.8-41.6 13.7-9.4 29.5-11.3 40.4-11.3 4.9 0 8.1.4 8.4.5 2.8.4 5.3 1.9 6.9 4.3 1.6 2.3 2.1 5.2 1.5 8-.3 1.1-6.8 27.2-27.8 41.6-13.6 9.4-29.5 11.3-40.4 11.3z"/><path d="m401.2 322.3c-14.7 0-26.5-4.4-26.9-4.6-2.7-1-4.8-3.1-5.8-5.7s-.9-5.6.4-8.1c.5-1 12.7-25 36.5-34.3 7-2.7 14.8-4.1 23.1-4.1 14.7 0 26.5 4.4 26.9 4.6 2.6 1 4.8 3.1 5.8 5.7s.9 5.6-.4 8.1c-.5 1-12.7 25-36.5 34.3-7 2.7-14.8 4.1-23.1 4.1z"/><path d="m368.4 367.6c-.5 0-1 0-1.5 0-25.5-.7-45.1-19.1-46-19.9-2-2-3.2-4.7-3.1-7.5s1.3-5.5 3.5-7.3c.8-.7 20.7-17.4 45.5-17.4h1.5c25.5.7 45.1 19.1 46 19.9 2 2 3.2 4.7 3.1 7.5s-1.3 5.5-3.5 7.3c-.9.7-20.7 17.4-45.5 17.4z"/><path d="m433.3 176.5c-2.8 0-5.5-1.2-7.4-3.3-.8-.8-18.6-20.9-18.6-46.5s17.9-45.6 18.6-46.5c1.9-2.1 4.6-3.3 7.4-3.3s5.5 1.2 7.4 3.3c.8.8 18.7 20.9 18.7 46.5s-17.9 45.6-18.7 46.5c-1.8 2.1-4.5 3.3-7.4 3.3z"/><path d="m294.9 354c-2.4 0-4.5-1.8-4.8-4.3-.3-2.6 1.7-5 4.3-5.3.5-.1 36.2-4.1 70.2-31.3 45.1-36 67-96.4 63.5-174.6-.1-2.7 1.9-4.9 4.6-5 2.6-.1 4.9 1.9 5 4.6 2.1 45.4-4 85-18.2 117.7-11.4 26.4-28 48.3-49.3 65.2-36.3 28.8-73.3 32.8-74.8 33-.1 0-.3 0-.5 0z" fill="url(#SVGID_1_)"/><path d="m470 194.3c-16.9 14-40.9 13-40.9 13s3.5-23.7 20.4-37.7 40.9-13 40.9-13-3.5 23.7-20.4 37.7z" fill="url(#SVGID_00000155135210002798098260000003655173811580416935_)"/><path d="m419.4 165.5c12.6 18 9.6 41.8 9.6 41.8s-23.4-5.4-36-23.4-9.6-41.8-9.6-41.8 23.5 5.4 36 23.4z" fill="url(#SVGID_00000045582160345758109120000012639742016590681747_)"/><path d="m406.7 217.5c11 19 6 42.5 6 42.5s-22.8-7.4-33.8-26.4-6-42.5-6-42.5 22.8 7.4 33.8 26.4z" fill="url(#SVGID_00000024708821575459419860000007308200941973524357_)"/><path d="m385.5 266.3c4.4 21.5-7.8 42.2-7.8 42.2s-19.3-14.2-23.7-35.8c-4.4-21.5 7.8-42.2 7.8-42.2s19.3 14.2 23.7 35.8z" fill="url(#SVGID_00000088135052931536437530000005791799508567820209_)"/><path d="m351.8 305c-4.5 21.5-23.9 35.6-23.9 35.6s-12.1-20.7-7.6-42.2 23.9-35.6 23.9-35.6 12.1 20.7 7.6 42.2z" fill="url(#SVGID_00000036219762674509255370000005942937209706582960_)"/><path d="m454.5 250.7c-18.1 12.4-41.9 9.2-41.9 9.2s5.6-23.3 23.7-35.7 41.9-9.2 41.9-9.2-5.5 23.3-23.7 35.7z" fill="url(#SVGID_00000060018401041832647070000003851172567439637692_)"/><path d="m420.7 308.9c-20.5 8-42.9-.5-42.9-.5s10.7-21.4 31.2-29.4 42.9.5 42.9.5-10.8 21.4-31.2 29.4z" fill="url(#SVGID_00000035488494932787542850000007918494049136921020_)"/><path d="m367.2 357.6c-22-.6-39.3-17.1-39.3-17.1s18.2-15.6 40.2-15 39.3 17.1 39.3 17.1-18.3 15.6-40.2 15z" fill="url(#SVGID_00000029750296014142877920000009476085548575361920_)"/><path d="m449.4 126.7c0 22-16.1 39.8-16.1 39.8s-16.1-17.8-16.1-39.8 16.1-39.7 16.1-39.7 16.1 17.8 16.1 39.7z" fill="url(#SVGID_00000096767631910861747570000015904933323387824771_)"/></g><g><path d="m217.1 364c-.5 0-1 0-1.5-.1-1.7-.2-41.5-4.5-80.1-35.1-22.6-17.9-40.2-41.1-52.2-69-14.7-34.1-21.1-75.2-19-122.2.4-7.9 6.8-14.1 14.8-14.1h.8c8.1.4 14.4 7.3 14 15.5-3.4 74.9 17.2 132.5 59.7 166.4 31.4 25.1 64.8 29.1 65.1 29.1 8 .8 14 8.1 13.1 16.2-.8 7.6-7.1 13.3-14.7 13.3z"/><path d="m81.8 217.3c-6.5 0-29-1.1-46.1-15.3-19.7-16.3-23.8-42.9-23.9-44-.4-2.8.4-5.6 2.2-7.8s4.4-3.5 7.3-3.6h1.6c6.5 0 29 1.1 46.1 15.3 19.7 16.3 23.8 42.9 23.9 44 .4 2.8-.4 5.6-2.2 7.8s-4.4 3.5-7.3 3.6c0 0-.6 0-1.6 0z"/><path d="m82.9 217.3c-2 0-4-.6-5.7-1.8-2.3-1.6-3.8-4.1-4.2-7-.1-1.1-3.3-27.9 11.4-48.8 14.6-20.9 40.8-27.1 41.9-27.4.7-.2 1.5-.2 2.2-.2 2 0 4 .6 5.7 1.8 2.3 1.6 3.8 4.1 4.2 7 .1 1.1 3.3 27.9-11.4 48.8s-40.8 27.1-41.9 27.4c-.7.1-1.4.2-2.2.2z"/><path d="m99.3 269.9c-1.7 0-3.5-.5-5-1.4-2.4-1.4-4.2-3.8-4.8-6.6-.2-1.1-5.6-27.5 7.2-49.6s38.3-30.5 39.4-30.9c1-.3 2-.5 3.1-.5 1.7 0 3.5.5 5 1.4 2.4 1.4 4.2 3.8 4.8 6.6.2 1.1 5.6 27.5-7.1 49.6-12.8 22.1-38.3 30.5-39.4 30.9-1.2.4-2.2.5-3.2.5z"/><path d="m134.3 318.4c-.7 0-1.3-.1-2-.2-2.8-.6-5.2-2.3-6.6-4.7-.6-1-14.1-24.3-9-49.3s26.6-41.1 27.5-41.8c1.7-1.3 3.8-1.9 5.9-1.9.7 0 1.3.1 2 .2 2.8.6 5.2 2.3 6.6 4.7.6 1 14.1 24.3 9 49.3s-26.6 41.1-27.6 41.8c-1.6 1.3-3.7 1.9-5.8 1.9z"/><path d="m184.1 350.6c-2.1 0-4.2-.7-5.9-1.9-.9-.7-22.6-16.7-27.8-41.6s8.1-48.3 8.7-49.3c1.4-2.4 3.8-4.2 6.6-4.8.7-.1 1.4-.2 2.1-.2 2.1 0 4.2.7 5.9 1.9.9.7 22.6 16.7 27.8 41.6 5.2 25-8.1 48.3-8.7 49.3-1.4 2.5-3.8 4.2-6.6 4.8-.7.1-1.4.2-2.1.2z"/><path d="m92.2 270.3c-10.9 0-26.8-2-40.4-11.3-21.1-14.4-27.5-40.5-27.8-41.6-.7-2.8-.1-5.6 1.5-8 1.6-2.3 4.1-3.9 6.9-4.3.4-.1 3.6-.5 8.4-.5 10.9 0 26.8 2 40.4 11.3 21.1 14.4 27.6 40.5 27.8 41.6.7 2.8.1 5.7-1.5 8s-4.1 3.9-6.9 4.3c-.3.1-3.5.5-8.4.5z"/><path d="m110.8 322.3c-8.3 0-16.1-1.4-23.1-4.1-23.8-9.3-36-33.3-36.5-34.3-1.3-2.5-1.4-5.5-.4-8.1s3.1-4.7 5.8-5.7c.5-.2 12.2-4.6 26.9-4.6 8.3 0 16.1 1.4 23.1 4.1 23.8 9.3 36 33.3 36.5 34.3 1.3 2.5 1.4 5.5.4 8.1s-3.1 4.7-5.8 5.7c-.4.3-12.2 4.6-26.9 4.6z"/><path d="m143.6 367.6c-24.8 0-44.7-16.7-45.5-17.4-2.2-1.8-3.4-4.5-3.5-7.3s1.1-5.6 3.1-7.5c.8-.8 20.5-19.2 46-19.9h1.4c24.8 0 44.7 16.7 45.5 17.4 2.1 1.8 3.4 4.5 3.5 7.3s-1.1 5.6-3.1 7.5c-.8.8-20.5 19.2-46 19.9-.4 0-.9 0-1.4 0z"/><path d="m78.7 176.5c-2.8 0-5.5-1.2-7.4-3.3-.8-.8-18.7-20.9-18.7-46.5s17.9-45.6 18.7-46.5c1.9-2.1 4.6-3.3 7.4-3.3s5.5 1.2 7.4 3.3c.8.8 18.7 21 18.7 46.5s-17.9 45.6-18.7 46.5c-1.9 2.1-4.6 3.3-7.4 3.3z"/><path d="m217.1 354c2.4 0 4.5-1.8 4.8-4.3.3-2.6-1.6-5-4.3-5.3-.6-.1-36.2-4.1-70.2-31.3-45.1-36-67-96.4-63.5-174.6.1-2.7-1.9-4.9-4.6-5-2.6-.1-4.9 1.9-5 4.6-2.1 45.4 4 85 18.2 117.7 11.4 26.4 28 48.3 49.3 65.2 36.3 28.8 73.3 32.8 74.9 33z" fill="url(#SVGID_00000059271297851823970270000008184919280999623310_)"/><path d="m42 194.3c16.9 14 40.9 13 40.9 13s-3.5-23.7-20.4-37.7-40.9-13-40.9-13 3.5 23.7 20.4 37.7z" fill="url(#SVGID_00000006670347411369964260000013493053553216898723_)"/><path d="m92.6 165.5c-12.6 18-9.6 41.8-9.6 41.8s23.4-5.4 36-23.4 9.6-41.8 9.6-41.8-23.5 5.4-36 23.4z" fill="url(#SVGID_00000112599915626481501800000013807635539208728761_)"/><path d="m105.3 217.5c-11 19-6 42.5-6 42.5s22.8-7.4 33.8-26.4 6-42.5 6-42.5-22.8 7.4-33.8 26.4z" fill="url(#SVGID_00000170253479000354901400000007115348422147751562_)"/><path d="m126.5 266.3c-4.4 21.5 7.8 42.2 7.8 42.2s19.3-14.2 23.7-35.8c4.4-21.5-7.8-42.2-7.8-42.2s-19.3 14.2-23.7 35.8z" fill="url(#SVGID_00000157293597918161519890000016222231226150554277_)"/><path d="m160.2 305c4.5 21.5 23.9 35.6 23.9 35.6s12.1-20.7 7.6-42.2-23.9-35.6-23.9-35.6-12.1 20.7-7.6 42.2z" fill="url(#SVGID_00000076596500152013342040000012645013841788839329_)"/><path d="m57.5 250.7c18.1 12.4 41.9 9.2 41.9 9.2s-5.6-23.3-23.7-35.7-41.9-9.2-41.9-9.2 5.5 23.3 23.7 35.7z" fill="url(#SVGID_00000163765397296009910870000000532651346841879216_)"/><path d="m91.3 308.9c20.5 8 42.9-.5 42.9-.5s-10.7-21.4-31.2-29.4-42.9.5-42.9.5 10.8 21.4 31.2 29.4z" fill="url(#SVGID_00000124840340487233132790000014773286590099737521_)"/><path d="m144.8 357.6c22-.6 39.3-17.1 39.3-17.1s-18.2-15.6-40.2-15-39.3 17.1-39.3 17.1 18.3 15.6 40.2 15z" fill="url(#SVGID_00000011711227916234828250000017855088557677815990_)"/><path d="m62.6 126.7c0 22 16.1 39.8 16.1 39.8s16.1-17.8 16.1-39.8-16.1-39.8-16.1-39.8-16.1 17.9-16.1 39.8z" fill="url(#SVGID_00000118367619204638828660000011482661394776247455_)"/></g></g><g><path d="m284.2 240.3v91.6c0 5.5-4.5 10-10 10h-36.3c-5.5 0-10-4.5-10-10v-91.6c0-5.5 4.5-10 10-10h36.3c5.5 0 10 4.5 10 10z"/><path d="m237.8 240.3h36.3v91.6h-36.3z" fill="url(#SVGID_00000098906890840858348620000012000173401671868078_)"/><path d="m214.9 377.3c-5.5 0-10-4.5-10-10 0-28.3 22.9-51.3 51.1-51.3s51 23 51 51.3c0 5.5-4.5 10-10 10z"/><path d="m214.9 367.3c0-22.7 18.4-41.3 41.1-41.3 22.7 0 41 18.6 41 41.3z" fill="url(#SVGID_00000062874039278411428860000001839767329476334745_)"/><path d="m342.9 386.5v33.6c0 5.5-4.5 10-10 10h-153.8c-5.5 0-10-4.5-10-10v-33.6c0-16.1 13.1-29.2 29.2-29.2h115.3c16.2 0 29.3 13.1 29.3 29.2z"/><path d="m198.3 367.3h115.3c10.6 0 19.2 8.6 19.2 19.2v33.6h-153.7v-33.6c0-10.6 8.6-19.2 19.2-19.2z" fill="url(#SVGID_00000037660789345871911110000008745080787376783278_)"/><path d="m167.1 483c-20.1 0-36.4-16.3-36.4-36.4s16.3-36.4 36.4-36.4h177.8c20.1 0 36.4 16.3 36.4 36.4s-16.3 36.4-36.4 36.4z"/><path d="m167.1 420.1h177.8c14.6 0 26.4 11.8 26.4 26.4 0 14.6-11.8 26.4-26.4 26.4h-177.8c-14.6 0-26.4-11.8-26.4-26.4 0-14.5 11.8-26.4 26.4-26.4z" fill="url(#SVGID_00000126281158986580811040000012511152152286666141_)"/></g><g><circle cx="256" cy="139" r="110"/><circle cx="256" cy="139" fill="url(#SVGID_00000035513617763531299210000002950597686505584309_)" r="100"/></g><g><circle cx="256" cy="139" r="82.5"/><circle cx="256" cy="139" fill="url(#SVGID_00000042701592325238911370000015505700574985130919_)" r="72.5"/><path d="m279.4 196.7c-3.3 0-6.6-.8-9.6-2.3l-13.8-6.9-13.8 6.9c-3 1.5-6.3 2.3-9.6 2.3-6.3 0-12.3-2.8-16.4-7.6-4.1-4.7-5.9-11-5-17.2l2.2-15.3-10.8-11c-5.6-5.8-7.6-14.1-5.1-21.8s9-13.3 16.9-14.6l15.2-2.6 7.2-13.7c3.8-7.2 11.1-11.6 19.2-11.6s15.4 4.4 19.2 11.6l7.2 13.7 15.2 2.6c8 1.3 14.5 7 17 14.6s.5 16-5.1 21.8l-10.8 11 2.2 15.3c.9 6.2-.9 12.5-5 17.2-4.2 4.9-10.2 7.6-16.5 7.6z"/><path d="m266.3 97.5 9.5 18.1 20.1 3.4c9.2 1.6 12.9 12.9 6.4 19.6l-14.3 14.6 3 20.2c1.4 9.3-8.3 16.3-16.7 12.1l-18.3-9.1-18.3 9.1c-8.4 4.2-18-2.8-16.7-12.1l3-20.2-14.3-14.6c-6.6-6.7-2.9-18 6.4-19.6l20.1-3.4 9.5-18.1c4.4-8.3 16.3-8.3 20.6 0z" fill="url(#SVGID_00000098214940576658385230000012793004823821914289_)"/></g></g></g></svg>