<svg height="512" viewBox="0 0 256 256" width="512" xmlns="http://www.w3.org/2000/svg"><g id="Layer_4"><g><g><path d="m71.585 199.257c-3.168 0-5.736 2.568-5.736 5.736v21.664c0 7.553-5.804 14.052-13.349 14.407-8.055.379-14.705-6.039-14.705-14.011v-197.763c0-4.622 3.747-8.37 8.37-8.37h123.012c4.622 0 8.37 3.747 8.37 8.37v169.967z" fill="#dae6f1"/></g><g><path d="m225.927 40.87 11.967 3.749c2.104.659 3.275 2.899 2.616 5.004l-13.348 42.603c-.659 2.104-2.899 3.275-5.004 2.616l-11.967-3.749c-2.104-.659-3.275-2.899-2.616-5.004l13.348-42.603c.66-2.103 2.9-3.275 5.004-2.616z" fill="#6cadef"/></g><g><path d="m225.927 40.87 11.967 3.749c.015.005.027.013.042.018l2.519-8.04c1.043-3.328-.81-6.872-4.139-7.915-3.328-1.043-6.872.81-7.915 4.139l-2.519 8.04c.015.005.03.005.045.009z" fill="#5290db"/></g><g><path d="m222.159 94.843-11.967-3.749c-.802-.251-1.466-.734-1.947-1.35l-16.725 53.381c-1.089 3.476-1.464 7.136-1.101 10.761l1.104 11.046c.191 1.915 2.586 2.665 3.835 1.202l7.21-8.442c2.366-2.77 4.146-5.99 5.236-9.466l16.725-53.381c-.747.231-1.568.249-2.37-.002z" fill="#5290db"/></g><g><path d="m190.373 153.273c.016.204.025.409.046.613l1.104 11.046c.191 1.915 2.586 2.665 3.835 1.202l7.21-8.442c.133-.156.258-.318.387-.477z" fill="#818182"/></g><g><path d="m191.573 241.08h-139.751c7.747 0 14.027-6.28 14.027-14.027v-22.06c0-3.168 2.568-5.736 5.736-5.736h128.279c3.168 0 5.736 2.568 5.736 5.736v22.06c0 7.746-6.28 14.027-14.027 14.027z" fill="#edf4fc"/></g><g><path d="m105.749 90.624h-21.562c-2.207 0-3.997-1.789-3.997-3.997v-11.304c0-2.207 1.789-3.997 3.997-3.997h21.562c2.207 0 3.997 1.789 3.997 3.997v11.304c0 2.207-1.79 3.997-3.997 3.997z" fill="#fc657e"/></g><g><path d="m128.297 52.903h-21.696c-2.17 0-3.93 1.759-3.93 3.93v14.493h3.078c2.207 0 3.997 1.789 3.997 3.997v11.304c0 2.062-1.567 3.739-3.571 3.954.142.015.28.043.426.043h21.696c2.17 0 3.93-1.759 3.93-3.93v-29.86c0-2.171-1.76-3.931-3.93-3.931z" fill="#70d6f9"/></g><g><g><path d="m63.176 122.396-6.3-6.3c-1.953-1.953-1.953-5.119 0-7.071 1.951-1.952 5.119-1.952 7.07 0l2.765 2.765 5.915-5.915c1.951-1.952 5.119-1.952 7.07 0 1.953 1.953 1.953 5.119 0 7.071l-9.45 9.45c-1.952 1.953-5.119 1.952-7.07 0z" fill="#87d147"/></g></g><g><g><path d="m63.176 152.896-6.3-6.3c-1.953-1.953-1.953-5.119 0-7.071 1.951-1.952 5.119-1.952 7.07 0l2.765 2.765 5.915-5.915c1.951-1.952 5.119-1.952 7.07 0 1.953 1.953 1.953 5.119 0 7.071l-9.45 9.45c-1.952 1.953-5.119 1.952-7.07 0z" fill="#87d147"/></g></g><g><g><path d="m63.176 183.396-6.3-6.3c-1.953-1.953-1.953-5.119 0-7.071 1.951-1.952 5.119-1.952 7.07 0l2.765 2.765 5.915-5.915c1.951-1.952 5.119-1.952 7.07 0 1.953 1.953 1.953 5.119 0 7.071l-9.45 9.45c-1.952 1.953-5.119 1.952-7.07 0z" fill="#87d147"/></g></g><g><path d="m239.211 156.2c-3.1-.6-5.6-3-6.2-6.1 0-.1-.3-.1-.3 0-.6 3.1-3.1 5.5-6.2 6.1-.1 0-.1.2 0 .3 3.1.6 5.6 3 6.2 6.1 0 .1.3.1.3 0 .6-3.1 3.1-5.5 6.2-6.1.1-.1.1-.3 0-.3z" fill="#f5c84c"/></g><g><path d="m197.211 23.5h2.3v2.3c0 1.8 1.4 3.2 3.2 3.2 1.7 0 3.2-1.4 3.2-3.1v-.1-2.3h2.3c1.8 0 3.2-1.4 3.2-3.2 0-1.7-1.4-3.2-3.1-3.2h-.1-2.3v-2.3c0-1.8-1.4-3.2-3.2-3.2-1.7 0-3.2 1.4-3.2 3.1v.1 2.3h-2.3c-1.8 0-3.2 1.4-3.2 3.2-.1 1.7 1.3 3.2 3.2 3.2-.1 0-.1 0 0 0z" fill="#70d6f9"/></g><g><circle cx="29.611" cy="252.6" fill="#fc657e" r="3.4"/></g><g><circle cx="155.611" cy="3.4" fill="#87d147" r="3.4"/></g><g><path d="m6.011 211.2c4.5-.8 8-4.3 8.9-8.7 0-.2.4-.2.4 0 .9 4.4 4.4 7.9 8.9 8.7.2 0 .2.3 0 .4-4.5.8-8 4.3-8.9 8.7 0 .2-.4.2-.4 0-.9-4.4-4.4-7.9-8.9-8.7-.2-.1-.2-.4 0-.4z" fill="#f5c84c"/></g><g><path d="m51.811 243.58c-4.27 0-8.29-1.605-11.396-4.567-3.302-3.15-5.12-7.397-5.12-11.959v-197.764c0-5.994 4.876-10.87 10.87-10.87h123.012c5.993 0 10.869 4.876 10.869 10.87v169.967c0 1.381-1.119 2.5-2.5 2.5h-105.96c-1.784 0-3.236 1.452-3.236 3.236v21.664c0 9.064-6.91 16.489-15.732 16.904-.27.012-.54.019-.807.019zm-5.646-220.16c-3.236 0-5.87 2.633-5.87 5.87v197.763c0 3.182 1.269 6.144 3.571 8.341 2.302 2.196 5.316 3.318 8.517 3.172 6.047-.285 10.967-5.627 10.967-11.91v-21.664c0-4.542 3.694-8.236 8.236-8.236h103.46v-167.466c0-3.236-2.633-5.87-5.869-5.87z"/></g><g><path d="m223.349 97.526c-.642 0-1.293-.096-1.937-.297l-11.967-3.75c-1.655-.519-3.01-1.65-3.813-3.187-.804-1.538-.96-3.295-.441-4.951l13.348-42.602c.519-1.655 1.65-3.009 3.188-3.813 1.536-.803 3.294-.96 4.949-.442l11.967 3.749c3.416 1.071 5.325 4.721 4.255 8.137l-13.349 42.604c-.869 2.772-3.438 4.552-6.2 4.552zm1.382-54.339c-.237 0-.473.058-.689.171-.354.185-.613.496-.732.876l-13.348 42.604c-.119.381-.084.785.101 1.137.186.354.496.614.877.733l11.967 3.75c.786.246 1.625-.192 1.87-.978l13.349-42.603c.246-.785-.192-1.625-.979-1.871l-11.967-3.749s0 0-.001 0c-.147-.047-.297-.07-.448-.07z"/></g><g><path d="m237.936 47.138c-.267 0-.533-.042-.791-.128-.034-.011-.07-.024-.107-.039l-11.765-3.685c-.037-.01-.074-.02-.108-.03-.64-.192-1.177-.632-1.489-1.223-.313-.59-.378-1.281-.178-1.919l2.519-8.04c1.453-4.638 6.411-7.23 11.048-5.777 4.639 1.454 7.23 6.41 5.777 11.048l-2.52 8.04c-.201.64-.65 1.173-1.247 1.479-.357.181-.748.274-1.139.274zm-8.918-7.919 7.281 2.281 1.771-5.65c.629-2.007-.492-4.153-2.501-4.782-2.006-.629-4.151.493-4.781 2.5zm-3.135 1.642h.01z"/></g><g><path d="m193.699 169.4c-.468 0-.94-.07-1.403-.215-1.794-.563-3.074-2.134-3.261-4.005l-1.104-11.046c-.398-3.981.007-7.937 1.203-11.757l16.725-53.381c.277-.886 1.024-1.545 1.938-1.712.916-.168 1.845.188 2.417.919.19.244.435.414.726.504l11.967 3.75c.36.113.681.062.885 0 .888-.274 1.854-.033 2.509.625s.892 1.625.614 2.511l-16.725 53.381c-1.196 3.818-3.121 7.298-5.72 10.341l-7.21 8.442c-.906 1.061-2.213 1.643-3.561 1.643zm15.973-75.85-15.766 50.322c-.994 3.172-1.33 6.458-1 9.765l1.03 10.312 6.73-7.88c2.159-2.528 3.758-5.417 4.751-8.589l15.767-50.322z"/></g><g><path d="m236.58 100.758c-.248 0-.5-.037-.748-.115-1.318-.413-2.052-1.815-1.639-3.133l10.782-34.413c.584-1.863-.458-3.854-2.32-4.438l-26.378-8.264c-1.318-.413-2.052-1.815-1.639-3.133s1.82-2.049 3.133-1.638l26.378 8.264c4.494 1.408 7.005 6.21 5.598 10.704l-10.782 34.414c-.335 1.068-1.321 1.752-2.385 1.752z"/></g><g><path d="m111.335 54.771c-1.381 0-2.5-1.119-2.5-2.5v-12.238c0-1.381 1.119-2.5 2.5-2.5s2.5 1.119 2.5 2.5v12.238c0 1.381-1.119 2.5-2.5 2.5z"/></g><g><path d="m123.563 54.771c-1.381 0-2.5-1.119-2.5-2.5v-12c0-1.381 1.119-2.5 2.5-2.5s2.5 1.119 2.5 2.5v12c0 1.381-1.119 2.5-2.5 2.5z"/></g><g><path d="m125.402 41.933h-15.907c-1.381 0-2.5-1.119-2.5-2.5s1.119-2.5 2.5-2.5h15.907c1.381 0 2.5 1.119 2.5 2.5s-1.119 2.5-2.5 2.5z"/></g><g><path d="m121.381 65.894h-7.863c-1.381 0-2.5-1.119-2.5-2.5s1.119-2.5 2.5-2.5h7.863c1.381 0 2.5 1.119 2.5 2.5s-1.119 2.5-2.5 2.5z"/></g><g><path d="m102.185 73.826h-14.434c-1.381 0-2.5-1.119-2.5-2.5v-1.563c0-5.358 4.359-9.717 9.717-9.717s9.717 4.359 9.717 9.717v1.563c0 1.381-1.12 2.5-2.5 2.5zm-11.84-5h9.246c-.436-2.154-2.343-3.78-4.623-3.78-2.281-.001-4.188 1.626-4.623 3.78z"/></g><g><path d="m135.5 111.2h-43c-1.381 0-2.5-1.119-2.5-2.5s1.119-2.5 2.5-2.5h43c1.381 0 2.5 1.119 2.5 2.5s-1.119 2.5-2.5 2.5z"/></g><g><path d="m163.52 122h-71.02c-1.381 0-2.5-1.119-2.5-2.5s1.119-2.5 2.5-2.5h71.02c1.381 0 2.5 1.119 2.5 2.5s-1.12 2.5-2.5 2.5z"/></g><g><path d="m135.5 141.7h-43c-1.381 0-2.5-1.119-2.5-2.5s1.119-2.5 2.5-2.5h43c1.381 0 2.5 1.119 2.5 2.5s-1.119 2.5-2.5 2.5z"/></g><g><path d="m163.52 152.5h-71.02c-1.381 0-2.5-1.119-2.5-2.5s1.119-2.5 2.5-2.5h71.02c1.381 0 2.5 1.119 2.5 2.5s-1.12 2.5-2.5 2.5z"/></g><g><path d="m135.5 172.2h-43c-1.381 0-2.5-1.119-2.5-2.5s1.119-2.5 2.5-2.5h43c1.381 0 2.5 1.119 2.5 2.5s-1.119 2.5-2.5 2.5z"/></g><g><path d="m163.52 183h-71.02c-1.381 0-2.5-1.119-2.5-2.5s1.119-2.5 2.5-2.5h71.02c1.381 0 2.5 1.119 2.5 2.5s-1.12 2.5-2.5 2.5z"/></g><g><path d="m193.699 169.4c-.468 0-.94-.07-1.403-.215-1.794-.563-3.074-2.134-3.261-4.005l-1.104-11.046c-.017-.159-.027-.319-.038-.479l-.014-.191c-.063-.827.288-1.631.938-2.147s1.512-.676 2.303-.429l12.582 3.942c.793.249 1.41.874 1.648 1.669.237.795.065 1.657-.461 2.3l-.128.159c-.096.12-.191.24-.291.356l-7.211 8.443c-.905 1.061-2.212 1.643-3.56 1.643zm-.478-12.615.716 7.164 4.676-5.475z"/></g><g><path d="m191.573 243.58h-139.751c-1.381 0-2.5-1.119-2.5-2.5s1.119-2.5 2.5-2.5c6.356 0 11.527-5.171 11.527-11.527v-22.06c0-4.541 3.694-8.236 8.236-8.236h128.278c4.542 0 8.236 3.695 8.236 8.236v22.06c.002 9.113-7.412 16.527-16.526 16.527zm-127.918-5h127.918c6.356 0 11.527-5.171 11.527-11.527v-22.06c0-1.784-1.452-3.236-3.236-3.236h-128.278c-1.784 0-3.236 1.452-3.236 3.236v22.06c0 4.478-1.791 8.547-4.695 11.527z"/></g><g><path d="m105.749 93.124h-21.562c-3.582 0-6.497-2.915-6.497-6.497v-11.304c0-3.583 2.915-6.497 6.497-6.497h21.563c3.582 0 6.497 2.915 6.497 6.497v11.304c-.001 3.582-2.916 6.497-6.498 6.497zm-21.562-19.298c-.825 0-1.497.671-1.497 1.497v11.304c0 .826.672 1.497 1.497 1.497h21.563c.825 0 1.497-.671 1.497-1.497v-11.304c0-.826-.672-1.497-1.497-1.497z"/></g><g><path d="m128.297 93.124h-21.696c-.217 0-.427-.021-.636-.05-1.269-.14-2.26-1.216-2.258-2.493.002-1.276.932-2.35 2.2-2.486.764-.082 1.339-.713 1.339-1.468v-11.304c0-.826-.672-1.497-1.497-1.497h-3.078c-1.381 0-2.5-1.119-2.5-2.5v-14.493c0-3.545 2.885-6.43 6.43-6.43h21.696c3.545 0 6.43 2.885 6.43 6.43v29.86c0 3.546-2.885 6.431-6.43 6.431zm-16.225-5h16.225c.788 0 1.43-.641 1.43-1.43v-29.86c0-.789-.642-1.43-1.43-1.43h-21.696c-.788 0-1.43.642-1.43 1.43v11.992h.578c3.582 0 6.497 2.915 6.497 6.497v11.304c0 .514-.06 1.016-.174 1.497z"/></g><g><g><path d="m66.711 126.36c-2.004 0-3.887-.78-5.303-2.197h-.001l-6.299-6.299c-1.417-1.416-2.197-3.3-2.197-5.303s.78-3.887 2.197-5.304c1.415-1.416 3.299-2.196 5.303-2.196s3.888.78 5.304 2.197l.996.996 4.147-4.147c1.415-1.416 3.299-2.196 5.303-2.196s3.888.78 5.304 2.197c1.416 1.416 2.196 3.299 2.196 5.303s-.78 3.887-2.197 5.304l-9.45 9.449c-1.415 1.416-3.299 2.196-5.303 2.196zm-6.3-16.299c-.668 0-1.296.259-1.767.731-.474.473-.733 1.101-.733 1.769 0 .667.26 1.295.732 1.768l6.3 6.3h.001c.941.943 2.59.943 3.533 0l9.451-9.45c.473-.473.732-1.101.732-1.768s-.26-1.295-.732-1.768c-.943-.945-2.593-.944-3.534-.001l-5.916 5.916c-.977.976-2.559.976-3.535 0l-2.765-2.765c-.471-.473-1.099-.732-1.767-.732z"/></g></g><g><g><path d="m66.711 156.86c-2.004 0-3.887-.78-5.303-2.197h-.001l-6.299-6.299c-1.417-1.416-2.197-3.3-2.197-5.303s.78-3.887 2.197-5.304c1.415-1.416 3.299-2.196 5.303-2.196s3.888.78 5.304 2.197l.996.996 4.147-4.147c1.415-1.416 3.299-2.196 5.303-2.196s3.888.78 5.304 2.197c1.416 1.416 2.196 3.299 2.196 5.303s-.78 3.887-2.197 5.304l-9.45 9.449c-1.415 1.416-3.299 2.196-5.303 2.196zm-6.3-16.299c-.668 0-1.296.259-1.767.731-.474.473-.733 1.101-.733 1.769 0 .667.26 1.295.732 1.768l6.3 6.3h.001c.941.943 2.59.943 3.533 0l9.451-9.45c.473-.473.732-1.101.732-1.768s-.26-1.295-.732-1.768c-.943-.945-2.593-.944-3.534-.001l-5.916 5.916c-.977.976-2.559.976-3.535 0l-2.765-2.765c-.471-.473-1.099-.732-1.767-.732z"/></g></g><g><g><path d="m66.711 187.36c-2.004 0-3.887-.78-5.303-2.197h-.001l-6.299-6.299c-1.417-1.416-2.197-3.3-2.197-5.303s.78-3.887 2.197-5.304c1.415-1.416 3.299-2.196 5.303-2.196s3.888.78 5.304 2.197l.996.996 4.147-4.147c1.415-1.416 3.299-2.196 5.303-2.196s3.888.78 5.304 2.197c1.416 1.416 2.196 3.299 2.196 5.303s-.78 3.887-2.197 5.304l-9.45 9.449c-1.415 1.416-3.299 2.196-5.303 2.196zm-6.3-16.299c-.668 0-1.296.259-1.767.731-.474.473-.733 1.101-.733 1.769 0 .667.26 1.295.732 1.768l6.3 6.3h.001c.941.943 2.59.943 3.533 0l9.451-9.45c.473-.473.732-1.101.732-1.768s-.26-1.295-.732-1.768c-.943-.945-2.593-.944-3.534-.001l-5.916 5.916c-.977.976-2.559.976-3.535 0l-2.765-2.765c-.471-.473-1.099-.732-1.767-.732z"/></g></g></g></g></svg>