<svg id="Layer_1" height="512" viewBox="0 0 512 512" width="512" xmlns="http://www.w3.org/2000/svg" data-name="Layer 1"><circle cx="244" cy="269" fill="#d1f2f1" r="229"/><circle cx="244" cy="269" fill="#d1f2f1" r="162"/><circle cx="244" cy="269" fill="#00ccf2" r="90"/><path d="m352.964 162.231c.036-3.231-14.964-77.231-14.964-77.231l83.637-73.178 12.363 66.178 68 12-82 89z" fill="#fcee86"/><g fill="#020288"><path d="m511.288 88.1a15.582 15.582 0 0 0 -12.1-10.72l-54.561-10-10-54.563a15.625 15.625 0 0 0 -26.416-8.229l-76.355 76.345a15.626 15.626 0 0 0 -4.316 13.867l11.16 60.859-104.27 104.27a12.476 12.476 0 0 0 17.644 17.643l104.267-104.272 60.864 11.159a15.625 15.625 0 0 0 13.865-4.32l76.349-76.349a15.581 15.581 0 0 0 3.869-15.69zm-94.4 70.939-39.111-7.17 26.028-26.028a12.476 12.476 0 1 0 -17.643-17.644l-26.029 26.028-7.17-39.111 60.322-60.322 7.96 43.416a15.7 15.7 0 0 0 12.555 12.546l43.415 7.96z"/><path d="m286.374 113.517a12.475 12.475 0 0 0 -9.84-14.644 173.256 173.256 0 0 0 -156.125 47.52c-67.6 67.6-67.6 177.6 0 245.2a173.389 173.389 0 0 0 292.718-156.126 12.475 12.475 0 1 0 -24.484 4.8 148.338 148.338 0 0 1 -40.679 133.677c-57.873 57.873-152.038 57.873-209.911 0s-57.873-152.039 0-209.912a148.334 148.334 0 0 1 133.677-40.674 12.475 12.475 0 0 0 14.644-9.841z"/><path d="m465.376 204.788a12.474 12.474 0 0 0 -9.371 14.948 218.316 218.316 0 0 1 -367.115 203.375 218.321 218.321 0 0 1 203.629-367.057 12.475 12.475 0 1 0 5.606-24.312 243.086 243.086 0 0 0 -226.879 65.005 243.25 243.25 0 1 0 406.386 237.233 244.9 244.9 0 0 0 2.692-119.821 12.475 12.475 0 0 0 -14.948-9.371z"/><path d="m250.741 192.259a12.476 12.476 0 0 0 2.493-24.827 102.1 102.1 0 1 0 91.3 90.98 12.475 12.475 0 1 0 -24.817 2.58 77.151 77.151 0 1 1 -68.973-68.733z"/></g></svg>