<svg xmlns="http://www.w3.org/2000/svg" version="1.1" xmlns:xlink="http://www.w3.org/1999/xlink" width="512" height="512" x="0" y="0" viewBox="0 0 512 512" style="enable-background:new 0 0 512 512" xml:space="preserve" class=""><g><g data-name="93"><circle cx="256" cy="256" r="256" fill="#0054a0" opacity="0" data-original="#0054a0" class=""></circle><path d="M326.76 362.64v26.58c0 5.52-4.48 10-10 10H195.24c-5.52 0-10-4.48-10-10v-26.58c0-13.9 11.29-25.19 25.19-25.19h91.14c13.9 0 25.19 11.29 25.19 25.19z" fill="#000000" opacity="1" data-original="#000000" class=""></path><path fill="#4d7382" d="M210.43 347.46h91.14c8.38 0 15.19 6.81 15.19 15.19v26.58H195.24v-26.58c0-8.38 6.81-15.19 15.19-15.19z" opacity="1" data-original="#4d7382"></path><path d="M185.75 441c-17.03 0-30.89-13.86-30.89-30.89s13.86-30.89 30.89-30.89h140.51c17.03 0 30.89 13.86 30.89 30.89S343.29 441 326.26 441z" fill="#000000" opacity="1" data-original="#000000" class=""></path><rect width="182.28" height="41.77" x="164.86" y="389.23" fill="#ffce00" rx="20.89" opacity="1" data-original="#ffce00"></rect><path d="M327.26 227.92c-5.64 0-10.82-2.12-14.61-5.97-3.79-3.86-5.83-9.1-5.73-14.76.29-17.1 3.93-48.92 24.98-69.98 21.06-21.05 52.88-24.69 69.98-24.98h.38c5.64 0 10.83 2.12 14.61 5.97 3.79 3.86 5.83 9.1 5.73 14.76-.29 17.1-3.93 48.92-24.98 69.98-21.06 21.05-52.88 24.69-69.98 24.98z" fill="#000000" opacity="1" data-original="#000000" class=""></path><path fill="#ffb000" d="M338.98 144.28c18.63-18.63 47.73-21.79 63.08-22.05 6.18-.11 10.66 4.38 10.55 10.55-.26 15.35-3.42 44.45-22.05 63.08s-47.73 21.79-63.08 22.05c-6.18.11-10.66-4.38-10.55-10.55.26-15.35 3.42-44.45 22.05-63.08z" opacity="1" data-original="#ffb000"></path><path d="M356.3 262.88c-13.01 0-24.83-2.29-32.46-4.21-5.55-1.4-10.11-4.78-12.84-9.53s-3.35-10.39-1.76-15.89c4.74-16.43 16.55-46.21 42.37-61.04 11.64-6.69 25.64-10.08 41.61-10.08 13.01 0 24.83 2.29 32.46 4.21 5.55 1.4 10.11 4.78 12.83 9.53s3.35 10.39 1.77 15.89c-4.74 16.43-16.55 46.21-42.37 61.04-11.64 6.69-25.64 10.08-41.61 10.08z" fill="#000000" opacity="1" data-original="#000000" class=""></path><path fill="#ff8500" d="M356.58 180.89c22.85-13.13 51.76-8.59 66.65-4.84 5.99 1.51 9.15 7 7.44 12.94-4.26 14.75-14.9 42.02-37.75 55.14-22.85 13.13-51.76 8.59-66.65 4.84-5.99-1.51-9.15-7-7.44-12.94 4.26-14.75 14.9-42.02 37.75-55.14z" opacity="1" data-original="#ff8500"></path><path d="M368.79 295.99c-25.59 0-48.88-13.68-60.49-21.84-4.68-3.29-7.73-8.08-8.58-13.48s.58-10.9 4.03-15.47c10.3-13.65 31.98-37.24 61.39-41.86 3.5-.55 7.13-.83 10.78-.83 25.59 0 48.88 13.68 60.49 21.84 4.68 3.29 7.73 8.08 8.58 13.48.85 5.41-.58 10.9-4.03 15.47-10.3 13.65-31.98 37.24-61.39 41.86-3.5.55-7.13.83-10.78.83z" fill="#000000" opacity="1" data-original="#000000" class=""></path><path fill="#ffb000" d="M366.7 213.22c26.03-4.09 51.41 10.48 63.97 19.31 5.06 3.55 6.04 9.81 2.32 14.74-9.25 12.25-28.94 33.91-54.97 38s-51.41-10.48-63.97-19.31c-5.06-3.55-6.04-9.81-2.32-14.74 9.25-12.25 28.94-33.91 54.97-38z" opacity="1" data-original="#ffb000"></path><path d="M348.66 325.34c-8.89 0-17.28-1.37-24.95-4.09-28.07-9.93-45.07-37.08-52.7-52.39-2.55-5.12-2.96-10.79-1.13-15.94 1.82-5.16 5.7-9.31 10.9-11.69 11.68-5.34 29.67-11.7 48.97-11.7 8.89 0 17.28 1.37 24.95 4.09 28.07 9.93 45.07 37.08 52.7 52.38 2.55 5.12 2.96 10.79 1.13 15.94s-5.7 9.31-10.9 11.69c-11.69 5.34-29.67 11.7-48.97 11.7z" fill="#000000" opacity="1" data-original="#000000" class=""></path><path fill="#ff8500" d="M351.36 243.06c24.84 8.78 40.23 33.68 47.08 47.42 2.76 5.53.64 11.5-4.98 14.07-13.97 6.38-41.59 16.06-66.43 7.28s-40.23-33.68-47.08-47.42c-2.76-5.53-.64-11.5 4.98-14.07 13.97-6.38 41.59-16.06 66.43-7.28z" opacity="1" data-original="#ff8500"></path><path d="M184.35 227.92c-17.1-.29-48.92-3.93-69.98-24.98-21.05-21.06-24.69-52.88-24.98-69.98-.1-5.66 1.94-10.9 5.73-14.76 3.78-3.85 8.97-5.97 14.61-5.97h.38c17.1.3 48.92 3.93 69.98 24.99 21.05 21.06 24.69 52.88 24.98 69.98.1 5.66-1.94 10.9-5.73 14.76-3.78 3.85-8.97 5.97-14.61 5.97h-.38z" fill="#000000" opacity="1" data-original="#000000" class=""></path><path fill="#ffb000" d="M173.02 144.28c-18.63-18.63-47.73-21.79-63.08-22.05-6.18-.11-10.66 4.38-10.55 10.55.26 15.35 3.42 44.45 22.05 63.08s47.73 21.79 63.08 22.05c6.18.11 10.66-4.38 10.55-10.55-.26-15.35-3.42-44.45-22.05-63.08z" opacity="1" data-original="#ffb000"></path><path d="M155.7 262.88c-15.97 0-29.97-3.39-41.61-10.08-25.82-14.83-37.63-44.61-42.37-61.04-1.59-5.5-.96-11.14 1.77-15.89s7.28-8.13 12.83-9.53c7.63-1.92 19.46-4.21 32.46-4.21 15.97 0 29.97 3.39 41.61 10.08 25.82 14.83 37.63 44.61 42.37 61.04 1.59 5.5.96 11.14-1.76 15.89s-7.28 8.13-12.83 9.53c-7.63 1.92-19.46 4.21-32.46 4.21z" fill="#000000" opacity="1" data-original="#000000" class=""></path><path fill="#ff8500" d="M155.42 180.89c-22.85-13.13-51.76-8.59-66.65-4.84-5.99 1.51-9.15 7-7.44 12.94 4.26 14.75 14.9 42.02 37.75 55.14 22.85 13.13 51.76 8.59 66.65 4.84 5.99-1.51 9.15-7 7.44-12.94-4.26-14.75-14.9-42.02-37.75-55.14z" opacity="1" data-original="#ff8500"></path><path d="M143.21 295.99c-3.65 0-7.28-.28-10.78-.83-29.42-4.62-51.09-28.21-61.39-41.86-3.45-4.57-4.88-10.06-4.03-15.47s3.9-10.19 8.58-13.48c11.61-8.16 34.91-21.84 60.49-21.84 3.65 0 7.28.28 10.78.83 29.42 4.62 51.09 28.21 61.39 41.86 3.45 4.57 4.88 10.06 4.03 15.47s-3.9 10.19-8.58 13.48c-11.61 8.16-34.9 21.84-60.49 21.84z" fill="#000000" opacity="1" data-original="#000000" class=""></path><path fill="#ffb000" d="M145.3 213.22c-26.03-4.09-51.41 10.48-63.97 19.31-5.06 3.55-6.04 9.81-2.32 14.74 9.25 12.25 28.94 33.91 54.97 38s51.41-10.48 63.97-19.31c5.06-3.55 6.04-9.81 2.32-14.74-9.25-12.25-28.94-33.91-54.97-38z" opacity="1" data-original="#ffb000"></path><path d="M163.34 325.34c-19.3 0-37.28-6.36-48.97-11.7-5.21-2.38-9.08-6.53-10.9-11.69s-1.42-10.82 1.13-15.94c7.63-15.3 24.63-42.46 52.7-52.38 7.67-2.71 16.06-4.09 24.95-4.09 19.3 0 37.28 6.36 48.97 11.7 5.21 2.38 9.08 6.53 10.9 11.69s1.42 10.82-1.13 15.94c-7.63 15.3-24.62 42.46-52.7 52.39-7.67 2.71-16.06 4.09-24.94 4.09z" fill="#000000" opacity="1" data-original="#000000" class=""></path><path fill="#ff8500" d="M160.64 243.06c-24.84 8.78-40.23 33.68-47.08 47.42-2.76 5.53-.64 11.5 4.98 14.07 13.97 6.38 41.59 16.06 66.43 7.28s40.23-33.68 47.08-47.42c2.76-5.53.64-11.5-4.98-14.07-13.97-6.38-41.59-16.06-66.43-7.28z" opacity="1" data-original="#ff8500"></path><path d="M256 366.57c-4.02 0-8.04-.51-11.94-1.51-13.7-3.52-40.12-12.27-63.06-31.31-28.56-23.69-43.04-55.33-43.04-94.03v-92.03c0-19.55 11.69-36.98 29.78-44.39l70.06-28.71c5.8-2.38 11.92-3.58 18.19-3.58s12.39 1.21 18.19 3.58l70.06 28.71c18.09 7.41 29.78 24.84 29.78 44.39v92.03c0 38.7-14.48 70.34-43.04 94.03-22.95 19.04-49.36 27.79-63.06 31.31-3.9 1-7.92 1.51-11.94 1.51z" fill="#000000" opacity="1" data-original="#000000" class=""></path><path fill="#ffdf43" d="m241.6 83.84-70.06 28.71c-14.26 5.84-23.57 19.73-23.57 35.14v92.03c0 82.78 72.26 108.89 98.59 115.65a38.04 38.04 0 0 0 18.9 0c26.33-6.76 98.59-32.87 98.59-115.65v-92.03a37.98 37.98 0 0 0-23.57-35.14l-70.06-28.71a37.989 37.989 0 0 0-28.8 0z" opacity="1" data-original="#ffdf43" class=""></path><path d="M256 347.58c-2.43 0-4.86-.31-7.22-.91-12.16-3.12-35.56-10.85-55.66-27.53-24-19.92-36.17-46.64-36.17-79.42v-92.03c0-11.81 7.06-22.34 17.99-26.82L245 92.16c3.51-1.44 7.21-2.17 10.99-2.17s7.48.73 10.99 2.16l70.06 28.71c10.93 4.48 18 15.01 18 26.82v92.03c0 32.78-12.17 59.5-36.17 79.42-20.1 16.67-43.5 24.41-55.66 27.53-2.35.6-4.78.91-7.21.91z" fill="#000000" opacity="1" data-original="#000000" class=""></path><path fill="#ffce00" d="M256 337.58c-1.59 0-3.18-.2-4.72-.6-11.35-2.92-33.17-10.11-51.77-25.54-21.6-17.93-32.56-42.06-32.56-71.72v-92.03c0-7.74 4.63-14.63 11.79-17.57l70.06-28.71c2.3-.94 4.72-1.42 7.2-1.42s4.9.48 7.2 1.42l70.06 28.71a18.919 18.919 0 0 1 11.79 17.57v92.03c0 29.67-10.95 53.8-32.56 71.72-18.59 15.43-40.41 22.62-51.76 25.54-1.54.4-3.13.6-4.72.6z" opacity="1" data-original="#ffce00"></path><circle cx="256" cy="218.78" r="82.15" fill="#000000" opacity="1" data-original="#000000" class=""></circle><circle cx="256" cy="218.78" r="72.15" fill="#fff0c5" opacity="1" data-original="#fff0c5" class=""></circle><path d="M276.78 271.07c-3.13 0-6.17-.72-9.02-2.13L256 263.11l-11.76 5.83c-2.85 1.41-5.89 2.13-9.02 2.13-5.9 0-11.51-2.58-15.4-7.08-3.84-4.44-5.55-10.35-4.69-16.2l1.91-12.98-9.17-9.38c-5.3-5.42-7.13-13.26-4.79-20.47s8.44-12.47 15.91-13.75l12.94-2.2 6.09-11.62c3.52-6.71 10.41-10.88 17.99-10.88s14.47 4.17 17.99 10.88l6.09 11.62 12.94 2.2c7.47 1.27 13.57 6.54 15.91 13.74s.51 15.05-4.79 20.47l-9.17 9.38 1.91 12.99c.86 5.85-.85 11.75-4.69 16.19-3.89 4.5-9.5 7.08-15.4 7.08z" fill="#000000" opacity="1" data-original="#000000" class=""></path><path fill="#ffce00" d="m265.13 182.02 8.39 16.01 17.82 3.03c8.2 1.39 11.46 11.42 5.64 17.37l-12.64 12.93 2.63 17.89c1.21 8.23-7.32 14.42-14.77 10.73l-16.2-8.02-16.2 8.02c-7.45 3.69-15.98-2.51-14.77-10.73l2.63-17.89-12.64-12.93c-5.81-5.95-2.55-15.97 5.64-17.37l17.82-3.03 8.39-16.01c3.86-7.37 14.4-7.37 18.26 0z" opacity="1" data-original="#ffce00"></path></g></g></svg>