<svg height="512" viewBox="0 0 60 60" width="512" xmlns="http://www.w3.org/2000/svg"><g id="Page-1" fill="none" fill-rule="evenodd"><g id="028---Confidential-Folder-Unlocking" fill-rule="nonzero"><g id="Icons_copy" transform="translate(1 1)"><path id="Shape" d="m36 44h-18.58c-1.4359072-3.5496577-5.1857568-5.5841149-8.94433659-4.8526934-3.75857975.7314215-6.4718619 4.0236075-6.4718619 7.8526934s2.71328215 7.1212719 6.4718619 7.8526934c3.75857979.7314215 7.50842939-1.3030357 8.94433659-4.8526934h4.58v2c.0081672 1.1011688.8988312 1.9918328 2 2 1.1032019-.0032948 1.9967052-.8967981 2-2v-2h4v2c.0081672 1.1011688.8988312 1.9918328 2 2 1.1032019-.0032948 1.9967052-.8967981 2-2v-2h2c1.1032019-.0032948 1.9967052-.8967981 2-2v-2c-.0032948-1.1032019-.8967981-1.9967052-2-2zm-26 7c-2.209139 0-4-1.790861-4-4s1.790861-4 4-4 4 1.790861 4 4-1.790861 4-4 4z" fill="#7f8e94"/><path id="Shape" d="m34 50h2c1.1032019-.0032948 1.9967052-.8967981 2-2v-2c-.0032948-1.1032019-.8967981-1.9967052-2-2h-3c1.1032019.0032948 1.9967052.8967981 2 2v2c-.0032948 1.1032019-.8967981 1.9967052-2 2z" fill="#545c60"/><path id="Shape" d="m58 41v14c0 1.6568542-1.3431458 3-3 3h-20c-1.6568542 0-3-1.3431458-3-3v-1c1.1032019-.0032948 1.9967052-.8967981 2-2v-2h2c1.1032019-.0032948 1.9967052-.8967981 2-2v-2c-.0032948-1.1032019-.8967981-1.9967052-2-2h-4v-3c0-1.6568542 1.3431458-3 3-3h20c1.6568542 0 3 1.3431458 3 3z" fill="#ffeb3a"/><path id="Shape" d="m55 38h-3c1.6568542 0 3 1.3431458 3 3v14c0 1.6568542-1.3431458 3-3 3h3c1.6568542 0 3-1.3431458 3-3v-14c0-1.6568542-1.3431458-3-3-3z" fill="#fdd834"/><path id="Shape" d="m47.957 45.482c.1821113 1.0202171-.1805548 2.0616034-.957 2.748v2.77c0 1.1045695-.8954305 2-2 2-1.1045695 0-2-.8954305-2-2v-2.77c-.6411361-.5630056-1.0060548-1.3767743-1-2.23-.0062571-1.5607281 1.1852139-2.8655427 2.740087-3.000749 1.5548732-.1352064 2.9536823.9443665 3.216913 2.482749z" fill="#a0522d"/><path id="Shape" d="m55 34v4h-4v-4c0-3.3137085-2.6862915-6-6-6s-6 2.6862915-6 6v4h-4v-4c-.0013251-5.1989846 3.9813697-9.5317427 9.1620707-9.9673807s9.8310239 3.1711815 10.6979293 8.2973807c.0925258.5518678.1393514 1.11043.14 1.67z" fill="#9e9e9e"/><path id="Shape" d="m54.86 32.33c-.8777856-5.3981493-5.9600584-9.0666913-11.36-8.2 4.266391.6385168 7.6391677 3.9467428 8.36 8.2.0925258.5518678.1393514 1.11043.14 1.67v4h3v-4c-.0006486-.55957-.0474742-1.1181322-.14-1.67z" fill="#707070"/><path id="Shape" d="m45 7v17c-5.5228475 0-10 4.4771525-10 10h-33c-1.10320187-.0032948-1.9967052-.8967981-2-2v-30c.0032948-1.10320187.89679813-1.9967052 2-2h14c.5329123.00024132 1.0438267.21252266 1.42.59l4.41 4.41h21.17c1.1032019.0032948 1.9967052.89679813 2 2z" fill="#02a9f4"/><path id="Shape" d="m33 19.5c.0025304 3.3027737-1.5543768 6.4128813-4.2 8.39-.0043017-2.4670575-1.4457583-4.7054169-3.69-5.73 1.1909842-.8371974 1.8969057-2.20422 1.89-3.66 0-2.4852814-2.0147186-4.5-4.5-4.5s-4.5 2.0147186-4.5 4.5c-.0069057 1.45578.6990158 2.8228026 1.89 3.66-2.2442417 1.0245831-3.6856983 3.2629425-3.69 5.73-3.9511846-2.963392-5.3029742-8.2798657-3.2471166-12.7706342 2.0558576-4.4907684 6.9635297-6.94168321 11.7886568-5.88731129 4.8251271 1.05437189 8.2631619 5.32896489 8.2584598 10.26794549z" fill="#0377bc"/><path id="Shape" d="m28.8 27.89v.01c-3.7333333 2.8-8.8666667 2.8-12.6 0v-.01c.0043017-2.4670575 1.4457583-4.7054169 3.69-5.73 1.5597878 1.119945 3.6602122 1.119945 5.22 0 2.2442417 1.0245831 3.6856983 3.2629425 3.69 5.73z" fill="#60a917"/><path id="Shape" d="m27 18.5c-.0000001 2.4852813-2.0147187 4.4999999-4.5 4.4999999s-4.4999999-2.0147186-4.5-4.4999999c0-2.4852814 2.0147186-4.5 4.5-4.5s4.5 2.0147186 4.5 4.5z" fill="#ffe0b2"/></g><g id="Icons" fill="#000"><path id="Shape" d="m11 43c-2.76142375 0-5 2.2385763-5 5s2.23857625 5 5 5c2.7614237 0 5-2.2385763 5-5-.0033061-2.7600532-2.2399468-4.9966939-5-5zm0 8c-1.65685425 0-3-1.3431458-3-3s1.34314575-3 3-3c1.6568542 0 3 1.3431458 3 3s-1.3431458 3-3 3z"/><path id="Shape" d="m57 38.142v-3.142c-.0009957-.6148104-.0521655-1.2285141-.153-1.835-.9508288-5.6412239-6.0669653-9.6119611-11.7676856-9.1331392-5.7007204.4788219-10.082818 5.2473464-10.0793144 10.9681392v3.142c-1.7606851.4545933-2.9931852 2.0395884-3 3.858v2h-12.935c-1.8574223-3.7437544-6.0475999-5.7163197-10.1164827-4.7624289-4.06888278.9538908-6.94577505 4.5832286-6.94577505 8.7624289s2.87689227 7.8085381 6.94577505 8.7624289c4.0688828.9538908 8.2590604-1.0186745 10.1164827-4.7624289h2.935v1c.0071207 1.6538958 1.3461042 2.9928793 3 3 1.6568542 0 3-1.3431458 3-3v-1h2v1c.0017204 1.2683807.8032612 2.3977516 2 2.818v.182c0 2.209139 1.790861 4 4 4h20c2.209139 0 4-1.790861 4-4v-14c-.0068148-1.8184116-1.2393149-3.4034067-3-3.858zm-11-12.142c4.3887135.002443 8.1367824 3.1676479 8.874 7.494.0833469.4976804.1254899 1.001389.126 1.506v3h-2v-3c0-3.8659932-3.1340068-7-7-7s-7 3.1340068-7 7v3h-2v-3c.0055111-4.9682782 4.0317218-8.9944889 9-9zm-5 12v-3c0-2.7614237 2.2385763-5 5-5s5 2.2385763 5 5v3zm-10 12h-4c-.5522847 0-1 .4477153-1 1v2c0 .5522847-.4477153 1-1 1-.2697406.0009102-.5278302-.1098548-.713-.306-.1854514-.1830903-.2889672-.4334037-.287-.694v-2c0-.5522847-.4477153-1-1-1h-4.58c-.4072316-.0001549-.7738809.2466511-.927.624-1.2560163 3.1063322-4.5371637 4.8869889-7.82616953 4.2472097-3.2890058-.6397791-5.66340858-3.5205565-5.66340858-6.8712097s2.37440278-6.2314306 5.66340858-6.8712097c3.28900583-.6397792 6.57015323 1.1408775 7.82616953 4.2472097.1531191.3773489.5197684.6241549.927.624h18.58c.5522847 0 1 .4477153 1 1v2c0 .5522847-.4477153 1-1 1h-2c-.5522847 0-1 .4477153-1 1v2c0 .5522847-.4477153 1-1 1-.2697406.0009102-.5278302-.1098548-.713-.306-.1854514-.1830903-.2889672-.4334037-.287-.694v-2c0-.5522847-.4477153-1-1-1zm27 6c0 1.1045695-.8954305 2-2 2h-20c-1.1045695 0-2-.8954305-2-2v-.184c1.1943509-.4222546 1.9947486-1.5492146 2-2.816v-1h1c1.6568542 0 3-1.3431458 3-3v-2c0-1.6568542-1.3431458-3-3-3h-3v-2c0-1.1045695.8954305-2 2-2h20c1.1045695 0 2 .8954305 2 2z"/><path id="Shape" d="m46.746 43.068c-1.170983-.2222886-2.3800953.0892016-3.2979181.8496059-.9178228.7604044-1.4487316 1.8904994-1.4480819 3.0823941-.0034456.9746721.3525939 1.9163966 1 2.645v2.355c0 1.6568542 1.3431458 3 3 3s3-1.3431458 3-3v-2.354c.9519879-1.0779443 1.2520323-2.5839673.785852-3.9444528-.4661804-1.3604855-1.6268196-2.3659944-3.039852-2.6335472zm.6 5.408c-.2190634.1893818-.3452769.4644249-.346.754v2.77c0 .5522847-.4477153 1-1 1s-1-.4477153-1-1v-2.77c.0000316-.2890978-.1250519-.5640627-.343-.754-.4222111-.3737894-.6618352-.9121229-.657-1.476-.006291-1.0397805.7852165-1.910935 1.8208373-2.0040627 1.0356208-.0931276 1.9698494.6228411 2.1491627 1.6470627.1249911.6785363-.1126167 1.3731696-.627 1.833z"/><path id="Shape" d="m32 36c.5522847 0 1-.4477153 1-1s-.4477153-1-1-1h-29c-.55228475 0-1-.4477153-1-1v-30c0-.55228475.44771525-1 1-1h14c.2682872.00030678.525199.10840432.713.3l2.7 2.7h-10.413c-.55228475 0-1 .44771525-1 1s.44771525 1 1 1h34c.5522847 0 1 .44771525 1 1v13c0 .5522847.4477153 1 1 1s1-.4477153 1-1v-13c0-1.65685425-1.3431458-3-3-3h-20.756l-4.117-4.117c-.5623425-.56700042-1.3284298-.88503288-2.127-.883h-14c-1.65685425 0-3 1.34314575-3 3v30c0 1.6568542 1.34314575 3 3 3z"/><path id="Shape" d="m12 20.5c.0028031 3.5620036 1.6594659 6.920773 4.484 9.091.0292925.0252164.0603739.0482768.093.069 4.108973 3.1335113 9.8104926 3.1158735 13.9-.043.008-.008.019-.013.027-.021 4.2693505-3.286802 5.6822764-9.0983051 3.3984947-13.9783422s-7.6511463-7.51846928-12.9100611-6.34619088c-5.2589148 1.17227838-8.9975237 5.84054688-8.9924336 11.22853308zm6.236 7.9c.1614402-1.7038655 1.1357387-3.2249034 2.616-4.084 1.6492903.9107468 3.6507097.9107468 5.3 0 1.4787276.8600331 2.4514342 2.3809114 2.612 4.084-3.1859189 2.1306985-7.3420811 2.1306985-10.528 0zm5.264-5.4c-1.9329966 0-3.5-1.5670034-3.5-3.5s1.5670034-3.5 3.5-3.5 3.5 1.5670034 3.5 3.5-1.5670034 3.5-3.5 3.5zm9.5-2.5c-.0009226 2.3650198-.8887053 4.6437096-2.488 6.386-.4578326-1.57214-1.4296376-2.9453427-2.76-3.9 1.8398217-2.2397902 1.625609-5.5230105-.4896452-7.5047531-2.1152543-1.9817426-5.4054553-1.9817426-7.5207096 0-2.1152542 1.9817426-2.3294669 5.2649629-.4896452 7.5047531-1.3303624.9546573-2.3021674 2.32786-2.76 3.9-2.859095-3.1358774-3.2896527-7.7884001-1.0545911-11.3957053 2.2350616-3.6073051 6.5927679-5.2930522 10.6735936-4.1290022 4.0808258 1.16405 6.8933956 4.8951086 6.8889975 9.1387075z"/></g></g></g></svg>