<svg xmlns="http://www.w3.org/2000/svg" version="1.1" xmlns:xlink="http://www.w3.org/1999/xlink" width="512" height="512" x="0" y="0" viewBox="0 0 512 512" style="enable-background:new 0 0 512 512" xml:space="preserve" class=""><g><circle cx="256" cy="256" r="245" fill="#fed402" opacity="1" data-original="#fed402" class=""></circle><circle cx="256" cy="256" r="245" fill="#fed402" opacity="1" data-original="#fed402" class=""></circle><g fill="#fe5694"><path d="M41 256c0-39.154 10.404-76.705 29.889-109.511H15c-8.284 0-15 6.716-15 15v189.022c0 8.284 6.716 15 15 15h55.889C51.404 332.705 41 295.154 41 256zM497 146.489h-55.889C460.596 179.295 471 216.846 471 256s-10.404 76.705-29.889 109.511H497c8.284 0 15-6.716 15-15V161.489c0-8.284-6.716-15-15-15z" fill="#fe5694" opacity="1" data-original="#fe5694" class=""></path></g><g fill="#fd3581"><path d="M449.957 349a212.842 212.842 0 0 1-8.845 16.511H497c8.284 0 15-6.716 15-15V349zM62.043 349H31c-8.284 0-15-6.716-15-15V146.489h-1c-8.284 0-15 6.716-15 15v189.022c0 8.284 6.716 15 15 15h55.889A212.513 212.513 0 0 1 62.043 349z" fill="#fd3581" opacity="1" data-original="#fd3581" class=""></path></g><circle cx="256" cy="256" r="187" fill="#fee45a" opacity="1" data-original="#fee45a" class=""></circle><circle cx="255.25" cy="256" r="159.75" fill="#ffffff" opacity="1" data-original="#ffffff"></circle><path fill="#f2fbff" d="M155 256c0-78.06 55.991-143.032 130-156.973a160.571 160.571 0 0 0-29.75-2.777C167.023 96.25 95.5 167.773 95.5 256s71.523 159.75 159.75 159.75c10.168 0 20.11-.961 29.75-2.777C210.991 399.032 155 334.06 155 256z" opacity="1" data-original="#f2fbff"></path><path fill="#c8effe" d="M318.528 352.127h-63.991c-18.107 0-32.838-14.731-32.838-32.837V192.71c0-18.106 14.731-32.837 32.838-32.837h63.991c18.106 0 32.838 14.731 32.838 32.837v126.58c0 18.106-14.731 32.837-32.838 32.837zm-63.991-162.254a2.841 2.841 0 0 0-2.838 2.837v126.58a2.84 2.84 0 0 0 2.838 2.837h63.991a2.841 2.841 0 0 0 2.838-2.837V192.71a2.84 2.84 0 0 0-2.838-2.837zM185.584 352.127h-10c-5.523 0-10-4.477-10-10V189.873H151c-5.523 0-10-4.477-10-10v-10c0-5.523 4.477-10 10-10h34.584c5.523 0 10 4.477 10 10v172.254c0 5.523-4.477 10-10 10z" opacity="1" data-original="#c8effe"></path><path fill="#01d0fb" d="M256 40C136.706 40 40 136.706 40 256s96.706 216 216 216 216-96.706 216-216S375.294 40 256 40zm0 402c-102.561 0-186-83.439-186-186S153.439 70 256 70s186 83.439 186 186-83.439 186-186 186z" opacity="1" data-original="#01d0fb"></path><g fill="#01c0fa"><path d="M264 441.817c2.654.113 5.319.183 8 .183 102.561 0 186-83.439 186-186S374.561 70 272 70c-2.681 0-5.346.07-8 .183C362.863 74.389 442 156.121 442 256s-79.137 181.611-178 185.817zM56 256c0-116.614 92.415-211.627 208-215.837-2.656-.097-5.32-.163-8-.163-119.294 0-216 96.706-216 216s96.706 216 216 216c2.68 0 5.344-.066 8-.163C148.415 467.627 56 372.614 56 256z" fill="#01c0fa" opacity="1" data-original="#01c0fa" class=""></path></g><path fill="#01d0fb" d="M332.528 352.127h-63.991c-18.107 0-32.838-14.731-32.838-32.837V192.71c0-18.106 14.731-32.837 32.838-32.837h63.991c18.106 0 32.838 14.731 32.838 32.837v126.58c0 18.106-14.731 32.837-32.838 32.837zm-63.991-162.254a2.841 2.841 0 0 0-2.838 2.837v126.58a2.84 2.84 0 0 0 2.838 2.837h63.991a2.841 2.841 0 0 0 2.838-2.837V192.71a2.84 2.84 0 0 0-2.838-2.837zM199.584 352.127h-10c-5.523 0-10-4.477-10-10V189.873H165c-5.523 0-10-4.477-10-10v-10c0-5.523 4.477-10 10-10h34.584c5.523 0 10 4.477 10 10v172.254c0 5.523-4.477 10-10 10z" opacity="1" data-original="#01d0fb"></path><g fill="#01c0fa"><path d="M332.528 322.127h14a2.841 2.841 0 0 0 2.838-2.837V192.71a2.84 2.84 0 0 0-2.838-2.837h-14a2.841 2.841 0 0 1 2.838 2.837v126.58a2.84 2.84 0 0 1-2.838 2.837zM249.699 319.29V192.71c0-18.106 14.731-32.837 32.838-32.837h-14c-18.107 0-32.838 14.731-32.838 32.837v126.58c0 18.106 14.731 32.837 32.838 32.837h14c-18.107 0-32.838-14.731-32.838-32.837zM193.584 342.127V189.873h-14v152.254c0 5.523 4.477 10 10 10h10c.685 0 1.354-.07 2-.201-4.564-.927-8-4.961-8-9.799zM169 179.873v-10c0-5.523 4.477-10 10-10h-14c-5.523 0-10 4.477-10 10v10c0 5.523 4.477 10 10 10h14c-5.523 0-10-4.477-10-10z" fill="#01c0fa" opacity="1" data-original="#01c0fa" class=""></path></g></g></svg>