<svg xmlns="http://www.w3.org/2000/svg" version="1.1" xmlns:xlink="http://www.w3.org/1999/xlink" width="512" height="512" x="0" y="0" viewBox="0 0 128 128" style="enable-background:new 0 0 512 512" xml:space="preserve" class=""><g><path fill="#ffb700" d="M73.72 23.45a9.72 9.72 0 0 1-19.44 0C54.28 18.18 64 3 64 3s9.72 15.18 9.72 20.45z" opacity="1" data-original="#ffd100" class=""></path><path fill="#0b0a39" d="M63 25h2v21h-2z" opacity="1" data-original="#0b0a39" class=""></path><path fill="#ffd700" d="M80.64 35c-6.26 0-12.53 3.13-16.71 7.31l-.22.57c-3-4.55-8.39-7.9-16.12-7.88C33.73 35 28 44.79 28 51v1h13a5.12 5.12 0 0 1 5.15-5.27 5.19 5.19 0 0 1 5.35 5.34c0 5.21-15 11.77-21.13 16.07A4.92 4.92 0 0 0 28 72v11l4-2h16.67s43.28.36 43.69 0c7.4-6 10.22-13 10.22-22 0-13.55-9.4-24-21.94-24zm-.52 31.36a6.79 6.79 0 1 1 6.79-6.79 6.79 6.79 0 0 1-6.79 6.79z" opacity="1" data-original="#04a869" class=""></path><path fill="#ff8c00" d="M87.08 106.57c-9.9 0-18.4-4.09-21.65-10.72a7 7 0 1 0-2.83 0c-3.19 6.62-11.54 10.71-21.44 10.71A26 26 0 0 1 25 101.31v11.58a2.08 2.08 0 0 0 2.05 2.11H101a2.08 2.08 0 0 0 2-2.11v-11.58a26.29 26.29 0 0 1-15.92 5.26z" opacity="1" data-original="#ff9797" class=""></path><g fill="#0b0a39"><path d="M100.91 116H27.09a3.1 3.1 0 0 1-3.09-3.09V89.35A9.37 9.37 0 0 1 33.35 80h61.3a9.37 9.37 0 0 1 9.35 9.35v23.56a3.1 3.1 0 0 1-3.09 3.09zM33.35 82A7.36 7.36 0 0 0 26 89.35v23.56a1.09 1.09 0 0 0 1.09 1.09h73.82a1.09 1.09 0 0 0 1.09-1.09V89.35A7.36 7.36 0 0 0 94.65 82z" fill="#0b0a39" opacity="1" data-original="#0b0a39" class=""></path><path d="M60.82 67.42A21.33 21.33 0 0 0 67 52.76c0-12.45-7-14.63-7.32-15.14l-1.06 1.68c.56.62 6.4 2.38 6.4 13.46A19.36 19.36 0 0 1 58.35 67l-.49.42h-8.5v2h16.71V81h2V67.42z" fill="#0b0a39" opacity="1" data-original="#0b0a39" class=""></path></g></g></svg>