<svg xmlns="http://www.w3.org/2000/svg" version="1.1" xmlns:xlink="http://www.w3.org/1999/xlink" width="512" height="512" x="0" y="0" viewBox="0 0 511.973 511.973" style="enable-background:new 0 0 512 512" xml:space="preserve" class=""><g><path d="M399.035 393.166c-.87 61.771-51.52 111.75-112.69 111.3-30.56-.229-58.2-12.819-78.25-33.06-13.56-13.69-12.98-33.28-3.36-46.55 6.21-8.57 16.19-14.5 28.56-14.5h5.26c8.91 0 17.35 3.529 24.03 9.47 7.14 6.33 16.7 9.96 27.11 9.27 18.48-1.22 33.48-16.38 34.69-35.029 1.42-21.94-15.78-40.2-37.2-40.19-2.2 0-8.56 1.05-16.98 2.65-37.39 7.12-70.71-24.8-65.57-62.87l12.91-95.57c2.51-18.59 18.23-32.439 36.8-32.439h88.77c20.59 0 37.29 16.859 37.29 37.649v.42a37.745 37.745 0 0 1-10.92 26.2c-6.75 6.811-16.08 11.021-26.37 11.021h-56.12c-5.04 0-9.13 4.13-9.13 9.229v19.2a9.2 9.2 0 0 0 9.23 9.22h.09c62.32-.001 112.74 51.459 111.85 114.579z" style="" fill="#fee45a" data-original="#b18cd9" class="" opacity="1"></path><path d="m249.546 238.527-4.442 46.18c-1.877 19.513 14.009 36.084 33.59 35.141 35.528-1.712 85.525 8.849 85.525 72.809 0 98.261-123.314 95.23-159.484 32.201 6.21-8.57 16.19-14.5 28.56-14.5h5.26c8.91 0 17.35 3.529 24.03 9.47 7.14 6.33 16.7 9.96 27.11 9.27 18.48-1.22 33.48-16.38 34.69-35.029 1.42-21.94-15.78-40.2-37.2-40.19-2.2 0-8.56 1.05-16.98 2.65-37.39 7.12-70.71-24.8-65.57-62.87l12.91-95.57c2.51-18.59 18.23-32.439 36.8-32.439h88.77c20.59 0 37.29 16.859 37.29 37.649v.42h-92.538c-19.834-.004-36.422 15.065-38.321 34.808z" style="" fill="#ffd700" data-original="#996acc" class="" opacity="1"></path><path d="M147.345 221.896v244.92c0 20.79-16.69 37.649-37.29 37.649-1.08 0-2.14-.05-3.2-.14-9.01-.771-17.12-4.78-23.16-10.89-6.75-6.811-10.92-16.221-10.92-26.62v-207.13c0-10.36-8.32-18.75-18.57-18.75h-9.41c-20.45 0-37.05-16.631-37.28-37.221v-.43c0-10.39 4.17-19.81 10.92-26.62 6.75-6.81 16.07-11.02 26.36-11.02h46.84c30.77.002 55.71 25.182 55.71 56.252z" style="" fill="#fee45a" data-original="#b18cd9" class="" opacity="1"></path><path d="M106.855 248.656v255.67c-9.01-.771-17.12-4.78-23.16-10.89-6.75-6.811-10.92-16.221-10.92-26.62v-207.13c0-10.36-8.32-18.75-18.57-18.75h-9.41c-20.45 0-37.05-16.631-37.28-37.221h54.41c24.81 0 44.93 20.121 44.93 44.941z" style="" fill="#ffd700" data-original="#996acc" class="" opacity="1"></path><path d="M502.025 156.856c-5.41 11.5-17.59 16.51-28.62 14.22-12.92-2.69-26.41.4-36.24 9.21-11.33 10.17-22.49 22.04-31.56 35.39-7.08 10.42-20.64 14.22-32.06 8.89l-71.81-33.5-28.46-23.35-24.25-1.68h-.01c-8.78-6.18-12.88-17.37-9.87-28.02 4.4-15.52 6.33-31.68 6.84-46.89.44-13.2-5.87-25.54-16.23-33.72-8.85-6.99-12.83-19.55-7.48-31.08 5.34-11.52 19.96-17.73 31.91-13.44 10.67 3.82 16.79 13.43 17.15 23.42.65 18.63 12.55 35.08 30.46 40.25 4.56 1.32 9.02 2.01 13.36 2.18 6.41.25 12.56-.66 18.4-2.41 18.32-5.51 30.95-22.86 30.11-41.97-.21-4.62.83-9.38 3.31-13.77 6.22-11.06 19.87-15.94 31.69-11.33 13.99 5.45 20.27 21.47 14.02 34.87-1.79 3.82-4.39 7-7.51 9.42-15.08 11.73-20.54 32.19-13.1 49.8 4.02 9.54 10.49 18.18 20.38 24.83 15.46 10.4 35.72 8.96 50.4-2.51 7.89-6.16 19.2-7.64 28.99-1.91 11.39 6.66 15.799 21.16 10.18 33.1z" style="" fill="#fee45a" data-original="#fbf198" class="" opacity="1"></path><path d="M306.005 141.936c-12.06 23.449-8.29 40.31-4.27 49.13l-48.8-22.761c-11.42-5.329-17.22-18.159-13.79-30.29 4.4-15.52 6.33-31.68 6.84-46.89.44-13.2-5.87-25.54-16.23-33.72-8.85-6.99-12.83-19.55-7.48-31.08 5.34-11.521 19.96-17.73 31.91-13.44 10.67 3.82 16.79 13.431 17.15 23.42.65 18.631 12.55 35.08 30.46 40.25a55.732 55.732 0 0 0 13.36 2.181c2.11 13.18 3.58 38.43-9.15 63.2z" style="" fill="#ffd700" data-original="#fad98a" class="" opacity="1"></path><path d="M247.115 166.366c-15.29 3.05-27.39 15.6-29.57 31.72l-12.91 95.57c-5.14 38.07 28.18 69.99 65.57 62.87 8.42-1.6 14.78-2.65 16.98-2.65 21.42-.01 38.62 18.25 37.2 40.19-1.21 18.65-16.21 33.81-34.69 35.03-10.41.69-19.97-2.94-27.11-9.27-6.68-5.94-15.12-9.47-24.03-9.47h-5.26c-31.54 0-47.51 38.53-25.2 61.05 38.167 38.528 98.099 44.092 142.52 12.98" style="stroke-width:15;stroke-linecap:round;stroke-linejoin:round;stroke-miterlimit:10;" fill="none" stroke="#000000" stroke-width="15" stroke-linecap="round" stroke-linejoin="round" stroke-miterlimit="10" data-original="#000000" class=""></path><path d="M373.025 225.776c-6.762 9.203-17.695 15.16-29.91 15.16h-56.12c-5.04 0-9.13 4.13-9.13 9.23v19.2a9.2 9.2 0 0 0 9.23 9.22c62.647 0 112.827 51.661 111.94 114.58-.36 25.15-8.96 48.34-23.18 66.97M72.775 351.676v115.14c0 20.8 16.701 37.65 37.28 37.65 20.6 0 37.29-16.86 37.29-37.65v-244.92c0-31.07-24.94-56.25-55.71-56.25h-46.84c-20.578 0-37.28 16.834-37.28 37.64 0 20.79 16.69 37.65 37.28 37.65h9.41c10.25 0 18.57 8.39 18.57 18.75v56.99M245.965 91.716c.633-12.668-5.114-25.549-16.21-34.31-8.85-6.99-12.83-19.55-7.48-31.08 5.34-11.52 19.96-17.73 31.91-13.44 10.67 3.82 16.79 13.43 17.15 23.42.65 18.63 12.55 35.08 30.46 40.25 11.31 3.26 21.97 2.71 31.76-.23 18.32-5.51 30.95-22.86 30.11-41.97-.842-18.519 17.865-31.783 35-25.1 18.834 7.337 22.075 32.217 6.51 44.29-15.08 11.73-20.54 32.19-13.1 49.8 4.02 9.54 10.49 18.18 20.38 24.83 15.46 10.4 35.72 8.96 50.4-2.51 7.89-6.16 19.2-7.64 28.99-1.91 11.39 6.66 15.8 21.16 10.18 33.1-5.41 11.5-17.59 16.51-28.62 14.22-12.92-2.69-26.41.4-36.24 9.21-11.33 10.17-22.49 22.04-31.56 35.39-7.08 10.42-20.64 14.22-32.06 8.89l-120.61-56.26c-11.42-5.33-17.22-18.16-13.79-30.29 1.08-3.81 2.01-7.65 2.8-11.51M285.847 107.231l-5.073 10.875M399.034 160.033l-5.074 10.875" style="stroke-width:15;stroke-linecap:round;stroke-linejoin:round;stroke-miterlimit:10;" fill="none" stroke="#000000" stroke-width="15" stroke-linecap="round" stroke-linejoin="round" stroke-miterlimit="10" data-original="#000000" class=""></path><path d="M334.507 151.068c-3.375 7.235-11.976 10.364-19.211 6.989s-10.364-11.977-6.989-19.212M360.708 163.291c-3.375 7.235-11.977 10.364-19.212 6.989s-10.364-11.977-6.989-19.212" style="stroke-width:15;stroke-linecap:round;stroke-miterlimit:10;" fill="none" stroke="#000000" stroke-width="15" stroke-linecap="round" stroke-miterlimit="10" data-original="#000000" class=""></path></g></svg>