<svg id="Layer_2" height="512" viewBox="0 0 64 64" width="512" xmlns="http://www.w3.org/2000/svg" data-name="Layer 2"><path d="m45 11.5v16s14-3.429 14-16zm3 3h7.636c-1.149 4.521-4.782 7.191-7.636 8.637z" fill="#f9a825"/><path d="m44 28.774v-18.274h16v1c0 13.2-14.614 16.936-14.762 16.972zm2-16.274v13.652c3.19-1.094 11.392-4.762 11.968-13.652zm1 12.264v-11.264h9.922l-.322 1.246c-1.241 4.889-5.119 7.746-8.152 9.283zm2-9.264v5.928a12.678 12.678 0 0 0 5.264-5.928z"/><path d="m45 11.5v16s14-3.43 14-16zm3 11.64v-8.64h7.64c-1.15 4.52-4.79 7.19-7.64 8.64z" opacity=".2"/><path d="m5 11.5c0 12.571 14 16 14 16v-16zm11 11.637c-2.854-1.446-6.487-4.116-7.636-8.637h7.636z" fill="#f9a825"/><path d="m20 28.774-1.238-.3c-.148-.038-14.762-3.774-14.762-16.974v-1h16zm-13.967-16.274c.584 8.779 8.794 12.519 11.967 13.64v-13.64zm10.967 12.264-1.452-.735c-3.033-1.537-6.911-4.394-8.152-9.283l-.318-1.246h9.922zm-7.264-9.264a12.678 12.678 0 0 0 5.264 5.928v-5.928z"/><path d="m39 50.5h-14a67.98 67.98 0 0 0 2.21-7.07c.49-1.85.93-3.82 1.29-5.93a76.517 76.517 0 0 0 .88-19h5.24a76.517 76.517 0 0 0 .88 19c.38 2.24.86 4.33 1.38 6.28a70.066 70.066 0 0 0 2.12 6.72z" fill="#f9a825"/><path d="m40.437 51.5h-16.874l.5-1.348a72.881 72.881 0 0 0 3.453-12.823 75.128 75.128 0 0 0 .863-18.75l-.086-1.079h7.414l-.085 1.079a75.128 75.128 0 0 0 .863 18.75 72.965 72.965 0 0 0 3.452 12.823zm-14.015-2h11.156a75.041 75.041 0 0 1 -3.063-11.829 77.038 77.038 0 0 1 -.964-18.171h-3.1a77.038 77.038 0 0 1 -.964 18.171 75.041 75.041 0 0 1 -3.065 11.829z"/><path d="m19 54.5h26v5h-26z" fill="#5d4037"/><path d="m43 54.5h-22l1-4h20z" fill="#6d4c41"/><path d="m44.281 55.5h-24.562l1.5-6h21.562zm-22-2h19.438l-.5-2h-18.438z"/><path d="m46 60.5h-28v-7h28zm-26-2h24v-3h-24z"/><path d="m36.835 43.78a13.865 13.865 0 0 1 -4.38.72 13.626 13.626 0 0 1 -5.29-1.07c.49-1.85.93-3.82 1.29-5.93a76.517 76.517 0 0 0 .88-19h5.24a76.517 76.517 0 0 0 .88 19c.38 2.24.86 4.33 1.38 6.28z" opacity=".2"/><path d="m45.82 30.2c-.06.11-.11.22-.16.33-4.62 9.49-11.74 12.82-18.12 10-3.46-1.52-6.7-4.86-9.2-10-.05-.11-.1-.22-.16-.33-5.11-10.73-5.21-22.65-5.18-25.7h38c.03 3.05-.07 14.97-5.18 25.7z" fill="#fbc926"/><path d="m32.813 14.006 1.72 3.484a.908.908 0 0 0 .683.5l3.846.558a.907.907 0 0 1 .5 1.547l-2.782 2.713a.9.9 0 0 0 -.261.8l.657 3.83a.907.907 0 0 1 -1.316.956l-3.44-1.809a.912.912 0 0 0 -.844 0l-3.44 1.809a.907.907 0 0 1 -1.316-.956l.657-3.83a.9.9 0 0 0 -.261-.8l-2.782-2.713a.907.907 0 0 1 .5-1.547l3.846-.558a.908.908 0 0 0 .683-.5l1.72-3.484a.906.906 0 0 1 1.63 0z" fill="#ffe89b"/><path d="m36.285 29.5a1.909 1.909 0 0 1 -.889-.221l-3.44-1.809-3.356 1.808a1.906 1.906 0 0 1 -2.767-2.009l.657-3.831-2.757-2.63a1.907 1.907 0 0 1 1.057-3.252l3.851-.556 1.649-3.434a1.907 1.907 0 0 1 3.42 0l1.72 3.485 3.775.508a1.907 1.907 0 0 1 1.058 3.252l-2.784 2.713.684 3.748a1.911 1.911 0 0 1 -1.878 2.228zm-11.016-9.992 2.648 2.581a1.908 1.908 0 0 1 .549 1.685l-.626 3.647 3.272-1.721a1.9 1.9 0 0 1 1.776 0l3.272 1.721-.625-3.645a1.908 1.908 0 0 1 .549-1.688l2.647-2.58-3.659-.532a1.906 1.906 0 0 1 -1.436-1.043l-1.664-3.373-1.609 3.373a1.9 1.9 0 0 1 -1.434 1.043z"/><path d="m32 42.5c-5.68 0-10.985-4.2-14.558-11.532l-.161-.334c-4.887-10.255-5.319-21.699-5.281-26.143l.009-.991h39.979l.012.991c.041 4.444-.391 15.888-5.278 26.142l-.161.334c-3.576 7.333-8.881 11.533-14.561 11.533zm-18-37c.039 4.846.7 15.08 5.084 24.271l.155.321c3.226 6.614 7.876 10.408 12.761 10.408s9.535-3.794 12.759-10.409l.155-.32c4.386-9.191 5.045-19.425 5.086-24.271z"/><path d="m45.82 30.2c-.06.11-.11.22-.16.33-4.62 9.49-11.74 12.82-18.12 10 6.31-13.96 8.95-28.79 9.94-36.03h13.52c.03 3.05-.07 14.97-5.18 25.7z" opacity=".2"/></svg>