<svg id="Layer_2_00000044174805049877885140000015449712074293827751_" enable-background="new 0 0 512 512" viewBox="0 0 512 512" xmlns="http://www.w3.org/2000/svg" xmlns:xlink="http://www.w3.org/1999/xlink"><linearGradient id="SVGID_1_" gradientTransform="matrix(1 0 0 -1 0 513.17)" gradientUnits="userSpaceOnUse" x1="255.995" x2="255.995" y1="88.605" y2="141.455"><stop offset="0" stop-color="#3d5969"/><stop offset="1" stop-color="#698999"/></linearGradient><linearGradient id="SVGID_00000013898689224424045030000018261247257048108720_" gradientTransform="matrix(1 0 0 -1 0 513.17)" gradientUnits="userSpaceOnUse" x1="256.005" x2="256.005" y1="35.755" y2="88.605"><stop offset="0" stop-color="#f90"/><stop offset="1" stop-color="#fcd34f"/></linearGradient><linearGradient id="SVGID_00000078728854590345670200000001677401246842644899_" gradientTransform="matrix(1 0 0 -1 0 513.17)" gradientUnits="userSpaceOnUse" x1="255.995" x2="255.995" y1="129.91" y2="478.588"><stop offset="0" stop-color="#ffbf00"/><stop offset="1" stop-color="#ffdf3d"/></linearGradient><linearGradient id="SVGID_00000072254582116146695380000002332619611562598289_" gradientTransform="matrix(1 0 0 -1 0 513.17)" gradientUnits="userSpaceOnUse" x1="255.99" x2="255.99" y1="153.945" y2="454.555"><stop offset="0" stop-color="#ff8c00"/><stop offset="1" stop-color="#fcc000"/></linearGradient><linearGradient id="SVGID_00000115504430905368020640000013051993077876400305_" gradientTransform="matrix(1 0 0 -1 0 513.17)" gradientUnits="userSpaceOnUse" x1="256" x2="256" y1="212.965" y2="395.545"><stop offset="0" stop-color="#ffe187"/><stop offset="1" stop-color="#fff8e0"/></linearGradient><linearGradient id="SVGID_00000101085677360022885200000009310342785988592020_" gradientTransform="matrix(1 0 0 -1 0 513.17)" gradientUnits="userSpaceOnUse" x1="255.99" x2="255.99" y1="250.764" y2="357.755"><stop offset="0" stop-color="#fd7600"/><stop offset=".71" stop-color="#fdbf30"/></linearGradient><g id="Icon"><g id="_87"><g><path d="m342.9 390.9v33.6c0 5.5-4.5 10-10 10h-153.8c-5.5 0-10-4.5-10-10v-33.6c0-16.1 13.1-29.2 29.2-29.2h115.3c16.2 0 29.3 13.1 29.3 29.2z"/><path d="m198.3 371.7h115.3c10.6 0 19.2 8.6 19.2 19.2v33.6h-153.7v-33.6c0-10.6 8.6-19.2 19.2-19.2z" fill="url(#SVGID_1_)"/><path d="m167.1 487.4c-20.1 0-36.4-16.3-36.4-36.4s16.3-36.4 36.4-36.4h177.8c20.1 0 36.4 16.3 36.4 36.4s-16.3 36.4-36.4 36.4z"/><path d="m167.1 424.6h177.8c14.6 0 26.4 11.8 26.4 26.4 0 14.6-11.8 26.4-26.4 26.4h-177.8c-14.6 0-26.4-11.8-26.4-26.4 0-14.6 11.8-26.4 26.4-26.4z" fill="url(#SVGID_00000013898689224424045030000018261247257048108720_)"/></g><g><path d="m256 393.2c-4.9 0-9.7-.6-14.4-1.8-17.1-4.4-50.1-15.3-78.8-39.1-35.5-29.5-53.5-68.8-53.5-116.9v-116.4c0-23.7 14.1-44.7 36-53.7l88.7-36.4c7-2.9 14.4-4.3 22-4.3s15 1.5 22 4.3l88.6 36.3c21.9 9 36 30.1 36 53.7v116.4c0 48.1-18 87.5-53.5 116.9-28.6 23.8-61.6 34.7-78.8 39.1-4.6 1.3-9.4 2-14.3 1.9z"/><path d="m237.8 38.2-88.6 36.3c-18 7.4-29.8 25-29.8 44.5v116.4c0 104.7 91.4 137.8 124.7 146.3 7.9 2 16.1 2 23.9 0 33.3-8.6 124.7-41.6 124.7-146.3v-116.4c0-19.5-11.8-37.1-29.8-44.5l-88.6-36.3c-11.8-4.8-24.9-4.8-36.5 0z" fill="url(#SVGID_00000078728854590345670200000001677401246842644899_)"/><path d="m256 369.2c-2.9 0-5.7-.4-8.5-1.1-15.2-3.9-44.4-13.5-69.4-34.3-29.7-24.7-44.8-57.8-44.8-98.4v-116.4c0-13.9 8.3-26.2 21.1-31.5l88.6-36.3c4.1-1.7 8.5-2.5 12.9-2.5s8.8.9 12.9 2.5l88.6 36.3c12.8 5.3 21.1 17.6 21.1 31.5v116.5c0 40.6-15.1 73.8-44.8 98.4-25 20.8-54.2 30.4-69.4 34.3-2.6.7-5.5 1-8.3 1z"/><path d="m256 359.2c-2 0-4-.2-6-.8-14.4-3.7-42-12.8-65.5-32.3-27.3-22.7-41.2-53.2-41.2-90.7v-116.4c0-9.8 5.9-18.5 14.9-22.2l88.6-36.3c2.9-1.2 6-1.8 9.1-1.8s6.2.6 9.1 1.8l88.6 36.3c9.1 3.7 14.9 12.4 14.9 22.2v116.4c0 37.5-13.9 68.1-41.2 90.7-23.5 19.5-51.1 28.6-65.5 32.3-1.8.6-3.8.8-5.8.8z" fill="url(#SVGID_00000072254582116146695380000002332619611562598289_)"/></g><g><circle cx="256" cy="208.9" r="101.3"/><circle cx="256" cy="208.9" fill="url(#SVGID_00000115504430905368020640000013051993077876400305_)" r="91.3"/><path d="m282.3 272.4c-3.5 0-7-.8-10.2-2.4l-16.1-8-16.1 7.9c-3.2 1.6-6.7 2.4-10.2 2.4-6.7 0-13.1-2.9-17.5-8-4.3-5-6.3-11.7-5.3-18.4l2.6-17.7-12.5-12.7c-6-6.1-8.1-15.1-5.4-23.2 2.7-8.2 9.6-14.2 18.1-15.6l17.7-3 8.3-15.9c4-7.6 11.8-12.3 20.4-12.3s16.4 4.7 20.4 12.3l8.3 15.9 17.7 3c8.5 1.4 15.4 7.4 18 15.6 2.7 8.2.6 17.1-5.4 23.2l-12.5 12.8 2.6 17.7c1 6.6-1 13.3-5.3 18.4-4.6 5.1-10.9 8-17.6 8z"/><path d="m267.5 162.4 10.6 20.3 22.6 3.8c10.4 1.8 14.5 14.4 7.1 22l-16 16.4 3.3 22.6c1.5 10.4-9.3 18.2-18.7 13.6l-20.4-10.2-20.5 10.1c-9.4 4.7-20.2-3.2-18.7-13.6l3.3-22.6-16-16.4c-7.4-7.5-3.2-20.2 7.1-22l22.6-3.8 10.6-20.3c4.9-9.2 18.3-9.2 23.1.1z" fill="url(#SVGID_00000101085677360022885200000009310342785988592020_)"/></g></g></g></svg>