<svg id="Capa_1" enable-background="new 0 0 512 512" height="512" viewBox="0 0 512 512" width="512" xmlns="http://www.w3.org/2000/svg"><g><g fill="#fe4fb7"><path d="m131.444 478c36.499 21.593 79.075 34 124.556 34s88.057-12.407 124.556-34z"/><path d="m103 75.657c-56.076 44.897-92 113.92-92 191.343s35.924 146.446 92 191.343z"/><path d="m409 75.657v382.687c56.076-44.898 92-113.92 92-191.343s-35.924-146.447-92-191.344z"/></g><g fill="#fe2aa8"><path d="m409 154.343v225.314c23.25-31.523 37-70.482 37-112.657s-13.75-81.134-37-112.657z"/><path d="m103 154.343c-23.25 31.523-37 70.482-37 112.657s13.75 81.134 37 112.657z"/></g><g><path d="m400 0h-288c-5.523 0-10 4.477-10 10v447.538c9.786 7.919 20.19 15.104 31.136 21.462h245.729c10.946-6.357 21.349-13.542 31.136-21.462v-447.538c-.001-5.523-4.478-10-10.001-10z" fill="#d4f2f6"/></g><g><path d="m142 10c0-5.523 4.477-10 10-10h-40c-5.523 0-10 4.477-10 10v447.538c9.786 7.919 20.19 15.104 31.136 21.462h8.864z" fill="#a6e7f0"/></g><path d="m377 175h-31.637c5.353 12.739 4.998 26.874-1.16 39.447-6.803 13.889-19.839 23.705-34.87 26.259l-.387.065-.239.311c-12.645 16.459-31.856 25.898-52.707 25.898s-40.062-9.439-52.707-25.897l-.239-.311-.387-.065c-15.031-2.554-28.066-12.371-34.87-26.259-6.158-12.572-6.514-26.708-1.16-39.447h-31.637c-5.523 0-10 4.477-10 10v254c0 5.523 4.477 10 10 10h242c5.523 0 10-4.477 10-10v-254.001c0-5.523-4.477-10-10-10z" fill="#fff"/><path d="m165 439v-231.652c-3.285-10.644-2.729-21.958 1.637-32.348h-31.637c-5.523 0-10 4.477-10 10v254c0 5.523 4.477 10 10 10h40c-5.523 0-10-4.477-10-10z" fill="#eaf9fa"/><g><g><circle cx="335.5" cy="26.5" fill="#fff" r="7.5"/></g><g><circle cx="358.5" cy="26.5" fill="#fff" r="7.5"/></g><g><circle cx="381.5" cy="26.5" fill="#fff" r="7.5"/></g></g><g><circle cx="256" cy="199.101" fill="#fff" r="46.75"/></g><g><g><path d="m198.885 234.613c-12.139-20.267-12.729-44.801-1.58-65.629l28.056-52.41-12.663-23.654c-.754-1.408-2.773-1.408-3.526 0l-41.428 77.391c-16.344 30.532 3.298 67.047 36.208 71.629-1.829-2.305-3.523-4.749-5.067-7.327z" fill="#fdb441"/><path d="m344.256 170.312-41.428-77.392c-.754-1.408-2.773-1.408-3.526 0l-12.662 23.654 28.056 52.41c11.149 20.828 10.559 45.362-1.58 65.629-1.544 2.578-3.239 5.022-5.067 7.328 32.91-4.582 52.551-41.098 36.207-71.629z" fill="#fea613"/></g><g><path d="m254.237 60.511-57.814 108.001c-24.098 45.016 8.517 99.468 59.577 99.468 51.06 0 83.675-54.452 59.577-99.468l-57.814-108.001c-.754-1.408-2.772-1.408-3.526 0z" fill="#fdb441"/></g><path d="m221.753 168.512 46.912-87.635-10.902-20.365c-.754-1.408-2.773-1.408-3.526 0l-57.814 108.001c-24.098 45.015 8.517 99.467 59.577 99.467 4.366 0 8.593-.407 12.665-1.163-43.554-8.089-68.949-57.138-46.912-98.305z" fill="#fea613"/><g><g><circle cx="256" cy="199.101" fill="#fff" r="46.75"/></g><g><circle cx="256" cy="199.101" fill="#eaf9fa" r="30"/></g><g><path d="m242 199.101c0-8.384 3.454-15.949 9-21.39v-8.187c-14.187 2.381-25 14.713-25 29.577 0 16.569 13.431 30 30 30 2.772 0 5.452-.384 8-1.087-12.683-3.502-22-15.116-22-28.913z" fill="#dcf5f8"/></g><g><path d="m285 204.102h-29c-2.761 0-5-2.239-5-5v-34.246c0-1.657 1.343-3 3-3h4c1.657 0 3 1.343 3 3v29.246h24c1.657 0 3 1.343 3 3v4c0 1.656-1.343 3-3 3z" fill="#2ed1e2"/></g></g><g><path d="m266.478 47.172-7.387-13.493c-.328-.598-.328-1.322 0-1.921l7.387-13.493c.766-1.398 2.78-1.383 3.523.027l7.116 13.493c.308.584.308 1.282 0 1.866l-7.116 13.493c-.744 1.41-2.758 1.426-3.523.028z" fill="#fea613"/></g><g><path d="m282.802 83.008-5.711-10.431c-.328-.598-.328-1.322 0-1.921l5.711-10.431c.766-1.398 2.78-1.383 3.523.027l5.501 10.431c.308.584.308 1.282 0 1.866l-5.501 10.431c-.743 1.411-2.758 1.426-3.523.028z" fill="#fdb441"/></g><g><path d="m226.541 83.008-6.708-12.254c-.328-.598-.328-1.322 0-1.921l6.708-12.254c.766-1.398 2.78-1.383 3.523.027l6.462 12.254c.308.584.308 1.282 0 1.866l-6.462 12.254c-.743 1.411-2.757 1.426-3.523.028z" fill="#fdb441"/></g></g><g><g><path d="m165.125 302c-8.271 0-15-6.729-15-15s6.729-15 15-15 15 6.729 15 15-6.729 15-15 15zm0-20c-2.757 0-5 2.243-5 5s2.243 5 5 5 5-2.243 5-5-2.243-5-5-5z" fill="#2ed1e2"/></g><g><path d="m358.875 292h-165.875c-1.657 0-3-1.343-3-3v-4c0-1.657 1.343-3 3-3h165.875c1.657 0 3 1.343 3 3v4c0 1.657-1.343 3-3 3z" fill="#2ed1e2"/></g></g><g><g><path d="m165.125 342c-8.271 0-15-6.729-15-15s6.729-15 15-15 15 6.729 15 15-6.729 15-15 15zm0-20c-2.757 0-5 2.243-5 5s2.243 5 5 5 5-2.243 5-5-2.243-5-5-5z" fill="#2ed1e2"/></g><g><path d="m358.875 332h-165.875c-1.657 0-3-1.343-3-3v-4c0-1.657 1.343-3 3-3h165.875c1.657 0 3 1.343 3 3v4c0 1.657-1.343 3-3 3z" fill="#2ed1e2"/></g></g><g><g><path d="m165.125 382c-8.271 0-15-6.729-15-15s6.729-15 15-15 15 6.729 15 15-6.729 15-15 15zm0-20c-2.757 0-5 2.243-5 5s2.243 5 5 5 5-2.243 5-5-2.243-5-5-5z" fill="#2ed1e2"/></g><g><path d="m358.875 372h-165.875c-1.657 0-3-1.343-3-3v-4c0-1.657 1.343-3 3-3h165.875c1.657 0 3 1.343 3 3v4c0 1.657-1.343 3-3 3z" fill="#2ed1e2"/></g></g><g><g><path d="m165.125 422c-8.271 0-15-6.729-15-15s6.729-15 15-15 15 6.729 15 15-6.729 15-15 15zm0-20c-2.757 0-5 2.243-5 5s2.243 5 5 5 5-2.243 5-5-2.243-5-5-5z" fill="#2ed1e2"/></g><g><path d="m358.875 412h-165.875c-1.657 0-3-1.343-3-3v-4c0-1.657 1.343-3 3-3h165.875c1.657 0 3 1.343 3 3v4c0 1.657-1.343 3-3 3z" fill="#2ed1e2"/></g></g><g fill="#fdb441"><path d="m176 115.75h-5.75v-5.75c0-1.657-1.343-3-3-3h-4c-1.657 0-3 1.343-3 3v5.75h-5.75c-1.657 0-3 1.343-3 3v4c0 1.657 1.343 3 3 3h5.75v5.75c0 1.657 1.343 3 3 3h4c1.657 0 3-1.343 3-3v-5.75h5.75c1.657 0 3-1.343 3-3v-4c0-1.657-1.343-3-3-3z"/><path d="m346.5 69.75h-5.75v-5.75c0-1.657-1.343-3-3-3h-4c-1.657 0-3 1.343-3 3v5.75h-5.75c-1.657 0-3 1.343-3 3v4c0 1.657 1.343 3 3 3h5.75v5.75c0 1.657 1.343 3 3 3h4c1.657 0 3-1.343 3-3v-5.75h5.75c1.657 0 3-1.343 3-3v-4c0-1.657-1.343-3-3-3z"/></g></g></svg>