<svg viewBox="0 0 1000 1000" xmlns="http://www.w3.org/2000/svg" id="fi_14031765"><path d="m316.91 91.65a35.7 35.7 0 0 0 -24.27 8.07 8 8 0 0 1 -5.05 1.77 8.09 8.09 0 0 1 -8.09-8.09v-47.81a20.59 20.59 0 0 0 -20.59-20.59h-163.68a20.59 20.59 0 0 0 -20.59 20.59v163.68a20.59 20.59 0 0 0 20.59 20.59h47.77a8.1 8.1 0 0 0 8.1-8.09 7.94 7.94 0 0 0 -1.78-5.05 35.82 35.82 0 1 1 55.48-.06 8.12 8.12 0 0 0 -1.82 5.11 8.09 8.09 0 0 0 8.09 8.09h47.81a20.59 20.59 0 0 0 20.59-20.59v-47.8a8.09 8.09 0 0 1 8.09-8.09 8.09 8.09 0 0 1 5.11 1.82 35.81 35.81 0 1 0 24.2-63.55z" fill="#fff"></path><path d="m331.57 100.75a35.67 35.67 0 0 0 -24.27 8.07 7.93 7.93 0 0 1 -5.05 1.77 8.1 8.1 0 0 1 -8.1-8.09v-47.81a20.59 20.59 0 0 0 -20.59-20.59h-163.68a20.59 20.59 0 0 0 -20.59 20.59v163.69a20.59 20.59 0 0 0 20.59 20.62h47.81a8.09 8.09 0 0 0 8.09-8.09 8 8 0 0 0 -1.77-5 35.82 35.82 0 1 1 55.48-.07 8.1 8.1 0 0 0 -1.83 5.11 8.1 8.1 0 0 0 8.1 8.09h47.8a20.59 20.59 0 0 0 20.59-20.59v-47.88a8.1 8.1 0 0 1 8.1-8.09 8.07 8.07 0 0 1 5.11 1.82 35.81 35.81 0 1 0 24.21-63.55z" fill="#eab642"></path><path d="m432.07 276.38a35.7 35.7 0 0 0 -8.07-24.27 8 8 0 0 1 -1.77-5.05 8.09 8.09 0 0 1 8.09-8.09h47.81a20.59 20.59 0 0 0 20.59-20.59v-163.69a20.59 20.59 0 0 0 -20.59-20.59h-163.69a20.59 20.59 0 0 0 -20.59 20.59v47.81a8.1 8.1 0 0 0 8.1 8.09 8 8 0 0 0 5.05-1.77 35.81 35.81 0 1 1 .06 55.48 8.07 8.07 0 0 0 -5.11-1.82 8.1 8.1 0 0 0 -8.1 8.09v47.81a20.59 20.59 0 0 0 20.59 20.62h47.81a8.09 8.09 0 0 1 8.09 8.09 8 8 0 0 1 -1.82 5.11 35.81 35.81 0 1 0 63.55 24.21z" fill="#4747e2"></path><path d="m438.25 276.38a43.3 43.3 0 0 0 -5.16-21.79c-1.29-2.37-7.71-8.3-2.53-9.44 2.19-.49 5 0 7.23 0h13c16.47 0 38.35 3.95 49.33-11.49 6.21-8.75 4.82-20.16 4.82-30.31v-144.11c0-3.63.1-7.23-.76-10.81-2.9-12.12-13.82-20.18-26.06-20.5-8.38-.22-16.78 0-25.15 0h-107.92c-9.94 0-19.88-.11-29.82 0-9.33.1-17.81 4.19-23.1 12-4.54 6.71-4.45 14.18-4.45 21.86v27c0 5.95-1.19 13.79 1.25 19.42a14.26 14.26 0 0 0 15.2 8.37c3.68-.57 6-2.62 9-4.61a30.47 30.47 0 0 1 10.34-4.4c12.87-2.84 26.13 3.64 32.37 15.1a29.63 29.63 0 0 1 -42.44 38.63c-5.86-3.79-11.35-7-18.29-3.25-4.85 2.63-7.23 7.6-7.43 12.95-.26 6.81 0 13.68 0 20.49 0 16.6-3.92 38.42 12 49.2 6.71 4.54 14.18 4.46 21.86 4.46h27.46c2.16 0 15-1.71 15.21 1.91.09 1.95-3.63 5.58-4.56 7.27a41.92 41.92 0 0 0 -4.3 11.31 42.68 42.68 0 0 0 .8 21.41c8.23 26.53 41.27 38.54 64.17 22.13a43 43 0 0 0 18-32.8c.5-7.94-11.86-7.91-12.36 0-1.66 26.42-35.77 37.78-52.64 17.1-8.87-10.87-8.3-25.78-.36-36.94 7.13-10 1.92-23.26-11.07-23.75-14.56-.55-29.25 0-43.83 0-7.72 0-15.32-2.28-17.5-10.79-1.34-5.24-.46-11.58-.46-16.91v-26.29a59.75 59.75 0 0 1 0-7.57c.61-4.64 4.07-1.32 6.47.31 23.43 15.86 56.7 2.85 63.78-24.28 6.84-26.16-13.53-52.75-40.63-52.72a42.42 42.42 0 0 0 -20.84 5.55c-2.31 1.32-7.65 7.24-8.78 2.17-.43-2 0-4.5 0-6.5v-37.24c0-7.62 1.88-15 10.17-17.6 2.82-.87 5.87-.64 8.79-.64h154.15a39.27 39.27 0 0 1 7.9.31c7.35 1.54 11.37 8 11.43 15.15.22 27.09 0 54.2 0 81.29 0 26.82.25 53.66 0 80.48-.07 7.48-4.77 14.17-12.56 15.18-5.37.69-11.13.1-16.52.1h-26c-7.29 0-14.92-.35-19.29 6.9-3.41 5.65-2.16 11.7 1.5 16.79a31.65 31.65 0 0 1 6.26 19.9c-.21 7.95 12.15 7.95 12.32 0z" fill="#4747e2"></path><path d="m316.91 88.56a40.12 40.12 0 0 0 -20.23 4.73c-2.66 1.45-6 5.11-9.09 5.11s-4.75-2.48-5-5.24c-.6-6.62 0-13.56 0-20.19v-24.62c0-8.71-2.55-16.75-10-22-8.19-5.86-19.21-4.4-28.75-4.4h-144.06a43.48 43.48 0 0 0 -10 .64c-10.78 2.49-17.95 12.18-18.23 23.05-.22 8.37 0 16.78 0 25.15v107.88c0 9.93-.11 19.88 0 29.81.09 8.22 3.58 15.75 10.48 20.44 6.25 4.24 13.16 4 20.3 4h27c5.37 0 12.71 1.23 17.86-.83a11.22 11.22 0 0 0 6.9-12.12c-.52-3.19-2.52-5.26-4.24-7.86a32.72 32.72 0 1 1 54.69-.26c-3.14 4.84-6.43 9.31-3.25 15.17 2.11 3.89 6 5.75 10.28 5.9 6.81.25 13.68 0 20.5 0h24.33c8.87 0 17-2.84 22.15-10.48 4.25-6.24 4-13.16 4-20.3v-27.38c0-4.39-2.27-18.33 5-18.3 3 0 6.28 3.57 8.83 5a39.07 39.07 0 0 0 30.34 3.19c24.81-7.7 35.44-38.39 20.28-59.63a39.65 39.65 0 0 0 -30.13-16.44c-4-.25-4 5.93 0 6.18a32.74 32.74 0 0 1 19.29 57.92c-12.16 10.07-28.81 9.32-41.27.32-7.9-5.71-18.11-1-18.48 8.88-.53 14.58 0 29.26 0 43.84 0 9.14-3.23 17.86-13.06 20.48-5.47 1.46-12.15.57-17.73.57h-26.29c-2.5 0-5.07.17-7.57 0-1.51-.11-3.07-.29-4.19-1.47-3.21-3.36-.17-6.69 1.83-9.65 14.76-21.79 2.87-52.64-22.43-59.25-24.24-6.33-48.84 12.57-48.81 37.66a39.17 39.17 0 0 0 5.13 19.28c1.42 2.48 4.74 5.5 4.75 8.42s-2.5 4.76-5.25 5c-6.13.55-12.56 0-18.71 0h-25c-9 0-17.71-2.79-20.57-12.44-2.18-7.34-.75-16.75-.75-24.25v-139.57c0-2.86-.22-5.91.42-8.71 2-8.67 9.58-13.63 18.12-13.7 27.09-.22 54.2 0 81.3 0 26.82 0 53.65-.25 80.47 0 9 .08 17 5.93 18.21 15.24.72 5.51.16 11.38.16 16.92v26c0 6.14-.75 12.9 5.38 16.63 4.29 2.63 9.13 1.83 13-1a34.9 34.9 0 0 1 22.08-7.16c3.99.1 3.99-6.07.01-6.16z" fill="#1a1c3f"></path><path d="m141.29 192.88a35.69 35.69 0 0 0 8.06 24.27 7.92 7.92 0 0 1 1.78 5 8.1 8.1 0 0 1 -8.1 8.09h-47.8a20.59 20.59 0 0 0 -20.59 20.59v163.73a20.59 20.59 0 0 0 20.59 20.59h163.68a20.59 20.59 0 0 0 20.59-20.59v-47.8a8.1 8.1 0 0 0 -8.09-8.1 7.92 7.92 0 0 0 -5.05 1.78 35.82 35.82 0 1 1 -.06-55.44 8.05 8.05 0 0 0 5.11 1.83 8.1 8.1 0 0 0 8.09-8.1v-47.8a20.59 20.59 0 0 0 -20.59-20.59h-47.81a8.1 8.1 0 0 1 -8.1-8.14 8.1 8.1 0 0 1 1.83-5.11 35.81 35.81 0 1 0 -63.55-24.2z" fill="#fff"></path><path d="m155.94 202a35.7 35.7 0 0 0 8.06 24.25 8 8 0 0 1 1.77 5.05 8.09 8.09 0 0 1 -8.09 8.09h-47.8a20.59 20.59 0 0 0 -20.59 20.61v163.67a20.59 20.59 0 0 0 20.59 20.59h163.68a20.59 20.59 0 0 0 20.59-20.59v-47.81a8.09 8.09 0 0 0 -8.09-8.09 8 8 0 0 0 -5.05 1.77 35.81 35.81 0 1 1 -.06-55.48 8.07 8.07 0 0 0 5.11 1.82 8.09 8.09 0 0 0 8.09-8.09v-47.79a20.59 20.59 0 0 0 -20.59-20.59h-47.8a8.09 8.09 0 0 1 -8.09-8.09 8 8 0 0 1 1.82-5.11 35.81 35.81 0 1 0 -63.55-24.21z" fill="#ef6348"></path><path d="m138.2 192.88a40.12 40.12 0 0 0 4.73 20.23c1.45 2.66 5.1 6 5.11 9.09s-2.48 4.75-5.25 5c-6.61.6-13.55 0-20.18 0h-24.61c-8.71 0-16.75 2.55-22 10-5.85 8.19-4.39 19.21-4.39 28.75v144.05a43.48 43.48 0 0 0 .64 10c2.53 10.78 12.22 17.95 23.09 18.23 8.37.22 16.78 0 25.15 0h107.81c9.94 0 19.88.11 29.82 0 8.22-.09 15.74-3.58 20.43-10.48 4.25-6.25 4-13.16 4-20.3v-27c0-5.37 1.22-12.71-.83-17.86a11.24 11.24 0 0 0 -12.13-6.9c-3.18.51-5.25 2.52-7.85 4.24a32.72 32.72 0 1 1 -.27-54.69c4.84 3.14 9.32 6.43 15.18 3.25 3.89-2.11 5.74-6 5.9-10.28.25-6.81 0-13.68 0-20.5v-24.32c0-8.87-2.85-17-10.48-22.16-6.25-4.24-13.16-4-20.3-4h-27.38c-4.39 0-18.32 2.27-18.29-5 0-3 3.57-6.28 5-8.84a38.84 38.84 0 0 0 4-10.57 39.28 39.28 0 0 0 -.81-19.76c-7.69-24.81-38.39-35.44-59.63-20.29a39.7 39.7 0 0 0 -16.43 30.14c-.25 4 5.93 4 6.17 0a32.74 32.74 0 0 1 57.92-19.29c10.1 12.16 9.38 28.85.36 41.31-5.72 7.9-1.05 18.11 8.88 18.48 14.57.53 29.26 0 43.84 0 9.14 0 17.85 3.23 20.47 13.06 1.46 5.47.57 12.15.57 17.73v26.28c0 2.51.18 5.08 0 7.58-.1 1.51-.28 3.07-1.46 4.19-3.36 3.21-6.69.17-9.65-1.84-21.79-14.75-52.64-2.86-59.25 22.44-6.33 24.24 12.57 48.84 37.66 48.81a39.1 39.1 0 0 0 19.26-5.16c2.48-1.42 5.5-4.74 8.43-4.75s4.75 2.5 5 5.25c.56 6.13 0 12.56 0 18.71v25c0 9-2.79 17.72-12.43 20.58-7.35 2.18-16.75.75-24.25.75h-139.61c-2.86 0-5.91.22-8.72-.42-8.66-2-13.63-9.58-13.69-18.12-.22-27.1 0-54.2 0-81.3 0-26.82-.25-53.65 0-80.47.08-9 5.93-17 15.24-18.21 5.51-.72 11.38-.16 16.92-.16h26c6.14 0 12.89.74 16.63-5.38 2.63-4.29 1.83-9.13-1-13a35 35 0 0 1 -7.17-22.08c.11-4-6.07-4-6.15-.02z" fill="#1a1c3f"></path><path d="m417.42 267.28a35.67 35.67 0 0 0 -8.07-24.28 7.93 7.93 0 0 1 -1.77-5 8.1 8.1 0 0 1 8.09-8.1h47.81a20.59 20.59 0 0 0 20.59-20.59v-163.72a20.59 20.59 0 0 0 -20.59-20.59h-163.69a20.59 20.59 0 0 0 -20.59 20.59v47.81a8.09 8.09 0 0 0 8.09 8.09 8 8 0 0 0 5-1.77 35.82 35.82 0 1 1 .07 55.48 8.1 8.1 0 0 0 -5.11-1.83 8.1 8.1 0 0 0 -8.09 8.1v47.8a20.59 20.59 0 0 0 20.59 20.59h47.85a8.1 8.1 0 0 1 8.09 8.1 8.12 8.12 0 0 1 -1.82 5.11 35.81 35.81 0 1 0 63.55 24.21z" fill="#fff"></path><path d="m420.5 267.28a40.08 40.08 0 0 0 -4.73-20.28c-1.45-2.66-5.1-6-5.11-9.08s2.48-4.76 5.25-5c6.61-.6 13.55 0 20.19 0h24.62c8.71 0 16.74-2.54 22-10 5.85-8.19 4.39-19.21 4.39-28.75v-144.03a43.52 43.52 0 0 0 -.64-10c-2.47-10.78-12.18-17.94-23.05-18.23-8.37-.22-16.77 0-25.15 0h-107.87c-9.94 0-19.88-.1-29.82 0-8.22.09-15.74 3.58-20.43 10.48-4.25 6.25-4 13.16-4 20.3v27c0 5.37-1.22 12.71.84 17.86a11.21 11.21 0 0 0 12.12 6.9c3.18-.51 5.25-2.52 7.85-4.24a32.72 32.72 0 1 1 .27 54.7c-4.84-3.14-9.32-6.44-15.17-3.26-3.9 2.12-5.75 6-5.91 10.28-.25 6.82 0 13.68 0 20.5v24.37c0 8.87 2.85 17 10.49 22.16 6.24 4.24 13.15 4 20.3 4h27.41c4.39 0 18.33-2.27 18.29 5 0 3-3.56 6.27-5 8.83a39 39 0 0 0 -3.18 30.34c7.69 24.81 38.39 35.44 59.63 20.28a39.62 39.62 0 0 0 16.43-30.13c.25-4-5.92-4-6.17 0a32.74 32.74 0 0 1 -57.92 19.28c-10.1-12.15-9.38-28.84-.36-41.31 5.72-7.9 1.05-18.11-8.88-18.47-14.57-.54-29.25 0-43.84 0-9.14 0-17.85-3.24-20.47-13.06-1.46-5.48-.57-12.15-.57-17.74v-26.28c0-2.5-.17-5.08 0-7.57.1-1.52.28-3.07 1.47-4.2 3.36-3.21 6.69-.16 9.64 1.84 21.8 14.75 52.64 2.87 59.25-22.44 6.33-24.23-12.59-48.83-37.67-48.8a39 39 0 0 0 -19.27 5.12c-2.48 1.42-5.5 4.74-8.43 4.75s-4.75-2.5-5-5.25c-.56-6.12 0-12.56 0-18.71v-25c0-9 2.79-17.72 12.44-20.58 7.34-2.17 16.75-.75 24.25-.75h139.57c2.87 0 5.92-.21 8.72.42 8.67 2 13.63 9.58 13.7 18.12.21 27.1 0 54.2 0 81.3 0 26.82.25 53.65 0 80.47-.09 9-5.94 17-15.24 18.22-5.52.71-11.39.16-16.93.16h-26c-6.13 0-12.89-.75-16.63 5.37-2.62 4.29-1.83 9.13 1 13a34.92 34.92 0 0 1 7.17 22.09c-.11 3.99 6.07 3.99 6.15.02z" fill="#1a1c3f"></path><path d="m697.56 507c4.79-15 20.84-22.75 34.94-29.77a368.88 368.88 0 0 0 52.64-32c-3.11 1.82-7.3.41-9.77-2.23s-3.64-6.19-4.84-9.59a204.26 204.26 0 0 0 -62.77-89.62c-3.21-2.62-6.73-5.5-7.54-9.56-.69-3.48.84-7.09 3.19-9.74 7.07-8 19.45-13.75 28.4-19.53 11.28-7.29 23-14 35.49-19 30.05-11.79 71.47-12.65 88 20 40.1 79.42 78 192.71-15.39 250.59a171.48 171.48 0 0 1 -46.52 20c-10.85 2.86-22.28 4.77-31.61 11" fill="#fff"></path><path d="m706.66 518.19c4.79-15 20.84-22.74 34.94-29.76a370.06 370.06 0 0 0 52.64-32c-3.11 1.83-7.3.41-9.77-2.22s-3.65-6.19-4.84-9.6a204.26 204.26 0 0 0 -62.78-89.61c-3.21-2.62-6.72-5.49-7.53-9.56-.7-3.47.83-7.09 3.18-9.74 7.08-8 19.46-13.74 28.41-19.52 11.27-7.29 23-14 35.48-18.95 30.06-11.8 71.47-12.65 88 20 40.1 79.42 78 192.71-15.4 250.6a171.26 171.26 0 0 1 -46.51 20c-10.85 2.86-22.28 4.78-31.62 11" fill="#34c6a0"></path><path d="m699.5 507.52c5.78-15.74 24.14-22.14 38-28.94a345.43 345.43 0 0 0 49.6-30 3.86 3.86 0 0 0 -3.9-6.66c-6.28 2.77-9.17-10.41-10.56-14.11q-3.35-8.85-7.46-17.38a204.83 204.83 0 0 0 -19.3-32.1 207.74 207.74 0 0 0 -24.26-27.73c-4.22-4-8.77-7.61-13.12-11.47-1.88-1.68-4.18-3.66-4.35-6.38-.25-3.91 3.6-7.07 6.28-9.33 9.26-7.76 20.9-13.52 31.21-19.77 11-6.68 22.54-12.72 34.88-16.49 17.42-5.32 38.15-7.28 55 .95 17.94 8.75 24.8 28.71 32.44 45.84a405.33 405.33 0 0 1 20.58 56.05c9.91 35.46 14.53 75.21-.14 110.08-8.57 20.38-23.65 37.16-41.92 49.39a164.5 164.5 0 0 1 -41.69 20c-13.89 4.4-29.15 5.69-41.48 14-5.07 3.42-.51 11.5 4.85 8.29 12.44-7.46 27.34-9 40.9-13.63a175.22 175.22 0 0 0 40.26-19.52c18.22-12 33.78-28 43.63-47.62 18.83-37.5 15.13-81.48 4.42-120.78a413.62 413.62 0 0 0 -22.21-60.51c-8.42-18.77-16.24-39.62-36-49-18.84-8.93-41.31-7.47-60.81-1.5-13.29 4.07-25.79 10.57-37.61 17.8-10.88 6.66-23 12.68-32.63 21.07-4.3 3.74-8.24 8.61-8.12 14.63.12 5.81 4.17 10 8.36 13.5a214.1 214.1 0 0 1 29.23 29.22 201 201 0 0 1 22.59 34.58 192.82 192.82 0 0 1 8.92 19.85c2.12 5.55 3.55 12.11 8 16.34a12.32 12.32 0 0 0 14 2.35l-3.9-6.66a419.44 419.44 0 0 1 -53.68 33c-14 7.23-28.72 15.67-33.89 31.51-.82 2.49 3 3.48 3.88 1.07z" fill="#1a1c3f"></path><path d="m786 295.62c-2.11-23-20-43.12-40.69-52-24-10.3-50.11-1.94-67.33 17-1.88 2.05-3.69 4.39-4 7.15-.51 4.45 2.91 8.26 6.09 11.41 15.17 15.05 31.25 30.64 51.79 36.54 13.92 4 28.71 3.15 43.16 2.27l16-1" fill="#f7cebf"></path><path d="m788.07 295.62c1.06-18.39-11.88-36.41-25.77-47.12-15.2-11.72-35-16.86-53.66-11.8a70 70 0 0 0 -25.19 13c-6.39 5.07-15.78 12.8-13.39 22.08 1.06 4.15 4.06 7.45 7 10.42 4.06 4.13 8.26 8.15 12.53 12.07 7.71 7.06 15.95 13.79 25.15 18.84a81.17 81.17 0 0 0 35.67 9.71 191.28 191.28 0 0 0 19.89-.32c7.16-.4 14.66-.31 21.69-1.82 4.44-.95 3-7.08-1-7.44-10.22-.92-20.85 1.05-31.11 1.23s-20.34-.5-30-3.81c-17.05-5.84-30.66-18.61-43.27-31-2.65-2.6-6.81-5.64-8-9.31-1.43-4.42 3.84-8.43 6.78-11.13a59.28 59.28 0 0 1 21.36-12.73c16.19-5.39 32.3-2.41 46.57 6.46a72.25 72.25 0 0 1 19.54 18.05c5.72 7.68 8.59 16.06 11.11 25.17.65 2.33 4 1.75 4.1-.56z" fill="#1a1c3f"></path><path d="m260.14 514a293.54 293.54 0 0 1 -52.43-78.17c-3-6.62-5.88-13.79-4.76-21a16.57 16.57 0 0 1 6.47-10.57 6.18 6.18 0 0 1 9.56 3.41 50.28 50.28 0 0 0 10 19.42c-3.32-8.07-6.71-16.6-5.57-25.24a20.52 20.52 0 0 1 5.42-11.25 7.2 7.2 0 0 1 12.29 3.91 40.45 40.45 0 0 0 12.63 23.49 76.88 76.88 0 0 1 -3.75-30.78 7.88 7.88 0 0 1 6.22-7l5.11-1.09a7.89 7.89 0 0 1 9.47 6.65 66.48 66.48 0 0 0 10.41 27.82c3.49 5.27 10.72 10.38 15.46 6.19 5.32-4.71-.25-15 6.77-19.55a9.55 9.55 0 0 1 10.48.27c6.25 4.15 7.42 11.79 7.54 18.8a108.23 108.23 0 0 1 -10.2 46.69" fill="#fff"></path><path d="m255.54 521.71a293.54 293.54 0 0 1 -52.43-78.17c-3-6.62-5.88-13.79-4.76-21a16.54 16.54 0 0 1 6.47-10.54 6.17 6.17 0 0 1 9.56 3.41 50.32 50.32 0 0 0 10 19.41c-3.33-8.06-6.72-16.59-5.58-25.23a20.67 20.67 0 0 1 5.43-11.26 7.2 7.2 0 0 1 12.28 3.92 40.48 40.48 0 0 0 12.66 23.48 77.09 77.09 0 0 1 -3.74-30.73 7.88 7.88 0 0 1 6.23-7l5.11-1.09a7.89 7.89 0 0 1 9.46 6.64 66.75 66.75 0 0 0 10.41 27.83c3.49 5.27 10.73 10.37 15.46 6.19 5.33-4.71-.25-15 6.77-19.56a9.57 9.57 0 0 1 10.49.28c6.25 4.15 7.41 11.79 7.53 18.8a108.18 108.18 0 0 1 -10.22 46.71" fill="#f7cebf"></path><g fill="#1a1c3f"><path d="m261.79 513c-7.53-10-15.64-19.43-22.73-29.73a328.64 328.64 0 0 1 -19.57-32.11q-4.31-8.13-8.15-16.48c-2.83-6.11-6.22-13.53-4.45-20.42.64-2.48 3.41-8.12 6.67-7.33 2.53.61 3.2 5.9 4.09 8.09a57.58 57.58 0 0 0 8.81 14.54c2.16 2.65 7.23-.22 5.89-3.43-2.71-6.52-5.72-13.42-5.77-20.6 0-3.77 3-16.91 9.29-13.1 2.24 1.37 2.13 4.58 2.74 6.89a45.59 45.59 0 0 0 2.78 7.58 44 44 0 0 0 9.92 13.51c2.4 2.26 6.86.06 5.77-3.36a77.24 77.24 0 0 1 -3.4-15.17c-.49-4.42-1.44-10.68-.08-15 1-3.21 4.29-3.46 7.09-4 4.5-.87 6.11 1.33 6.88 5.58a71.53 71.53 0 0 0 9.56 25.47c3.36 5.32 8.8 11.13 15.64 11 6.21-.12 9.53-5.32 10.12-10.95.3-2.88-.39-6.85 1.27-9.38 3.8-5.81 10.44.4 12.07 4.53 3.14 8 1.63 18.71.27 26.9a111.82 111.82 0 0 1 -8.63 28c-2.09 4.59 4.74 8.58 6.79 4 7-15.85 11.5-33.35 10.49-50.81-.4-6.78-2.06-13.8-7.41-18.42-5-4.29-12.84-5.11-17.88-.37s-2.77 10.51-4.44 16.27c-1.47 5-6.27 2.2-8.9-.39-3.21-3.16-5.41-7.71-7.23-11.78a63.77 63.77 0 0 1 -4-12.5c-.79-3.63-.84-7.43-3.33-10.41-3.74-4.49-8.83-4.49-14.06-3.35-6.56 1.44-10.78 4.86-11.37 11.91a79.43 79.43 0 0 0 3.93 30.75l5.77-3.36a38.23 38.23 0 0 1 -8.23-10.72c-2.08-4.08-2.54-8.24-3.93-12.48a10.79 10.79 0 0 0 -12.7-7.12c-6.57 1.62-10.37 9.54-11.34 15.66-1.49 9.36 2 18.56 5.49 27.08l5.88-3.42a48.79 48.79 0 0 1 -6.54-10.78c-1.41-3.23-1.84-7.25-3.85-10.19a10 10 0 0 0 -12.41-3.18c-14.86 7.46-9.1 26.59-3.83 38.07a257.71 257.71 0 0 0 23.49 40.95c9 12.7 18.74 25.6 30.49 35.86 1.52 1.33 4.38-.47 3-2.31z"></path><path d="m530.32 975c2-48.82 12.77-101.21 15.61-150 .18-3.18.53-6.69 3.05-8.88 1.83-1.59 4.44-2.12 6.91-2.58l284.47-53.54c3.95-.74 8.13-1.47 11.93-.22 5.29 1.75 8.29 6.8 10.72 11.47 32.39 62.07 59.5 135 62.35 203.79"></path><path d="m532.69 975c2.76-44.21 11.48-87.76 16-131.78.56-5.46 1.06-10.93 1.45-16.41.14-1.87-.07-4.63.94-6.31 1.5-2.48 5.39-2.55 7.94-3q17.19-3.13 34.36-6.36l69.69-13 139.39-25.89c11.78-2.19 23.54-4.51 35.34-6.57 4.21-.73 10.39-2.33 14.3.14s6 8.17 8 12.13c9.65 19 18.52 38.43 26.32 58.28a520.59 520.59 0 0 1 33.58 138.77c.68 6.71 10.6 7 10.69 0 .56-45-12.59-90.22-28.58-131.81-8.17-21.23-17.49-42-27.74-62.34-4.15-8.23-8-19-16-24.29-9.45-6.29-22.09-1.11-32.16.82l-148 28.25-74.5 14.22-37.25 7.15c-9.08 1.73-21.65 1.83-24.27 12.74-1.31 5.44-.94 11.55-1.33 17.11q-.68 9.68-1.62 19.32c-1.27 13.08-2.82 26.13-4.36 39.17-3.15 26.5-6.27 53-6.94 79.7-.08 3.08 4.56 3 4.75 0z"></path></g><path d="m579 511.74a383 383 0 0 1 -8.35-106.34c.63-10.15 1.59-20.75-2.36-30.11-2.11-5-5.66-10-4.6-15.35 1-4.94 5.53-8.17 9.07-11.74 16.87-17 15.6-49.29 37.07-59.9 8.39-4.14 18.24-3.64 27.56-2.87q34.26 2.79 68.19 8.51c3.92.66 8 1.44 11 4 4.9 4.23 6.1 11.69 5 18.08-12.13 72.31-16.93 125.15-18.17 189" fill="#fff"></path><path d="m594.51 512.85a383 383 0 0 1 -8.34-106.34c.63-10.15 1.59-20.74-2.36-30.11-2.12-5-5.66-10-4.6-15.35 1-4.93 5.52-8.17 9.07-11.74 16.87-17 15.6-49.28 37.07-59.89 8.39-4.15 18.23-3.64 27.56-2.88q34.25 2.81 68.19 8.51c3.91.66 8 1.45 11 4 4.9 4.23 6.1 11.7 5 18.09-12.14 72.3-16.93 125.14-18.17 189" fill="#f7cebf"></path><path d="m650.08 355.84c-3-5.92 4.21-15.55 4-22.18-.17-5.68-4.11-10.41-7.16-15.2a54.47 54.47 0 0 1 -8.19-33.74c-4.5.43-8.9-1.33-13.4-1.85-7.27-.84-14.72 1.7-20.5 6.19a41 41 0 0 0 -12.59 17.66 3.4 3.4 0 0 1 -1.36 2c-1 .52-2.26-.17-3.18-.89-8.32-6.53-12.36-17-16-26.9a215.9 215.9 0 0 1 56.5-30.62c9.23-3.33 19-6.06 28.72-5.16s19.64 6.09 23.78 15c.75 1.6 1.45 3.45 3.06 4.16a7.38 7.38 0 0 0 3.77.16c12.18-1.18 22.51 8.29 31 17.07 7.63 7.84 15.46 16 19.32 26.23a48 48 0 0 1 2.9 15.53c.77 24.52-13.15 46.79-26.55 67.34a13.15 13.15 0 0 1 -3.49 4 12.2 12.2 0 0 1 -5.29 1.53c-14.24 1.63-28.76-4.79-41.52-11.32 4.86-.8 9.78-6 12.07-10.35 2.37-4.53 2.57-5.12 2.86-10.23s-1.79-10.65-6.25-13.15c-6.73-3.77-15.15.77-20.5 6.33a2.39 2.39 0 0 0 -2-1.59" fill="#ef6348"></path><path d="m716.62 298c-3-2.6-7.12-3.38-11-4q-33.24-5.61-66.88-8.4a54.38 54.38 0 0 0 8.24 32.92c3 4.79 7 9.52 7.16 15.2.19 6.63-7 16.26-4 22.18a2.39 2.39 0 0 1 2 1.59c5.35-5.56 13.77-10.1 20.5-6.33 4.46 2.5 6.53 8 6.25 13.15s-.49 5.7-2.86 10.23c-2.29 4.37-7.21 9.55-12.07 10.35 12.76 6.53 27.28 12.95 41.52 11.32a12.64 12.64 0 0 0 5-1.37c2.74-24.44 6.39-50 11.2-78.72 1.04-6.45-.16-13.91-5.06-18.12z" fill="#4747e2"></path><g fill="#1a1c3f"><path d="m580.63 511.29c-3.47-20.54-6.21-41.13-6.91-62q-.51-14.79.06-29.61c.37-9.56 1.77-19.19 1.55-28.76a51.83 51.83 0 0 0 -1.87-13.4c-1.29-4.34-4-8.13-5.25-12.44-2.37-8 7-12.93 11.23-18.53 8-10.59 11.06-23.7 16.36-35.64 2.47-5.58 5.45-11.12 10-15.29 6.39-5.84 14.9-7.13 23.27-7 20.27.41 40.9 3.67 60.91 6.72 4.85.74 9.71 1.5 14.54 2.36 4.51.8 9.17 1.6 11.61 6 4.32 7.7.31 18.65-1 26.72q-4.53 28.17-7.87 56.54c-4.63 39.21-7 78.6-7.76 118.07-.1 5.11 7.83 5.11 7.93 0 .79-38.05 3.08-76 7.46-113.84 2.39-20.55 5.4-41 8.62-61.45 1.37-8.65 4.19-18 1.11-26.64-2.86-8-9.27-11.49-17.26-12.9-21.84-3.85-44-6.41-66.07-8.26-16.55-1.38-33.55-1.69-44.83 12.45-8.76 11-11.69 25.13-17.68 37.57-3.32 6.9-7.58 11.85-13 17.19-6 5.95-7.92 12.62-4.59 20.63 2.33 5.6 5 10.51 5.59 16.67.59 5.67.21 11.44-.05 17.12-.56 12-.69 24.12-.13 36.18 1.13 24.33 4.34 48.87 10.71 72.41.58 2.13 3.61 1.2 3.26-.9z"></path><path d="m591.56 342.51a7.53 7.53 0 0 0 .91 1.05c.18.19.26.21.32.4v.81c0 .27 0 .53-.07.8a1.5 1.5 0 0 1 1.12-1.14h1.52c-.9-.13.73.89.46.37-.11-.21-.31-.42-.44-.62a2.78 2.78 0 0 0 -3-1.24 2.72 2.72 0 0 0 -2 2.6c.18 2.18 1.26 4.06 3.58 4.43s4.13-1.46 4.31-3.74a8.4 8.4 0 0 0 -.87-4.91c-1-1.69-3.16-3-5-1.82a2.23 2.23 0 0 0 -.79 3z"></path><path d="m592.57 325.46c1.86.9 4 1 5.84 2.05s3.12 2.87 4.48 4.58c1.8 2.27 5.7-.19 4.82-2.81a11.62 11.62 0 0 0 -6.46-6.62c-2.48-1.11-6.31-2-8.68-.18-.93.71-1.29 2.36 0 3z"></path><path d="m583.89 386.78c.68 3.22 1 5.32 4.64 5.75 1.72.2 3.45 0 5.18.08 2.23.12 4.34.79 6.56 1 2.92.24 4.14-4.31 1.52-5.58a14.3 14.3 0 0 0 -7-1.51c-2.34.18-5 1.9-7.26 1.18l1.32 1a20.65 20.65 0 0 1 -1.63-3.3c-.89-1.94-3.69-.5-3.29 1.39z"></path></g><path d="m589.15 306.39c-7.16-7.46-10.77-16.8-14.25-26.37l-1.53 3.76a216.42 216.42 0 0 1 58.37-31c10.46-3.57 22.15-6.33 32.89-2.28a23.72 23.72 0 0 1 11.59 8.85c2.25 3.44 3.15 7.8 7.8 8.65 4.34.8 8.36-.35 12.74 1.27 5.2 1.94 9.68 5.57 13.71 9.29 7.21 6.64 14.44 14.08 19.54 22.49 12.23 20.14 5 44.34-5.1 63.71-2.7 5.12-5.65 10.11-8.71 15-2.93 4.72-5.49 11.59-11.48 12.47-13.54 2-27.28-4.41-38.86-10.72-4.37-2.38-8.26 4.52-3.86 6.61 11.62 5.5 23.32 10.88 36.32 12 4.93.42 11.16.52 15.32-2.57s7-9.11 9.81-13.52c12.87-20.19 24.79-43.32 20.94-68-1.84-11.82-8.47-21.29-16.43-29.88-7.51-8.12-15.6-17.28-25.72-22.17a32.37 32.37 0 0 0 -6.4-2.37c-2.81-.67-5.56-.26-8.32-.67-3.26-.48-3.5-2.52-5.17-5.12a27.88 27.88 0 0 0 -5.36-6.11c-8.61-7.32-20.1-9.16-31-7.69-13.48 1.81-26.65 7.55-38.84 13.36a213.35 213.35 0 0 0 -37.15 22.62c-1.09.83-2.08 2.28-1.52 3.75 4 10.46 8.46 21.43 18.21 27.76 2 1.28 4-1.54 2.45-3.16z" fill="#ef6348"></path><path d="m665.83 361.9c-3.63.27-8.11 3.25-9.18 6.88-.79 2.66 1.52 5.44 4.31 4.54a3.7 3.7 0 0 0 1.76-6 2.92 2.92 0 0 0 -4.1 0l-.08.09a2.7 2.7 0 0 0 -.69 2.62c0 .17.3 1.25.2.55l.29-2.23c.08.06.13 0 .17-.14l2.2-.28-.33-.05 1.26.73-.25-.23.72 1.25c.21.52 0 .5.36-.09l.46-.72a14.14 14.14 0 0 1 1.1-1.56 30.38 30.38 0 0 1 2.97-2.66 1.6 1.6 0 0 0 -1.12-2.7z" fill="#1a1c3f"></path><path d="m673 353.52c1.26 5.71 1.83 11.39-1 16.8s-7.14 8.45-11.77 11.93a3.18 3.18 0 0 0 3.2 5.48c7-3.05 13.8-9.23 16.48-16.51 2.45-6.68 1.94-15.39-4.64-19.49a1.6 1.6 0 0 0 -2.32 1.79z" fill="#1a1c3f"></path><g fill="#ef6348"><path d="m659.29 326.8c-5.23-4.91-8.37-11.79-11.44-18.18a52 52 0 0 1 -4.11-10.8c-.8-3.52-.2-6.86-.63-10.36-.4-3.25-5-5.47-6.86-1.85-3.78 7.39 0 17.66 3.8 24.35 4.3 7.48 9.51 15.17 16.84 19.94 1.88 1.23 4-1.57 2.4-3.1z"></path><path d="m650.76 337.86a16.59 16.59 0 0 0 7 4.11c3 .9 4.37-4.12 1.3-4.73a11.73 11.73 0 0 1 -5.27-2.39c-2.07-1.7-5 1-3 3z"></path><path d="m648.57 348.28a18.27 18.27 0 0 0 4.81 2.89 2.23 2.23 0 0 0 1.18-4.31 13.81 13.81 0 0 1 -4-1.17 1.68 1.68 0 0 0 -2.14.42 1.65 1.65 0 0 0 .13 2.17z"></path><path d="m743.91 326c-1.08-9.79 2-19.73 7.17-28.13 9.13-14.87 23.44-29.49 41.27-32.77 19.73-3.64 36 10.12 48.43 24 12.91 14.41 23.24 31.37 34.41 47.09 1.09 1.52 2.22 3.2 2.14 5.06s-1.47 3.59-2.79 5.05c-12.2 13.47-25.19 27.35-42.28 33.53a7.65 7.65 0 0 1 -4.3.61c-1.74-.41-3-1.87-4.12-3.25l-16.48-20.19 1.64 27.32a74.59 74.59 0 0 1 -26.7 5.1 12 12 0 0 1 -4.91-.72 12.3 12.3 0 0 1 -4.54-4.16 100.36 100.36 0 0 1 -17.13-35.16c-1.62-6.15-3.09-13.13-8.45-16.56"></path><path d="m745.52 326c-.77-18.12 12.62-35.93 26.07-46.82 14-11.37 31.28-14.12 46.88-4.22 15 9.55 26.11 25.17 36 39.67 5.42 8 11.33 15.91 16.3 24.18 1.54 2.55 1 2.85-.93 5-1.43 1.6-2.9 3.18-4.37 4.75-2.94 3.16-5.95 6.26-9.08 9.23-7 6.65-14.91 12.83-24 16.44-2.37 1-3 1.18-4.87-.72s-3.56-4.35-5.31-6.48l-11.21-13.65c-2.79-3.41-9-.63-8.76 3.63.58 9.11 1.21 18.21 1.82 27.31l3.62-4.75c-7.66 2.95-17.07 5.92-25.4 5.1-7.38-.73-12.25-12.39-15.31-18.47-3.58-7.09-5.88-14.42-8.12-22-1.8-6.05-4.19-11.3-9.49-15-4.48-3.12-8.45 4.06-4.22 7.23 6.06 4.53 6.43 15.66 8.7 22.32a100.72 100.72 0 0 0 11 22.58c4.58 7 8.57 12.61 17.48 12.83a77.27 77.27 0 0 0 28-5.1c2-.72 3.74-2.48 3.62-4.75-.47-9.1-.91-18.21-1.41-27.31l-8.75 3.63 11.74 14.44c3 3.73 6.1 9.1 11.1 10.38 4.77 1.22 10-1.58 14.17-3.61a78.91 78.91 0 0 0 13.39-8.5c8.46-6.52 15.85-14.27 23-22.19 3.22-3.57 6.36-7.47 5-12.63s-5.85-9.69-8.77-13.85c-21.25-30.2-55.17-83.56-98.64-56.66-9.38 5.82-17 14.07-23.13 23.16-7.3 10.79-11 21.8-9.34 34.83.26 2 3.33 2.14 3.23 0z"></path></g><path d="m743.58 298.26c-5.48 6.33-8.24 15.13-8.47 23.42-.21 7.44 1.38 17 8.41 20.93 4.82 2.72 9.15-4.7 4.33-7.42s-4.91-12-4.91-16.81c0-6.48 1.83-12.15 4-18.16.68-1.87-2.07-3.45-3.37-2z" fill="#1a1c3f"></path><path d="m805.67 360.45c2.38 5 5.71 9.68 8.79 14.27 2.55 3.78 5.25 7.66 8.82 10.55 7.64 6.2 14.87 1.8 21.11-3.81 2.59-2.32-.83-6.86-3.76-4.87-2.6 1.78-5.85 4-9.19 3.85-3.49-.12-6.3-3.72-8.5-6.08-4.9-5.26-8.78-11.48-14-16.44a2.1 2.1 0 0 0 -3.28 2.53z" fill="#1a1c3f"></path><path d="m562.46 509.94c-3.08-7.78-6.09-17.1-2.05-24.33 3.56-6.36 11-8.21 17.73-9.41a925.86 925.86 0 0 1 140.13-14.2 8.76 8.76 0 0 1 3.94.5c3 1.35 4 5.38 4.57 8.87 2.17 12.6.67 27.78 6.44 39.34 4 8.13 15 9.26 22 13.26 9.38 5.35 17.66 12.73 25.06 21 14.63 16.29 25.7 35.94 37.19 54.91 24.07 39.69 44 82.48 70.69 120.21 3.71 5.25 7.65 10.72 8.73 17.27 2.29 13.89-8.75 25.82-19.27 33.87-54 41.33-120.77 56.71-186.08 65.15-57.49 7.43-116.16 10.16-172.92-2.39-1.53-.34-3.21-.79-4.12-2.2s-.74-3.13-.6-4.76l16-177.34c1.07-12 2.15-23.93 4.22-35.72 3.26-18.55 8.95-36.46 14.62-54.3l14-44" fill="#fff"></path><path d="m579 509.94c-3.07-7.78-6.08-17.1-2-24.33 3.55-6.36 11-8.21 17.72-9.41a925.86 925.86 0 0 1 140.07-14.2 8.72 8.72 0 0 1 3.93.5c3 1.35 4 5.38 4.57 8.87 2.18 12.6.67 27.78 6.44 39.34 4 8.13 15 9.26 22 13.26 9.37 5.35 17.65 12.73 25 21 14.64 16.29 25.7 35.94 37.2 54.91 24.06 39.69 44 82.48 70.68 120.21 3.72 5.25 7.65 10.72 8.73 17.27 2.29 13.89-8.74 25.82-19.26 33.87-54 41.33-120.78 56.71-186.08 65.15-57.5 7.43-116.17 10.16-172.92-2.39-1.54-.34-3.22-.79-4.12-2.2s-.75-3.13-.6-4.76q8-88.66 16-177.34c1.08-12 2.15-23.93 4.23-35.72 3.26-18.55 8.95-36.46 14.61-54.3l14-44" fill="#34c6a0"></path><path d="m565 509.25c-2.85-8.52-6.49-20.62 3.14-26.22 3.31-1.93 7.3-2.61 11-3.29 5.46-1 11-1.88 16.44-2.74q32.88-5.19 66.07-8 16.08-1.34 32.21-2.12 7.81-.39 15.63-.63c2.61-.08 5.22-.17 7.83-.22 3.06-.05 4.1.69 4.89 3.69 4 15.2-1.69 36.62 11.13 48.61 5.23 4.9 12.18 6.12 18.34 9.33 8.59 4.48 16 11.27 22.58 18.3 13.79 14.76 24 32.38 34.26 49.66 20.74 35 39 71.43 60.72 105.85 5.42 8.62 11.39 16.79 17.15 25.17 5.38 7.84 7.75 15.84 2.92 24.61-4.31 7.75-11.31 13.53-18.37 18.67a258.93 258.93 0 0 1 -24.36 15.76c-32.69 18.67-69 30-105.7 37.47a714.33 714.33 0 0 1 -120.63 14.09 454.07 454.07 0 0 1 -64.5-2.35q-16.57-1.87-32.91-5.35c-1-.21-2.73-.14-3.42-.77-1.39-1.25.38 1.41-.37-1-.56-1.8.51-5.85.68-7.73l1.52-16.75q6-66 11.84-132c1.84-21.17 2.91-42.62 7.22-63.46 4.27-20.64 11.08-40.65 17.44-60.7l9.6-30.25c1.89-5.95-7.45-8.49-9.33-2.57-6.94 21.79-14.17 43.53-20.69 65.46-6.46 21.72-10.11 43.53-12.24 66.07-4.45 47.22-8.63 94.46-12.88 141.7q-1.59 17.73-3.15 35.47c-.4 4.45-1.19 9.25 2.18 12.81s9.18 3.8 13.58 4.66a399.81 399.81 0 0 0 67.45 7.09c44.46 1.08 89.28-3.66 133.05-11.21 39.46-6.8 78.6-17.36 114.43-35.56 17.26-8.77 35.76-19.23 49.47-33.1 6.22-6.3 11.45-14 12.68-22.91 1.35-9.87-2.8-18.21-8.2-26.16-24.8-36.47-44.11-76-66.65-113.81-20-33.61-41.06-74.73-79.62-89.57-3-1.17-6.49-2.42-8.77-4.83-3.26-3.46-4.2-9.23-4.95-13.75-1.55-9.42-1.05-19.16-3.29-28.48-.78-3.27-2.19-6.73-5.1-8.69-3.91-2.65-9.49-1.61-13.89-1.45q-17.59.63-35.17 1.93-34.69 2.56-69.13 7.71c-10.89 1.62-21.91 3.14-32.67 5.49-7.51 1.64-15.33 5.11-18.15 12.85-3.1 8.52.43 17.42 3.91 25.21 1.19 2.68 5.66.78 4.74-2z" fill="#1a1c3f"></path><path d="m578.29 514.39c10.16-.62 20.43-3.24 30.48-4.87q16.44-2.68 32.93-5.09 33.06-4.85 66.35-7.77c3.58-.32 3.61-6 0-5.63q-32.53 3-64.9 7.71c-10.65 1.57-21.27 3.3-31.85 5.29-11 2.06-22.86 3.53-33.43 7.26-1.58.55-1.46 3.22.42 3.1z" fill="#1a1c3f"></path><path d="m628.38 534.84c-19.26-11.25-41.09-23.38-64.12-22.35-32.19 1.43-56.41 24.76-81.73 41.72-21.65 14.5-45.48 25.16-70 33.72-3.62 1.27 4 2.12 1.4 4.94s-3.12 7.94 0 10.19q-28.23-55.5-56.48-111c-7.54-14.82-17-31.2-33.17-35-11.63-2.74-23.67 1.93-34.25 7.49a195.29 195.29 0 0 0 -75.59 71c-2.93 4.81-5.73 10.07-5.57 15.7.15 5.47 3.08 10.44 5.93 15.12 30.77 50.63 63.4 101.41 108.69 139.63s95.12 42.4 248.2-45" fill="#fff"></path><path d="m634 539.23c-19.25-11.24-32-16.11-55-15.08-32.19 1.44-61.65 29.68-87 46.64-21.64 14.5-65.85 31.8-78.14 32.27-3.83.14-.51 7.48-3.11 10.3s9.52 4 12.62 6.28q-28.23-55.5-56.48-111c-7.54-14.83-17-31.21-33.17-35-11.63-2.75-23.67 1.93-34.25 7.48a195.43 195.43 0 0 0 -75.59 71c-2.93 4.82-5.73 10.07-5.57 15.7.16 5.48 3.08 10.44 5.93 15.12 30.8 50.63 63.43 101.42 108.72 139.65s95.12 42.39 248.2-45" fill="#34c6a0"></path><path d="m629.17 533.47c-16.32-10.6-33.18-21.2-52.82-24-17.83-2.53-35.24 2.19-50.86 10.69s-29.49 20.15-44.37 30.14c-17.46 11.76-36.47 21.09-56.07 28.7-4.71 1.83-10.57 3-14.91 5.56-2.38 1.41-3.46 4.07-1.92 6.55.29.46 2.29 2.65 2.82 2.4l-.79-2.5-.64.82a10.39 10.39 0 0 0 -1.48 3.35 10.59 10.59 0 0 0 2.87 10.76c3.43 3.23 8.5-.82 6.4-4.94q-25.77-50.65-51.55-101.31c-6.51-12.79-12.63-26.78-23.25-36.81-11.25-10.62-25.88-12.93-40.43-8.12-14.95 4.93-29 14.1-41.46 23.57a200.64 200.64 0 0 0 -32.83 31.31 202.94 202.94 0 0 0 -13.59 18.36c-4 6.06-8.39 12.57-9.35 19.91-1 7.92 2.72 14.74 6.7 21.29q6.5 10.71 13.15 21.35c17.44 27.89 36 55.23 57.35 80.27 15.36 18 32.32 35.76 52 49 23.54 15.86 50.45 19.35 78.12 14.86 19.95-3.24 39.28-9.85 58-17.43 27.35-11.09 53.72-24.47 79.6-38.61 8.14-4.41 16.14-9.01 24.14-13.64 5.06-2.94.53-10.71-4.59-7.85-45.11 25.18-91.92 51.7-142.36 64.6-25.53 6.53-53 8.41-77.22-3.56-13.54-6.68-25.06-16.56-36-26.8-22.83-21.39-42.4-45.94-60.08-71.68-8.66-12.61-16.92-25.5-25-38.5-4.08-6.56-8.29-13.08-12.11-19.79-1.93-3.38-3.76-7-3.65-11 .11-4.38 2.36-8.38 4.54-12a189.19 189.19 0 0 1 61.25-62.62c12.67-8 29.41-18.66 45.06-14.59 13.08 3.41 21 16.07 27 27.22 16.56 30.55 31.64 62 47.4 93l12.1 23.79 6.41-5c-2.73-2.56 2.32-6.21 1.61-9.55a6.11 6.11 0 0 0 -1.48-2.75 5.08 5.08 0 0 0 -1.52-1.22c-1.72-.75.51-1.37.23 1.85l-1.19 2.88c.86-.78 4-1.26 5.13-1.66 1.7-.62 3.4-1.26 5.1-1.9q5.93-2.27 11.78-4.71c7.56-3.18 15-6.58 22.32-10.31a295.72 295.72 0 0 0 39-24.45c23.13-16.82 48.8-36.07 79.17-31.55 17.91 2.67 34.72 11.13 50.61 19.4a1.58 1.58 0 0 0 1.59-2.73z" fill="#1a1c3f"></path><path d="m707.85 241.4c-10.39 3.56-21 7.25-29.56 14.14-.41.33-.85.78-.73 1.28a1.38 1.38 0 0 0 .58.71l14.86 11.72a2.67 2.67 0 0 0 1.26.67 2.73 2.73 0 0 0 1.55-.44l16.51-8.58-11.17 11.55c-.63.65-1.32 1.48-1.09 2.36a2.68 2.68 0 0 0 1.27 1.41l8.35 5.66a5.29 5.29 0 0 0 2.9 1.19 5.54 5.54 0 0 0 3.26-1.82 43.13 43.13 0 0 1 15.42-8.77 63 63 0 0 0 -13.47 11 2.77 2.77 0 0 0 -1 2.23 2.82 2.82 0 0 0 .92 1.38l7.55 7.52a3.38 3.38 0 0 0 5.15.64l19-11.13" fill="#fff"></path><path d="m720.16 245c-10.39 3.57-21 7.25-29.57 14.14-.4.33-.84.78-.72 1.28a1.41 1.41 0 0 0 .57.71l14.87 11.73a2.76 2.76 0 0 0 1.25.66 2.61 2.61 0 0 0 1.56-.44l16.51-8.58-11.18 11.5c-.63.65-1.31 1.48-1.09 2.37a2.71 2.71 0 0 0 1.28 1.4l8.35 5.66a5.15 5.15 0 0 0 2.9 1.19c1.27 0 2.3-1 3.25-1.81a43.26 43.26 0 0 1 15.43-8.81 63.35 63.35 0 0 0 -13.48 11 2.81 2.81 0 0 0 -1 2.23 2.87 2.87 0 0 0 .91 1.38l7.56 7.52a4.42 4.42 0 0 0 2.37 1.52 4.5 4.5 0 0 0 2.78-.88l19-11.13" fill="#f7cebf"></path><g fill="#1a1c3f"><path d="m742.23 240.7c-19.74-8.37-43.67-3.47-61.3 7.65-2.55 1.6-6.41 3.59-7.43 6.6-1.77 5.18 5.06 8.46 8.39 11 3.73 2.86 9 9.19 14.27 7.87 2.87-.73 5.71-2.91 8.32-4.27 3.29-1.73 6.6-3.44 9.9-5.16l-4.93-6.39-7.45 7.73c-1.67 1.72-4.12 3.59-5.22 5.77-2.67 5.3 2.24 8 6 10.57 4.13 2.8 8.48 6.8 13.58 3.85 2.41-1.39 4.35-3.58 6.7-5.11a41.49 41.49 0 0 1 9.28-4.45l-3.1-7.36c-5.24 3.29-11.25 7.35-14.91 12.44-3.53 4.93.17 8.12 3.67 11.6 3.79 3.78 7.21 8.64 13.09 6.36 7-2.72 13.82-7.94 20.34-11.74 4.57-2.66.42-9.81-4.15-7.1l-10.33 6.1c-3 1.79-6.87 5.06-10.4 5.58l3.1.4c-2.16-.92-3.73-3-5.35-4.63-1.28-1.27-3.3-2.7-4.07-4.34l.41 3.09c.4-2 4.26-4.67 5.69-5.85a64.28 64.28 0 0 1 7-5c3.72-2.33 1.38-8.89-3.11-7.36a49.7 49.7 0 0 0 -13.88 7.11c-1.87 1.38-3 3.2-5.28 2.2-1.58-.67-6.61-3.74-7.47-5.14l.41 3.12c.32-1.8 3.7-4.35 5-5.7l6.21-6.42c3.27-3.38-.85-8.5-4.93-6.39l-8.28 4.34c-1.65.86-3.3 1.71-5 2.55l-1.66.84q-2.57 1.62-1.27.44c.87.41-2.66-2.88-2.55-2.78l-3.67-3c-2.3-1.86-5.35-3.74-7.22-6l1.12 4.27c-.26 1.15-.59.37.52-.05a15.41 15.41 0 0 0 2.2-1.52q2.19-1.46 4.49-2.74a103.25 103.25 0 0 1 14-6.31c12.5-4.78 24.83-5.58 38-3.65 1.65.24 3.17-2.22 1.27-3z"></path><path d="m753.56 353.09a52.16 52.16 0 0 0 5.08 20.91c2.75 6.1 6.3 13.41 11.13 18.17s10.68 4.94 17 4a171.63 171.63 0 0 0 25.4-6.08c4.1-1.29 2.35-7.77-1.78-6.47a176.68 176.68 0 0 1 -19.88 5.11c-6.61 1.28-12.85 2.83-17.58-3-3.57-4.44-6.22-9.79-9.05-14.72a56.31 56.31 0 0 1 -7.08-18.26c-.33-1.86-3.27-1.39-3.25.44z"></path><path d="m223.27 437.09c1.68.05 3.31-1.23 4.77-2s3.07-1.7 4.6-2.56a3.55 3.55 0 0 0 .71-5.5 8 8 0 0 0 -1-.95 3.57 3.57 0 0 0 -4.61-.28c-1.24 1-2 3.11-.9 4.53a8.29 8.29 0 0 0 1.53 1.65v-4.95a34.51 34.51 0 0 0 -3.92 3.43c-1.08 1.16-2.78 2.53-3.07 4.14a2 2 0 0 0 1.87 2.45z"></path><path d="m246.26 426.31c1.74.39 3.35-.28 5-.87a24.15 24.15 0 0 0 4.82-2.35 5.2 5.2 0 0 0 2.78-4.26c0-2.52-1.82-3.91-4.11-4.2-3.17-.4-4.4 4-2.48 6l-.53-.81v-1.93c.08-.53 1.35-1.2.24-.59-.35.2-.67.47-1 .69-.76.51-1.47 1.06-2.2 1.61-1.35 1-3 1.77-3.92 3.25a2.39 2.39 0 0 0 1.42 3.49z"></path></g><g fill="#ddede8"><path d="m708.88 526.07c9.53 38 20.72 75.67 32.28 113.11s23.65 74.73 37.17 111.55c.89 2.4 3.61 3.92 6 2.45l6.47-4-6-4.61c-1.26 5.27-1.22 10 1.36 14.9 1.5 2.83 6.55 1.65 6.25-1.7-.33-3.72-.62-7.37.27-11 .81-3.37-2.87-6.53-6-4.62l-6.47 3.94 6 2.45c-13.44-36.85-26.86-73.76-39.27-111s-23.68-74.79-35.1-112.33a1.55 1.55 0 0 0 -3 .82z"></path><path d="m791.38 780.52c2.45-1.62 4.28-4.26 6.13-6.52s3.94-4.72 5.68-7.23c1.46-2.11-1.86-4.67-3.56-2.75-2 2.29-3.81 4.82-5.65 7.26s-3.87 4.72-4.87 7.5a1.56 1.56 0 0 0 2.27 1.74z"></path><path d="m798.76 791.94c2-2.05 3.38-4.68 5-7.05q2.56-3.92 5.11-7.84c1.51-2.34-2.29-4.57-3.73-2.18-3 5-7 10.09-9 15.53-.56 1.52 1.59 2.63 2.64 1.54z"></path><path d="m671.89 900.39a223.34 223.34 0 0 0 42.48 1.07 192.9 192.9 0 0 0 19.63-2.24c4.78-.82 10.21-2.18 13.32-6.18 1.92-2.47-.6-7-3.71-4.82-9.37 6.7-22.9 6.56-34 7.47a353.17 353.17 0 0 1 -37.66.89c-2.52-.07-2.36 3.52 0 3.81z"></path><path d="m857.61 869.72c6.5-1.41 13-2.81 19.48-4.36 6-1.44 12.44-2.39 18-5 2.55-1.21 1.38-5.72-1.48-5.44-6.14.61-12.17 3.12-18 5-6.35 2-12.64 4.17-18.94 6.32a1.84 1.84 0 0 0 1 3.54z"></path></g><g fill="#4747e2"><path d="m395.72 368.19-12.52-15.64a8.78 8.78 0 0 1 -2.27-4.22c-.28-2.25 1.17-4.33 2.66-6 8.57-9.81 20.87-15.73 33.49-19 13.11-3.34 27.49-3.92 39.74 1.82 13.37 6.27 22.83 20 24.23 34.74a46 46 0 0 1 -16.57 39.19c-5.33 4.36-12 7.92-14.57 14.3-.89 2.17-1.33 4.68-3.07 6.24a9.82 9.82 0 0 1 -5 1.94 140.5 140.5 0 0 1 -23.16 2.23 10.65 10.65 0 0 1 -4.7-.66c-2.91-1.34-4.14-4.91-4-8.1.33-10.28 10.28-17.11 18.64-23.07s17-15.58 13.49-25.23c-2.67-7.28-11.62-10.65-19.28-9.42s-14.26 5.93-20.41 10.65"></path><path d="m397.93 366.9c-3.69-5.21-8.56-10.56-11.45-16.27-1.92-3.79-.59-5.15 2.16-7.87a51.18 51.18 0 0 1 9.38-7.33 74.28 74.28 0 0 1 35.86-10.55c12.46-.37 24.47 3.35 33 12.72a39.39 39.39 0 0 1 9.94 31.86c-1.71 11.93-8.47 21.74-17.95 28.88-4.07 3.07-8.34 6.06-11.12 10.44-1.25 2-1.68 4.18-2.72 6.22-1.85 3.63-8.3 3.39-11.86 3.82-4.53.53-17.29 3.63-19.11-2.09s4.29-11.87 7.94-15.12c8-7.15 18.12-12.24 22.58-22.62s-1.06-21.15-11.84-24.35c-12.11-3.6-23.78 3.55-32.84 10.88-3 2.45 1 7.74 4.2 5.44 6-4.29 12.36-9.58 19.95-10.41 6-.65 13.64 2.07 15.1 8.55 3.06 13.63-17.38 22-25.13 29.59-6.62 6.53-13.54 22.07-2.11 27.94 6 3.1 15.82.94 22.23.15 5.71-.71 13.56-.76 17.06-6.15 1.57-2.41 2-5.37 3.52-7.78 2-3.12 5.3-5.36 8.22-7.55a59.15 59.15 0 0 0 12.84-12.48 49.32 49.32 0 0 0 8.86-36.19 47.84 47.84 0 0 0 -18.29-30.33c-11.23-8.48-25.58-10.59-39.27-8.9-14.79 1.82-29.72 7.21-41.15 17-4.59 3.92-10.82 9.84-8.28 16.53 1.35 3.55 4.63 6.31 7.13 9 3.06 3.34 6.07 6.72 9.11 10.08 1.92 2.12 5.71-.7 4-3.1z"></path><path d="m443 441.34a125.19 125.19 0 0 0 -20.84.92c-2.63.33-5.35.79-7.52 2.31-5.15 3.59-5 11.11-4.39 17.36.21 2 .46 4.06 1.69 5.61s3.42 2.35 5.45 2.83a43.78 43.78 0 0 0 26.12-1.88c2.45-1 5-2.38 5.9-4.85a10.59 10.59 0 0 0 .45-3.18l.6-16.79-4-.79"></path><path d="m443.46 439.82a82.19 82.19 0 0 0 -20.31-.5c-4.78.47-9.54 1.26-12.8 5.14-4.92 5.87-5.9 20.91.12 26.34 3.56 3.21 9.41 3.76 14 4.11a47.28 47.28 0 0 0 18.45-2.22c4.2-1.41 8.75-3.49 10.29-8 1-3 .7-6.65.81-9.81l.38-11.19a3.9 3.9 0 0 0 -2.84-3.73c-1.66-.25-3.33-.46-5-.66-4.1-.51-4.78 6-1 7.08 1.3.36 2.6.71 3.91 1l-2.83-3.72-.5 13.06c-.06 1.68.19 4.93-.77 6.36-.85 1.25-3.1 1.94-4.46 2.45-6.78 2.53-17.74 4.39-24.56.94-5.25-2.65-4-16.43.33-19.52 3.42-2.46 9-2.32 13.08-2.77q6.63-.72 13.28-1.26c1.63-.14 2.31-2.83.42-3.11z"></path></g><g fill="#34c6a0"><path d="m580 170.84c2.73 15 5.42 30 8.26 45 .65 3.4 5.9 2 5.21-1.44-3-14.93-6.18-29.84-9.31-44.75-.57-2.74-4.65-1.56-4.16 1.15z"></path><path d="m674.54 160.29c-3.09 6.57-3.87 14.54-5.43 21.6-1.71 7.77-3.53 15.52-5.07 23.32-.66 3.34 4.4 4.79 5.14 1.42 1.72-7.77 3.18-15.61 4.73-23.41 1.41-7.08 4-14.84 3.78-22.08 0-1.56-2.39-2.45-3.15-.85z"></path><path d="m767.09 168.22c-5.73 6.38-10.43 13.94-15.49 20.87-5.35 7.33-11.34 14.51-16 22.31-1.38 2.33 2 5.15 3.85 3 5.57-6.62 10.16-14.19 15.08-21.3 5.14-7.42 11.06-14.73 15.42-22.63 1-1.77-1.44-3.83-2.88-2.22z"></path><path d="m842.59 209.37c-6.76 5.88-13.33 11.95-19.91 18-2.21 2 1.15 5.42 3.31 3.31 6.4-6.26 12.79-12.5 19-19a1.69 1.69 0 0 0 -2.39-2.39z"></path><path d="m874.75 250.7c-2.11 2.13-4.11 4.32-6.09 6.56s1.45 5.63 3.31 3.31 3.93-5 5.77-7.56c1.28-1.79-1.5-3.81-3-2.31z"></path><path d="m126.44 661.55q21.17 52.1 42.66 104l10.53 25.53c1.76 4.26 3.48 8.53 5.27 12.77 1 2.31 2.06 4.73 4.27 6.13 6.25 4 13.25-2.55 18.11-5.82 6.78-4.56 13.81-8.79 21-12.68a237.22 237.22 0 0 1 53.8-21 3.41 3.41 0 0 0 2.36-4.16l-14.86-40.32-6.75-18.37c-1.52-4.14-2.83-9.64-7.89-10.61-4.86-.94-10.42 2.3-14.9 3.84-6.56 2.28-13.18 4.45-19.71 6.83-4.35 1.59-8.51 3.54-10 8.31-1.67 5.39.45 11.66 1.54 17q8.35 40.8 18.26 81.26 2.33 9.51 4.75 19c1.08 4.27 1.54 11.39 6.13 13.64s9.78-1.57 13.66-3.49l19.43-9.58c14.1-7 28.52-13.49 42.38-20.9 4.59-2.45 6.53-5.53 6-10.8-.76-7.2-3-14.57-4.49-21.66l-6.74 2.84a185.07 185.07 0 0 0 46.49 53.93c3.5 2.75 7.42 6.72 12.22 6.44 5.59-.33 11.58-4.9 16.43-7.37 12.95-6.61 25.82-13.34 38.55-20.35 3.59-2 .44-7.12-3.16-5.42-11.08 5.24-22 10.66-33 16.2-5.31 2.69-11.09 6.83-16.77 8.57-3.27 1-4.6.07-7.18-1.87q-3.62-2.7-7.07-5.62a179.43 179.43 0 0 1 -40.18-48.23c-2.14-3.74-7.58-1.16-6.74 2.84l3 14.34c.38 1.82 1.94 5.56 1.42 7.32-.81 2.74-5.58 4-7.82 5.12l-29.94 14.79-29.11 14.42c-.9.45-3.27 2.2-4.32 1.53a19.9 19.9 0 0 1 -.8-3c-.66-2.53-1.3-5.06-2-7.59q-2.06-8.07-4.06-16.16-7.87-31.86-14.8-63.95-1.65-7.67-3.24-15.34c-1-4.58-5-14.55-.51-18.07 3.52-2.77 10-3.79 14.22-5.26 5.37-1.87 10.73-3.77 16.12-5.62 3.22-1.1 4.72-1.86 6.14 1.67 1.09 2.72 2 5.51 3.05 8.26l6.45 17.44 13.23 35.8 2.36-4.16a245.56 245.56 0 0 0 -42.83 15.41q-10.33 4.84-20.15 10.65c-6.77 4-12.9 8.93-19.56 13.07-1.84 1.14-4.16 2.61-6.14.77-1.14-1.06-1.78-3.79-2.34-5.1l-5-11.79-10.49-24.49-20.57-48.07c-7.76-18.13-15.65-36.2-23.51-54.29-.78-1.81-4-.5-3.21 1.35z"></path></g></svg>
