<svg xmlns="http://www.w3.org/2000/svg" version="1.1" xmlns:xlink="http://www.w3.org/1999/xlink" width="512" height="512" x="0" y="0" viewBox="0 0 511.998 511.998" style="enable-background:new 0 0 512 512" xml:space="preserve" class=""><g><path d="M473.557 453.913c-4.075-8.665-11.236-14.666-19.642-16.464l-48.862-10.47c-5.399-8.84-13.321-14.718-22.683-16.725l-10.789-2.311a197.906 197.906 0 0 0 5.334-5.527c22.767-24.67 38.928-54.87 46.731-87.329 3.62-15.024 5.455-30.561 5.455-46.191 0-47.929-17.431-94.113-49.05-130.007a166.331 166.331 0 0 0-3.135-3.488C343.58 99.269 298.332 77.026 249.505 72.77c-5.171-.447-19.133-.727-19.295-.718-40.089.391-78.542 12.757-111.219 35.775-.591.416-1.167.843-1.752 1.265-11.473-8.66-25.373-13.356-39.937-13.356-.275 0-.555.001-.831.005-17.455.213-33.87 7.132-46.217 19.479-12.558 12.545-19.474 29.246-19.474 47.024 0 17.773 6.915 34.476 19.473 47.033l11.128 11.128a197.363 197.363 0 0 0-6.039 48.499c0 20.584 3.154 40.79 9.381 60.195-18.088 8.406-32.687 27.867-37.7 51.324-7.812 36.436 9.343 71.121 38.241 77.318h.001l197.678 42.335a42.87 42.87 0 0 0 9.023.954c10.553 0 21.223-3.825 30.594-11.033l79.093 16.943c2.3.493 4.617.736 6.932.736 7.094 0 14.156-2.297 20.609-6.708l48.86 10.461c1.775.381 3.576.568 5.382.568 6.749 0 13.56-2.621 19.297-7.543 6.684-5.734 11.479-14.095 13.497-23.533 2.024-9.445 1.076-19.036-2.673-27.008zm-67.28-143.008c-6.365 26.463-18.857 51.264-36.299 72.284-9.586-9.398-20.073-17.805-31.357-25.061a279.065 279.065 0 0 0 6.013-23.312c1.026-4.827-2.055-9.572-6.879-10.597a8.935 8.935 0 0 0-10.597 6.881 263.196 263.196 0 0 1-4.467 17.833c-25.202-13.047-53.033-20.483-81.527-21.772v-49.319h92.231a309.25 309.25 0 0 1-1.459 22.665 8.935 8.935 0 0 0 17.775 1.821 327.492 327.492 0 0 0 1.564-24.486h59.724c-.553 11.185-2.123 22.272-4.722 33.063zm-48.39 85.446a182.502 182.502 0 0 1-7.556 7.04l-27.588-5.907c3.582-6.906 6.871-14.22 9.847-21.896a179.124 179.124 0 0 1 25.297 20.763zm53.117-136.379h-59.742c-.76-28.009-5.079-55.467-12.646-80.296 11.283-7.256 21.772-15.662 31.365-25.061a178.724 178.724 0 0 1 41.023 105.357zm-53.098-118.534a179.574 179.574 0 0 1-25.308 20.769c-9.52-24.546-22.289-45.394-37.273-60.749-.067-.069-.136-.132-.204-.2 23.351 8.758 44.749 22.376 62.785 40.18zM241.161 90.627c30.556 4.934 58.799 34.974 75.894 81.019-23.343 12.577-49.289 19.786-75.894 21.11V90.627zm81.549 98.234c6.334 22.106 9.968 46.349 10.677 71.113h-92.226v-49.33c28.503-1.29 56.343-8.73 81.549-21.783zm-81.549 156.186c26.605 1.323 52.551 8.532 75.893 21.11-3.648 9.825-7.83 19.01-12.496 27.434l-1.319-.282c-7.21-13.393-18.657-22.564-31.987-25.414l-30.091-6.445v-16.403zm-57.526-3.057a8.932 8.932 0 0 0 10.62 6.846 179.497 179.497 0 0 1 29.038-3.808v12.594L73.581 325.557l-.005-.001a43.51 43.51 0 0 0-11.502-.885 178.23 178.23 0 0 1-8.639-46.829h59.754c.344 12.835 1.415 25.56 3.225 37.937a8.936 8.936 0 0 0 10.131 7.549 8.935 8.935 0 0 0 7.549-10.133c-1.683-11.526-2.691-23.38-3.03-35.353h92.229v49.306c-11.064.498-22.065 1.902-32.811 4.224a8.934 8.934 0 0 0-6.847 10.618zm-14.359-240.703c-8.567 8.766-16.503 19.382-23.609 31.766a8.935 8.935 0 0 0 15.497 8.893c17.055-29.725 38.883-47.672 62.128-51.344v102.181c-21.272-1.036-41.9-5.779-61.437-14.142a8.935 8.935 0 0 0-7.032 16.427c21.771 9.319 44.764 14.545 68.469 15.594v49.311h-92.239c.26-9.153.915-18.258 1.961-27.167a8.933 8.933 0 0 0-7.829-9.916c-4.894-.574-9.34 2.929-9.916 7.83a325.855 325.855 0 0 0-2.089 29.254H53.454a179.512 179.512 0 0 1 2.911-24.581l14.602 14.601a8.936 8.936 0 0 0 12.636-.001l40.704-40.715c9.197-9.197 15.449-20.755 18.082-33.422 3.985-19.148-.591-38.742-12.272-53.986a177.996 177.996 0 0 1 39.159-20.583zM42.885 196.642c-9.18-9.181-14.237-21.398-14.237-34.398 0-13.002 5.056-25.213 14.239-34.387 9.573-9.573 21.997-14.375 34.423-14.375 11.98 0 23.961 4.464 33.383 13.418.324.314.661.64.982.959 11.639 11.63 16.581 28.212 13.22 44.356v.002c-1.923 9.25-6.495 17.694-13.224 24.425L77.282 231.04l-34.397-34.398zm6.124 243.629c-19.264-4.129-30.261-29.296-24.514-56.104 4.437-20.755 17.951-37.204 33.658-40.939a26.903 26.903 0 0 1 6.324-.765c1.806 0 3.599.189 5.369.567 5.183 1.105 9.905 3.861 13.874 7.937-7.358.733-14.49 3.201-20.879 7.336-10.565 6.838-17.837 17.381-20.475 29.689-4.388 20.488 5.332 40.77 22.58 50.709-5.298 2.099-10.746 2.683-15.937 1.57zm10.828-48.535c1.638-7.641 6.153-14.186 12.713-18.432 6.298-4.076 13.756-5.556 21.16-4.206 2.6 9.227 2.845 19.719.64 30.033-2.201 10.291-6.722 19.76-12.884 27.13-15.281-3.75-24.944-19.042-21.629-34.525zm232.197 49.731c-2.779 12.978-9.099 24.427-17.795 32.236-8.588 7.714-18.365 10.878-27.551 8.906l-162.1-34.716a63.867 63.867 0 0 0 6.51-5.698l.005-.005c10.103-10.13 17.461-24.094 20.72-39.32 3.262-15.257 2.267-31.011-2.802-44.362a64.01 64.01 0 0 0-3.625-7.863l162.117 34.722c9.168 1.961 16.797 8.851 21.483 19.407 4.74 10.662 5.819 23.696 3.038 36.693zm101.4 21.707c-1.867 8.669-6.282 16.459-12.115 21.373-5.088 4.284-10.745 6.034-15.924 4.923l-68.534-14.681c5.949-8.583 10.314-18.692 12.645-29.582 2.331-10.897 2.488-21.904.579-32.161l68.539 14.678c5.188 1.113 9.627 5.019 12.503 11.007 3.319 6.89 4.157 15.802 2.307 24.443zm65.324 14.008c-1.189 5.559-3.981 10.558-7.661 13.715-1.762 1.512-5.324 3.917-9.297 3.064l-38.365-8.215c3.439-5.611 5.997-11.987 7.468-18.821 1.463-6.829 1.743-13.693.901-20.226l38.372 8.223c3.976.851 6.227 4.499 7.214 6.598 2.063 4.388 2.562 10.095 1.368 15.662z" fill="#ffffff" opacity="1" data-original="#000000" class=""></path><path d="M503.212 1.729a8.933 8.933 0 0 0-7.97-1.315L373.328 38.876 251.426.414A8.92 8.92 0 0 0 246.121.4c-.024.007-.049.006-.073.014l-124.603 39.31a8.935 8.935 0 0 0-6.246 8.521V82.41a8.934 8.934 0 0 0 8.934 8.934c4.935 0 8.934-4 8.934-8.934V54.795l106.735-33.674v30.315c0 4.934 3.999 8.934 8.934 8.934s8.934-4 8.934-8.934V21.121l106.722 33.672v50.645a8.934 8.934 0 0 0 8.934 8.934c4.935 0 8.934-4 8.934-8.934V54.795l106.734-33.674v261.176L440.286 297.1a8.937 8.937 0 0 0 5.197 17.097l55.045-16.73a8.935 8.935 0 0 0 6.336-8.548V8.934a8.935 8.935 0 0 0-3.652-7.205z" fill="#ffffff" opacity="1" data-original="#000000" class=""></path><path d="m455.52 94.249 8-8.001a8.933 8.933 0 0 0 .001-12.635c-3.489-3.488-9.146-3.489-12.634 0l-8.001 8.001-8.001-8.001c-3.489-3.488-9.146-3.489-12.634 0a8.933 8.933 0 0 0-.001 12.635l8.001 8.001-8.001 8.001a8.933 8.933 0 0 0 6.316 15.252 8.907 8.907 0 0 0 6.318-2.617l8.001-8.001 8.001 8.001c1.744 1.744 4.031 2.617 6.317 2.617s4.573-.872 6.318-2.617a8.933 8.933 0 0 0-.001-12.635l-8-8.001zM77.285 128.902c-18.384 0-33.342 14.957-33.342 33.342 0 18.385 14.958 33.342 33.342 33.342 18.385 0 33.341-14.957 33.341-33.342 0-18.385-14.957-33.342-33.341-33.342zm0 48.816c-8.533 0-15.474-6.941-15.474-15.474 0-8.533 6.941-15.474 15.474-15.474 8.531 0 15.473 6.941 15.473 15.474 0 8.533-6.942 15.474-15.473 15.474z" fill="#ffffff" opacity="1" data-original="#000000" class=""></path></g></svg>
