<svg version="1.1" id="fi_290336" xmlns="http://www.w3.org/2000/svg" xmlns:xlink="http://www.w3.org/1999/xlink" x="0px" y="0px" viewBox="0 0 511.998 511.998" style="enable-background:new 0 0 511.998 511.998;" xml:space="preserve">
<path style="fill:#E6E6E6;" d="M467.439,478.612c-0.786,3.705-2.097,7.124-3.776,10.149c-5.396,9.732-14.735,15.438-23.789,13.497
	l-52.855-11.317c4.777-4.026,8.875-9.542,11.769-16.082c1.418-3.192,2.537-6.623,3.324-10.245
	c2.371-11.066,1.048-21.811-2.99-30.198l52.867,11.329C463.854,448.283,470.787,463.007,467.439,478.612z"></path>
<path style="fill:#CCCCCC;" d="M463.663,488.761c-5.396,9.732-14.735,15.438-23.789,13.497l-52.855-11.317
	c4.777-4.026,8.875-9.542,11.769-16.082L463.663,488.761z"></path>
<path style="fill:#B6E5E9;" d="M100.614,361.241c4.324,11.388,5.444,25.171,2.418,39.322c-3.026,14.14-9.708,26.255-18.309,34.879
	l-0.012-0.012c-1.441-0.131-2.883-0.357-4.324-0.667c-20.62-4.419-33.759-24.706-29.34-45.338
	c4.419-20.62,24.718-33.759,45.338-29.34c1.441,0.298,2.847,0.691,4.217,1.155H100.614z"></path>
<path style="fill:#666666;" d="M100.614,361.241h-0.012c-1.37-0.465-2.776-0.858-4.217-1.155c-20.62-4.419-40.919,8.72-45.338,29.34
	c-4.419,20.632,8.72,40.919,29.34,45.338c1.441,0.31,2.883,0.536,4.324,0.667l0.012,0.012
	c-10.661,10.673-24.301,15.986-37.643,13.127c-24.11-5.17-38.167-35.034-31.377-66.709c5.301-24.801,21.811-43.361,40.299-47.756
	c5.134-1.239,10.411-1.37,15.653-0.25C84.997,336.701,95.253,347.125,100.614,361.241z"></path>
<path style="fill:#FED159;" d="M497.875,8.495v279.985l-80.86,24.575l-2.108-0.5c3.407-14.14,5.206-28.899,5.206-44.087v-0.012
	c0-47.589-17.69-91.033-46.851-124.137l0.012-0.012V47.806L497.875,8.495z"></path>
<g>
	<path style="fill:#9DCCD0;" d="M420.112,268.456v0.012h-77.704v-0.012c0-33.902-5.265-65.696-14.473-93.154
		c15.748-9.339,30.007-20.906,42.36-34.283c1.001,1.084,2.001,2.192,2.966,3.3C402.422,177.423,420.112,220.867,420.112,268.456z"></path>
	<path style="fill:#9DCCD0;" d="M342.408,268.468h77.704c0,15.188-1.799,29.947-5.206,44.087
		c-7.612,31.663-23.241,60.204-44.611,83.362c-12.341-13.377-26.612-24.956-42.36-34.295
		C337.143,334.164,342.408,302.37,342.408,268.468z"></path>
</g>
<path style="fill:#EFBE52;" d="M373.273,47.806v96.501l-0.012,0.012c-0.965-1.108-1.966-2.216-2.966-3.3
	c-30.829-33.414-73.641-55.606-121.612-59.788V8.495L373.273,47.806z"></path>
<path style="fill:#9DCCD0;" d="M370.295,395.917c-5.48,5.932-11.34,11.507-17.535,16.701l-43.766-9.363
	c7.397-12.258,13.782-26.266,18.94-41.633C343.683,370.961,357.954,382.54,370.295,395.917z"></path>
<path style="fill:#B6E5E9;" d="M342.408,268.456v0.012H232.173v-66.971c34.974,0,67.721-9.554,95.762-26.195
	C337.143,202.76,342.408,234.554,342.408,268.456z"></path>
<path style="fill:#9DCCD0;" d="M370.295,141.019c-12.353,13.377-26.612,24.944-42.36,34.283
	c-18.774-55.964-53.939-93.892-94.333-94.774c5.075,0.036,10.114,0.274,15.081,0.703
	C296.653,85.413,339.466,107.605,370.295,141.019z"></path>
<g>
	<path style="fill:#B6E5E9;" d="M327.935,361.622c-5.158,15.367-11.543,29.376-18.94,41.633l-11.877-2.549h-0.012
		c-5.611-12.639-15.355-21.859-27.779-24.515l-37.154-7.957v-32.806C267.147,335.427,299.894,344.98,327.935,361.622z"></path>
	<path style="fill:#B6E5E9;" d="M327.935,175.302c-28.041,16.641-60.788,26.195-95.762,26.195V80.517c0.476,0,0.953,0,1.429,0.012
		C273.996,81.41,309.161,119.339,327.935,175.302z"></path>
</g>
<path style="fill:#FDE096;" d="M248.683,8.495v72.736c-4.967-0.429-10.006-0.667-15.081-0.703c-0.476-0.012-0.953-0.012-1.429-0.012
	s-0.953,0-1.429,0.012c-0.06,0-0.131,0-0.191,0.012c-39.62,0.322-76.322,12.913-106.472,34.152V47.806L248.683,8.495z"></path>
<g>
	<path style="fill:#B6E5E9;" d="M232.173,335.427v32.806l-76.798-16.451C178.83,341.276,204.822,335.427,232.173,335.427z"></path>
	<path style="fill:#B6E5E9;" d="M232.173,268.468v66.959c-27.351,0-53.343,5.849-76.798,16.356l-23.443-5.015
		c-6.421-23.836-9.994-50.353-9.994-78.299L232.173,268.468L232.173,268.468z"></path>
	<path style="fill:#B6E5E9;" d="M232.173,201.497v66.971H121.937v-0.012c0-33.902,5.265-65.696,14.473-93.154
		C164.451,191.944,197.198,201.497,232.173,201.497z"></path>
	<path style="fill:#B6E5E9;" d="M232.173,80.517v120.981c-34.974,0-67.721-9.554-95.762-26.195
		c18.75-55.88,53.831-93.773,94.142-94.762c0.06-0.012,0.131-0.012,0.191-0.012C231.22,80.517,231.696,80.517,232.173,80.517z"></path>
</g>
<g>
	<path style="fill:#9DCCD0;" d="M230.552,80.541c-40.311,0.989-75.393,38.882-94.142,94.762c-0.953-0.56-1.894-1.132-2.823-1.703
		c3.824-18.369-1.394-38.25-15.653-52.497c-0.357-0.357-0.727-0.715-1.084-1.06c2.359-1.834,4.777-3.621,7.231-5.349
		C154.231,93.453,190.932,80.862,230.552,80.541z"></path>
	<path style="fill:#9DCCD0;" d="M133.587,173.599c0.929,0.572,1.87,1.144,2.823,1.703c-9.208,27.458-14.473,59.251-14.473,93.154
		v0.012H44.221v-0.012c0-17.737,2.454-34.903,7.052-51.175l25.957,25.957l40.704-40.716
		C126.165,194.291,131.383,184.201,133.587,173.599z"></path>
	<path style="fill:#9DCCD0;" d="M131.931,346.767l-60.276-12.913c-5.241-1.12-10.519-0.989-15.653,0.25
		c-7.612-20.441-11.781-42.539-11.781-65.636h77.715C121.937,296.414,125.51,322.931,131.931,346.767z"></path>
</g>
<ellipse style="fill:#B6E5E9;" cx="232.169" cy="268.466" rx="148.081" ry="187.272"></ellipse>
<path style="fill:#B3B3B3;" d="M300.716,442.899c-2.108,9.851-5.992,18.714-11.066,26.1c-2.823,4.134-6.016,7.791-9.494,10.912
	c-10.292,9.244-22.967,13.663-35.391,10.995L47.08,448.569c13.342,2.859,26.981-2.454,37.643-13.127
	c2.609-2.621,5.039-5.551,7.243-8.767c5.075-7.397,8.958-16.26,11.066-26.112c3.026-14.152,1.906-27.934-2.418-39.322
	c-5.361-14.116-15.617-24.539-28.959-27.386l60.276,12.913l23.443,5.015l76.798,16.451l37.154,7.957
	c12.424,2.656,22.169,11.877,27.779,24.515C302.395,412.606,304.003,427.532,300.716,442.899z"></path>
<ellipse transform="matrix(-0.2597 -0.9657 0.9657 -0.2597 176.8918 548.4066)" style="fill:#FFFFFF;" cx="298.651" cy="206.4" rx="60.582" ry="40.202"></ellipse>
<path style="fill:#CCCCCC;" d="M402.113,464.615c-1.334,6.171-3.657,11.781-6.707,16.582c-2.394,3.8-5.241,7.088-8.386,9.744
	c-6.945,5.849-15.319,8.589-23.55,6.826l-83.302-17.845l-0.012-0.012c5.897-5.301,11.019-12.174,14.855-20.215
	c2.478-5.158,4.419-10.792,5.706-16.796c3.288-15.367,1.68-30.293-3.609-42.193h0.012l11.876,2.549l43.766,9.363l27.684,5.932
	c8.219,1.763,14.747,7.683,18.678,15.867C403.161,442.804,404.483,453.549,402.113,464.615z"></path>
<path style="fill:#B6E5E9;" d="M232.173,268.468h110.236c0,33.902-5.265,65.696-14.473,93.154
	c-28.041-16.641-60.788-26.195-95.762-26.195V268.468z"></path>
<path style="fill:#FED159;" d="M77.23,137.398c13.473,0,24.408,10.935,24.408,24.408c0,13.485-10.935,24.408-24.408,24.408
	c-13.485,0-24.408-10.924-24.408-24.408C52.822,148.333,63.745,137.398,77.23,137.398z"></path>
<path style="fill:#EE4948;" d="M117.934,121.102c14.259,14.247,19.477,34.129,15.653,52.497
	c-2.204,10.602-7.421,20.692-15.653,28.923L77.23,243.238l-25.957-25.957l-14.759-14.759
	c-11.245-11.245-16.856-25.969-16.856-40.716c0-14.724,5.611-29.471,16.856-40.704c22.133-22.133,57.786-22.49,80.336-1.06
	C117.207,120.387,117.577,120.744,117.934,121.102z M101.638,161.806c0-13.473-10.935-24.408-24.408-24.408
	c-13.485,0-24.408,10.935-24.408,24.408c0,13.485,10.924,24.408,24.408,24.408C90.703,186.214,101.638,175.291,101.638,161.806z"></path>
<path style="fill:#999999;" d="M289.649,468.999c-2.823,4.134-6.016,7.791-9.494,10.912c-10.292,9.244-22.967,13.663-35.391,10.995
	L47.08,448.569c13.342,2.859,26.981-2.454,37.643-13.127c2.609-2.621,5.039-5.551,7.243-8.767L289.649,468.999z"></path>
<path style="fill:#B3B3B3;" d="M395.406,481.197c-2.394,3.8-5.241,7.088-8.386,9.744c-6.945,5.849-15.319,8.589-23.55,6.826
	l-83.302-17.845l-0.012-0.012c5.897-5.301,11.019-12.174,14.855-20.215L395.406,481.197z"></path>
<path d="M453.915,437.449l-48.862-10.47c-5.399-8.84-13.321-14.718-22.683-16.725l-10.789-2.311
	c1.815-1.818,3.605-3.655,5.334-5.527c22.767-24.67,38.928-54.87,46.731-87.329c3.62-15.024,5.455-30.561,5.455-46.191
	c0-47.929-17.431-94.113-49.05-130.007c-1.021-1.172-2.079-2.343-3.135-3.488c-33.336-36.132-78.584-58.375-127.411-62.631
	c-5.171-0.447-19.133-0.727-19.295-0.718c-40.089,0.391-78.542,12.757-111.219,35.775c-0.591,0.416-1.167,0.843-1.752,1.265
	c-11.473-8.66-25.373-13.356-39.937-13.356c-0.275,0-0.555,0.001-0.831,0.005c-17.455,0.213-33.87,7.132-46.217,19.479
	c-12.558,12.545-19.474,29.246-19.474,47.024c0,17.773,6.915,34.476,19.473,47.033l11.128,11.128
	c-3.997,15.771-6.04,32.053-6.04,48.5c0,20.584,3.154,40.79,9.381,60.195c-18.088,8.406-32.687,27.868-37.7,51.324
	c-7.812,36.436,9.343,71.121,38.241,77.318h0.001l0,0l197.678,42.335c2.977,0.64,5.994,0.954,9.024,0.954
	c10.553,0,21.223-3.825,30.594-11.033l79.093,16.943c2.3,0.493,4.617,0.736,6.932,0.736c7.094,0,14.157-2.297,20.609-6.708
	l48.86,10.461c1.775,0.381,3.576,0.568,5.382,0.568c6.749,0,13.56-2.621,19.297-7.543c6.684-5.735,11.479-14.095,13.497-23.533
	c2.026-9.446,1.078-19.038-2.671-27.01C469.482,445.248,462.322,439.247,453.915,437.449z M322.744,397.484
	c3.582-6.906,6.871-14.22,9.847-21.896c9.045,6.134,17.507,13.077,25.297,20.763c-2.448,2.411-4.966,4.763-7.556,7.04
	L322.744,397.484z M81.465,426.261c-15.28-3.75-24.943-19.042-21.628-34.525c1.638-7.641,6.153-14.186,12.713-18.432
	c6.298-4.076,13.756-5.556,21.16-4.206c2.6,9.227,2.845,19.72,0.64,30.033C92.148,409.422,87.627,418.891,81.465,426.261z
	 M73.581,325.557c-0.001,0-0.004-0.001-0.005-0.001c-3.8-0.811-7.649-1.097-11.502-0.885c-4.959-15.142-7.854-30.831-8.639-46.829
	h59.754c0.344,12.835,1.415,25.56,3.225,37.937c0.649,4.444,4.466,7.644,8.828,7.644c0.43,0,0.866-0.031,1.303-0.095
	c4.883-0.714,8.264-5.25,7.549-10.133c-1.683-11.526-2.691-23.38-3.03-35.353h92.229v49.306
	c-11.064,0.498-22.065,1.902-32.811,4.224c-4.823,1.042-7.888,5.795-6.847,10.619c1.042,4.823,5.791,7.888,10.62,6.846
	c9.511-2.055,19.244-3.325,29.038-3.808v12.594L73.581,325.557L73.581,325.557z M241.161,345.047
	c26.605,1.323,52.551,8.532,75.893,21.11c-3.648,9.825-7.83,19.01-12.496,27.434l-1.319-0.282
	c-7.21-13.393-18.657-22.564-31.987-25.414l-30.092-6.445L241.161,345.047L241.161,345.047z M369.978,383.189
	c-9.586-9.398-20.073-17.805-31.357-25.061c2.301-7.545,4.321-15.355,6.013-23.312c1.026-4.827-2.055-9.571-6.879-10.597
	c-4.826-1.026-9.57,2.054-10.597,6.88c-1.29,6.067-2.799,12.019-4.467,17.833c-25.202-13.047-53.033-20.483-81.527-21.772v-49.319
	h92.231c-0.216,7.624-0.697,15.217-1.459,22.665c-0.503,4.909,3.07,9.295,7.978,9.798c0.31,0.032,0.617,0.048,0.92,0.048
	c4.525,0,8.406-3.426,8.877-8.025c0.823-8.047,1.343-16.248,1.564-24.486h59.724c-0.552,11.187-2.122,22.273-4.721,33.065
	C399.912,337.368,387.42,362.17,369.978,383.189z M241.161,90.627c30.556,4.934,58.799,34.974,75.894,81.019
	c-23.343,12.577-49.289,19.786-75.894,21.11V90.627z M241.161,210.644c28.502-1.29,56.343-8.729,81.549-21.783
	c6.334,22.106,9.968,46.349,10.677,71.112h-92.226L241.161,210.644L241.161,210.644z M411.004,259.972h-59.742
	c-0.76-28.009-5.079-55.467-12.646-80.296c11.283-7.256,21.772-15.662,31.365-25.061
	C394.715,184.393,409.079,221.334,411.004,259.972z M357.906,141.438c-7.797,7.689-16.263,14.635-25.308,20.769
	c-9.52-24.546-22.289-45.394-37.273-60.749c-0.067-0.069-0.136-0.132-0.204-0.2C318.472,110.016,339.87,123.634,357.906,141.438z
	 M28.647,162.244c0-13.002,5.056-25.213,14.239-34.387c9.573-9.573,21.997-14.374,34.423-14.374c11.98,0,23.961,4.464,33.383,13.418
	c0.324,0.314,0.661,0.64,0.982,0.959c11.639,11.63,16.581,28.212,13.22,44.356c0,0.001,0,0.002,0,0.002
	c-1.923,9.25-6.495,17.694-13.224,24.425L77.282,231.04l-34.398-34.398C33.705,187.461,28.647,175.244,28.647,162.244z
	 M70.968,249.993c1.676,1.676,3.949,2.617,6.319,2.617c2.371,0,4.641-0.942,6.317-2.618l40.704-40.715
	c9.197-9.197,15.449-20.755,18.082-33.422c3.985-19.148-0.591-38.742-12.272-53.986c12.257-8.532,25.397-15.414,39.158-20.582
	c-8.567,8.766-16.503,19.382-23.609,31.766c-2.456,4.28-0.977,9.741,3.302,12.196c4.281,2.455,9.739,0.977,12.195-3.303
	c17.055-29.725,38.883-47.672,62.128-51.344v102.181c-21.272-1.036-41.9-5.779-61.437-14.142c-4.535-1.941-9.787,0.162-11.729,4.698
	c-1.942,4.536,0.162,9.787,4.697,11.729c21.771,9.319,44.764,14.545,68.469,15.594v49.311h-92.239
	c0.26-9.153,0.915-18.258,1.961-27.167c0.577-4.901-2.929-9.34-7.829-9.916c-4.894-0.574-9.34,2.929-9.916,7.83
	c-1.128,9.595-1.825,19.399-2.089,29.254H53.454c0.407-8.278,1.379-16.489,2.911-24.581L70.968,249.993z M24.495,384.167
	c4.437-20.755,17.951-37.204,33.658-40.939c2.113-0.51,4.226-0.765,6.324-0.765c1.806,0,3.599,0.189,5.369,0.567
	c5.183,1.105,9.905,3.861,13.874,7.937c-7.358,0.733-14.49,3.201-20.879,7.336c-10.565,6.838-17.837,17.381-20.475,29.689
	c-4.388,20.488,5.332,40.77,22.58,50.709c-5.299,2.099-10.746,2.683-15.937,1.57C29.744,436.142,18.748,410.975,24.495,384.167z
	 M274.239,473.703c-8.588,7.714-18.365,10.878-27.551,8.906L84.588,447.893c2.244-1.708,4.421-3.606,6.51-5.698
	c0.001-0.001,0.002-0.002,0.005-0.005c10.103-10.13,17.461-24.094,20.72-39.32c3.262-15.257,2.267-31.011-2.802-44.362
	c-1.052-2.768-2.275-5.382-3.625-7.863l162.117,34.722c9.168,1.961,16.797,8.851,21.483,19.407
	c4.74,10.663,5.819,23.696,3.038,36.693C289.255,454.445,282.935,465.894,274.239,473.703z M381.32,484.547
	c-5.088,4.284-10.745,6.034-15.924,4.923l-68.533-14.681c5.949-8.583,10.314-18.692,12.645-29.582
	c2.331-10.897,2.488-21.904,0.579-32.161l68.539,14.678c5.188,1.113,9.627,5.019,12.503,11.007c3.318,6.889,4.156,15.8,2.306,24.442
	C391.568,471.842,387.152,479.633,381.32,484.547z M458.758,477.182c-1.189,5.559-3.981,10.558-7.661,13.715
	c-1.762,1.512-5.324,3.917-9.297,3.064l-38.365-8.215c3.439-5.611,5.997-11.987,7.468-18.821c1.463-6.829,1.743-13.693,0.901-20.226
	l38.372,8.223c3.976,0.851,6.227,4.499,7.214,6.598C459.453,465.907,459.952,471.615,458.758,477.182z"></path>
<path d="M503.212,1.729c-2.297-1.683-5.256-2.172-7.97-1.315L373.328,38.876L251.426,0.414c-1.749-0.552-3.596-0.538-5.305-0.014
	c-0.024,0.007-0.049,0.006-0.073,0.014l-124.603,39.31c-3.718,1.173-6.246,4.622-6.246,8.521V82.41c0,4.934,3.999,8.934,8.934,8.934
	c4.935,0,8.934-4,8.934-8.934V54.795l106.735-33.674v30.315c0,4.934,3.999,8.934,8.934,8.934c4.935,0,8.934-4,8.934-8.934V21.121
	l106.722,33.672v50.645c0,4.934,3.999,8.934,8.934,8.934c4.935,0,8.934-4,8.934-8.934V54.795l106.734-33.674v261.176L440.286,297.1
	c-4.721,1.434-7.384,6.425-5.95,11.146c1.171,3.856,4.714,6.339,8.545,6.339c0.861,0,1.736-0.125,2.602-0.388l55.045-16.73
	c3.763-1.144,6.336-4.615,6.336-8.548V8.934C506.864,6.088,505.507,3.411,503.212,1.729z"></path>
<path d="M422.248,114.886c1.744,1.744,4.031,2.617,6.317,2.617c2.286,0,4.573-0.872,6.318-2.617l8.001-8.001l8.001,8.001
	c1.744,1.744,4.031,2.617,6.317,2.617c2.286,0,4.573-0.872,6.318-2.617c3.489-3.489,3.489-9.146-0.001-12.635l-8-8.001l8-8.001
	c3.49-3.489,3.49-9.146,0.001-12.635c-3.489-3.488-9.146-3.489-12.634,0l-8.001,8.001l-8.001-8.001
	c-3.489-3.488-9.146-3.489-12.634,0c-3.49,3.489-3.49,9.146-0.001,12.635l8.001,8.001l-8.001,8.001
	C418.759,105.74,418.759,111.397,422.248,114.886z"></path>
<path d="M77.285,195.587c18.385,0,33.341-14.957,33.341-33.342s-14.957-33.342-33.341-33.342s-33.342,14.957-33.342,33.342
	S58.901,195.587,77.285,195.587z M77.285,146.77c8.532,0,15.473,6.941,15.473,15.474s-6.941,15.474-15.473,15.474
	c-8.533,0-15.474-6.941-15.474-15.474C61.811,153.711,68.752,146.77,77.285,146.77z"></path>
<g>
</g>
<g>
</g>
<g>
</g>
<g>
</g>
<g>
</g>
<g>
</g>
<g>
</g>
<g>
</g>
<g>
</g>
<g>
</g>
<g>
</g>
<g>
</g>
<g>
</g>
<g>
</g>
<g>
</g>
</svg>
