<svg xmlns="http://www.w3.org/2000/svg" xmlns:xlink="http://www.w3.org/1999/xlink" version="1.1" id="fi_1483363" x="0px" y="0px" viewBox="0 0 504.506 504.506" style="enable-background:new 0 0 504.506 504.506;" xml:space="preserve" width="512" height="512">
<g>
	<path style="fill:#C27749;" d="M485.562,267.506c-4.143,0-7.5-3.357-7.5-7.5c0-37.22-30.28-67.5-67.5-67.5h-15v-15h15   c45.49,0,82.5,37.01,82.5,82.5C493.062,264.148,489.705,267.506,485.562,267.506z"></path>
	<path style="fill:#4F4F4F;" d="M128.937,292.512H68.943c-31.706,0-57.5-25.794-57.5-57.5s25.794-57.5,57.5-57.5h59.994v15H68.943   c-23.435,0-42.5,19.065-42.5,42.5s19.065,42.5,42.5,42.5h59.994V292.512z"></path>
	<path style="fill:#353535;" d="M188.931,292.512h-59.994v-15h59.994c23.435,0,42.5-19.065,42.5-42.5s-19.065-42.5-42.5-42.5   h-59.994v-15h59.994c31.706,0,57.5,25.794,57.5,57.5S220.637,292.512,188.931,292.512z"></path>
	<path style="fill:#696969;" d="M91.437,285.006v196.592l-24.87,8.29c-3.93,1.31-6.053,5.557-4.744,9.487   c1.31,3.93,5.559,6.054,9.487,4.744l29.998-10c3.063-1.021,5.128-3.887,5.128-7.115V285.006H91.437z"></path>
	<path style="fill:#4F4F4F;" d="M166.437,285.006v196.592l24.87,8.29c3.93,1.31,6.053,5.557,4.744,9.487   c-1.31,3.93-5.559,6.054-9.487,4.744l-29.998-10c-3.063-1.021-5.128-3.887-5.128-7.115V285.006H166.437z"></path>
	<path style="fill:#FFCB63;" d="M395.567,160c8.284,0,15,6.716,15,15v20c0,8.284-6.716,15-15,15c-8.284,0-15-6.716-15-15l-15.005-10   h15l0.005-10C380.567,166.716,387.283,160,395.567,160z"></path>
	<path style="fill:#FFCB63;" d="M275.557,160c-8.284,0-15,6.716-15,15v20c0,8.284,6.716,15,15,15c8.284,0,15-6.716,15-15l15.005-10   h-15l-0.005-10C290.557,166.716,283.842,160,275.557,160z"></path>
	<path style="fill:#FF4128;" d="M395.568,65c-8.284,0-15,6.716-15,15v20c0,8.284,6.716,15,15,15s15-6.716,15-15V80   C410.568,71.715,403.852,65,395.568,65z"></path>
	<path style="fill:#FF6337;" d="M275.568,65c-8.284,0-15,6.716-15,15v20c0,8.284,6.716,15,15,15s15-6.716,15-15V80   C290.568,71.715,283.852,65,275.568,65z"></path>
	<path style="fill:#A8E5FF;" d="M360.562,165l-10,0l-30,60l30,60h30V185C380.562,173.954,371.608,165,360.562,165z"></path>
	<path style="fill:#DBF4FF;" d="M350.562,165h-40c-11.046,0-20,8.954-20,20v100h60V165z"></path>
	<path style="fill:#49C9FF;" d="M335.562,232.5c-12.406,0-22.5-10.093-22.5-22.5v-30h15v30c0,4.136,3.364,7.5,7.5,7.5   s7.5-3.364,7.5-7.5v-30h15v30C358.062,222.407,347.969,232.5,335.562,232.5z"></path>
	<path style="fill:#FF6337;" d="M335.562,202.5c-12.406,0-22.5-10.093-22.5-22.5v-15c0-4.142,3.357-7.5,7.5-7.5s7.5,3.358,7.5,7.5   v15c0,4.136,3.364,7.5,7.5,7.5s7.5-3.364,7.5-7.5v-15c0-4.142,3.357-7.5,7.5-7.5s7.5,3.358,7.5,7.5v15   C358.062,192.407,347.969,202.5,335.562,202.5z"></path>
	<polygon style="fill:#2DADE3;" points="335.558,419.242 419.062,497 449.062,497 442.969,467  "></polygon>
	<polygon style="fill:#FF4128;" points="436.876,437 335.558,404.242 412.969,467 442.969,467  "></polygon>
	<polygon style="fill:#49C9FF;" points="228.155,467 222.062,497 419.062,497 412.969,467 335.558,419.242  "></polygon>
	<polygon style="fill:#FF6337;" points="406.876,437 335.558,404.242 234.247,437 228.155,467 412.969,467  "></polygon>
	<polygon style="fill:#FFCB63;" points="335.558,374.242 406.877,437 436.877,437 430.784,407  "></polygon>
	<path style="fill:#FF1B7C;" d="M409.05,299.99c-3.71-18.289-14.088-34.168-28.487-44.988h-30l-15.005,85.857L400.787,407h29.996   L409.05,299.99z"></path>
	<polygon style="fill:#FFE2A8;" points="400.787,407 406.877,437 234.247,437 240.337,407 335.558,374.242  "></polygon>
	<path style="fill:#FF4996;" d="M379.047,299.99L400.787,407h-160.45l21.73-107.01c3.72-18.29,14.1-34.17,28.5-44.99h60   C364.957,265.82,375.337,281.7,379.047,299.99z"></path>
	<path style="fill:#A45E43;" d="M128.937,45v90c24.853,0,45-20.147,45-45S153.79,45,128.937,45z"></path>
	<path style="fill:#C27749;" d="M143.937,90c0-24.853-6.716-45-15-45c-24.853,0-45,20.147-45,45s20.147,45,45,45   C137.221,135,143.937,114.853,143.937,90z"></path>
	<path style="fill:#353535;" d="M161.5,50l-11.041-34.073C147.647,6.708,139.077,0,128.938,0v50H161.5z"></path>
	<path style="fill:#4F4F4F;" d="M135.396,50l-2.19-34.073C132.648,6.708,130.949,0,128.938,0c-10.14,0-18.71,6.708-21.523,15.927   L96.375,50H135.396z"></path>
	<path style="fill:#4F4F4F;" d="M196.36,35l-30,30h30c16.569,0,30-13.431,30-30H196.36z"></path>
	<path style="fill:#696969;" d="M196.36,35L31.515,35c0,16.569,13.431,30,30,30l104.845,0C182.929,65,196.36,51.569,196.36,35z"></path>
	<path style="fill:#4F4F4F;" d="M113.937,240.012l15,90c24.853,0,45-20.147,45-45L113.937,240.012z"></path>
	<path style="fill:#696969;" d="M83.937,285.012c0,24.853,20.147,45,45,45v-90L83.937,285.012z"></path>
	<polygon style="fill:#FFA754;" points="173.937,284.991 128.937,284.991 113.937,239.991 173.937,239.991  "></polygon>
	<rect x="83.937" y="239.991" style="fill:#FFCB63;" width="45" height="45"></rect>
	<polygon style="fill:#FFF0D3;" points="158.937,165.009 128.937,165 98.937,210 128.937,254.991 158.937,255 173.937,210.004  "></polygon>
	<polygon style="fill:#FFFFFF;" points="128.937,165 98.937,165.009 83.937,210.004 98.937,255 128.937,254.991  "></polygon>
	<path style="fill:#4F4F4F;" d="M88.943,165.012c-11.046,0-20,8.954-20,20l-0.006,133.536h30V165.012L88.943,165.012z"></path>
	<path style="fill:#353535;" d="M168.937,165.012l-10,0v153.536h30V185.012C188.937,173.966,179.983,165.012,168.937,165.012z"></path>
	<path style="fill:#353535;" d="M128.937,202.512c-4.143,0-7.5-3.358-7.5-7.5v-30c0-4.142,3.357-7.5,7.5-7.5   c4.143,0,7.5,3.358,7.5,7.5v30C136.437,199.154,133.08,202.512,128.937,202.512z"></path>
	<path style="fill:#C27749;" d="M335.562,45v90c24.853,0,45-20.147,45-45L335.562,45z"></path>
	<path style="fill:#E18F4E;" d="M335.562,45l-45,45c0,24.853,20.147,45,45,45c8.284,0,15-20.147,15-45S343.847,45,335.562,45z"></path>
	<path style="fill:#60312C;" d="M335.562,45c-24.853,0-45,20.147-45,45C315.415,90,335.562,69.853,335.562,45z"></path>
	<path style="fill:#40211D;" d="M380.562,90c0-24.853-20.147-45-45-45C335.562,69.853,355.71,90,380.562,90z"></path>
</g>















</svg>
