<svg xmlns="http://www.w3.org/2000/svg" version="1.1" xmlns:xlink="http://www.w3.org/1999/xlink" width="512" height="512" x="0" y="0" viewBox="0 0 96 96" style="enable-background:new 0 0 512 512" xml:space="preserve" class=""><g><path fill="#f2d3b8" d="M48 43a7 7 0 0 1 7 7v1H41v-1a7 7 0 0 1 7-7z" opacity="1" data-original="#f2d3b8"></path><path fill="#cba07a" d="M37 51h22v44H37z" opacity="1" data-original="#cba07a"></path><path fill="#e5c2a1" d="M37 72h22v4H37z" opacity="1" data-original="#e5c2a1"></path><path fill="#d9b18c" d="M40 77h18v15H43a3 3 0 0 1-3-3V77z" opacity="1" data-original="#d9b18c" class=""></path><rect width="8" height="11" x="48" y="79" fill="#e5c2a1" rx="1" opacity="1" data-original="#e5c2a1"></rect><path fill="#d9b18c" d="M40 51h19v18H43a3 3 0 0 1-3-3V51z" opacity="1" data-original="#d9b18c" class=""></path><rect width="8" height="14" x="48" y="53" fill="#e5c2a1" rx="1" opacity="1" data-original="#e5c2a1"></rect><path fill="#5c5f7d" d="M43.5 59a2.5 2.5 0 0 1 2.5 2.5V66h-5v-4.5a2.5 2.5 0 0 1 2.5-2.5zM52.5 59a2.5 2.5 0 0 1 2.5 2.5V66h-5v-4.5a2.5 2.5 0 0 1 2.5-2.5zM48 83a4 4 0 0 1 4 4v8h-8v-8a4 4 0 0 1 4-4z" opacity="1" data-original="#5c5f7d" class=""></path><path fill="#6a6e86" d="M49.5 83a2.5 2.5 0 0 1 2.5 2.5V92h-3a2 2 0 0 1-2-2v-4.5a2.5 2.5 0 0 1 2.5-2.5z" opacity="1" data-original="#6a6e86" class=""></path><path fill="#e5c2a1" d="m33 48 2-2 2 2v47h-4zM59 48l2-2 2 2v47h-4zM33 60v35H21V60l6-5z" opacity="1" data-original="#e5c2a1"></path><path fill="#d9b18c" d="M33 64v31H21V64l6-5z" opacity="1" data-original="#d9b18c" class=""></path><path fill="#cba07a" d="M21 72h12v3H21zM21 92h12v3H21z" opacity="1" data-original="#cba07a"></path><path fill="#5c5f7d" d="M27 63a2 2 0 0 1 2 2v10h-4V65a2 2 0 0 1 2-2zM27 83a2 2 0 0 1 2 2v10h-4V85a2 2 0 0 1 2-2z" opacity="1" data-original="#5c5f7d" class=""></path><path fill="#f2d3b8" d="M21 75h12v4H21z" opacity="1" data-original="#f2d3b8"></path><path fill="#e5c2a1" d="M75 60v35H63V60l6-5z" opacity="1" data-original="#e5c2a1"></path><path fill="#d9b18c" d="M75 64v31H63V64l6-5z" opacity="1" data-original="#d9b18c" class=""></path><path fill="#cba07a" d="M63 72h12v3H63zM63 92h12v3H63z" opacity="1" data-original="#cba07a"></path><path fill="#5c5f7d" d="M69 63a2 2 0 0 1 2 2v10h-4V65a2 2 0 0 1 2-2zM69 83a2 2 0 0 1 2 2v10h-4V85a2 2 0 0 1 2-2z" opacity="1" data-original="#5c5f7d" class=""></path><path fill="#f2d3b8" d="M63 75h12v4H63z" opacity="1" data-original="#f2d3b8"></path><path fill="#cba07a" d="M7 32h12v13H7z" opacity="1" data-original="#cba07a"></path><path fill="#5c5f7d" d="M13 39a2 2 0 0 1 2 2v4h-4v-4a2 2 0 0 1 2-2z" opacity="1" data-original="#5c5f7d" class=""></path><path fill="#d9b18c" d="M8 23h10v9H8z" opacity="1" data-original="#d9b18c" class=""></path><path fill="#e5c2a1" d="M10 15h6v8h-6z" opacity="1" data-original="#e5c2a1"></path><path fill="#f2d3b8" d="M13 11a3 3 0 0 1 3 3v1h-6v-1a3 3 0 0 1 3-3z" opacity="1" data-original="#f2d3b8"></path><path fill="#cba07a" d="M5 53h16v16H5z" opacity="1" data-original="#cba07a"></path><path fill="#d9b18c" d="M8 53h13v13h-9a4 4 0 0 1-4-4v-9z" opacity="1" data-original="#d9b18c" class=""></path><rect width="5" height="8" x="13" y="56" fill="#e5c2a1" rx="1" opacity="1" data-original="#e5c2a1"></rect><path fill="#f2d3b8" d="M3 69h18v4H3zM3 49h20v4H3zM5 45h16v4H5z" opacity="1" data-original="#f2d3b8"></path><path fill="#cba07a" d="M5 73h16v22H5z" opacity="1" data-original="#cba07a"></path><path fill="#d9b18c" d="M8 73h13v19h-9a4 4 0 0 1-4-4V73z" opacity="1" data-original="#d9b18c" class=""></path><rect width="5" height="14" x="13" y="76" fill="#e5c2a1" rx="1" opacity="1" data-original="#e5c2a1"></rect><path fill="#cba07a" d="M77 32h12v13H77z" opacity="1" data-original="#cba07a"></path><path fill="#5c5f7d" d="M83 39a2 2 0 0 1 2 2v4h-4v-4a2 2 0 0 1 2-2z" opacity="1" data-original="#5c5f7d" class=""></path><path fill="#d9b18c" d="M78 23h10v9H78z" opacity="1" data-original="#d9b18c" class=""></path><path fill="#e5c2a1" d="M80 15h6v8h-6z" opacity="1" data-original="#e5c2a1"></path><path fill="#f2d3b8" d="M83 11a3 3 0 0 1 3 3v1h-6v-1a3 3 0 0 1 3-3z" opacity="1" data-original="#f2d3b8"></path><path fill="#cba07a" d="M75 53h16v16H75z" opacity="1" data-original="#cba07a"></path><path fill="#d9b18c" d="M78 53h13v13h-9a4 4 0 0 1-4-4v-9z" opacity="1" data-original="#d9b18c" class=""></path><rect width="5" height="8" x="83" y="56" fill="#e5c2a1" rx="1" opacity="1" data-original="#e5c2a1"></rect><path fill="#f2d3b8" d="M75 69h18v4H75zM73 49h20v4H73zM75 45h16v4H75z" opacity="1" data-original="#f2d3b8"></path><path fill="#cba07a" d="M75 73h16v22H75z" opacity="1" data-original="#cba07a"></path><path fill="#d9b18c" d="M78 73h13v19h-9a4 4 0 0 1-4-4V73z" opacity="1" data-original="#d9b18c" class=""></path><rect width="5" height="14" x="83" y="76" fill="#e5c2a1" rx="1" opacity="1" data-original="#e5c2a1"></rect><g fill="#39426a"><path d="M95 94h-3V74h1a1 1 0 0 0 1-1v-3h1a1 1 0 0 0 0-2h-3V54h1a1 1 0 0 0 1-1v-4a1 1 0 0 0-1-1h-1v-3a1 1 0 0 0-1-1h-1V33h1a1 1 0 0 0 0-2h-2v-8a1 1 0 0 0-1-1h-1v-7a.58.58 0 0 0 0-.18.4.4 0 0 0 0-.11l-.68-2.27A3.42 3.42 0 0 0 84 10.15V1a1 1 0 0 0-2 0v9.15a3.42 3.42 0 0 0-2.28 2.29L79 14.71a.4.4 0 0 0 0 .11.58.58 0 0 0 0 .18v7h-1a1 1 0 0 0-1 1v8h-2a1 1 0 0 0 0 2h1v11h-1a1 1 0 0 0-1 1v3h-1a1 1 0 0 0-1 1v4a1 1 0 0 0 1 1h1v3.86l-4-3.33V49a1 1 0 0 0-2 0v5.53l-4 3.33V48a1 1 0 0 0-.29-.71L62 45.59V39a1 1 0 0 0-2 0v6.59l-1.71 1.7A1 1 0 0 0 58 48v2h-2.07a8.57 8.57 0 0 0-5.13-6.89l-1.8-.77V32a1 1 0 0 0-2 0v10.34l-1.8.77A8.57 8.57 0 0 0 40.07 50H38v-2a1 1 0 0 0-.29-.71L36 45.59V39a1 1 0 0 0-2 0v6.59l-1.71 1.7A1 1 0 0 0 32 48v9.86l-4-3.33V49a1 1 0 0 0-2 0v5.53l-4 3.33V54h1a1 1 0 0 0 1-1v-4a1 1 0 0 0-1-1h-1v-3a1 1 0 0 0-1-1h-1V33h1a1 1 0 0 0 0-2h-2v-8a1 1 0 0 0-1-1h-1v-7a.58.58 0 0 0 0-.18.4.4 0 0 0 0-.11l-.68-2.27A3.42 3.42 0 0 0 14 10.15V1a1 1 0 0 0-2 0v9.15a3.42 3.42 0 0 0-2.28 2.29L9 14.71a.4.4 0 0 0 0 .11.58.58 0 0 0 0 .18v7H8a1 1 0 0 0-1 1v8H5a1 1 0 0 0 0 2h1v11H5a1 1 0 0 0-1 1v3H3a1 1 0 0 0-1 1v4a1 1 0 0 0 1 1h1v14H1a1 1 0 0 0 0 2h1v3a1 1 0 0 0 1 1h1v20H1a1 1 0 0 0 0 2h94a1 1 0 0 0 0-2zm-3-22H76v-2h16zm-28 4h10v2H64zm6-2h-2v-9a1 1 0 0 1 2 0zm11.64-61a1.42 1.42 0 0 1 2.72 0l.3 1h-3.32zM81 16h4v6h-4zm-2 8h8v7h-3v-4a1 1 0 0 0-2 0v4h-3zm-1 9h10v11h-2v-3a3 3 0 0 0-6 0v3h-2zm6 11h-2v-3a1 1 0 0 1 2 0zm-8 2h14v2H76zm-2 4h18v2H74zm16 4v14H76V54zm-21 2.3 5 4.17V74h-2v-9a3 3 0 0 0-6 0v9h-2V60.47zM38 73h20v2H38zm8-28 2-.86 2 .86a6.57 6.57 0 0 1 3.91 5H42.08A6.57 6.57 0 0 1 46 45zm-5 7h17v19H38V52zM4 72v-2h16v2zm18 4h10v2H22zm6-2h-2v-9a1 1 0 0 1 2 0zm-1-17.7 5 4.17V74h-2v-9a3 3 0 0 0-6 0v9h-2V60.47zM11.64 13a1.42 1.42 0 0 1 2.72 0l.3 1h-3.32zM11 16h4v6h-4zm-2 8h8v7h-3v-4a1 1 0 0 0-2 0v4H9zm-1 9h10v11h-2v-3a3 3 0 0 0-6 0v3H8zm6 11h-2v-3a1 1 0 0 1 2 0zm-8 2h14v2H6zm-2 4h18v2H4zm2 4h14v14H6zm0 20h14v20H6zm16 6h10v14h-2v-9a3 3 0 0 0-6 0v9h-2zm4 14v-9a1 1 0 0 1 2 0v9zm8-15V48.41l1-1 1 1V94h-2zm4-2h20v17h-5v-7.16A4.84 4.84 0 0 0 48.16 82h-.32A4.84 4.84 0 0 0 43 86.84V94h-5zm7 17v-7.16A2.85 2.85 0 0 1 47.84 84h.32A2.85 2.85 0 0 1 51 86.84V94zm15-18V48.41l1-1 1 1V94h-2zm4 4h10v14h-2v-9a3 3 0 0 0-6 0v9h-2zm4 14v-9a1 1 0 0 1 2 0v9zm8-15v-5h14v20H76z" fill="#000000" opacity="1" data-original="#39426a" class=""></path><path d="M83 60a1 1 0 0 0 1-1v-2a1 1 0 0 0-2 0v2a1 1 0 0 0 1 1zM83 66a1 1 0 0 0 1-1v-2a1 1 0 0 0-2 0v2a1 1 0 0 0 1 1zM83 76a1 1 0 0 0-1 1v2a1 1 0 0 0 2 0v-2a1 1 0 0 0-1-1zM83 82a1 1 0 0 0-1 1v2a1 1 0 0 0 2 0v-2a1 1 0 0 0-1-1zM83 88a1 1 0 0 0-1 1v2a1 1 0 0 0 2 0v-2a1 1 0 0 0-1-1zM13 56a1 1 0 0 0-1 1v2a1 1 0 0 0 2 0v-2a1 1 0 0 0-1-1zM13 62a1 1 0 0 0-1 1v2a1 1 0 0 0 2 0v-2a1 1 0 0 0-1-1zM13 76a1 1 0 0 0-1 1v2a1 1 0 0 0 2 0v-2a1 1 0 0 0-1-1zM13 82a1 1 0 0 0-1 1v2a1 1 0 0 0 2 0v-2a1 1 0 0 0-1-1zM13 88a1 1 0 0 0-1 1v2a1 1 0 0 0 2 0v-2a1 1 0 0 0-1-1zM41 67h5a1 1 0 0 0 1-1v-4.5a3.5 3.5 0 0 0-7 0V66a1 1 0 0 0 1 1zm1-5.5a1.5 1.5 0 0 1 3 0V65h-3zM50 67h5a1 1 0 0 0 1-1v-4.5a3.5 3.5 0 0 0-7 0V66a1 1 0 0 0 1 1zm1-5.5a1.5 1.5 0 0 1 3 0V65h-3z" fill="#000000" opacity="1" data-original="#39426a" class=""></path></g></g></svg>