<svg id="fi_3234960" enable-background="new 0 0 500.538 500.538" height="512" viewBox="0 0 500.538 500.538" width="512" xmlns="http://www.w3.org/2000/svg"><g><g><g><g><g><path d="m483.573 100.946-1.298-25.69-25.58-3.237c-1.957-6.212-4.77-12.029-8.291-17.331l13.653-21.745-19.215-17.241-20.415 15.677c-5.668-2.943-11.782-5.135-18.204-6.442l-5.825-24.937-25.876 1.308-3.279 25.399c-6.258 1.948-12.12 4.745-17.462 8.245l-21.892-13.539-17.379 19.09 15.776 20.257c-2.969 5.629-5.181 11.701-6.502 18.078l-25.123 5.8 1.298 25.69 25.58 3.237c1.957 6.212 4.77 12.029 8.291 17.331l-13.653 21.745 19.215 17.241 20.415-15.677c5.668 2.943 11.782 5.135 18.204 6.442l5.823 24.939 25.876-1.308 3.279-25.399c6.258-1.948 12.12-4.745 17.462-8.245l21.892 13.539 17.379-19.09-15.776-20.257c2.969-5.629 5.181-11.701 6.502-18.078zm-91.654 27.522c-19.847 1.003-36.743-14.157-37.738-33.86-.996-19.703 14.286-36.489 34.132-37.492s36.742 14.157 37.738 33.86-14.286 36.489-34.132 37.492z" fill="#7974e3"></path></g><g><g><path d="m182.624 279.524 162.198 71.115 72.22-164.718-29.814-76.538-109.045-47.81z" fill="#f0f0ff"></path><g><path d="m377.042 185.921-65.77 150.008 33.55 14.71 72.22-164.718-18.748-48.13z" fill="#e8e8ff"></path></g><path d="m387.228 109.383-23.421 53.024 53.235 23.514z" fill="#cfcfff"></path></g></g></g><g><g><path d="m336.485 261.885h128.196v127.787h-128.196z" fill="#96e1ff"></path><path d="m496.204 356.155-31.524 33.518v-127.788l31.524-33.518z" fill="#fdf486"></path><path d="m464.68 261.885h-128.195l31.523-33.518h128.196z" fill="#fd6dc3"></path></g></g><path d="m383.381 478.491 14.813-14.827-12.026-17.226c2.684-4.578 4.661-9.458 5.94-14.483l20.602-3.636-.086-21.035-20.632-3.767c-1.32-5.034-3.337-9.926-6.058-14.521l11.886-17.15-14.934-14.921-17.14 11.902c-4.598-2.717-9.492-4.73-14.527-6.045l-3.785-20.629-21.035-.067-3.617 20.605c-5.024 1.283-9.902 3.265-14.478 5.953l-17.237-12.011-14.813 14.827 12.026 17.226c-2.684 4.578-4.661 9.458-5.94 14.483l-20.602 3.636.086 21.035 20.632 3.767c1.32 5.034 3.337 9.926 6.058 14.521l-11.886 17.15 14.935 14.921 17.14-11.902c4.598 2.717 9.492 4.73 14.527 6.045l3.785 20.629 21.035.067 3.617-20.605c5.024-1.283 9.902-3.265 14.478-5.953zm-64.769-42.3c-10.396-10.386-10.464-27.172-.153-37.493 10.311-10.32 27.097-10.267 37.493.119 10.395 10.386 10.464 27.172.153 37.493-10.312 10.32-27.098 10.267-37.493-.119z" fill="#7974e3"></path></g><g fill="#fdf05b"><path d="m101.808 78.825c1.919 0 3.838-.732 5.303-2.196 2.929-2.929 2.93-7.678.001-10.606l-25.574-25.579c-2.929-2.93-7.678-2.929-10.606-.001-2.929 2.929-2.93 7.678-.001 10.606l25.574 25.578c1.463 1.466 3.383 2.198 5.303 2.198z"></path><path d="m48.001 196.985h-36.167c-4.142 0-7.5 3.357-7.5 7.5s3.358 7.5 7.5 7.5h36.167c4.142 0 7.5-3.357 7.5-7.5s-3.358-7.5-7.5-7.5z"></path><path d="m109.398 331.394c-2.929-2.928-7.678-2.929-10.606.001l-25.573 25.578c-2.929 2.929-2.928 7.678.001 10.606 1.464 1.464 3.384 2.196 5.303 2.196s3.839-.732 5.304-2.197l25.572-25.578c2.929-2.929 2.928-7.678-.001-10.606z"></path></g><g><path d="m233.286 50.257c-1.225 0-2.452.01-3.683.04-81.725 1.934-148.013 69.471-148.785 151.521-.556 59.015 32.178 110.395 80.492 136.414v25.715c0 10.5 8.48 19.012 18.941 19.012h53.035z" fill="#fdf486"></path><path d="m233.286 382.958h-53.035v41.938c0 18.838 15.271 34.109 34.109 34.109h18.926z" fill="#cfcfff"></path></g></g><path d="m233.996 500.538c-4.142 0-7.5-3.357-7.5-7.5v-482.976c0-4.143 3.358-7.5 7.5-7.5s7.5 3.357 7.5 7.5v482.976c0 4.143-3.358 7.5-7.5 7.5z" fill="#ffd600"></path><g><path d="m392.108 431.954 20.602-3.636-.086-21.035-20.632-3.767c-1.32-5.034-3.337-9.926-6.058-14.521l11.886-17.15-14.935-14.921-17.14 11.901c-4.42-2.612-9.115-4.566-13.945-5.882 16.414 13.386 26.902 33.763 26.902 56.595 0 19.77-7.872 37.691-20.635 50.837 2.77-1.073 5.473-2.366 8.076-3.895l17.237 12.011 14.813-14.827-12.026-17.226c2.685-4.579 4.663-9.458 5.941-14.484z" fill="#6b64e8"></path></g></g></svg>
