<svg height="512" viewBox="0 0 64 64" width="512" xmlns="http://www.w3.org/2000/svg"><g id="Fill_Outline" data-name="Fill Outline"><g id="Color"><path d="m9 19h6v14h-6z" fill="#48cae4"/><path d="m9 19h6v5h-6z" fill="#ffea00"/><path d="m15 27v6h-6v-14h3v5a3 3 0 0 0 3 3z" fill="#00b4d8"/><path d="m19 10h6v16h-6z" fill="#48cae4"/><path d="m19 10h6v4h-6z" fill="#ffea00"/><path d="m25 19v7h-6v-16h3v6a3 3 0 0 0 3 3z" fill="#00b4d8"/><path d="m19 10h3v4h-3z" fill="#ffd000"/><path d="m29 13h6v14h-6z" fill="#48cae4"/><path d="m29 13h6v5h-6z" fill="#ffea00"/><path d="m35 23v4h-6v-14h3v7a3 3 0 0 0 3 3z" fill="#00b4d8"/><path d="m45 3h-6v20l6-3z" fill="#48cae4"/><path d="m39 3h6v4h-6z" fill="#ffea00"/><path d="m45 14v6l-6 3v-20h3v8a3 3 0 0 0 3 3z" fill="#00b4d8"/><path d="m59 5h-8l2.586 2.586-20.086 20.085-7.29-7.29-19.381 13.997 2.342 3.244 16.619-12.003 7.71 7.71 22.914-22.915 2.586 2.586z" fill="#ef5350"/><path d="m59 5v8l-2.59-2.59-22.91 22.92-7.71-7.71-16.62 12-2.34-3.24 1.42-1.03.2.27a1.233 1.233 0 0 0 1.72.28l13.55-9.79a3 3 0 0 1 3.88.32l3.79 3.78a2.988 2.988 0 0 0 4.23.01l23.35-23.22z" fill="#e53935"/><circle cx="8" cy="8" fill="#48cae4" r="5"/><path d="m49 57h4v4h-4z" fill="#ade8f4"/><path d="m53 57h4v4h-4z" fill="#48cae4"/><path d="m57 57h4v4h-4z" fill="#00b4d8"/><path d="m44.416 37.455-9.7 12.351-9-4 14.789-12.183a2.732 2.732 0 0 1 3.922.47l.027.036a2.731 2.731 0 0 1 -.038 3.326z" fill="#ffa200"/><path d="m51.416 36.649-9.704 12.351-12-1 17.788-15.12a2.731 2.731 0 0 1 3.954.443 2.731 2.731 0 0 1 -.038 3.326z" fill="#ffd000"/><path d="m52 34.96a2.706 2.706 0 0 1 -.58 1.69l-9.71 12.35-12-1 9.53-8.1.44.17a3.985 3.985 0 0 0 4.17-.75l7.13-6.48a2.383 2.383 0 0 1 .47.48 2.721 2.721 0 0 1 .55 1.64z" fill="#ffa200"/><path d="m60.416 34.649-9.704 12.351-12-1 17.788-15.12a2.731 2.731 0 0 1 3.954.443 2.731 2.731 0 0 1 -.038 3.326z" fill="#ffea00"/><path d="m61 32.96a2.706 2.706 0 0 1 -.58 1.69l-9.71 12.35-12-1 3.94-3.35h.01a10.009 10.009 0 0 0 6.66-2.47l10.69-9.32a2.411 2.411 0 0 1 .44.46 2.721 2.721 0 0 1 .55 1.64z" fill="#ffd000"/><path d="m60.022 36.824a2.688 2.688 0 0 0 -3.511.01l-9.799 8.166h-10.5a2.5 2.5 0 0 0 2.488-2.758 2.6 2.6 0 0 0 -2.631-2.242h-6.721a16.77 16.77 0 0 0 -8.148 1.859l-2.095 1.109a34.79 34.79 0 0 0 -16.105 18.032h19.712l.475-1.189a7 7 0 0 1 5.595-4.342l14.545-1.9a13 13 0 0 0 7.511-3.7l9.277-9.269a2.607 2.607 0 0 0 -.093-3.776z" fill="#ffea00"/><path d="m60.11 40.6-9.27 9.27a13 13 0 0 1 -7.51 3.7l-14.55 1.9a7.005 7.005 0 0 0 -5.59 4.34l-.48 1.19h-19.71a34.584 34.584 0 0 1 9.31-13.31 13.969 13.969 0 0 0 11.69 6.31h.26a6.968 6.968 0 0 1 3.52-1.53l14.55-1.9a13 13 0 0 0 7.51-3.7l9.27-9.27a2.649 2.649 0 0 0 .63-1 3.013 3.013 0 0 1 .28.22 2.6 2.6 0 0 1 .09 3.78z" fill="#ffd000"/><path d="m36.97 40.12a2.34 2.34 0 0 1 .03.38 2.492 2.492 0 0 1 -2.5 2.5h-4.79v.029a2 2 0 0 0 -1.71 1.971h8.21a2.5 2.5 0 0 0 .76-4.88z" fill="#ffd000"/><circle cx="11" cy="38" fill="#ffea00" r="9"/><path d="m19.2 41.7a9 9 0 1 1 -11.9-11.9 8.992 8.992 0 0 0 11.9 11.9z" fill="#ffd000"/><circle cx="11" cy="38" fill="#ffd000" r="7"/><path d="m11 31a7 7 0 1 0 7 7 6.995 6.995 0 0 0 -7-7zm4.53 11.5h-.03a9 9 0 0 1 -9-9v-.03a6.982 6.982 0 0 1 9.03 9.03z" fill="#ffb700"/><path d="m12.88 9.09a5 5 0 1 1 -7.76-5.18 4.921 4.921 0 0 0 -.12 1.09 5 5 0 0 0 7.88 4.09z" fill="#00b4d8"/><path d="m13 8a5.016 5.016 0 0 1 -3.03 4.6l-1.97-4.6 4.85-1.21a4.833 4.833 0 0 1 .15 1.21z" fill="#ffea00"/><g fill="#ffd000"><path d="m12.88 9.09a5.017 5.017 0 0 1 -2.91 3.51l-1.18-2.75a4.833 4.833 0 0 0 1.21.15 5.029 5.029 0 0 0 2.88-.91z"/><path d="m39 3h3v4h-3z"/><path d="m29 13h3v5h-3z"/><path d="m9 19h3v5h-3z"/></g></g><g id="Outline_copy" fill="#323232" data-name="Outline copy"><path d="m55.853 30.119-3.41 2.9c-.06-.1-.119-.2-.189-.294a3.731 3.731 0 0 0 -5.4-.6l-1.624 1.375a3.73 3.73 0 0 0 -5.357-.642l-7.473 6.142h-3.052a18.975 18.975 0 0 0 -6.469 1.027 1 1 0 1 0 .674 1.884 17 17 0 0 1 5.795-.911h6.721a1.6 1.6 0 0 1 1.631 1.342 1.5 1.5 0 0 1 -1.488 1.658h-8.5a1 1 0 0 0 0 2h19a1 1 0 0 0 .641-.232l9.8-8.165a1.7 1.7 0 0 1 2.2-.042 1.608 1.608 0 0 1 .531 1.159 1.587 1.587 0 0 1 -.47 1.17l-4.344 4.344a1 1 0 1 0 1.415 1.414l4.343-4.343a3.6 3.6 0 0 0 -.124-5.218c-.027-.025-.059-.042-.087-.066l.592-.754a3.73 3.73 0 0 0 -5.349-5.148zm-7.706 3.523a1.732 1.732 0 0 1 2.506.28 1.638 1.638 0 0 1 .228.422l-11.359 9.656h-.149a3.516 3.516 0 0 0 .321-1.858 3.249 3.249 0 0 0 -.3-1.055zm-12.078 5.358h-.52l5.593-4.6a1.725 1.725 0 0 1 1.3-.383 1.746 1.746 0 0 1 1.206.716c.017.022.021.055.037.078l-5.625 4.781a3.726 3.726 0 0 0 -1.991-.592zm23.584-7.078a1.735 1.735 0 0 1 -.023 2.109l-.93 1.179a3.792 3.792 0 0 0 -2.834.856l-9.516 7.934h-3.741l14.538-12.358a1.732 1.732 0 0 1 2.506.28z"/><path d="m53.648 48.477a1 1 0 1 0 -1.414-1.414l-2.1 2.1a12.058 12.058 0 0 1 -6.934 3.417l-14.546 1.9a8.007 8.007 0 0 0 -6.393 4.961l-.476 1.19a1 1 0 0 0 1.858.742l.475-1.189a6 6 0 0 1 4.794-3.721l14.546-1.9a14.066 14.066 0 0 0 8.089-3.982z"/><path d="m25.686 26.928 7.107 7.108a1 1 0 0 0 1.414 0l9.5-9.5a1 1 0 0 0 -1.414-1.414l-8.793 8.793-7-7a1 1 0 0 0 -1.293-.1l-7.731 5.584a10.049 10.049 0 0 0 -1.751-1.2l10.383-7.5 6.688 6.688a1 1 0 0 0 1.414 0l20.083-20.094a1 1 0 0 0 0-1.414l-.879-.879h4.586v4.586l-.879-.879a1 1 0 0 0 -1.414 0l-10.586 10.586a1 1 0 0 0 1.414 1.414l9.879-9.879 1.879 1.879a1 1 0 0 0 1.707-.707v-8a1 1 0 0 0 -1-1h-8a1 1 0 0 0 -.707 1.707l1.879 1.879-6.172 6.172v-10.758a1 1 0 0 0 -1-1h-6a1 1 0 0 0 -1 1v7a1 1 0 0 0 2 0v-2h4v7.758l-4 4v-5.758a1 1 0 0 0 -2 0v7.757l-2 2v-10.757a1 1 0 0 0 -1-1h-6a1 1 0 0 0 -1 1v7.757l-1.083-1.083a1 1 0 0 0 -.917-.262v-9.412a1 1 0 0 0 -1-1h-6a1 1 0 0 0 -1 1v8a1 1 0 0 0 2 0v-3h4v5.744l-4 2.888v-1.632a1 1 0 0 0 -2 0v3.077l-2 1.444v-7.521a1 1 0 0 0 -1-1h-6a1 1 0 0 0 -1 1v9.479a10.028 10.028 0 0 0 -2.318 1.062 1 1 0 1 0 1.066 1.692 8.019 8.019 0 1 1 -2.516 2.516 1 1 0 1 0 -1.691-1.067 9.977 9.977 0 0 0 8 15.295 35.822 35.822 0 0 0 -8.472 12.658 1 1 0 1 0 1.862.73 33.851 33.851 0 0 1 10.034-13.775c.019-.016.027-.038.044-.055a9.978 9.978 0 0 0 4.86-15.684zm14.314-20.928v-2h4v2zm-10 8h4v3h-4zm0 5h4v6.757l-.5.5-3.5-3.5zm-10-6v-2h4v2zm-10 7h4v3h-4zm0 8.071v-3.071h4v2.966l-.465.335c-.011.009-.016.021-.027.03a9.935 9.935 0 0 0 -2.508-.331 9.8 9.8 0 0 0 -1 .071z"/><path d="m45.707 29.707 11-11a1 1 0 0 0 -1.414-1.414l-11 11a1 1 0 1 0 1.414 1.414z"/><path d="m22.555 33.832 2.318-1.545 3.42 3.42a1 1 0 0 0 1.414-1.414l-4-4a1 1 0 0 0 -1.262-.125l-3 2a1 1 0 0 0 1.11 1.664z"/><path d="m8 14a6 6 0 1 0 -6-6 6.006 6.006 0 0 0 6 6zm1.382-5.314 2.618-.652a3.981 3.981 0 0 1 -1.561 3.116zm-1.382-4.686a3.985 3.985 0 0 1 3.5 2.1l-3.742.93a1 1 0 0 0 -.677 1.364l1.519 3.545a3.947 3.947 0 0 1 -.6.061 4 4 0 0 1 0-8z"/><path d="m61 56h-12a1 1 0 0 0 -1 1v4a1 1 0 0 0 1 1h12a1 1 0 0 0 1-1v-4a1 1 0 0 0 -1-1zm-11 2h2v2h-2zm4 0h2v2h-2zm6 2h-2v-2h2z"/><path d="m11 41a1 1 0 0 1 -1-1 1 1 0 0 0 -2 0 3 3 0 0 0 2 2.816v1.184a1 1 0 0 0 2 0v-1.184a2.993 2.993 0 0 0 -1-5.816 1 1 0 1 1 1-1 1 1 0 0 0 2 0 3 3 0 0 0 -2-2.816v-1.184a1 1 0 0 0 -2 0v1.184a2.993 2.993 0 0 0 1 5.816 1 1 0 0 1 0 2z"/></g></g></svg>