<svg id="fi_9306520" enable-background="new 0 0 511.747 511.747" height="512" viewBox="0 0 511.747 511.747" width="512" xmlns="http://www.w3.org/2000/svg"><g><g><path d="m255.873 219.119c-4.266 0-7.723-3.457-7.723-7.723v-164.763c0-4.266 3.457-7.723 7.723-7.723s7.723 3.457 7.723 7.723v164.763c.001 4.266-3.457 7.723-7.723 7.723z" fill="#00d8a2"></path></g><path d="m349.968 490.014 5.974-3.54 10.972-7.607 23.129-18.816 34.906-42.75 21.991-37.726 2.844-41.139 11.185-58.201-20.854-57.253-34.693-50.238-15.166-29.764 7.394-20.001-24.835-4.266-38.864-5.119-8.911 7.32 26.232 69.148c.959 2.529 4.321 3.027 5.972.884l9.099-11.807c1.264-1.64 3.672-1.804 5.16-.365 26.867 25.976 44.014 59.983 48.9 97.692 11.753 90.724-52.494 174.095-143.217 185.848-43.951 5.691-87.483-6.069-122.585-33.119s-57.569-66.151-63.262-110.099c-8.736-67.437 25.51-134.586 85.216-167.093l2.781-1.514c10.11-5.504 13.844-18.163 8.34-28.273l-3.028-5.562c-5.504-10.111-18.163-13.844-28.274-8.34l-2.781 1.514c-37.486 20.408-67.76 51.277-87.548 89.268-20.262 38.901-27.984 82.529-22.33 126.169 7.341 56.669 36.312 107.087 81.573 141.967 37.806 29.134 83.192 44.513 130.144 44.513 9.26 0 18.588-.599 27.922-1.808 23.503-3.043 45.924-9.819 66.614-19.923z" fill="#6ce79a"></path><g><path d="m468.025 270.299c-3.779-29.174-13.263-56.693-28.187-81.793-10.752-18.084-23.961-34.292-39.388-48.401-1.332-1.218-1.526-3.245-.424-4.675l12.419-16.115c1.649-2.14.317-5.26-2.369-5.549l-80.63-8.672c-4.969-.534-8.753 4.364-6.98 9.037l2.574 6.785 61.069 6.568c2.686.289 4.018 3.409 2.369 5.549l-12.419 16.115c-1.102 1.43-.908 3.456.424 4.675 15.427 14.109 28.636 30.317 39.388 48.401 14.924 25.1 24.407 52.619 28.187 81.793 7.341 56.669-7.825 112.805-42.705 158.067-14.623 18.976-31.985 35.075-51.386 47.93 29.197-14.259 54.939-35.158 75.353-61.648 34.881-45.262 50.046-101.398 42.705-158.067z" fill="#00d8a2"></path></g><path d="m244.402 400.165 5.06-.109 12.162-1.322 20.094-4.539 24.412-18.684 31.653-24.456 12.633-47.327s-3.872-38.842-3.642-40.231c-1.196-2.447-17.245-42.525-17.245-42.525l-40.717-27.761-21.107-6.389-16.833-1.391h-6.47c-54.238 5.729-96.502 51.61-96.502 107.367s42.264 101.639 96.502 107.367z" fill="#ffe270"></path><path d="m255.874 184.824c-3.875 0-7.702.209-11.472.607 54.238 5.729 96.502 51.61 96.502 107.367s-42.264 101.638-96.502 107.367c3.77.398 7.596.607 11.472.607 59.632 0 107.974-48.341 107.974-107.974s-48.342-107.974-107.974-107.974z" fill="#ffd250"></path><path d="m243.878 364.032 7.206-.129s14.935-2.381 15.064-2.381 22.221-9.725 22.221-9.725l20.086-27.127 9.119-32.474-7.619-32.474-22.164-25.785-25.396-10.389-9.523-1.982h-8.995c-34.187 5.716-60.247 35.423-60.247 71.233 0 35.809 26.061 65.516 60.248 71.233z" fill="#ffab56"></path><path d="m255.874 220.555c-4.089 0-8.092.357-11.996 1.01 34.186 5.716 60.247 35.423 60.247 71.233s-26.061 65.517-60.247 71.233c3.904.653 7.907 1.01 11.996 1.01 39.899 0 72.243-32.344 72.243-72.243s-32.344-72.243-72.243-72.243z" fill="#ff982a"></path><path d="m265.086 285.147c-5.898-2.085-12.411-4.595-15.992-7.405-.835-.655-1.184-2.353-.849-4.13.178-.942 1.003-4.092 4.157-5.042 8.249-2.486 15.375-.066 15.647.027 3.971 1.471 8.398-.53 9.905-4.5 1.513-3.988-.492-8.448-4.479-9.962-.692-.263-4.59-1.649-10.286-2.042v-.537c0-4.266-3.457-7.723-7.723-7.723s-7.723 3.457-7.723 7.723v2.292c-7.537 2.356-13.153 8.811-14.677 16.903-1.423 7.55 1.066 14.885 6.494 19.144 5.325 4.176 12.941 7.185 20.377 9.814 5.681 2.008 5.85 6.352 5.444 8.762-.682 4.052-4.091 8.431-9.967 8.47-6.201.039-7.99-.239-12.677-3.305-3.57-2.334-8.356-1.335-10.691 2.236-2.335 3.569-1.334 8.356 2.236 10.691 5.117 3.348 8.97 4.834 13.46 5.445v2.029c0 4.266 3.457 7.723 7.723 7.723s7.723-3.457 7.723-7.723v-2.837c9.757-3.078 15.998-11.68 17.425-20.169 1.938-11.513-4.303-21.917-15.527-25.884z" fill="#ffe270"></path><path d="m285.463 48.553c.51-.51 19.216-17.856 19.216-17.856v-22.277l-4.612-8.42h-7.52c-24.961 0-45.196 20.235-45.196 45.196v7.067l10.394 5.983s27.208-9.183 27.718-9.693z" fill="#6ce79a"></path><path d="m308.451 0h-8.384v7.067c0 24.961-20.235 45.196-45.196 45.196h-7.52v8.838c0 3.384 2.743 6.127 6.127 6.127h15.905c24.961 0 45.196-20.235 45.196-45.196v-15.905c-.001-3.384-2.744-6.127-6.128-6.127z" fill="#00d8a2"></path><path d="m225.483 89.252c-.51-.51-19.216-17.856-19.216-17.856v-22.276l4.613-8.42h7.52c24.961 0 45.196 20.235 45.196 45.196v7.067l-10.394 5.983s-27.208-9.183-27.719-9.694z" fill="#6ce79a"></path><path d="m202.496 40.7h8.384v7.067c0 24.961 20.235 45.196 45.196 45.196h7.52v8.838c0 3.384-2.743 6.127-6.127 6.127h-15.905c-24.961 0-45.196-20.235-45.196-45.196v-15.906c.001-3.383 2.744-6.126 6.128-6.126z" fill="#00d8a2"></path></g></svg>
