<svg id="icons" height="512" viewBox="0 0 340 340" width="512" xmlns="http://www.w3.org/2000/svg"><path d="m90.866 71.723s-7.122-3-7.506-13.585a15.1 15.1 0 0 0 -1.76-6.656c-.114-.21-.235-.421-.363-.631-5.41-8.861-19.154-5.1-19.591 5.267-.007.148-.011.3-.014.449 0 0-9.816-13.366-25.27-5.43 0 0-10.442 5-7.1 18.165 0 0-14.41 1.257-13.575 17.129 0 0 .627 9.815 9.607 14.41 0 0-4.758 1.794-8.695 7.907a29.939 29.939 0 0 0 7.018 39.939c6.957 5.234 17.81 8.892 34.673 6.66h11.066z" fill="#f75e5e"/><path d="m55.452 83.977s-20.12 14.135-39.8.886c-.005.507 0 1.027.03 1.568 0 0 .627 9.815 9.607 14.41 0 0-4.758 1.794-8.695 7.907a29.939 29.939 0 0 0 7.018 39.939c6.957 5.234 17.81 8.892 34.673 6.66h11.071l14.134-54.947c-13.279-8.269-28.038-16.423-28.038-16.423z" fill="#c44444"/><path d="m90.272 142.091s33.146 0 44.187 33.142l-19.359 8.859z" fill="#94a6c1"/><path d="m321.579 18.7a1.141 1.141 0 0 0 -1.666-1.541l-2.808 2.465-83.233 80.118-52.986 38.145c-17.9 13.5-50.748 36.825-75.326 45.913l32.685 93.187s52.026-80.346 79.482-119.625z" fill="#94a6c1"/><path d="m219.753 268.192s20.981 8.533 33.268 33.616a9.3 9.3 0 0 0 6.329 4.959c8.5 1.906 26.174 3.532 31.5-13.939a14.207 14.207 0 0 0 .417-6.288c-1.07-7.02-4.359-25.383-11.275-39.906l-4.623-44.544-57.3-50.09-109.554 131.334s6.989 42.224 60.57 43.68c0 0 16.889-6.7 36.4-40.477-.001 0 5.823-10.774 14.268-18.345z" fill="#ffb4a7"/><path d="m190.305 308.648c-9.688 4.972-21.739 7.743-31.589-.685-18.035-15.432-8.353-37.684-8.353-37.684 5.765 5.591 14.2 9.3 20.842 11.539a5.873 5.873 0 0 0 7.613-6.65c-2.81-16.328 2-34.078 2-34.078 1.778 2.008 6.021 3.049 6.021 3.049 13.137-6.358 20.944-20.922 20.944-20.922a27.508 27.508 0 0 0 4.58 8.95 5.5 5.5 0 0 0 7.088 1.527c3.269-1.858 8.3-3.247 12.6 1.868 4.095 4.869 2.207 8.452-.384 10.713a6.075 6.075 0 0 0 -.639 8.3l15.448 19.7-4.221 11.271a74.987 74.987 0 0 1 6.185 8.215 49.217 49.217 0 0 0 6.691-12.572c2.595 2.133 8.433 3.278 11.18 2.088 5.132-2.226 11.326-5.547 17.445-4.855 1.943.219 4.807.3 5.95-.63-.457-2.059-9.21-30.087-9.719-31.157l-4.168-40.165-32.846 1.538.171-.161-.883-17.359s-8.336-14.613-9.807-3.335c-.9 6.931 1.333 4.642-1.184 7.672.151-6.241-2.739-13.485-7.992-22.425-.523-.889-5.923-2.4-5.292 4.621.31 3.452.726 8.215-.691 12.416-2.558 7.578-3.6 9.371-.379 17.139-12.006 3.595-13.3-7.383-13.3-7.383l-12.589-11.078-2.3-.95-80.198 96.245s3.836 39.159 62.517 45.37c0 0 11.622-10.01 19.259-20.132z" fill="#e07d73"/><path d="m287.566 263.662-3.666-11.462a56.86 56.86 0 0 1 -2.536-12.936l-2.685-34.592-25.4-16.559c-13.07 5.766-26.838 17.291-34.292 24.058a9.1 9.1 0 0 0 -1.4 11.858c.348.514.722 1.059 1.118 1.63a15.766 15.766 0 0 1 20.257-.173 15.469 15.469 0 0 1 6.256 12.064 15.114 15.114 0 0 1 -6.453 12.915c5.175 6.121 10.965 12.437 18.119 20.045a8.731 8.731 0 0 0 10.8 2 40.667 40.667 0 0 1 15.9-3.974c2.73-.098 4.816-2.257 3.982-4.874z" fill="#ecf7ff"/><path d="m278.678 204.673-25.4-16.559c-8.748 3.86-21.883 13.677-29.154 19.543 1.026 3.977 18.7 22.817 42.964 23.629a3.074 3.074 0 0 0 2.581-4.864 34.023 34.023 0 0 1 -4.046-7.191s3.067 2.277 14.133 2.721z" fill="#94a6c1"/><path d="m104.836 295.4s36.885-3.611 44.107-45.654c0 0 .774 12.9 18.571 18.571 0 0-1.805-11.607 1.29-19.6s9.285-27.857 9.285-27.857a26.1 26.1 0 0 0 8.77 11.865c11.568-7.552 18.286-16.07 16.766-33.531 0 0-2.579-22.183 13.155-33.274 0 0 13.275 8.187 14.62 30.5a23.025 23.025 0 0 0 11.353 18.7 40.619 40.619 0 0 0 14.78 4.7s-5.2-7.138-3.353-20.892c0 0 13.671 25.535 42.3 8a37.744 37.744 0 0 1 -17.28-25.276c-3.354-17.8-13.288-41.9-44.831-34.779 0 0-31.26-17.324-48.8 21.882 0 0-18.571.258-21.924 21.925 0 0-19.6.774-27.083 23.472 0 0-51.329 21.924-31.726 81.248z" fill="#80919b"/><path d="m78.159 143.462s-31.465 0-37.582 24l37.582 44.827 40.731 21.631s16.351-53.561-23.963-84.934z" fill="#ecf7ff"/><path d="m93.108 156.015s20.382 10.021 25.247 26.588l-5.443-28.363-20.76-8.763z" fill="#94a6c1"/><path d="m85.435 178.69c-11.8-15.113-34.882-17-34.882-17l7.465 26.566 18.2 21.713a81.194 81.194 0 0 0 10.688-20.1 11.681 11.681 0 0 0 -1.471-11.179z" fill="#94a6c1"/><path d="m209.359 173.67a50.7 50.7 0 0 0 -13.359 29.566s-.436 5.9-6.733 13.214a44.584 44.584 0 0 1 -6.889-17.889 52.058 52.058 0 0 0 -14.745 24.785 228.674 228.674 0 0 1 -9.526 27.715s-5.05-6.107-6.442-19.451c0 0-19.623 36.954-39.3 38.9a16.426 16.426 0 0 0 -11.6 6.506 87.684 87.684 0 0 0 4.068 18.384s36.885-3.611 44.107-45.654c0 0 .774 12.9 18.571 18.571 0 0-1.805-11.607 1.29-19.6s9.285-27.857 9.285-27.857a26.1 26.1 0 0 0 8.77 11.865c11.568-7.552 18.286-16.07 16.766-33.531 0 0-1.638-14.168 5.735-25.521z" fill="#525c68"/><path d="m67.477 129.975-1.4 20.04s4.049 9.514 29.149 13.562v-29.554z" fill="#94a6c1"/><path d="m105.56 77.853s-5.542-7.548-18.656-8.461a35.485 35.485 0 0 0 -27.968 10.4c-5.367 5.529-10.3 14.087-10.324 26.883a31.345 31.345 0 0 0 12.388 25.438c5.851 4.3 14.56 6.347 27.186 5.693 33.67-1.741 27.589-39.054 27.589-39.054z" fill="#ecf7ff"/><path d="m30.5 180.258s-9.55 13.442-4.679 34.879l45.742-10.721 1.413-15.727z" fill="#94a6c1"/><path d="m26.175 190.225c6.149 4.871 18.555 12.045 39.054 13l6.381.676 1.366-15.21-42.476-8.433a34.963 34.963 0 0 0 -4.325 9.967z" fill="#94a6c1"/><path d="m27.3 176.519c1.875-5.886 5.8-14.17 13.652-18.4a12.426 12.426 0 0 1 10.048-.744 66.624 66.624 0 0 1 16.486 8.595s8.726 8.476 12.29 14.288a5.965 5.965 0 0 1 .462 5.958l-2.774 6.935a7.058 7.058 0 0 1 -7.952 4.546c-6.583-.941-28.2-6.586-28.2-6.586a91.331 91.331 0 0 1 -9.866-4.523 8.51 8.51 0 0 1 -4.146-10.069z" fill="#ecf7ff"/><path d="m78.357 193.6 2.733-7.036a7.728 7.728 0 0 0 -.587-6.831 48.41 48.41 0 0 0 -13.016-13.763c.219.2 7.56 7.115-.01 19.061-7.052 11.127-24.9 6.418-26.164 6.069a132.9 132.9 0 0 0 28.7 7.38 7.769 7.769 0 0 0 8.344-4.88z" fill="#94a6c1"/><path d="m128.534 211.062s-29.847-2.891-55.558-22.373c-25.712 19.482-55.558 22.373-55.558 22.373s-1.744 25.113 5.232 65.925 50.326 52.313 50.326 52.313 43.35-11.506 50.326-52.317 5.232-65.921 5.232-65.921z" fill="#ecf7ff"/><path d="m127.9 245.633h-45.866v-50.293a83.934 83.934 0 0 1 -9.058-5.962 84.043 84.043 0 0 1 -9.059 5.962v50.293h-44.71c.43 5.312 1.074 11.377 2.026 18.117h42.684v63.788a58.225 58.225 0 0 0 9.059 3.531 58.24 58.24 0 0 0 9.058-3.531v-63.788h43.842c.952-6.74 1.596-12.805 2.024-18.117z" fill="#f75e5e"/><circle cx="272.687" cy="288.64" fill="#525c68" r="4"/><path d="m201.384 247.317-.4-2.465a.847.847 0 0 0 -1.68.065c-.086 1.1-.158 2.247-.2 3.359 0 0-3.373 20.241 12.672 28.711 1.618-1.9 6.039-7.064 7.97-8.8q-1.275-.372-2.438-.822a25.754 25.754 0 0 1 -15.924-20.048z" fill="#e07d73"/><path d="m114.524 118.378-40.13-9.65a2.589 2.589 0 0 0 -2.744 3.977c1.051 1.549 2.33 3.319 3.808 5.156a6.774 6.774 0 0 1 -5.56 11.032 43.1 43.1 0 0 1 -15.756-3.928 29.4 29.4 0 0 0 6.858 7.148c5.851 4.3 14.477 7.541 27.1 6.888 16.754-.866 23.685-10.828 26.424-20.623z" fill="#94a6c1"/><path d="m71.563 106.822s19.334-10.563 34-35.1l19.237 22.529s-24.251 20.108-53.237 12.571z" fill="#94a6c1"/><path d="m67.477 106.3s32.119.669 58.886-15.168c0 0 6.691 25.428-8.7 44.165 0-.004-32.119-6.919-50.186-28.997z" fill="#ecf7ff"/><path d="m285.742 196.92a7.122 7.122 0 0 1 -6.81 4.117c-19.15-2.006-28.7-20.062-28.7-20.062-7.357 13.5-5.409 22.433-5.409 22.433-5.471-18.6-23.648-33.582-23.655-33.587 4 4.4 9.4 12.79 10.228 26.6a23.025 23.025 0 0 0 11.353 18.7 40.637 40.637 0 0 0 14.78 4.7s-5.2-7.139-3.353-20.893c0 0 13.671 25.535 42.3 8a35.947 35.947 0 0 1 -10.734-10.008z" fill="#525c68"/><path d="m180.886 137.886c6.877.292 15.652-1.315 25.721-7.591 24.745-15.422 107.928-107.426 107.928-107.426s.992-1.131 2.57-3.24l-123.252 108.188s-5.007 4.064-12.967 10.069z" fill="#ecf7ff"/><path d="m125.814 245.633h-43.78l-18.117 18.117v61.5a58.3 58.3 0 0 0 9.059 3.532 58.32 58.32 0 0 0 9.058-3.532v-61.5h41.754c.952-6.74 1.596-12.805 2.026-18.117z" fill="#c44444"/><g fill="#313844"><path d="m13.233 106.583a33.909 33.909 0 0 0 7.976 45.3c.861.647 5.691 3.443 8.2.543 2.682-3.1-2.718-6.433-3.386-6.936a25.878 25.878 0 0 1 -6.06-34.577c3.092-4.8 6.642-6.288 6.744-6.331a4 4 0 0 0 .41-7.3c-6.762-3.46-7.414-10.82-7.434-11.059-.594-11.277 8.19-12.755 9.927-12.934.05 0 .1-.023.145-.029s.1 0 .147-.008a12.116 12.116 0 0 1 6.26.968 4 4 0 0 0 3.416-7.234 19.371 19.371 0 0 0 -6.929-1.761 10.741 10.741 0 0 1 5.443-10.479c.033-.016.066-.032.1-.049 11.938-6.13 19.418 3.177 20.219 4.24a4 4 0 0 0 7.223-2.291l.011-.357a6.524 6.524 0 0 1 5.055-6.177 6.261 6.261 0 0 1 7.119 2.819c.094.153.182.307.264.459a11.132 11.132 0 0 1 1.281 4.893 23.328 23.328 0 0 0 1.357 7.174 38.9 38.9 0 0 0 -24.655 11.543c-7.466 7.7-11.429 17.952-11.454 29.662a35.42 35.42 0 0 0 14.022 28.673 36.367 36.367 0 0 0 4.272 2.7l-.273 3.919c-7.7 2.307-14.077 6.049-18.6 10.939a16.315 16.315 0 0 0 -4.978 1.7c-8.948 4.818-13.4 13.92-15.567 20.708a12.381 12.381 0 0 0 .534 8.872 49.131 49.131 0 0 0 -3.253 12.984 4.226 4.226 0 0 0 3.98 4.446 4 4 0 0 0 3.97-3.556 42.174 42.174 0 0 1 1.553-7.574 98.97 98.97 0 0 0 12.221 5.35 4 4 0 1 0 2.723-7.522 90.3 90.3 0 0 1 -11.879-5.244 4.519 4.519 0 0 1 -2.226-5.328c1.715-5.381 5.142-12.541 11.737-16.092a8.436 8.436 0 0 1 6.817-.5c7.043 2.5 19.973 8.519 27.431 20.682a4 4 0 0 0 6.821-4.182c-8.019-13.075-21.105-19.97-29.423-23.229a36.119 36.119 0 0 1 7.639-3.861 3.982 3.982 0 0 0 .27 1.027c.5 1.182 5.561 12.477 32.194 15.945 1.529.2 4.587.2 4.636-3.949v-7.88c10.55 10.714 16.793 24.643 18.563 41.526a4 4 0 1 0 7.956-.834 91.974 91.974 0 0 0 -2-11.793l3.365-1.512a13.16 13.16 0 0 0 7.283-15.477c-5.723-20.14-22.019-26.016-32.684-27.666a28.718 28.718 0 0 0 5.708-3.425 93.657 93.657 0 0 0 9.4 2.7 3.952 3.952 0 0 0 .842.09 4 4 0 0 0 3.09-1.461c16.5-20.086 9.771-46.6 9.477-47.722a3.986 3.986 0 0 0 -5.812-2.465l-15.821-18.526a4 4 0 0 0 -6.476.546c-.027.046-.057.092-.085.138a32.905 32.905 0 0 0 -12.24-4.13 13.236 13.236 0 0 1 -2.444-7.686 19.186 19.186 0 0 0 -2.245-8.421q-.216-.4-.464-.806a14.174 14.174 0 0 0 -15.952-6.4 14.594 14.594 0 0 0 -9.094 6.766c-5.715-4.08-14.6-6.906-25.023-1.576a18.858 18.858 0 0 0 -9.891 18.669c-6.224 2.085-13.655 7.892-12.993 20.461a23.328 23.328 0 0 0 6.59 14 27.766 27.766 0 0 0 -5.05 5.897zm56.93 42.39.541-7.77c4.327 1.251 15.771 2.259 20.526 1.545v16.02c-14.539-3.08-19.648-8.022-21.067-9.795zm56.542 20.808a5.116 5.116 0 0 1 -2.867 6l-2.354 1.058a70.59 70.59 0 0 0 -18.384-28.552c8.938 1.905 19.558 7.253 23.605 21.494zm-10.612-39.012c-6.63-1.811-25.542-7.841-39.661-20.824 10.732-.839 29.36-3.608 46.942-12.607.879 7.492 1.082 21.711-7.281 33.431zm-28.8-36.022a4 4 0 0 0 5.656-.079 113.489 113.489 0 0 0 13.1-16.219l11.121 13.02c-23.733 11.179-49.319 10.831-49.612 10.831a4 4 0 0 0 -3.177 6.532c9.611 11.748 22.794 19.35 33.546 24.016a29.506 29.506 0 0 1 -10.027 2.159c-10.045.518-18.3-1.538-24.526-6.116a27.4 27.4 0 0 1 -10.762-22.212c.021-9.731 3.114-17.842 9.194-24.105a31.4 31.4 0 0 1 24.82-9.192 25.821 25.821 0 0 1 11.026 3.139 105.432 105.432 0 0 1 -10.438 12.57 4 4 0 0 0 .079 5.656z"/><path d="m138.446 208.88a4 4 0 0 0 5.509-1.29 27.309 27.309 0 0 1 14.932-11.89 46.051 46.051 0 0 1 -2.035 7.418 3.9 3.9 0 0 0 2.328 5.156 4.158 4.158 0 0 0 5.155-2.328 60.242 60.242 0 0 0 3.281-14.759c2.814-17.816 17.414-18.418 18.009-18.435a4 4 0 0 0 3.6-2.366c5.238-11.71 12.2-19.1 20.7-21.971 11.553-3.9 22.411 1.9 22.508 1.954a4 4 0 0 0 2.819.4c9.926-2.241 18.171-1.268 24.506 2.894 7.65 5.025 12.869 14.689 15.514 28.724a42.012 42.012 0 0 0 13.7 24c-6.09 2.7-11.755 3.372-16.9 2-9.455-2.523-14.322-11.269-14.364-11.343a4 4 0 0 0 -7.491 1.356 41.408 41.408 0 0 0 .748 15.913 31.507 31.507 0 0 1 -6.229-2.666 18.925 18.925 0 0 1 -9.341-15.47c-1.453-24.112-15.9-33.287-16.514-33.665a4 4 0 0 0 -4.4.135c-17.189 12.117-15.019 35.228-14.831 36.937 1.257 14.575-3.568 21.731-12.534 28.128a23.106 23.106 0 0 1 -4.8-7.043l1.292-4.409a4 4 0 1 0 -7.677-2.25l-1.663 5.674c-.154.494-6.2 19.867-9.192 27.585-1.84 4.754-2.168 10.468-2.062 14.835-9.3-5.046-10.047-12.284-10.076-12.6a4 4 0 0 0 -7.938-.434c-1.936 11.273-6.313 20.633-13.01 27.82a4 4 0 0 0 5.853 5.454 57.163 57.163 0 0 0 12.193-20.657c3.123 3.878 8.155 7.857 16.263 10.442a4 4 0 0 0 5.168-4.426c-.457-2.934-1.155-11.8 1.067-17.544 1.79-4.623 4.542-12.971 6.6-19.377a27.154 27.154 0 0 0 5.385 5.187 4 4 0 0 0 4.523.1c8.7-5.682 16.713-12.918 18.442-26.62.336.15 4.139 1.593 6.149-2.022 1.074-1.93-.355-4.368-2.438-5.1a5.728 5.728 0 0 1 -3.62-3.814c-.174-2.08-1.129-18.06 9.21-27.482 3.18 2.966 8.92 9.978 10.377 22.854a37.3 37.3 0 0 0 -2.683-2.892 15.9 15.9 0 0 1 -4.223-6.346 4 4 0 0 0 -7.6 2.5 23.891 23.891 0 0 0 6.255 9.591 27.584 27.584 0 0 1 4.76 6.08c-2.467 2.042-4.935 4.171-7.381 6.391a13.169 13.169 0 0 0 -2.024 17.066c.355.524 2.789 3.2 3.909 3.35a4 4 0 0 0 3.112-.921 11.776 11.776 0 1 1 14.421 18.588 4 4 0 0 0 -.744 5.847c3.349 3.961 6.9 8 10.576 12.083a98.681 98.681 0 0 1 -5.155 12.542c-9.777-9.4-29.724-14.51-35.056-31.084l-1.405-8.71a4 4 0 0 0 -7.9 1.274l1.405 8.71a29.99 29.99 0 0 0 15.245 21.672 86.228 86.228 0 0 0 -10.674 14.955 147.314 147.314 0 0 1 -17.742 24.953 4 4 0 0 0 5.938 5.361 155.323 155.323 0 0 0 18.757-26.358c.017-.03.037-.064.053-.1a77.664 77.664 0 0 1 11.494-15.437 66.227 66.227 0 0 1 15.921 12.1 95.86 95.86 0 0 1 -6.258 9.288c-15.486 20.249-35.959 29.883-60.878 28.632-.016 0-.032 0-.048 0s-.029-.006-.044-.006c-17.9-.486-32.216-5.732-42.556-15.594a4 4 0 1 0 -5.521 5.79c11.8 11.252 27.868 17.238 47.761 17.8h.007q2.28.114 4.519.114c25.367 0 47.118-10.961 63.114-31.877a110.472 110.472 0 0 0 15.152-27.347c.621.667 1.228 1.331 1.856 2a13.845 13.845 0 0 0 10.111 4.383 14.1 14.1 0 0 0 6.186-1.438 35.981 35.981 0 0 1 14.127-3.72c.031 0 .061-.007.092-.009 1.545 6 2.831 11.109 3.275 14.022a10.276 10.276 0 0 1 -.289 4.519c-4.061 13.315-16.818 13.441-26.8 11.2a5.267 5.267 0 0 1 -3.612-2.816c-.867-1.77-1.809-3.527-2.8-5.222a4 4 0 1 0 -6.906 4.037c.892 1.527 1.741 3.11 2.521 4.7a13.232 13.232 0 0 0 9.047 7.1 49.305 49.305 0 0 0 10.735 1.275c12.844 0 21.9-6.244 25.469-17.95a18.318 18.318 0 0 0 .545-8.059c-.555-3.641-2.059-9.477-3.966-16.866l-.2-.792a8.142 8.142 0 0 0 .322-5.836l-3.668-11.461a52.969 52.969 0 0 1 -2.357-12.027l-1.745-22.48a45.662 45.662 0 0 0 14.965-6.135 4.008 4.008 0 0 0 -.182-6.926 33.5 33.5 0 0 1 -15.259-22.5c-3.061-16.25-9.165-28.118-18.982-33.928-13.344-7.9-24.461-3.521-30.134-4.695l97.326-129.94a4 4 0 0 0 -5.84-5.4l-134.232 117.822a593.085 593.085 0 0 1 -50.623 36.224 4 4 0 1 0 4.255 6.774 602.722 602.722 0 0 0 51.468-36.833c.04-.033.08-.066.118-.1l105.426-92.541-76.041 101.526a35.992 35.992 0 0 0 -18.4.993c-10.183 3.4-18.435 11.524-24.556 24.171-7.561 1.107-19.06 6.675-22.656 22.141a35.085 35.085 0 0 0 -23.1 16.258 4 4 0 0 0 1.281 5.509zm145.206 56.255c-.913.034-1.809.1-2.686.2l-5.5-15.484a47.891 47.891 0 0 1 -2.406-10.219l-1.575-12.948a4 4 0 1 0 -7.941.966l1.575 12.947a55.788 55.788 0 0 0 2.809 11.933l5.139 14.47a47.586 47.586 0 0 0 -6.752 2.662 5.936 5.936 0 0 1 -6.962-1.235c-5.546-5.9-10.834-11.771-15.758-17.5a19.772 19.772 0 0 0 -23.476-30.964 5.121 5.121 0 0 1 1.552-4.829c2.889-2.623 5.807-5.123 8.714-7.477a26.252 26.252 0 0 0 10.388 10.943 44.843 44.843 0 0 0 16.219 5.191 4.015 4.015 0 0 0 3.8-6.28 19.731 19.731 0 0 1 -2.633-7.727 30.3 30.3 0 0 0 11.736 6.305 28.588 28.588 0 0 0 5.728.933l1.75 22.554a61.121 61.121 0 0 0 2.715 13.845l3.668 11.461c.009.025.035.106-.104.253z"/><path d="m74 334.062c1.937 0 45.919-13.549 53.244-56.4 6.976-40.816 5.352-65.832 5.279-66.877a4 4 0 0 0 -3.6-3.7c-.287-.028-29-3-53.528-21.579a4 4 0 0 0 -4.831 0c-24.447 18.524-53.244 21.551-53.528 21.579a4 4 0 0 0 -3.605 3.7c-.073 1.044-1.7 26.06 5.279 66.876 7.321 42.852 52.927 56.401 55.29 56.401zm49.786-92.972h-37.386v-39.229a129.4 129.4 0 0 0 38.266 12.715c.112 4.531.122 13.674-.879 26.514zm-50.81-47.436q2.7 1.928 5.426 3.627v47.809a4 4 0 0 0 4 4h40.669q-.516 5.13-1.251 10.854h-39.42a4 4 0 0 0 -4 4v46.372a4 4 0 0 0 8 0v-42.372h34.3c-2.568 27.457-29.411 53.223-47.725 57.182-1.091-.348-3-1.008-5.427-2.018v-59.164a4 4 0 0 0 -4-4h-39.417q-.741-5.72-1.251-10.854h40.669a4 4 0 0 0 4-4v-47.809q2.723-1.707 5.427-3.627zm-51.693 20.922a129.367 129.367 0 0 0 38.266-12.716v39.23h-37.385c-1.001-12.84-.991-21.984-.881-26.514zm3.967 53.368h34.3v51.317c-13.784-6.63-31.271-20.427-34.3-51.317z"/><path d="m231.352 242.609a4 4 0 0 0 3.8-5.266l-1.178-3.531a4 4 0 0 0 -7.59 2.531l1.178 3.531a4 4 0 0 0 3.79 2.735z"/><path d="m115.288 107.367a4 4 0 0 0 -4.733 3.1 44.148 44.148 0 0 1 -2.211 7.412 4 4 0 1 0 7.4 3.054 52.383 52.383 0 0 0 2.647-8.832 4 4 0 0 0 -3.103-4.734z"/><path d="m103.531 108.038a4 4 0 0 0 -4.855 2.9c-.276 1.1-.582 2.158-.908 3.15a3.97 3.97 0 0 0 2.547 5.05 4.166 4.166 0 0 0 5.051-2.547c.386-1.173.746-2.418 1.069-3.7a4 4 0 0 0 -2.904-4.853z"/><circle cx="272.687" cy="288.64" r="4"/></g></svg>