<svg id="Layer_1" height="512" viewBox="0 0 64 64" width="512" xmlns="http://www.w3.org/2000/svg" data-name="Layer 1"><path d="m19.578 18.5c.623-1.745 2.335-.883 3.483-.014l-.018 5.463a9.09 9.09 0 0 0 .055 1 9.875 9.875 0 0 1 -1.013-.3c-2.107-.719-3.393-3.665-2.507-6.149z" fill="#ffbbb7"/><path d="m44.472 18.5c-.623-1.745-2.318-.885-3.466-.017l-.053 5.407a9.849 9.849 0 0 1 -.059 1.045 9.715 9.715 0 0 0 1.07-.281c2.108-.724 3.394-3.67 2.508-6.154z" fill="#ffbbb7"/><rect fill="#c27e72" height="12.583" rx="2" width="47.638" x="8.181" y="26.599"/><path d="m53.819 26.6h-.284a1.994 1.994 0 0 1 .034.34v8.583a2 2 0 0 1 -2 2h-43.354a2 2 0 0 0 1.966 1.66h43.638a2 2 0 0 0 2-2v-8.583a2 2 0 0 0 -2-2z" fill="#bb765c"/><path d="m53.819 26.6h-.284a1.994 1.994 0 0 1 .034.34v8.583a2 2 0 0 1 -2 2h-43.354a2 2 0 0 0 1.966 1.66h43.638a2 2 0 0 0 2-2v-8.583a2 2 0 0 0 -2-2z" fill="#bb765c"/><ellipse cx="41.162" cy="21.393" fill="#ffb2ad" rx="2.507" ry="1.662" transform="matrix(.459 -.889 .889 .459 3.267 48.15)"/><ellipse cx="22.889" cy="21.393" fill="#ffb2ad" rx="1.662" ry="2.507" transform="matrix(.889 -.459 .459 .889 -7.265 12.888)"/><path d="m46.613 39.44-6.58-2.335a10.612 10.612 0 0 1 -16.1-.1l-6.568 2.4a8.6 8.6 0 0 0 -5.65 8.08v12.666h40.623v-12.6a8.6 8.6 0 0 0 -5.725-8.111z" fill="#ffe17f"/><path d="m21.46 60.151.611-23.151a.484.484 0 0 0 -.587-.486l-2.6.564a1.648 1.648 0 0 0 -1.3 1.656l.584 21.42z" fill="#46b3cc"/><path d="m45.862 60.151.584-21.42a1.648 1.648 0 0 0 -1.3-1.656l-2.6-.564a.484.484 0 0 0 -.587.486l.611 23.154z" fill="#46b3cc"/><path d="m32.025 40.755a10.6 10.6 0 0 0 8.007-3.65 3.2 3.2 0 0 1 -2.132-3.019v-4.267a12.24 12.24 0 0 1 -4.276 2.886 4.4 4.4 0 0 1 -1.193.22 5.5 5.5 0 0 1 -2-.219 12.236 12.236 0 0 1 -4.278-2.887v4.016a3.379 3.379 0 0 1 -2.219 3.173 10.606 10.606 0 0 0 8.091 3.747z" fill="#ffb09e"/><path d="m32.431 32.925a5.5 5.5 0 0 1 -2-.219 12.236 12.236 0 0 1 -4.278-2.887v2a13.763 13.763 0 0 0 5.079 3.459 7.126 7.126 0 0 0 4.141 0 10.337 10.337 0 0 0 2.527-1.313v-4.146a12.24 12.24 0 0 1 -4.276 2.886 4.4 4.4 0 0 1 -1.193.22z" fill="#ffa691"/><path d="m40.99 24.94a8.94 8.94 0 0 1 -2.41 5.2 13.5 13.5 0 0 1 -4.96 3.57 5.646 5.646 0 0 1 -3.19 0 13.5 13.5 0 0 1 -4.96-3.57 8.941 8.941 0 0 1 -2.41-5.2c-.207-1.04-.083-6.49-.093-6.49-1.33-3.29-2.317-7.27-.187-8.72 0 0-.26-6.19 9.43-5.87 4.26.14 6.4 1.17 8.13 3.63a9.679 9.679 0 0 1 1.5 4.14 14.857 14.857 0 0 1 -.8 6.8l.01.03a41.45 41.45 0 0 1 -.06 6.48z" fill="#ffc6b7"/><path d="m41.04 18.43a14.857 14.857 0 0 0 .8-6.8 9.679 9.679 0 0 0 -1.5-4.14 8.374 8.374 0 0 0 -1.686-1.8c.1.133.211.255.311.4a9.679 9.679 0 0 1 1.5 4.14 26.177 26.177 0 0 1 -.79 6.83 41.45 41.45 0 0 1 -.06 6.48 8.94 8.94 0 0 1 -2.41 5.2 13.5 13.5 0 0 1 -4.96 3.57 5.646 5.646 0 0 1 -3.19 0 11.55 11.55 0 0 1 -3.893-2.519c.1.118.2.238.308.351a13.5 13.5 0 0 0 4.96 3.57 5.646 5.646 0 0 0 3.19 0 13.5 13.5 0 0 0 4.96-3.57 8.94 8.94 0 0 0 2.41-5.2 41.45 41.45 0 0 0 .06-6.48z" fill="#ffb8a6"/><path d="m52.188 21.428c-1.47-1.5-3.976-4.515-4.089-7.726a5.228 5.228 0 0 1 4.992-5.365 5.144 5.144 0 0 1 5.291 5.141c0 3.3-2.6 6.43-4.1 7.961a1.463 1.463 0 0 1 -2.094-.011z" fill="#ff4a4a"/><path d="m55.174 8.715a5.121 5.121 0 0 1 1.614 3.732c0 3.3-2.6 6.43-4.1 7.961a1.441 1.441 0 0 1 -1.047.433c.194.213.381.413.552.587a1.463 1.463 0 0 0 2.089.011c1.5-1.531 4.1-4.659 4.1-7.961a5.143 5.143 0 0 0 -3.208-4.763z" fill="#e7343f"/><circle cx="53.239" cy="13.51" fill="#fff" r="2.285"/><path d="m23 18.459 1.156-2.275c-.359-4.624 1.268-5.445 2.983-6.228s4.885.709 4.885.709 3.17-1.492 4.885-.709 3.343 1.6 2.983 6.228l1.143 2.249a14.857 14.857 0 0 0 .8-6.8 9.662 9.662 0 0 0 -1.5-4.14c-1.722-2.467-3.865-3.493-8.123-3.632-9.7-.32-9.435 5.868-9.435 5.868-2.137 1.457-1.12 5.458.224 8.759z" fill="#83718c"/><path d="m8.232 58.151v-14.469l10.77 4 13.024-4 13.024 4 10.77-4v14.469a2 2 0 0 1 -2 2h-43.588a2 2 0 0 1 -2-2z" fill="#bbec6a"/><path d="m52.169 60.151h1.65a2 2 0 0 0 2-2v-14.469l-3.65 1.356z" fill="#66b373"/><path d="m31.982 60.151h13.072v-12.471l-.005.002-13.023-4-.044.014z" fill="#4ce166"/><path d="m18.946 47.662-10.714-3.98v14.469a2 2 0 0 0 2 2h8.714z" fill="#4ce166"/><path d="m49.096 26.599h3.279v12.583h-3.279z" fill="#ffe7cc"/><path d="m11.654 26.599h3.279v12.583h-3.279z" fill="#ffe7cc"/><path d="m58.606 56.724h-2.875a3.562 3.562 0 0 1 -3.562-3.562 3.562 3.562 0 0 1 3.562-3.562h2.875a13.182 13.182 0 0 1 0 7.125z" fill="#ffcebf"/><path d="m5.394 56.724h2.875a3.562 3.562 0 0 0 3.562-3.562 3.562 3.562 0 0 0 -3.562-3.562h-2.875a13.182 13.182 0 0 0 0 7.125z" fill="#ffcebf"/><path d="m58.606 49.6h-1.247a13.317 13.317 0 0 1 .085 2.08 3.181 3.181 0 0 1 -3.185 3.045h-.167a3.524 3.524 0 0 1 -1.735-.469 3.551 3.551 0 0 0 3.373 2.469h2.875a13.181 13.181 0 0 0 .001-7.125z" fill="#ffb8a6"/><path d="m5.394 49.6h1.247a13.317 13.317 0 0 0 -.085 2.08 3.181 3.181 0 0 0 3.185 3.045h.167a3.524 3.524 0 0 0 1.735-.469 3.551 3.551 0 0 1 -3.373 2.469h-2.876a13.181 13.181 0 0 1 0-7.125z" fill="#ffb8a6"/><path d="m23 18.46v.03c-.01-.01-.01-.03-.02-.04.01 0 .01.01.02.01z" fill="#ffbaa8"/><path d="m23 18.46v.03c-.01-.01-.01-.03-.02-.04.01 0 .01.01.02.01z" fill="#ffbaa8"/><path d="m51.569 37.522h-2.469v1.66h3.279v-1.832a1.988 1.988 0 0 1 -.81.172z" fill="#ffd9ad"/><path d="m11.654 37.522h3.279v1.66h-3.279z" fill="#ffd9ad"/><path d="m12.251 29.572v3.628a1 1 0 0 0 2 0v-3.628a1 1 0 0 0 -2 0z" fill="#fffdfa"/><circle cx="13.294" cy="36.166" fill="#fffdfa" r="1.043"/><path d="m53.242 22.873a2.431 2.431 0 0 0 1.748-.732c1.64-1.671 4.391-5.018 4.391-8.662a6.11 6.11 0 0 0 -10.581-4.194 6.237 6.237 0 0 0 -1.7 4.452c.125 3.544 2.794 6.778 4.375 8.391a2.461 2.461 0 0 0 1.767.745zm-2.989-12.219a4.12 4.12 0 0 1 7.128 2.825c0 2.933-2.392 5.808-3.818 7.26a.468.468 0 0 1 -.661-.011c-1.377-1.405-3.7-4.191-3.8-7.061a4.225 4.225 0 0 1 1.151-3.013zm6.27 2.856a3.285 3.285 0 1 0 -3.285 3.285 3.289 3.289 0 0 0 3.285-3.285zm-4.57 0a1.285 1.285 0 1 1 1.285 1.285 1.287 1.287 0 0 1 -1.284-1.285zm7.616 35.819a1 1 0 0 0 -.963-.73h-1.787v-4.916a1 1 0 0 0 -1.348-.937l-2.9 1.076a9.657 9.657 0 0 0 -2.691-3.639h3.938a3 3 0 0 0 3-3v-8.583a3 3 0 0 0 -3-3h-11.518a5.052 5.052 0 0 0 2.831-2.676 6.226 6.226 0 0 0 .285-4.755 2.359 2.359 0 0 0 -1.52-1.589 2.5 2.5 0 0 0 -1.291-.017 16.58 16.58 0 0 0 .233-5.01 10.619 10.619 0 0 0 -1.675-4.631c-1.942-2.773-4.442-3.912-8.917-4.06-3.9-.129-6.809.734-8.623 2.565a6.369 6.369 0 0 0 -1.819 3.8c-1.46 1.34-1.633 3.8-.553 7.315a2.428 2.428 0 0 0 -1.1.04 2.362 2.362 0 0 0 -1.51 1.585 6.229 6.229 0 0 0 .285 4.756 5.053 5.053 0 0 0 2.826 2.677h-11.571a3 3 0 0 0 -3 3v8.583a3 3 0 0 0 3 3h3.919a9.663 9.663 0 0 0 -2.648 3.64l-2.869-1.077a1 1 0 0 0 -1.351.937v4.917h-1.838a1 1 0 0 0 -.963.73 14.181 14.181 0 0 0 0 7.665 1 1 0 0 0 .963.73h1.838v2.427a1 1 0 0 0 1 1h47.587a1 1 0 0 0 1-1v-2.428h1.787a1 1 0 0 0 .963-.73 14.181 14.181 0 0 0 0-7.665zm-8.869-4.812-3.446 1.283.134-4.9a7.653 7.653 0 0 1 3.312 3.617zm-18.382-1.79a1 1 0 0 0 -.587 0l-8.884 2.728.186-7.053.626-.229a11.553 11.553 0 0 0 16.641.089l.7.247.183 6.94zm-7.573-11.9c.135.142.27.273.4.408v2.6a2.386 2.386 0 0 1 -1.562 2.234l-.68.249a1.469 1.469 0 0 0 -1.635-.784l-2.6.564a2.646 2.646 0 0 0 -2.031 2.085h-.7v-10.583h6.753a9.91 9.91 0 0 0 2.056 3.227zm2.81-19.961c.972-.442 3.145.283 4.045.7a1 1 0 0 0 .85 0c.9-.421 3.075-1.146 4.045-.7 1.516.692 2.712 1.238 2.4 5.241a1 1 0 0 0 .105.53l1.05 2.063v5.239a7.945 7.945 0 0 1 -2.193 5.51 12.334 12.334 0 0 1 -4.551 3.311 4.657 4.657 0 0 1 -2.561 0 12.347 12.347 0 0 1 -4.552-3.311 7.946 7.946 0 0 1 -2.193-5.512v-5.237l1.048-2.062a1 1 0 0 0 .105-.531c-.31-4.007.887-4.549 2.403-5.241zm17.805 25.234-2.6-.563a1.474 1.474 0 0 0 -1.682.88l-.709-.252a2.207 2.207 0 0 1 -1.469-2.079v-2.851c.135-.135.269-.266.4-.408a9.906 9.906 0 0 0 2.061-3.227h6.739v10.583h-.7a2.647 2.647 0 0 0 -2.04-2.083zm-6.943 1.22a9.6 9.6 0 0 1 -12.884-.086 4.4 4.4 0 0 0 1.617-3.4v-.834a10.519 10.519 0 0 0 2.96 1.652 6.655 6.655 0 0 0 3.829 0 10.517 10.517 0 0 0 2.961-1.652v1.084a4.21 4.21 0 0 0 1.517 3.233zm-19.617 9.256-.217-7.876a.648.648 0 0 1 .511-.65l1.96-.425-.222 8.446-1.853.569zm24.4-.508-.222-8.44 1.96.424a.65.65 0 0 1 .511.651l-.214 7.844-.214.079zm11.619-17.468v8.583a1 1 0 0 1 -1 1h-.444v-10.583h.444a1 1 0 0 1 1 1zm-3.444-1v10.583h-1.275v-10.583zm-8.069-9.108c.068.021.156.158.224.35a4.268 4.268 0 0 1 -.2 3.217 3.349 3.349 0 0 1 -1.276 1.453v-4.52c.694-.454 1.121-.539 1.252-.501zm-19.966-7.937a1 1 0 0 0 .436-.868 4.271 4.271 0 0 1 1.267-2.853c1.387-1.4 3.863-2.077 7.136-1.974 3.853.127 5.774.967 7.344 3.208a8.634 8.634 0 0 1 1.32 3.648 18.793 18.793 0 0 1 .062 2.307 5.206 5.206 0 0 0 -3.578-4.978c-1.721-.786-4.269.1-5.3.527-1.033-.425-3.581-1.314-5.3-.527-2.121.968-3.855 2.163-3.59 6.825-.83-2.739-.781-4.644.203-5.315zm-2.616 11.5a4.269 4.269 0 0 1 -.2-3.217c.068-.191.156-.329.224-.35.127-.038.554.041 1.257.5v4.521a3.351 3.351 0 0 1 -1.281-1.451zm-11.543 15.128v-8.583a1 1 0 0 1 1-1h.474v10.583h-.474a1 1 0 0 1 -1-1zm3.474 1v-10.583h1.279v10.583zm3.986 2.665.136 4.97-3.452-1.294a7.662 7.662 0 0 1 3.315-3.676zm-10.465 9.752h2.093a2.563 2.563 0 1 1 0 5.125h-2.093a12.186 12.186 0 0 1 0-5.125zm12.77 2.848a1 1 0 0 0 -1 1v4.7h-8.714v-1.531a4.558 4.558 0 0 0 0-8.911v-3.581l9.363 3.511a1.011 1.011 0 0 0 .645.02l11.786-3.62v14.115h-11.08v-4.7a1 1 0 0 0 -1-1.004zm14.08 5.7v-14.112l11.029 3.388v4.159a1 1 0 0 0 2 0v-4.207l8.765-3.256v3.571a4.562 4.562 0 0 0 0 8.94v1.519zm24.8-3.427h-2.095a2.563 2.563 0 0 1 0-5.125h2.093a12.186 12.186 0 0 1 0 5.128zm-37.88-4.459a1 1 0 1 1 -1-1 1 1 0 0 1 1 1zm26.109 4.505a1 1 0 1 1 -1-1 1 1 0 0 1 .999 1.001z"/></svg>